<svg width="18" height="18" viewBox="0 0 18 18" fill="none" xmlns="http://www.w3.org/2000/svg">
<path d="M9 0C4.5888 0 1 3.5888 1 8C1 12.4112 4.5888 16 9 16C13.4112 16 17 12.4112 17 8C17 3.5888 13.4112 0 9 0ZM15.3448 7.2H13.1336C13.0341 5.44913 12.5443 3.74268 11.7 2.2056C12.6795 2.66306 13.5273 3.36088 14.1646 4.23413C14.8019 5.10737 15.2079 6.12765 15.3448 7.2ZM9.424 1.6216C10.252 2.7128 11.3656 4.6456 11.5256 7.2H6.624C6.7352 5.1232 7.4192 3.1776 8.5848 1.6208C8.7224 1.6128 8.86 1.6 9 1.6C9.1432 1.6 9.2832 1.6128 9.424 1.6216ZM6.3504 2.1816C5.5632 3.6944 5.1088 5.4096 5.024 7.2H2.6552C2.79319 6.1182 3.205 5.08951 3.85163 4.21133C4.49827 3.33314 5.35833 2.63452 6.3504 2.1816ZM2.6552 8.8H5.0344C5.1432 10.7032 5.5664 12.3824 6.2792 13.784C5.30495 13.3248 4.46218 12.6273 3.82877 11.7562C3.19535 10.8851 2.79173 9.86837 2.6552 8.8ZM8.56 14.3784C7.4392 13.02 6.7776 11.1168 6.6328 8.8H11.5232C11.3568 11.0184 10.6296 12.9568 9.4408 14.3776C9.2952 14.3872 9.1496 14.4 9 14.4C8.8512 14.4 8.7064 14.3872 8.56 14.3784ZM11.7688 13.7608C12.5328 12.3256 12.9992 10.64 13.1216 8.8H15.344C15.2093 9.85954 14.8117 10.8685 14.1872 11.735C13.5627 12.6015 12.7313 13.2979 11.7688 13.7608Z" fill="#053870"/>
</svg>
