<?xml version="1.0" encoding="UTF-8"?>
<svg version="1.1" xmlns="http://www.w3.org/2000/svg" width="1500" height="1500">
<path d="M0 0 C3.63991341 0.10529242 5.36249041 0.85516427 8.20235729 3.09263515 C8.20235729 3.75263515 8.20235729 4.41263515 8.20235729 5.09263515 C9.03766979 5.21638515 9.03766979 5.21638515 9.88985729 5.34263515 C12.89492047 6.31725024 14.77490551 8.10087985 17.20235729 10.09263515 C18.19235729 10.42263515 19.18235729 10.75263515 20.20235729 11.09263515 C21.2234028 12.0711371 22.22296939 13.07243942 23.20235729 14.09263515 C24.19235729 14.75263515 25.18235729 15.41263515 26.20235729 16.09263515 C26.20235729 16.75263515 26.20235729 17.41263515 26.20235729 18.09263515 C26.78662487 18.211954 27.37089245 18.33127285 27.9728651 18.45420742 C31.74230357 19.53360751 34.72611872 21.8559309 37.95235729 24.03013515 C38.99843151 24.71366055 38.99843151 24.71366055 40.06563854 25.41099453 C41.81712693 26.58150976 43.51505451 27.83135534 45.20235729 29.09263515 C45.20235729 29.75263515 45.20235729 30.41263515 45.20235729 31.09263515 C45.86235729 31.31951015 46.52235729 31.54638515 47.20235729 31.78013515 C51.08894357 33.48051665 54.83915547 35.488866 58.20235729 38.09263515 C58.20235729 38.75263515 58.20235729 39.41263515 58.20235729 40.09263515 C60.67735729 41.08263515 60.67735729 41.08263515 63.20235729 42.09263515 C63.20235729 42.75263515 63.20235729 43.41263515 63.20235729 44.09263515 C64.04153698 44.13130703 64.04153698 44.13130703 64.89766979 44.17076015 C73.63413205 44.78877356 81.72597846 47.35348607 90.02682018 49.98960781 C98.2875395 52.58577984 106.60558569 54.78340207 115.01485729 56.84263515 C116.2916737 57.15845547 117.5684901 57.47427578 118.88399792 57.7996664 C121.98932372 58.56727503 125.09542867 59.33154513 128.20235729 60.09263515 C128.20235729 60.75263515 128.20235729 61.41263515 128.20235729 62.09263515 C129.23360729 62.11326015 130.26485729 62.13388515 131.32735729 62.15513515 C136.33202282 63.36594133 138.4983375 65.80384186 141.20235729 70.09263515 C141.20235729 70.75263515 141.20235729 71.41263515 141.20235729 72.09263515 C142.19235729 72.42263515 143.18235729 72.75263515 144.20235729 73.09263515 C145.95482691 75.05127766 147.57685088 77.03072431 149.20235729 79.09263515 C150.69817924 80.95017405 152.19852639 82.8040742 153.70235729 84.65513515 C154.80063854 86.01831875 154.80063854 86.01831875 155.92110729 87.4090414 C158.22437509 90.11853623 160.66988929 92.59834506 163.20235729 95.09263515 C166.20235729 98.71332481 166.20235729 98.71332481 166.20235729 101.09263515 C167.52235729 101.75263515 168.84235729 102.41263515 170.20235729 103.09263515 C170.20235729 104.08263515 170.20235729 105.07263515 170.20235729 106.09263515 C171.52235729 106.75263515 172.84235729 107.41263515 174.20235729 108.09263515 C174.20235729 108.75263515 174.20235729 109.41263515 174.20235729 110.09263515 C175.16141979 110.52576015 175.16141979 110.52576015 176.13985729 110.96763515 C178.20235729 112.09263515 178.20235729 112.09263515 179.20235729 114.09263515 C215.33735729 115.57763515 215.33735729 115.57763515 252.20235729 117.09263515 C252.20235729 117.75263515 252.20235729 118.41263515 252.20235729 119.09263515 C252.79261196 119.08543453 253.38286663 119.07823391 253.9910078 119.07081509 C273.00916968 118.87486431 291.95854569 119.4743183 310.9560194 120.26451015 C315.09447423 120.43643684 319.23328195 120.59713946 323.37229729 120.7549181 C326.62511787 120.88039152 329.87764734 121.01245311 333.13013172 121.14633465 C334.65553636 121.20825292 336.18102718 121.26809253 337.70660496 121.32558727 C347.64826931 121.70423436 357.3607306 122.60307658 367.20235729 124.09263515 C367.86235729 125.74263515 368.52235729 127.39263515 369.20235729 129.09263515 C369.86235729 129.09263515 370.52235729 129.09263515 371.20235729 129.09263515 C371.86235729 131.40263515 372.52235729 133.71263515 373.20235729 136.09263515 C373.86235729 136.09263515 374.52235729 136.09263515 375.20235729 136.09263515 C375.86235729 138.40263515 376.52235729 140.71263515 377.20235729 143.09263515 C377.86235729 143.09263515 378.52235729 143.09263515 379.20235729 143.09263515 C380.6629858 145.74002432 381.20235729 146.9871185 381.20235729 150.09263515 C381.86235729 150.09263515 382.52235729 150.09263515 383.20235729 150.09263515 C383.86235729 152.07263515 384.52235729 154.05263515 385.20235729 156.09263515 C385.86235729 156.09263515 386.52235729 156.09263515 387.20235729 156.09263515 C388.6629858 158.74002432 389.20235729 159.9871185 389.20235729 163.09263515 C389.86235729 163.09263515 390.52235729 163.09263515 391.20235729 163.09263515 C392.37412247 165.21496494 393.53990514 167.34021306 394.70235729 169.46763515 C395.03622448 170.0709164 395.37009167 170.67419765 395.71407604 171.29576015 C398.20235729 175.86607265 398.20235729 175.86607265 398.20235729 178.09263515 C398.86235729 178.09263515 399.52235729 178.09263515 400.20235729 178.09263515 C400.20235729 182.09263515 400.20235729 182.09263515 397.99141979 184.49888515 C397.07102917 185.35482265 396.15063854 186.21076015 395.20235729 187.09263515 C393.63533409 188.90434305 392.09335145 190.73801688 390.57735729 192.59263515 C389.44427135 193.9693539 389.44427135 193.9693539 388.28829479 195.37388515 C386.37640403 197.86578772 384.80465949 200.39785418 383.20235729 203.09263515 C381.57895924 204.80147521 379.90916676 206.46710232 378.20235729 208.09263515 C375.16846381 210.98541732 372.96257286 213.30140162 371.20235729 217.09263515 C370.54235729 217.42263515 369.88235729 217.75263515 369.20235729 218.09263515 C368.70735729 218.93826015 368.21235729 219.78388515 367.70235729 220.65513515 C366.95985729 221.86169765 366.95985729 221.86169765 366.20235729 223.09263515 C365.54235729 223.09263515 364.88235729 223.09263515 364.20235729 223.09263515 C363.54235729 224.41263515 362.88235729 225.73263515 362.20235729 227.09263515 C359.89235729 227.09263515 357.58235729 227.09263515 355.20235729 227.09263515 C355.20235729 227.75263515 355.20235729 228.41263515 355.20235729 229.09263515 C347.85545491 229.49008739 340.5082584 229.88158299 333.16066647 230.26608944 C329.74651163 230.44492993 326.33247662 230.625595 322.91866589 230.81089687 C307.33308509 231.65289628 291.81254414 232.34254624 276.20235729 232.09263515 C276.20235729 232.75263515 276.20235729 233.41263515 276.20235729 234.09263515 C233.97506014 236.48040322 233.97506014 236.48040322 216.20235729 236.09263515 C216.20235729 236.75263515 216.20235729 237.41263515 216.20235729 238.09263515 C215.09695347 238.14568058 215.09695347 238.14568058 213.96921825 238.19979763 C207.03798949 238.53324653 200.10699379 238.87120328 193.1762352 239.21427727 C189.61271184 239.39051159 186.04911988 239.56497656 182.48531628 239.73545742 C178.39203193 239.93134348 174.299156 240.13481766 170.20626354 240.3387289 C168.92087185 240.39918896 167.63548016 240.45964901 166.3111372 240.52194118 C165.12998837 240.58192791 163.94883953 240.64191463 162.73189831 240.70371914 C161.68599026 240.75479321 160.64008221 240.80586727 159.56247997 240.85848904 C157.24731507 240.83639619 157.24731507 240.83639619 156.20235729 242.09263515 C154.83574922 242.27478612 153.46058138 242.39349292 152.08492565 242.48496914 C151.20988888 242.54430126 150.3348521 242.60363338 149.43329906 242.66476345 C145.40295518 242.90728051 141.3722922 243.13873643 137.34029675 243.35215664 C135.21842857 243.47015511 133.09724291 243.60119872 130.9770155 243.74571133 C127.91634804 243.95355067 124.85584443 244.1191483 121.79220104 244.2762289 C120.85230831 244.34780712 119.91241558 244.41938534 118.94404125 244.49313259 C112.83656511 244.74684658 109.54766271 243.66582245 104.87302685 239.69164944 C103.76602869 238.6321306 102.67680874 237.55369568 101.60700512 236.45663357 C100.2268663 234.97894525 100.2268663 234.97894525 98.20235729 234.09263515 C98.20235729 233.43263515 98.20235729 232.77263515 98.20235729 232.09263515 C97.36704479 231.72138515 97.36704479 231.72138515 96.51485729 231.34263515 C92.10997815 228.9616194 88.69544419 225.63012569 85.20235729 222.09263515 C84.19634041 241.3901493 83.85109374 260.687559 83.52810764 280.00548244 C83.45253871 284.47186239 83.3727956 288.93816754 83.29329967 293.40447903 C83.0416118 307.58724254 82.79647521 321.77011787 82.55398226 335.95304137 C82.39370962 345.32487694 82.23079608 354.69665825 82.06287432 364.06836015 C81.96809658 369.37011037 81.87756477 374.67191065 81.79024029 379.97378862 C81.73521254 383.2572199 81.67633865 386.54057383 81.61637592 389.82391834 C81.58936012 391.34609621 81.56394183 392.86830338 81.54023075 394.39053631 C81.50768163 396.46587292 81.46943917 398.54102948 81.42977428 400.6162405 C81.40987186 401.77732421 81.38996944 402.93840792 81.36946392 404.13467598 C81.20235729 407.09263515 81.20235729 407.09263515 80.70235729 409.08100986 C79.98218118 411.97845883 80.02453638 414.77207549 79.9749403 417.75503445 C79.96254078 418.42336562 79.95014127 419.09169678 79.93736601 419.78028041 C79.89695219 422.0180533 79.86315761 424.25587708 79.82931042 426.4937582 C79.80164134 428.09862376 79.77354965 429.70348208 79.74506664 431.3083334 C79.68460215 434.76282524 79.62701017 438.2173489 79.57160473 441.67192554 C79.48394074 447.12921492 79.38917732 452.58636671 79.29329967 458.04351711 C79.07361778 470.60858347 78.86298802 483.17379844 78.65288067 495.73902798 C78.46016297 507.26237484 78.26553674 518.78567946 78.06287432 530.30885631 C77.96764197 535.73937701 77.87716227 541.16995034 77.79024029 546.60061014 C77.73534153 549.9702178 77.67642246 553.33974623 77.61637592 556.70926571 C77.58926389 558.27783836 77.5638561 559.84644149 77.54023075 561.41507053 C77.50789187 563.54721538 77.46960841 565.67917083 77.42977428 567.81118679 C77.40987186 569.00708777 77.38996944 570.20298876 77.36946392 571.43512917 C77.20235729 574.09263515 77.20235729 574.09263515 76.20235729 575.09263515 C76.07524981 577.18524738 76.01870914 579.28215189 75.98839855 581.37840176 C75.97741017 582.04260868 75.96642178 582.7068156 75.95510042 583.39115 C75.91913549 585.63339626 75.89016177 587.87568085 75.8610487 590.11802578 C75.83667191 591.71932068 75.81182471 593.32060848 75.78654003 594.92188931 C75.73269821 598.3796963 75.68170843 601.83752989 75.63273525 605.2954092 C75.5547121 610.76728177 75.46730725 616.2389788 75.37798595 621.71067715 C75.12513384 637.27369219 74.88051296 652.83680853 74.65548229 668.40025234 C74.53122297 676.98872252 74.39675627 685.57697057 74.25105131 694.16510439 C74.15941227 699.59921271 74.08020968 705.03331337 74.01019216 710.46774101 C73.96344433 713.85971323 73.90469076 717.25140004 73.84259129 720.64312267 C73.81626834 722.20989786 73.79478354 723.77676342 73.7786417 725.34367657 C73.57613104 744.38208541 73.57613104 744.38208541 68.01095104 750.5027914 C66.83725964 751.32070156 66.83725964 751.32070156 65.63985729 752.15513515 C64.4622987 753.00785 64.4622987 753.00785 63.26095104 753.8777914 C61.20235729 755.09263515 61.20235729 755.09263515 59.20235729 755.09263515 C58.54235729 756.41263515 57.88235729 757.73263515 57.20235729 759.09263515 C56.21235729 759.09263515 55.22235729 759.09263515 54.20235729 759.09263515 C53.87235729 760.08263515 53.54235729 761.07263515 53.20235729 762.09263515 C51.81100045 763.31835428 50.41100794 764.53661127 48.95626354 765.68638515 C46.4817579 767.67039859 44.1578727 769.81829121 41.81563854 771.9559164 C40.20235729 773.09263515 40.20235729 773.09263515 37.20235729 773.09263515 C36.87235729 774.08263515 36.54235729 775.07263515 36.20235729 776.09263515 C34.7448054 777.38823684 33.27939146 778.67875662 31.74141979 779.8777914 C30.07497629 781.1445034 30.07497629 781.1445034 28.26485729 783.03013515 C26.20235729 784.09263515 26.20235729 784.09263515 23.20235729 783.46763515 C22.60165417 783.25751797 22.00095104 783.04740078 21.38204479 782.8309164 C18.72977743 781.93256778 16.05138055 781.30321702 13.32735729 780.65513515 C7.44530971 779.19744217 1.78114486 777.3511099 -3.93045521 775.34263515 C-9.22390989 773.52123139 -14.54982651 772.11494133 -20.00076771 770.8387289 C-22.71533442 770.11459169 -25.19407392 769.13822838 -27.79764271 768.09263515 C-29.39299492 767.68174953 -30.99755635 767.3045935 -32.61014271 766.96763515 C-33.40033802 766.80005703 -34.19053333 766.6324789 -35.00467396 766.45982265 C-35.59635365 766.33865078 -36.18803333 766.2174789 -36.79764271 766.09263515 C-36.79764271 765.43263515 -36.79764271 764.77263515 -36.79764271 764.09263515 C-37.95264271 763.98951015 -39.10764271 763.88638515 -40.29764271 763.78013515 C-44.8093579 763.23228402 -48.6037002 761.81514726 -52.79764271 760.09263515 C-53.87203216 751.36569259 -54.13041376 742.62343827 -54.36014271 733.84263515 C-54.3813216 733.07648891 -54.4025005 732.31034267 -54.42432117 731.52097988 C-54.92724723 713.04624247 -54.89817757 694.57248886 -54.79764271 676.09263515 C-55.45764271 676.09263515 -56.11764271 676.09263515 -56.79764271 676.09263515 C-56.81218211 675.52149266 -56.82672152 674.95035017 -56.84170151 674.36190033 C-57.19533755 660.48333296 -57.55437725 646.60491453 -57.91928482 632.72663879 C-58.09564954 626.01528812 -58.27018663 619.3038991 -58.44046497 612.59239101 C-58.60464671 606.12138048 -58.77386365 599.65051322 -58.94621944 593.17971516 C-59.01130198 590.70489214 -59.07466674 588.23002335 -59.13632488 585.75511265 C-59.22264502 582.30181114 -59.3149464 578.84871947 -59.40872669 575.39561367 C-59.43318363 574.36127697 -59.45764057 573.32694027 -59.48283863 572.26126003 C-59.50945576 571.32591427 -59.53607288 570.3905685 -59.56349659 569.42687893 C-59.59529845 568.20043336 -59.59529845 568.20043336 -59.62774277 566.94921112 C-59.59940882 565.07762753 -59.59940882 565.07762753 -60.79764271 564.09263515 C-60.95156202 561.99478565 -61.03628765 559.89184391 -61.09476185 557.78916836 C-61.11440935 557.12764578 -61.13405685 556.4661232 -61.15429974 555.78455448 C-61.21866395 553.57095019 -61.27585779 551.35722322 -61.33279896 549.1434164 C-61.37599832 547.58730138 -61.41950659 546.03119491 -61.46330738 544.4750967 C-61.57883938 540.31081226 -61.68734147 536.14637308 -61.79383564 531.98184872 C-61.85982397 529.41752132 -61.9276822 526.85324974 -61.996068 524.28898525 C-62.63522679 500.2223521 -63.12787179 476.16887547 -62.79764271 452.09263515 C-63.45764271 452.09263515 -64.11764271 452.09263515 -64.79764271 452.09263515 C-64.79764271 441.86263515 -64.79764271 431.63263515 -64.79764271 421.09263515 C-66.77764271 420.43263515 -68.75764271 419.77263515 -70.79764271 419.09263515 C-71.12764271 418.10263515 -71.45764271 417.11263515 -71.79764271 416.09263515 C-73.68943474 415.41115286 -73.68943474 415.41115286 -75.79764271 415.09263515 C-76.78764271 414.76263515 -77.77764271 414.43263515 -78.79764271 414.09263515 C-79.12764271 413.43263515 -79.45764271 412.77263515 -79.79764271 412.09263515 C-82.11509514 410.71107698 -84.43092165 409.38312095 -86.79764271 408.09263515 C-89.73514271 406.46763515 -89.73514271 406.46763515 -91.79764271 405.09263515 C-91.79764271 404.43263515 -91.79764271 403.77263515 -91.79764271 403.09263515 C-92.3686974 402.98564297 -92.93975208 402.87865078 -93.52811146 402.7684164 C-96.13627496 401.99180318 -97.88544692 400.84097856 -100.11014271 399.28013515 C-103.91271612 396.66743984 -107.76169073 394.32528944 -111.79764271 392.09263515 C-111.79764271 391.43263515 -111.79764271 390.77263515 -111.79764271 390.09263515 C-113.11764271 390.09263515 -114.43764271 390.09263515 -115.79764271 390.09263515 C-117.1122082 392.86250549 -118.4243714 395.63347002 -119.73514271 398.40513515 C-120.1083263 399.19081875 -120.4815099 399.97650234 -120.86600208 400.78599453 C-121.22371693 401.54331875 -121.58143177 402.30064297 -121.94998646 403.0809164 C-122.27990589 403.77741299 -122.60982533 404.47390957 -122.94974232 405.19151211 C-123.90260965 407.2448425 -123.90260965 407.2448425 -124.79764271 410.09263515 C-125.45764271 410.09263515 -126.11764271 410.09263515 -126.79764271 410.09263515 C-127.04514271 411.08263515 -127.29264271 412.07263515 -127.54764271 413.09263515 C-128.75576412 417.37358711 -130.70585565 421.18322731 -132.79764271 425.09263515 C-133.45764271 425.09263515 -134.11764271 425.09263515 -134.79764271 425.09263515 C-134.85822865 425.85833828 -134.91881458 426.6240414 -134.98123646 427.41294765 C-136.14491861 432.65786912 -138.49505495 437.1658889 -140.86014271 441.96763515 C-141.33258411 442.9421664 -141.80502552 443.91669765 -142.29178333 444.92076015 C-143.45359868 447.31480389 -144.62236341 449.7051801 -145.79764271 452.09263515 C-146.45764271 452.09263515 -147.11764271 452.09263515 -147.79764271 452.09263515 C-147.94201771 453.04138515 -148.08639271 453.99013515 -148.23514271 454.96763515 C-148.79764271 458.09263515 -148.79764271 458.09263515 -149.79764271 460.09263515 C-150.45764271 460.09263515 -151.11764271 460.09263515 -151.79764271 460.09263515 C-151.88014271 460.73974453 -151.96264271 461.3868539 -152.04764271 462.05357265 C-153.07741894 466.22631177 -154.91806238 469.86646708 -156.79764271 473.71763515 C-157.52825772 475.22995714 -158.25748241 476.74295178 -158.98514271 478.25669765 C-159.47047474 479.25370693 -159.47047474 479.25370693 -159.96561146 480.27085781 C-160.91104122 482.25537985 -160.91104122 482.25537985 -161.79764271 485.09263515 C-162.45764271 485.09263515 -163.11764271 485.09263515 -163.79764271 485.09263515 C-164.45764271 487.73263515 -165.11764271 490.37263515 -165.79764271 493.09263515 C-166.45764271 493.09263515 -167.11764271 493.09263515 -167.79764271 493.09263515 C-168.12764271 494.74263515 -168.45764271 496.39263515 -168.79764271 498.09263515 C-171.56275555 499.01433944 -173.23031774 499.22479354 -176.0839529 499.24412441 C-177.40348601 499.25663612 -177.40348601 499.25663612 -178.74967635 499.2694006 C-179.71688372 499.27358753 -180.6840911 499.27777447 -181.6806078 499.28208828 C-182.70743715 499.29040424 -183.7342665 499.29872021 -184.79221189 499.30728817 C-188.24924579 499.33411635 -191.70628529 499.35395891 -195.16336536 499.37388515 C-197.63506346 499.39168158 -200.10675841 499.40992123 -202.5784502 499.42857265 C-207.90843342 499.46789795 -213.23842461 499.50429809 -218.56844425 499.5381918 C-226.27588642 499.58729512 -233.98327341 499.64271119 -241.69065957 499.69987297 C-254.19634938 499.79254163 -266.70206199 499.8815763 -279.20779896 499.96763515 C-279.95648445 499.97278857 -280.70516994 499.97794199 -281.47654288 499.98325157 C-287.55279926 500.02504826 -293.62905685 500.06666788 -299.70531464 500.10826015 C-305.01961984 500.14464045 -310.3339246 500.18108487 -315.64822865 500.21763515 C-316.39661096 500.22278102 -317.14499328 500.22792688 -317.91605385 500.23322868 C-330.37682652 500.31902844 -342.83756846 500.4086932 -355.29829347 500.50115108 C-362.99042156 500.55803795 -370.68255909 500.61139425 -378.37474237 500.66026306 C-384.26074274 500.69790318 -390.14670007 500.74052415 -396.03265285 500.78501797 C-398.45428446 500.80247303 -400.87592915 500.81820425 -403.29758358 500.83213711 C-406.58798893 500.85129582 -409.87829368 500.87645331 -413.16864491 500.90318203 C-414.62614814 500.90946243 -414.62614814 500.90946243 -416.11309588 500.91586971 C-417.42480574 500.92838142 -417.42480574 500.92838142 -418.76301479 500.9411459 C-419.52348728 500.94629963 -420.28395976 500.95145336 -421.06747687 500.95676327 C-422.82809173 500.90655853 -422.82809173 500.90655853 -423.79764271 502.09263515 C-425.42987727 502.1886938 -427.0662866 502.21451336 -428.70134449 502.21288967 C-430.2936816 502.21495167 -430.2936816 502.21495167 -431.91818714 502.21705532 C-433.68008381 502.21166241 -433.68008381 502.21166241 -435.47757435 502.20616055 C-436.70667027 502.20630657 -437.93576618 502.2064526 -439.20210743 502.20660305 C-442.58212942 502.20602408 -445.962091 502.20099479 -449.34210229 502.19402909 C-452.87085465 502.18779503 -456.39960774 502.18719171 -459.92836475 502.18600368 C-466.61487389 502.18289052 -473.30136676 502.17467734 -479.98786873 502.1646542 C-487.59838574 502.15349259 -495.2089035 502.14798249 -502.81942666 502.14295876 C-518.47884144 502.13249471 -534.13823998 502.11489556 -549.79764271 502.09263515 C-550.12764271 500.11263515 -550.45764271 498.13263515 -550.79764271 496.09263515 C-551.45764271 496.09263515 -552.11764271 496.09263515 -552.79764271 496.09263515 C-553.45764271 493.78263515 -554.11764271 491.47263515 -554.79764271 489.09263515 C-555.45764271 489.09263515 -556.11764271 489.09263515 -556.79764271 489.09263515 C-558.05429249 486.18663254 -558.79764271 484.29658931 -558.79764271 481.09263515 C-559.45764271 481.09263515 -560.11764271 481.09263515 -560.79764271 481.09263515 C-563.79764271 475.09263515 -563.79764271 475.09263515 -564.73367786 473.21836758 C-566.48579504 469.71107161 -568.24313666 466.20652544 -570.00858021 462.7059164 C-570.36951771 461.98855312 -570.73045521 461.27118984 -571.10233021 460.53208828 C-571.80645127 459.1328404 -572.5121378 457.734379 -573.21951771 456.33677578 C-574.58880775 453.61188861 -575.83172002 450.99040321 -576.79764271 448.09263515 C-575.69631276 445.77058989 -574.55725781 443.65836942 -573.23514271 441.46763515 C-572.86743763 440.84243984 -572.49973255 440.21724453 -572.1208849 439.5731039 C-569.18675145 434.62764874 -566.07229221 429.81943578 -562.79764271 425.09263515 C-560.58358433 421.85166154 -558.44756888 418.66747519 -556.79764271 415.09263515 C-556.13764271 415.09263515 -555.47764271 415.09263515 -554.79764271 415.09263515 C-554.46764271 413.44263515 -554.13764271 411.79263515 -553.79764271 410.09263515 C-552.80764271 409.76263515 -551.81764271 409.43263515 -550.79764271 409.09263515 C-550.11616041 407.20084312 -550.11616041 407.20084312 -549.79764271 405.09263515 C-549.46764271 404.10263515 -549.13764271 403.11263515 -548.79764271 402.09263515 C-548.13764271 402.09263515 -547.47764271 402.09263515 -546.79764271 402.09263515 C-546.50889271 401.14388515 -546.22014271 400.19513515 -545.92264271 399.21763515 C-544.79764271 396.09263515 -544.79764271 396.09263515 -542.79764271 394.09263515 C-533.4327606 392.34770782 -523.35934094 392.83499226 -513.84835911 392.64707851 C-511.04914738 392.59158074 -508.25007699 392.53120004 -505.45099354 392.46958828 C-498.51353325 392.31774747 -491.5759297 392.17303274 -484.63827991 392.03013515 C-478.74395554 391.90867362 -472.84973464 391.78354462 -466.95560551 391.65293789 C-464.19581033 391.59330457 -461.43594054 391.53920849 -458.67603016 391.48521328 C-456.99634634 391.44839894 -455.31666861 391.41130513 -453.63699818 391.37388515 C-452.48384365 391.35358242 -452.48384365 391.35358242 -451.30739307 391.33286953 C-447.42417826 391.30829212 -447.42417826 391.30829212 -443.79764271 390.09263515 C-442.18754859 389.96464562 -440.57250068 389.89687497 -438.9577837 389.85848904 C-437.93412708 389.83187191 -436.91047047 389.80525478 -435.85579395 389.77783108 C-434.72728519 389.75337414 -433.59877644 389.7289172 -432.43607044 389.70371914 C-430.65708866 389.65960903 -430.65708866 389.65960903 -428.84216785 389.61460781 C-425.5737174 389.53464737 -422.30520191 389.45899819 -419.03660178 389.38545394 C-415.58595251 389.30700963 -412.13541863 389.22375929 -408.684865 389.1412344 C-402.8564028 389.00261072 -397.02785987 388.86789485 -391.19925404 388.73545742 C-385.27857878 388.60088688 -379.35801533 388.46234413 -373.43753529 388.3194418 C-310.09437497 386.79131906 -310.09437497 386.79131906 -283.79764271 387.09263515 C-283.64819202 386.47678555 -283.49874134 385.86093594 -283.34476185 385.22642422 C-282.78037392 383.02528613 -282.04817883 380.96359894 -281.23514271 378.84263515 C-280.83102161 377.78302578 -280.83102161 377.78302578 -280.41873646 376.70201015 C-280.21377552 376.1709164 -280.00881458 375.63982265 -279.79764271 375.09263515 C-279.13764271 375.09263515 -278.47764271 375.09263515 -277.79764271 375.09263515 C-277.13764271 372.12263515 -276.47764271 369.15263515 -275.79764271 366.09263515 C-275.13764271 366.09263515 -274.47764271 366.09263515 -273.79764271 366.09263515 C-273.65326771 365.32951015 -273.50889271 364.56638515 -273.36014271 363.78013515 C-272.79764271 361.09263515 -272.79764271 361.09263515 -271.79764271 358.09263515 C-271.13764271 358.09263515 -270.47764271 358.09263515 -269.79764271 358.09263515 C-269.13764271 355.12263515 -268.47764271 352.15263515 -267.79764271 349.09263515 C-267.13764271 349.09263515 -266.47764271 349.09263515 -265.79764271 349.09263515 C-265.65326771 348.32951015 -265.50889271 347.56638515 -265.36014271 346.78013515 C-264.79764271 344.09263515 -264.79764271 344.09263515 -263.79764271 341.09263515 C-263.13764271 341.09263515 -262.47764271 341.09263515 -261.79764271 341.09263515 C-261.66486927 340.46615078 -261.53209583 339.8396664 -261.39529896 339.19419765 C-261.2186974 338.37693203 -261.04209583 337.5596664 -260.86014271 336.71763515 C-260.68611927 335.90552578 -260.51209583 335.0934164 -260.33279896 334.25669765 C-259.79764271 332.09263515 -259.79764271 332.09263515 -258.79764271 330.09263515 C-258.13764271 330.09263515 -257.47764271 330.09263515 -256.79764271 330.09263515 C-256.71514271 329.28826015 -256.63264271 328.48388515 -256.54764271 327.65513515 C-255.44931349 322.43807138 -253.17226096 317.84187165 -250.79764271 313.09263515 C-250.13764271 313.09263515 -249.47764271 313.09263515 -248.79764271 313.09263515 C-248.13764271 310.12263515 -247.47764271 307.15263515 -246.79764271 304.09263515 C-246.13764271 304.09263515 -245.47764271 304.09263515 -244.79764271 304.09263515 C-244.65326771 303.32951015 -244.50889271 302.56638515 -244.36014271 301.78013515 C-243.79764271 299.09263515 -243.79764271 299.09263515 -242.79764271 296.09263515 C-242.13764271 296.09263515 -241.47764271 296.09263515 -240.79764271 296.09263515 C-240.13764271 293.12263515 -239.47764271 290.15263515 -238.79764271 287.09263515 C-238.13764271 287.09263515 -237.47764271 287.09263515 -236.79764271 287.09263515 C-236.65326771 286.32951015 -236.50889271 285.56638515 -236.36014271 284.78013515 C-235.79764271 282.09263515 -235.79764271 282.09263515 -234.79764271 279.09263515 C-234.13764271 279.09263515 -233.47764271 279.09263515 -232.79764271 279.09263515 C-232.61201771 277.89638515 -232.42639271 276.70013515 -232.23514271 275.46763515 C-230.96276651 269.61656213 -228.21133538 264.58484577 -225.45389271 259.32701015 C-224.06496759 256.61467525 -222.86867051 253.94156911 -221.79764271 251.09263515 C-221.13764271 251.09263515 -220.47764271 251.09263515 -219.79764271 251.09263515 C-219.13764271 248.12263515 -218.47764271 245.15263515 -217.79764271 242.09263515 C-217.13764271 242.09263515 -216.47764271 242.09263515 -215.79764271 242.09263515 C-215.65326771 241.14388515 -215.50889271 240.19513515 -215.36014271 239.21763515 C-214.79764271 236.09263515 -214.79764271 236.09263515 -213.79764271 234.09263515 C-213.13764271 234.09263515 -212.47764271 234.09263515 -211.79764271 234.09263515 C-211.13764271 231.12263515 -210.47764271 228.15263515 -209.79764271 225.09263515 C-209.13764271 225.09263515 -208.47764271 225.09263515 -207.79764271 225.09263515 C-207.65326771 224.32951015 -207.50889271 223.56638515 -207.36014271 222.78013515 C-206.79764271 220.09263515 -206.79764271 220.09263515 -205.79764271 217.09263515 C-205.13764271 217.09263515 -204.47764271 217.09263515 -203.79764271 217.09263515 C-203.13764271 214.12263515 -202.47764271 211.15263515 -201.79764271 208.09263515 C-201.13764271 208.09263515 -200.47764271 208.09263515 -199.79764271 208.09263515 C-199.69580677 207.41845547 -199.59397083 206.74427578 -199.48904896 206.0496664 C-198.64363133 202.43395372 -197.23534221 199.15993495 -195.73514271 195.78013515 C-195.45348255 195.13495937 -195.1718224 194.48978359 -194.88162708 193.82505703 C-194.1913684 192.24565158 -193.49511073 190.66887022 -192.79764271 189.09263515 C-192.13764271 189.09263515 -191.47764271 189.09263515 -190.79764271 189.09263515 C-190.13764271 186.12263515 -189.47764271 183.15263515 -188.79764271 180.09263515 C-188.13764271 180.09263515 -187.47764271 180.09263515 -186.79764271 180.09263515 C-186.65326771 179.14388515 -186.50889271 178.19513515 -186.36014271 177.21763515 C-185.79764271 174.09263515 -185.79764271 174.09263515 -184.79764271 172.09263515 C-184.13764271 172.09263515 -183.47764271 172.09263515 -182.79764271 172.09263515 C-182.13764271 169.12263515 -181.47764271 166.15263515 -180.79764271 163.09263515 C-180.13764271 163.09263515 -179.47764271 163.09263515 -178.79764271 163.09263515 C-178.65326771 162.14388515 -178.50889271 161.19513515 -178.36014271 160.21763515 C-177.79764271 157.09263515 -177.79764271 157.09263515 -176.79764271 155.09263515 C-176.13764271 155.09263515 -175.47764271 155.09263515 -174.79764271 155.09263515 C-174.13764271 152.12263515 -173.47764271 149.15263515 -172.79764271 146.09263515 C-172.13764271 146.09263515 -171.47764271 146.09263515 -170.79764271 146.09263515 C-170.65326771 145.30888515 -170.50889271 144.52513515 -170.36014271 143.71763515 C-169.79764271 141.09263515 -169.79764271 141.09263515 -168.79764271 139.09263515 C-170.44394599 139.23306393 -172.0896845 139.38012845 -173.73514271 139.53013515 C-175.10992786 139.65195156 -175.10992786 139.65195156 -176.51248646 139.7762289 C-178.75924002 139.85308492 -178.75924002 139.85308492 -179.79764271 141.09263515 C-181.48373237 141.16469027 -183.1726493 141.17649583 -184.86014271 141.15513515 C-185.77924427 141.14611172 -186.69834583 141.13708828 -187.64529896 141.1277914 C-188.3555724 141.11618984 -189.06584583 141.10458828 -189.79764271 141.09263515 C-190.12764271 142.74263515 -190.45764271 144.39263515 -190.79764271 146.09263515 C-191.45764271 146.09263515 -192.11764271 146.09263515 -192.79764271 146.09263515 C-193.45764271 148.73263515 -194.11764271 151.37263515 -194.79764271 154.09263515 C-195.45764271 154.09263515 -196.11764271 154.09263515 -196.79764271 154.09263515 C-196.91841175 154.81861904 -197.03918079 155.54460293 -197.1636095 156.29258633 C-197.79685204 159.08914338 -198.69637881 161.31780798 -199.94217396 163.8934164 C-200.3720763 164.78867031 -200.80197865 165.68392422 -201.24490833 166.60630703 C-201.69543568 167.52992031 -202.14596302 168.45353359 -202.61014271 169.40513515 C-203.04906849 170.31714687 -203.48799427 171.22915859 -203.94022083 172.16880703 C-206.51244916 177.50054331 -209.13787116 182.80409174 -211.79764271 188.09263515 C-212.45764271 188.09263515 -213.11764271 188.09263515 -213.79764271 188.09263515 C-213.94201771 189.04138515 -214.08639271 189.99013515 -214.23514271 190.96763515 C-214.79764271 194.09263515 -214.79764271 194.09263515 -215.79764271 196.09263515 C-216.45764271 196.09263515 -217.11764271 196.09263515 -217.79764271 196.09263515 C-217.90979115 196.79775234 -218.02193958 197.50286953 -218.13748646 198.2293539 C-218.86079179 201.36653027 -219.99221962 203.99391422 -221.36014271 206.90513515 C-221.81518177 207.88095547 -222.27022083 208.85677578 -222.73904896 209.8621664 C-223.0883849 210.59822109 -223.43772083 211.33427578 -223.79764271 212.09263515 C-224.45764271 212.09263515 -225.11764271 212.09263515 -225.79764271 212.09263515 C-225.94201771 213.02076015 -226.08639271 213.94888515 -226.23514271 214.90513515 C-226.79764271 218.09263515 -226.79764271 218.09263515 -227.79764271 221.09263515 C-228.45764271 221.09263515 -229.11764271 221.09263515 -229.79764271 221.09263515 C-230.05287708 221.91054531 -230.05287708 221.91054531 -230.31326771 222.7449789 C-232.12305084 228.37648494 -234.30109649 233.73203084 -236.79764271 239.09263515 C-237.45764271 239.09263515 -238.11764271 239.09263515 -238.79764271 239.09263515 C-238.94201771 239.85576015 -239.08639271 240.61888515 -239.23514271 241.40513515 C-239.79764271 244.09263515 -239.79764271 244.09263515 -240.79764271 247.09263515 C-241.45764271 247.09263515 -242.11764271 247.09263515 -242.79764271 247.09263515 C-242.94201771 247.87638515 -243.08639271 248.66013515 -243.23514271 249.46763515 C-243.79764271 252.09263515 -243.79764271 252.09263515 -244.79764271 254.09263515 C-245.45764271 254.09263515 -246.11764271 254.09263515 -246.79764271 254.09263515 C-246.94201771 255.20638515 -247.08639271 256.32013515 -247.23514271 257.46763515 C-247.79764271 261.09263515 -247.79764271 261.09263515 -248.79764271 263.09263515 C-249.45764271 263.09263515 -250.11764271 263.09263515 -250.79764271 263.09263515 C-250.94201771 264.04138515 -251.08639271 264.99013515 -251.23514271 265.96763515 C-251.79764271 269.09263515 -251.79764271 269.09263515 -252.79764271 271.09263515 C-253.45764271 271.09263515 -254.11764271 271.09263515 -254.79764271 271.09263515 C-254.94201771 271.85576015 -255.08639271 272.61888515 -255.23514271 273.40513515 C-256.35523879 278.75670531 -256.35523879 278.75670531 -258.89139271 280.6824789 C-262.34736388 282.35936814 -265.51673054 282.99347552 -269.29764271 283.65513515 C-273.74324442 284.44200666 -277.63585959 285.37453061 -281.79764271 287.09263515 C-283.6202161 287.51685482 -285.45498103 287.89154615 -287.29764271 288.21763515 C-288.21545521 288.38521328 -289.13326771 288.5527914 -290.07889271 288.72544765 C-292.6913341 289.07827738 -295.16553024 289.15939163 -297.79764271 289.09263515 C-297.79764271 289.75263515 -297.79764271 290.41263515 -297.79764271 291.09263515 C-299.52571589 291.43159172 -301.25516245 291.7635504 -302.98514271 292.09263515 C-303.9480724 292.27826015 -304.91100208 292.46388515 -305.90311146 292.65513515 C-308.5910633 293.06141128 -311.0853529 293.17197087 -313.79764271 293.09263515 C-313.79764271 293.75263515 -313.79764271 294.41263515 -313.79764271 295.09263515 C-316.54764271 295.46763515 -316.54764271 295.46763515 -319.79764271 295.09263515 C-323.79764271 290.25052989 -323.79764271 290.25052989 -323.79764271 287.09263515 C-324.45764271 287.09263515 -325.11764271 287.09263515 -325.79764271 287.09263515 C-327.25827121 284.44524599 -327.79764271 283.19815181 -327.79764271 280.09263515 C-328.45764271 280.09263515 -329.11764271 280.09263515 -329.79764271 280.09263515 C-330.45764271 278.11263515 -331.11764271 276.13263515 -331.79764271 274.09263515 C-332.45764271 274.09263515 -333.11764271 274.09263515 -333.79764271 274.09263515 C-335.25827121 271.44524599 -335.79764271 270.19815181 -335.79764271 267.09263515 C-336.78764271 266.76263515 -337.77764271 266.43263515 -338.79764271 266.09263515 C-339.12764271 264.44263515 -339.45764271 262.79263515 -339.79764271 261.09263515 C-340.78764271 260.76263515 -341.77764271 260.43263515 -342.79764271 260.09263515 C-343.12764271 258.11263515 -343.45764271 256.13263515 -343.79764271 254.09263515 C-344.78764271 253.76263515 -345.77764271 253.43263515 -346.79764271 253.09263515 C-348.49402414 250.7312722 -349.86006605 248.24808238 -351.29764271 245.7215414 C-352.18853685 244.16015661 -353.11434348 242.61664144 -354.11014271 241.1199789 C-356.02565303 238.20015587 -356.81500139 236.44458247 -356.64139271 232.9246664 C-355.63955015 228.37463147 -353.93074725 224.61617382 -351.86014271 220.46763515 C-351.14147621 218.99687581 -350.42399618 217.52553601 -349.70779896 216.05357265 C-349.3740929 215.37133633 -349.04038685 214.6891 -348.69656849 213.98618984 C-347.624084 211.72704 -346.68067245 209.4319705 -345.79764271 207.09263515 C-345.13764271 207.09263515 -344.47764271 207.09263515 -343.79764271 207.09263515 C-343.58108021 205.66951015 -343.58108021 205.66951015 -343.36014271 204.21763515 C-342.79764271 201.09263515 -342.79764271 201.09263515 -341.79764271 199.09263515 C-341.13764271 199.09263515 -340.47764271 199.09263515 -339.79764271 199.09263515 C-339.65326771 197.97888515 -339.50889271 196.86513515 -339.36014271 195.71763515 C-338.79764271 192.09263515 -338.79764271 192.09263515 -337.79764271 190.09263515 C-337.13764271 190.09263515 -336.47764271 190.09263515 -335.79764271 190.09263515 C-335.68549427 189.39783047 -335.57334583 188.70302578 -335.45779896 187.9871664 C-334.71318156 184.72230551 -333.55364183 181.85663311 -332.23514271 178.78013515 C-331.78010365 177.71150234 -331.32506458 176.64286953 -330.85623646 175.5418539 C-330.50690052 174.73361172 -330.15756458 173.92536953 -329.79764271 173.09263515 C-329.13764271 173.09263515 -328.47764271 173.09263515 -327.79764271 173.09263515 C-327.69580677 172.41845547 -327.59397083 171.74427578 -327.48904896 171.0496664 C-326.64363133 167.43395372 -325.23534221 164.15993495 -323.73514271 160.78013515 C-323.45348255 160.13495937 -323.1718224 159.48978359 -322.88162708 158.82505703 C-322.1913684 157.24565158 -321.49511073 155.66887022 -320.79764271 154.09263515 C-320.13764271 154.09263515 -319.47764271 154.09263515 -318.79764271 154.09263515 C-318.65326771 153.14388515 -318.50889271 152.19513515 -318.36014271 151.21763515 C-317.79764271 148.09263515 -317.79764271 148.09263515 -316.79764271 146.09263515 C-316.13764271 146.09263515 -315.47764271 146.09263515 -314.79764271 146.09263515 C-314.65326771 144.97888515 -314.50889271 143.86513515 -314.36014271 142.71763515 C-313.79764271 139.09263515 -313.79764271 139.09263515 -312.79764271 137.09263515 C-312.13764271 137.09263515 -311.47764271 137.09263515 -310.79764271 137.09263515 C-310.65326771 136.32951015 -310.50889271 135.56638515 -310.36014271 134.78013515 C-309.79764271 132.09263515 -309.79764271 132.09263515 -308.79764271 129.09263515 C-308.13764271 129.09263515 -307.47764271 129.09263515 -306.79764271 129.09263515 C-306.65326771 128.16451015 -306.50889271 127.23638515 -306.36014271 126.28013515 C-305.79764271 123.09263515 -305.79764271 123.09263515 -304.79764271 120.09263515 C-304.13764271 120.09263515 -303.47764271 120.09263515 -302.79764271 120.09263515 C-302.65326771 119.32951015 -302.50889271 118.56638515 -302.36014271 117.78013515 C-301.79764271 115.09263515 -301.79764271 115.09263515 -300.79764271 112.09263515 C-300.13764271 112.09263515 -299.47764271 112.09263515 -298.79764271 112.09263515 C-298.65326771 111.16451015 -298.50889271 110.23638515 -298.36014271 109.28013515 C-297.79764271 106.09263515 -297.79764271 106.09263515 -296.79764271 103.09263515 C-296.13764271 103.09263515 -295.47764271 103.09263515 -294.79764271 103.09263515 C-294.62748646 102.47517422 -294.45733021 101.85771328 -294.28201771 101.2215414 C-292.57578847 95.25881475 -290.46183154 89.69148884 -287.79764271 84.09263515 C-287.13764271 84.09263515 -286.47764271 84.09263515 -285.79764271 84.09263515 C-285.71514271 83.26763515 -285.63264271 82.44263515 -285.54764271 81.59263515 C-284.76307562 77.9313221 -283.49050611 75.19661216 -281.73514271 71.9246664 C-280.6660136 69.94884583 -280.6660136 69.94884583 -279.79764271 67.09263515 C-279.13764271 67.09263515 -278.47764271 67.09263515 -277.79764271 67.09263515 C-277.68549427 66.39783047 -277.57334583 65.70302578 -277.45779896 64.9871664 C-276.71318156 61.72230551 -275.55364183 58.85663311 -274.23514271 55.78013515 C-273.78010365 54.71150234 -273.32506458 53.64286953 -272.85623646 52.5418539 C-272.50690052 51.73361172 -272.15756458 50.92536953 -271.79764271 50.09263515 C-271.13764271 50.09263515 -270.47764271 50.09263515 -269.79764271 50.09263515 C-269.68549427 49.39783047 -269.57334583 48.70302578 -269.45779896 47.9871664 C-268.71318156 44.72230551 -267.55364183 41.85663311 -266.23514271 38.78013515 C-265.78010365 37.71150234 -265.32506458 36.64286953 -264.85623646 35.5418539 C-264.50690052 34.73361172 -264.15756458 33.92536953 -263.79764271 33.09263515 C-263.13764271 33.09263515 -262.47764271 33.09263515 -261.79764271 33.09263515 C-261.54240833 32.16644375 -261.54240833 32.16644375 -261.28201771 31.2215414 C-259.57578847 25.25881475 -257.46183154 19.69148884 -254.79764271 14.09263515 C-254.13764271 14.09263515 -253.47764271 14.09263515 -252.79764271 14.09263515 C-252.65326771 13.32951015 -252.50889271 12.56638515 -252.36014271 11.78013515 C-251.79764271 9.09263515 -251.79764271 9.09263515 -250.79764271 6.09263515 C-248.09173768 4.73968264 -245.94041462 4.93797162 -242.91092396 4.90318203 C-241.67624378 4.8864645 -240.44156361 4.86974697 -239.16946888 4.85252285 C-238.17733891 4.84249989 -238.17733891 4.84249989 -237.1651659 4.83227444 C-235.09766949 4.81125836 -233.0303299 4.78423531 -230.96292591 4.75559902 C-225.82844286 4.68573872 -220.69384783 4.62635604 -215.55923939 4.56657314 C-211.22102736 4.51566519 -206.88289945 4.46084425 -202.54480457 4.40075588 C-200.5051672 4.3741464 -198.46552213 4.35335353 -196.42581654 4.33274746 C-195.19113636 4.31602993 -193.95645618 4.2993124 -192.68436146 4.28208828 C-191.0479369 4.26329617 -191.0479369 4.26329617 -189.37845325 4.24412441 C-186.81099182 4.26349054 -186.81099182 4.26349054 -184.79764271 3.09263515 C-182.43438346 2.96113174 -180.09785726 2.8883568 -177.7327776 2.85848904 C-176.99688473 2.84538395 -176.26099186 2.83227887 -175.50279921 2.81877667 C-173.02406733 2.77582086 -170.54528232 2.73980115 -168.06644154 2.70371914 C-166.29426872 2.67442886 -164.52210286 2.64471505 -162.74994373 2.61460781 C-157.92542889 2.53386804 -153.10083732 2.45912671 -148.27621007 2.38545394 C-143.23053939 2.30742769 -138.18495746 2.22403522 -133.13936329 2.1412344 C-124.65953788 2.00282115 -116.17966298 1.86790131 -107.69974232 1.73545742 C-95.74990384 1.54881512 -83.80016939 1.35608791 -71.8504492 1.16203868 C-55.83751443 0.9023276 -39.82454727 0.6443938 -23.81147099 0.3935461 C-22.0776824 0.36631925 -20.34389667 0.33891004 -18.6101141 0.31130314 C-16.23922607 0.27360202 -13.8683281 0.23660353 -11.49742603 0.19979763 C-10.81491852 0.18880691 -10.13241101 0.17781618 -9.42922145 0.1664924 C-4.71438816 0.09755158 -4.71438816 0.09755158 0 0 Z " fill="#4AB2FC" transform="translate(838.7976427078247,461.9073648452759)"/>
<path d="M0 0 C1.28519531 -0.00773438 2.57039062 -0.01546875 3.89453125 -0.0234375 C12.93808361 -0.00525951 21.58206068 0.85279252 30.5 2.25 C30.5 2.91 30.5 3.57 30.5 4.25 C32.2634375 4.311875 32.2634375 4.311875 34.0625 4.375 C41.29853169 5.1287533 47.88271048 8.39907289 54.5 11.25 C54.5 11.91 54.5 12.57 54.5 13.25 C55.325 13.476875 56.15 13.70375 57 13.9375 C61.16509486 15.49941057 65.0000943 17.47850107 68.5 20.25 C68.5 20.91 68.5 21.57 68.5 22.25 C69.139375 22.353125 69.77875 22.45625 70.4375 22.5625 C71.118125 22.789375 71.79875 23.01625 72.5 23.25 C72.83 24.24 73.16 25.23 73.5 26.25 C75.51508358 26.98323796 75.51508358 26.98323796 77.5 27.25 C77.5 27.91 77.5 28.57 77.5 29.25 C78.056875 29.476875 78.61375 29.70375 79.1875 29.9375 C85.54058758 33.54330647 90.32908341 40.40243705 94.5 46.25 C94.5 46.91 94.5 47.57 94.5 48.25 C95.16 48.25 95.82 48.25 96.5 48.25 C96.933125 49.4565625 96.933125 49.4565625 97.375 50.6875 C98.23262568 53.3826468 98.23262568 53.3826468 100.5 54.25 C101.8749149 57.15259811 102.5 59.01138705 102.5 62.25 C103.16 62.25 103.82 62.25 104.5 62.25 C105.44564802 64.51771903 106.38144567 66.78879049 107.3125 69.0625 C107.57353516 69.68576172 107.83457031 70.30902344 108.10351562 70.95117188 C111.77999677 79.98351444 113.97629134 89.10208107 114.8125 98.8125 C114.93975464 100.26342041 114.93975464 100.26342041 115.06958008 101.74365234 C116.02427639 115.07541821 115.2962118 129.15374336 112.5 142.25 C111.84 142.25 111.18 142.25 110.5 142.25 C110.43941406 142.86488281 110.37882812 143.47976563 110.31640625 144.11328125 C110.23261719 144.92152344 110.14882812 145.72976563 110.0625 146.5625 C109.94068359 147.76326172 109.94068359 147.76326172 109.81640625 148.98828125 C109.5 151.25 109.5 151.25 108.5 154.25 C107.84 154.25 107.18 154.25 106.5 154.25 C106.355625 155.178125 106.21125 156.10625 106.0625 157.0625 C105.5 160.25 105.5 160.25 104.5 163.25 C103.84 163.25 103.18 163.25 102.5 163.25 C101.84 165.56 101.18 167.87 100.5 170.25 C99.84 170.25 99.18 170.25 98.5 170.25 C98.231875 171.343125 97.96375 172.43625 97.6875 173.5625 C96.49327223 177.27089151 96.11543641 177.76623316 93.5 180.25 C91.19444976 183.09852403 88.92334123 185.97235664 86.65625 188.8515625 C84.5 191.25 84.5 191.25 81.5 192.25 C81.17 193.24 80.84 194.23 80.5 195.25 C79.51 195.25 78.52 195.25 77.5 195.25 C77.2525 195.84296875 77.005 196.4359375 76.75 197.046875 C75.31031137 199.5843262 73.84848507 200.79044102 71.5 202.5 C70.79875 203.02078125 70.0975 203.5415625 69.375 204.078125 C67.5 205.25 67.5 205.25 65.5 205.25 C65.5 205.91 65.5 206.57 65.5 207.25 C63.5 208.25 61.5 209.25 59.5 210.25 C58.81550781 210.60964844 58.13101563 210.96929687 57.42578125 211.33984375 C56.72839844 211.70207031 56.03101563 212.06429687 55.3125 212.4375 C54.65894531 212.78167969 54.00539063 213.12585938 53.33203125 213.48046875 C51.5 214.25 51.5 214.25 48.5 214.25 C48.5 214.91 48.5 215.57 48.5 216.25 C41.51598053 219.11804561 34.8027668 221.68503761 27.328125 222.890625 C25.48829413 223.07589447 25.48829413 223.07589447 24.5 224.25 C17.04313214 225.40095134 9.59954321 225.40359141 2.07080078 225.38037109 C0.00415716 225.37501078 -2.0622692 225.38034478 -4.12890625 225.38671875 C-22.10876063 225.39671476 -22.10876063 225.39671476 -30.5 222.25 C-31.9358506 221.76591323 -33.37351579 221.28719082 -34.8125 220.8125 C-39.375 219.29166667 -43.9375 217.77083333 -48.5 216.25 C-48.5 215.59 -48.5 214.93 -48.5 214.25 C-49.304375 214.188125 -50.10875 214.12625 -50.9375 214.0625 C-55.67517511 212.98197761 -59.35036467 210.70658412 -63.5 208.25 C-64.16 207.92 -64.82 207.59 -65.5 207.25 C-65.5 206.59 -65.5 205.93 -65.5 205.25 C-66.180625 205.04375 -66.86125 204.8375 -67.5625 204.625 C-71.41639375 202.82104973 -74.57787764 200.3489655 -77.5 197.25 C-77.5 196.59 -77.5 195.93 -77.5 195.25 C-78.82 194.92 -80.14 194.59 -81.5 194.25 C-81.5 193.59 -81.5 192.93 -81.5 192.25 C-82.36625 191.9096875 -82.36625 191.9096875 -83.25 191.5625 C-86.09739809 189.90151778 -87.62067193 187.93475439 -89.5 185.25 C-89.5 184.59 -89.5 183.93 -89.5 183.25 C-90.49 182.92 -91.48 182.59 -92.5 182.25 C-93.19937532 180.93352881 -93.86729133 179.59977849 -94.5 178.25 C-95.16 177.92 -95.82 177.59 -96.5 177.25 C-97.23075648 174.9359378 -97.90138258 172.60171131 -98.5 170.25 C-99.16 170.25 -99.82 170.25 -100.5 170.25 C-101.16 167.94 -101.82 165.63 -102.5 163.25 C-103.16 163.25 -103.82 163.25 -104.5 163.25 C-105.99821059 159.87902617 -106.5 158.04557881 -106.5 154.25 C-107.16 154.25 -107.82 154.25 -108.5 154.25 C-109.79243536 150.1303623 -110.76252625 146.58168317 -110.5 142.25 C-111.16 142.25 -111.82 142.25 -112.5 142.25 C-114.37387655 132.47907228 -114.72867275 123.14644867 -114.5 113.25 C-115.16 113.25 -115.82 113.25 -116.5 113.25 C-116.17 112.26 -115.84 111.27 -115.5 110.25 C-115.31917743 107.74718607 -115.17696349 105.25570451 -115.0625 102.75 C-114.24913089 87.99482041 -110.29110071 75.77782813 -104.5 62.25 C-103.84 62.25 -103.18 62.25 -102.5 62.25 C-102.355625 61.486875 -102.21125 60.72375 -102.0625 59.9375 C-101.5 57.25 -101.5 57.25 -100.5 54.25 C-99.51 53.755 -99.51 53.755 -98.5 53.25 C-97.77840576 51.60636866 -97.10648579 49.93949614 -96.5 48.25 C-95.84 48.25 -95.18 48.25 -94.5 48.25 C-94.14035156 47.18652344 -94.14035156 47.18652344 -93.7734375 46.1015625 C-92.29816311 42.79803397 -90.43251753 40.40782014 -88.125 37.625 C-86.96871094 36.21347656 -86.96871094 36.21347656 -85.7890625 34.7734375 C-83.79230286 32.57223148 -82.00215648 30.83647368 -79.5 29.25 C-78.84 29.25 -78.18 29.25 -77.5 29.25 C-77.5 28.59 -77.5 27.93 -77.5 27.25 C-76.571875 27.12625 -76.571875 27.12625 -75.625 27 C-73.31562433 26.43741541 -73.31562433 26.43741541 -72.25 24.1875 C-72.0025 23.548125 -71.755 22.90875 -71.5 22.25 C-70.51 22.25 -69.52 22.25 -68.5 22.25 C-68.005 20.765 -68.005 20.765 -67.5 19.25 C-65.06640625 17.64453125 -65.06640625 17.64453125 -62.0625 16.0625 C-61.07378906 15.53269531 -60.08507812 15.00289062 -59.06640625 14.45703125 C-56.5 13.25 -56.5 13.25 -54.5 13.25 C-54.5 12.59 -54.5 11.93 -54.5 11.25 C-38.93963554 4.54612756 -38.93963554 4.54612756 -30.5 4.25 C-30.5 3.59 -30.5 2.93 -30.5 2.25 C-20.26563582 0.64654323 -10.37720075 -0.06245056 0 0 Z " fill="#4AB2FC" transform="translate(956.5,237.75)"/>
</svg>
