<?xml version="1.0" encoding="utf-8"?>
<svg xmlns="http://www.w3.org/2000/svg" width="232" height="55.514" viewBox="0 0 232 55.514">
  <g id="Group_3183" data-name="Group 3183" transform="translate(-269.547 -298.355)">
    <path id="Path_3620" data-name="Path 3620" d="M322.94,363.324a4.4,4.4,0,0,0-4.4,4.4v3.14a20.13,20.13,0,0,1-15.7,19.608V378.118a4.4,4.4,0,1,0-8.8,0V390.47a20.13,20.13,0,0,1-15.7-19.608v-3.14a4.4,4.4,0,0,0-8.8,0v3.14a28.9,28.9,0,0,0,57.791,0v-3.14A4.4,4.4,0,0,0,322.94,363.324Z" transform="translate(0 -45.889)" fill="#e73c70"/>
    <g id="Group_3179" data-name="Group 3179" transform="translate(276.465 323.031)">
      <circle id="Ellipse_178" data-name="Ellipse 178" cx="5.725" cy="5.725" r="5.725" transform="translate(0 0)" fill="#1f3ba6"/>
    </g>
    <g id="Group_3180" data-name="Group 3180" transform="translate(294.485 298.355)">
      <circle id="Ellipse_179" data-name="Ellipse 179" cx="8.857" cy="8.857" r="8.857" transform="translate(0)" fill="#1f3ba6"/>
    </g>
    <g id="Group_3181" data-name="Group 3181" transform="translate(339.841 317.928)">
      <path id="Path_3621" data-name="Path 3621" d="M521.835,369.759h-9.947v2.164h8.729v2.564h-8.729v2.219h10.2v2.8H508.905V367.231h12.93Z" transform="translate(-508.905 -366.576)" fill="#e73c70"/>
      <path id="Path_3622" data-name="Path 3622" d="M572,384.666h-2.982V380.52c0-2.946-1.127-3.673-2.855-3.673a4.756,4.756,0,0,0-3.273,1.364v6.455H559.93v-9.911h2.8v1.2a5.817,5.817,0,0,1,3.892-1.418c2.6,0,5.382.964,5.382,5.91Z" transform="translate(-544.945 -371.737)" fill="#e73c70"/>
      <path id="Path_3623" data-name="Path 3623" d="M622.14,378.544h-2.8v-.837a7.617,7.617,0,0,1-4.091,1.055c-2.873,0-5.655-1.564-5.655-5.182,0-3.855,2.91-5.165,5.328-5.165a6.378,6.378,0,0,1,4.328,1.382v-3.928h2.891Zm-6.219-7.82c-1.855,0-3.474.873-3.474,2.892,0,2.036,1.619,2.927,3.492,2.927,1.891,0,3.491-.964,3.491-2.927C619.431,371.67,617.831,370.724,615.921,370.724Z" transform="translate(-580.023 -365.614)" fill="#e73c70"/>
      <path id="Path_3624" data-name="Path 3624" d="M667.8,384.884c-3.71,0-6.619-1.728-6.619-5.183,0-3.437,2.909-5.165,6.619-5.165,3.691,0,6.6,1.728,6.6,5.165C674.4,383.156,671.486,384.884,667.8,384.884Zm-.018-8.129c-2.055,0-3.837.891-3.837,2.946,0,2.073,1.782,2.964,3.837,2.964,2.037,0,3.819-.891,3.819-2.964C671.6,377.647,669.814,376.755,667.777,376.755Z" transform="translate(-616.457 -371.737)" fill="#e73c70"/>
      <path id="Path_3625" data-name="Path 3625" d="M734.917,384.666h-2.982V380.52c0-2.946-.8-3.673-2.309-3.673a5.671,5.671,0,0,0-3.273,1.4v6.419H723.5V380.52c0-2.946-.8-3.673-2.31-3.673a4.782,4.782,0,0,0-3.237,1.364v6.455h-2.964v-9.911h2.8v1.2a4.868,4.868,0,0,1,3.546-1.418,4.56,4.56,0,0,1,4.055,1.873,6.559,6.559,0,0,1,4.383-1.873c2.928,0,5.146,1.346,5.146,5.91Z" transform="translate(-654.465 -371.737)" fill="#e73c70"/>
      <path id="Path_3626" data-name="Path 3626" d="M803.876,380.429h-9.692c.364,1.618,1.909,2.4,3.71,2.4,1.6,0,2.546-.4,2.909-1.164h3.164c-.455,1.8-3.073,3.219-6.019,3.219-3.746,0-6.547-1.728-6.547-5.165,0-3.455,2.8-5.183,6.51-5.183a5.606,5.606,0,0,1,5.965,5.419Zm-3.018-1.782c-.091-1.091-1.418-2.019-2.964-2.019-1.782,0-3.2.491-3.637,2.019Z" transform="translate(-708.438 -371.737)" fill="#e73c70"/>
      <path id="Path_3627" data-name="Path 3627" d="M842.868,368.72h1.764v2.037h-1.764v4.6c0,.782.218,1,.727,1a1.554,1.554,0,0,0,1.091-.4v2.219a2.257,2.257,0,0,1-1.764.673c-2.128,0-2.891-1.146-2.891-3.4v-4.692h-1.382V368.72h1.382v-1.782l2.837-.946Z" transform="translate(-741.81 -365.701)" fill="#e73c70"/>
      <path id="Path_3628" data-name="Path 3628" d="M873.887,377.265c-1.6.018-4.037.291-4.037,2.546v4.855h-2.964v-9.911h2.782V376.5c.691-1.6,2.092-1.964,4.219-1.964Z" transform="translate(-761.755 -371.737)" fill="#e73c70"/>
      <path id="Path_3629" data-name="Path 3629" d="M898.861,367.475a1.264,1.264,0,1,1,1.527-1.236A1.417,1.417,0,0,1,898.861,367.475Zm1.473,10.456h-2.946V368.02h2.946Z" transform="translate(-783.273 -365.002)" fill="#e73c70"/>
      <path id="Path_3630" data-name="Path 3630" d="M923.538,384.884c-3.71,0-6.619-1.728-6.619-5.183,0-3.437,2.91-5.165,6.619-5.165,3.692,0,6.6,1.728,6.6,5.165C930.139,383.156,927.23,384.884,923.538,384.884Zm-.018-8.129c-2.055,0-3.837.891-3.837,2.946,0,2.073,1.782,2.964,3.837,2.964,2.036,0,3.818-.891,3.818-2.964C927.339,377.647,925.557,376.755,923.52,376.755Z" transform="translate(-797.094 -371.737)" fill="#e73c70"/>
      <path id="Path_3631" data-name="Path 3631" d="M978.091,377.665c-.4-.873-1.091-1.109-2.582-1.109-2.146,0-2.982.309-2.982.982,0,.618.8.745,2.019.872,2.927.291,6.583.145,6.583,2.873,0,2.328-1.455,3.6-5.747,3.6-2.418,0-3.455-.218-4.328-.691a3.267,3.267,0,0,1-1.746-2.71h2.964c.2.946,1.673,1.218,3.31,1.218,1.346,0,2.655-.146,2.655-1.073,0-.527-.582-.782-1.6-.836-1.255-.073-2.273-.109-3.146-.218-1.582-.182-3.928-.436-3.928-2.91a2.529,2.529,0,0,1,1.4-2.291,8.931,8.931,0,0,1,4.528-.836c3.655,0,5.11,1.055,5.528,3.019Z" transform="translate(-834.098 -371.737)" fill="#e73c70"/>
      <path id="Path_3632" data-name="Path 3632" d="M1029.215,380.429h-9.692c.364,1.618,1.909,2.4,3.709,2.4,1.6,0,2.546-.4,2.909-1.164h3.164c-.454,1.8-3.073,3.219-6.019,3.219-3.746,0-6.547-1.728-6.547-5.165,0-3.455,2.8-5.183,6.51-5.183a5.606,5.606,0,0,1,5.965,5.419Zm-3.019-1.782c-.091-1.091-1.418-2.019-2.964-2.019-1.782,0-3.2.491-3.637,2.019Z" transform="translate(-867.6 -371.737)" fill="#e73c70"/>
    </g>
    <g id="Group_3182" data-name="Group 3182" transform="translate(338.659 338.061)">
      <path id="Path_3633" data-name="Path 3633" d="M510.7,436.46h-.909a.47.47,0,0,0-.473.473v.255h1.455v2.037h-1.455V447.1h-2.964v-7.874H504.88v-2.037h1.473c.073-2.164,1.091-2.764,3.109-2.764H510.7Z" transform="translate(-504.88 -434.168)" fill="#e73c70"/>
      <path id="Path_3634" data-name="Path 3634" d="M536.454,453.439c-3.709,0-6.619-1.728-6.619-5.183,0-3.437,2.91-5.165,6.619-5.165,3.692,0,6.6,1.728,6.6,5.165C543.055,451.711,540.146,453.439,536.454,453.439Zm-.018-8.129c-2.055,0-3.837.891-3.837,2.946,0,2.073,1.782,2.964,3.837,2.964,2.037,0,3.818-.891,3.818-2.964C540.255,446.2,538.473,445.31,536.436,445.31Z" transform="translate(-522.506 -440.291)" fill="#e73c70"/>
      <path id="Path_3635" data-name="Path 3635" d="M590.648,445.819c-1.6.018-4.037.291-4.037,2.546v4.856h-2.964v-9.911h2.782v1.746c.691-1.6,2.091-1.964,4.219-1.964Z" transform="translate(-560.515 -440.291)" fill="#e73c70"/>
      <path id="Path_3636" data-name="Path 3636" d="M624.3,448.983H614.6c.363,1.618,1.909,2.4,3.71,2.4,1.6,0,2.546-.4,2.91-1.164h3.164c-.455,1.8-3.073,3.219-6.019,3.219-3.746,0-6.546-1.728-6.546-5.165,0-3.455,2.8-5.183,6.51-5.183a5.606,5.606,0,0,1,5.964,5.42Zm-3.018-1.782c-.091-1.091-1.419-2.018-2.964-2.018-1.782,0-3.2.491-3.637,2.018Z" transform="translate(-580.415 -440.291)" fill="#e73c70"/>
      <path id="Path_3637" data-name="Path 3637" d="M675.17,453.22h-2.982v-4.146c0-2.946-1.127-3.673-2.855-3.673a4.757,4.757,0,0,0-3.273,1.364v6.456H663.1v-9.911h2.8v1.2a5.816,5.816,0,0,1,3.891-1.419c2.6,0,5.383.964,5.383,5.91Z" transform="translate(-616.631 -440.291)" fill="#e73c70"/>
      <path id="Path_3638" data-name="Path 3638" d="M715.939,436.029a1.264,1.264,0,1,1,1.528-1.236A1.417,1.417,0,0,1,715.939,436.029Zm1.473,10.456h-2.946v-9.911h2.946Z" transform="translate(-652.89 -433.556)" fill="#e73c70"/>
      <path id="Path_3639" data-name="Path 3639" d="M747.372,453.22H744.39v-4.146c0-2.946-1.128-3.673-2.855-3.673a4.757,4.757,0,0,0-3.273,1.364v6.456H735.3v-9.911h2.8v1.2a5.817,5.817,0,0,1,3.892-1.419c2.6,0,5.383.964,5.383,5.91Z" transform="translate(-667.629 -440.291)" fill="#e73c70"/>
      <path id="Path_3640" data-name="Path 3640" d="M797.617,450.493c0,4.019-2.309,5.492-6.419,5.492a14.336,14.336,0,0,1-5.837-.891l.927-2.128a11.763,11.763,0,0,0,4.728,1.018c2.073,0,3.946-.982,3.946-2.673a6.665,6.665,0,0,1-4.583,1.455c-2.418,0-5.419-1.219-5.419-4.837,0-3.382,2.891-4.838,5.746-4.838a8.107,8.107,0,0,1,4.11.982v-.782h2.8Zm-6.2-5.31c-1.891,0-3.6.8-3.6,2.655,0,1.873,1.709,2.655,3.564,2.655,1.928,0,3.528-.855,3.528-2.655C794.908,446.055,793.308,445.183,791.417,445.183Z" transform="translate(-702.707 -440.291)" fill="#e73c70"/>
      <path id="Path_3641" data-name="Path 3641" d="M849.389,448.983H839.7c.364,1.618,1.909,2.4,3.709,2.4,1.6,0,2.546-.4,2.909-1.164h3.164c-.455,1.8-3.073,3.219-6.019,3.219-3.746,0-6.547-1.728-6.547-5.165,0-3.455,2.8-5.183,6.51-5.183a5.606,5.606,0,0,1,5.965,5.42ZM846.37,447.2c-.091-1.091-1.418-2.018-2.964-2.018-1.782,0-3.2.491-3.637,2.018Z" transform="translate(-739.403 -440.291)" fill="#e73c70"/>
      <path id="Path_3642" data-name="Path 3642" d="M900.263,453.22H897.28v-4.146c0-2.946-1.127-3.673-2.855-3.673a4.758,4.758,0,0,0-3.273,1.364v6.456h-2.964v-9.911h2.8v1.2a5.816,5.816,0,0,1,3.891-1.419c2.6,0,5.383.964,5.383,5.91Z" transform="translate(-775.619 -440.291)" fill="#e73c70"/>
    </g>
  </g>
</svg>
