<svg width="181" height="182" viewBox="0 0 181 182" fill="none" xmlns="http://www.w3.org/2000/svg">
<ellipse cx="90.5" cy="91" rx="90.5" ry="91" fill="#053870"/>
<path d="M86.5485 139.899C86.5485 137.776 86.3294 136.198 85.1934 130.083C83.1992 119.357 83.3867 115.77 86.1984 110.99C87.6687 108.492 87.7093 108.571 84.8366 108.383C79.4186 108.027 75.4098 106.131 73.6866 103.113C71.2972 98.927 72.2457 93.6882 75.9292 90.7273L77.3385 89.5931C74.2128 84.8892 73.2598 81.1618 73.5579 77.7736C73.7047 76.0973 73.7047 76.0973 71.9386 75.8036C69.5062 75.3977 69.6101 75.3643 69.6101 76.5248C69.6101 77.0835 69.3052 78.4851 68.9326 79.6408C68.1037 82.2077 68.106 82.0597 68.9258 84.3137C69.9579 87.1528 70.0166 88.4016 69.26 91.4198C68.6232 93.9604 68.6232 93.9604 69.5649 95.6605C72.2118 100.441 71.9611 106.055 68.9213 110.097C67.5685 111.895 67.5685 111.895 68.4673 113.82C70.3147 117.774 70.1928 121.117 68.2031 121.117C67.0422 121.117 66.7102 120.646 66.3602 118.509C65.8791 115.579 64.8335 113.815 63.6252 113.889C59.9033 114.116 58.8915 114.032 57.3015 113.356C51.3437 110.832 48.4439 103.187 50.8943 96.4771C51.6012 94.543 51.6012 94.543 50.9056 92.6065C49.7244 89.3257 49.7041 87.2841 50.813 83.798C51.4047 81.9355 51.4047 81.9355 50.6572 79.0845C49.8238 75.9183 49.8215 74.5047 50.6436 71.582C51.0501 70.1446 51.0479 70.1279 50.4946 67.869C47.5879 56.0423 59.5668 46.527 68.8309 53.3059C70.1747 54.2873 70.1747 54.2873 72.3248 54.1321C75.2607 53.9196 77.6999 54.6049 79.9222 56.2668C81.4625 57.4177 81.4625 57.4177 83.1947 56.995C85.4351 56.4482 86.9528 56.6273 89.5658 57.7472C91.569 58.6044 91.569 58.6044 93.0664 57.8666C95.3971 56.7205 96.6573 56.5199 99.2591 56.8852C101.468 57.1956 101.468 57.1956 103.051 56.0829C105.425 54.4091 107.489 53.8647 110.237 54.1822C112.36 54.4282 112.36 54.4282 113.964 53.2558C123.289 46.4363 135.351 56.1498 132.391 68.0911C131.878 70.1589 131.878 70.1589 132.361 72.0715C133.068 74.8533 133.012 76.988 132.169 79.4952C131.797 80.6007 131.492 81.6466 131.492 81.8161C131.492 81.988 131.797 83.0506 132.169 84.18C133.165 87.1982 133.131 89.414 132.047 92.4322C131.243 94.6672 131.243 94.6672 131.932 96.9499C133.179 101.078 132.58 105.701 130.369 109.013C129.556 110.231 129.403 110.68 129.105 112.714C127.641 122.633 118.957 128.469 109.872 125.637C107.52 124.904 107.52 124.904 105.56 125.544C103.878 126.093 103.356 126.162 101.879 126.036C100.16 125.887 100.16 125.887 100.052 128.337C99.9592 130.393 99.7695 131.363 98.8774 134.369C98.0395 137.189 97.773 138.495 97.6285 140.51C97.3845 143.87 96.7454 145.138 94.8348 146.057C93.8614 146.525 93.2042 146.666 91.9801 146.666C90.6002 146.666 90.214 146.563 89.0893 145.89C87.147 144.73 86.5485 143.318 86.5485 139.899ZM94.3221 139.741C94.4147 138.318 94.7918 136.504 95.5823 133.676C96.8538 129.137 96.9916 127.463 96.3434 124.486C95.6704 121.379 96.5241 120.67 99.5504 121.819C102.051 122.769 102.891 122.75 105.33 121.678C107.315 120.804 107.315 120.804 109.851 121.738C117.805 124.66 124.782 120.281 125.92 111.654C126.22 109.362 126.304 109.13 127.496 107.196C128.481 105.598 128.831 104.77 129.107 103.385C129.613 100.849 129.581 100.532 128.517 97.3964C127.56 94.5717 127.56 94.5717 128.535 92.0907C129.834 88.7813 129.825 86.8137 128.497 84.1323C127.447 82.0095 127.449 81.8471 128.556 79.211C129.71 76.4651 129.757 75.0372 128.797 71.9951C128.434 70.8418 128.174 69.7912 128.221 69.6599C129.357 66.5319 129.502 65.8084 129.394 63.7334C128.983 55.7797 120.328 51.7419 115.014 57.0237C113.476 58.5543 113.424 58.5638 110.822 57.974C108.022 57.3413 106.233 57.8427 104.198 59.8341C102.495 61.5008 102.236 61.5796 100.519 60.9564C97.834 59.9798 95.4558 60.3069 93.0393 61.9879C91.4742 63.0744 91.4674 63.0744 89.4461 61.7921C86.9392 60.2042 85.3989 59.9631 83.0727 60.7916C80.6042 61.6703 80.4507 61.6417 78.7794 60.0204C76.5187 57.826 74.8091 57.327 71.6947 57.9478C69.3707 58.4134 69.3707 58.4134 67.7627 57.0452C60.486 50.8584 51.145 58.0672 54.0358 67.6398C54.7246 69.9201 54.7246 69.9201 54.02 72.1766C53.1076 75.0921 53.1934 76.3791 54.5101 79.5716C55.4451 81.8424 55.4451 81.8424 54.4604 84.0487C53.0579 87.1838 53.0602 88.7646 54.4717 92.1504C55.4699 94.543 55.4699 94.543 54.4672 96.8401C52.5678 101.179 53.1573 105.288 56.1136 108.321C63.038 115.424 72.2118 104.651 66.0824 96.6156C64.5241 94.574 64.4653 94.2565 65.2874 92.3104C66.717 88.9245 66.6719 87.0501 65.0864 83.9651C63.9866 81.8256 63.982 82.074 65.188 79.6695C66.848 76.3648 66.8254 74.4044 65.1113 72.3079C64.034 70.9923 63.8781 69.8652 64.6641 69.0677C65.4184 68.3012 66.0327 68.4827 67.7107 69.9631C70.2357 72.1933 73.0904 72.7879 76.1009 71.7062C78.1064 70.9875 78.3842 71.0448 80.0938 72.5419C83.005 75.0969 86.1375 75.3667 89.4506 73.349C91.3567 72.1885 91.4448 72.1885 93.4232 73.3323C97.1655 75.5004 100.221 75.0634 103.523 71.8925C104.35 71.0997 104.35 71.0997 106.949 71.7826C110.59 72.7377 112.132 72.4154 114.86 70.1231C116.805 68.4875 117.433 68.2869 118.167 69.0629C118.824 69.7578 118.74 70.88 117.95 72.0405C116.36 74.3734 116.134 78.0911 117.39 81.2406C118.587 84.2349 118.587 84.2922 117.519 86.68C116.231 89.5597 116.211 91.1356 117.426 94.4069C118.28 96.7087 118.28 96.7087 117.081 99.192C115.881 101.675 115.881 101.675 115.935 104.135C116.001 107.251 115.816 107.506 113.496 107.506C111.353 107.509 110.032 108.118 108.196 109.949C106.278 111.862 105.84 111.89 104.237 110.197C97.441 103.027 87.226 109.142 87.226 120.376C87.226 121.89 87.5558 124.216 88.4795 129.235C89.3264 133.829 89.7894 137.01 89.9046 139.025C90.0536 141.635 90.1372 142.077 90.5708 142.547C90.9028 142.908 91.3432 143.089 91.9123 143.099C93.4819 143.125 94.164 142.175 94.3221 139.741ZM104.115 106.186C104.521 106.269 105.106 106.546 105.413 106.802C105.926 107.232 106.007 107.236 106.423 106.89C106.784 106.587 106.875 106.226 106.875 105.09C106.875 100.376 104.031 98.8052 97.6149 99.9776C88.7934 101.587 79.3214 100.727 79.3214 98.3157C79.3214 96.6729 80.1187 96.3959 83.5131 96.8615C94.0601 98.3062 104.883 96.021 107.349 91.8281C108.462 89.9346 108.178 86.6442 106.746 84.8462C105.009 82.6638 103.252 82.6184 96.7725 84.5883C89.3716 86.8352 86.4017 86.8018 83.687 84.4403C82.0293 82.998 81.5799 81.9641 81.5799 79.5907C81.5799 77.6804 81.5799 77.6804 80.541 77.1957C79.9696 76.9283 79.003 76.3218 78.391 75.849C77.2821 74.987 77.2821 74.987 77.0336 76.3815C76.1438 81.3887 78.1019 86.2574 81.8645 88.404C85.7761 90.6342 89.6923 90.67 97.6149 88.552C103.191 87.0597 103.604 87.0549 103.871 88.4661C104.131 89.8391 103.695 90.2617 101.093 91.1643C95.0651 93.2512 90.4443 93.7526 84.7553 92.936C81.0514 92.4035 80.8572 92.3988 79.5405 92.7856C76.792 93.5927 75.0485 96.5655 75.6673 99.395C76.7604 104.402 82.8062 105.842 95.6952 104.171C101.922 103.363 102.362 103.421 103.035 105.159C103.302 105.847 103.532 106.066 104.115 106.186ZM107.274 98.1104C108.555 99.235 109.736 101.346 110.025 103.029C110.156 103.784 110.287 104.4 110.319 104.395C110.35 104.39 110.838 104.278 111.405 104.147C112.433 103.906 112.433 103.906 112.713 101.854C112.925 100.3 113.196 99.4212 113.831 98.2059C114.666 96.6084 114.666 96.6084 113.989 94.9537C112.952 92.4226 112.981 88.5855 114.054 86.0592C114.797 84.3113 114.797 84.3113 114.244 83.0745C113.456 81.3051 113.108 79.1489 113.277 77.0477C113.354 76.0711 113.395 75.2712 113.365 75.2712C113.336 75.2712 112.652 75.4335 111.843 75.6293C109.966 76.0878 108.72 76.0639 106.811 75.5386C105.282 75.116 105.282 75.116 103.649 76.2812C100.363 78.6308 96.5963 78.9269 93.0167 77.1193C91.4697 76.3385 91.4697 76.3385 89.9 77.1623C88.816 77.7306 87.7726 78.0649 86.5214 78.2392C84.7124 78.4947 84.7124 78.4947 84.8614 79.3304C85.5141 83.01 88.5969 83.4637 96.2598 81.0066C101.816 79.2253 103.485 79.0749 105.989 80.1351C112.182 82.7545 113.221 92.5468 107.71 96.3315C106.328 97.2794 106.328 97.2794 107.274 98.1104Z" fill="#FAFDFF"/>
<path d="M111.5 127C111.5 137.217 104.345 147 87.5 147C70.6553 147 57 138.717 57 128.5C57 118.283 70.6553 110 87.5 110C104.345 110 111.5 116.783 111.5 127Z" fill="#053870"/>
<path d="M87.8198 144.382C87.8198 141.842 87.2232 140.993 84.6055 139.816C78.9697 137.286 78.2307 136.89 76.6184 135.546C72.7394 132.316 71.3789 127.549 73.1688 123.458C73.9697 121.627 73.9615 121.553 72.7394 119.844C70.3591 116.518 69.0689 110 70.7906 110C71.4429 110 71.4367 109.984 72.1097 113.417C72.6072 115.961 72.7579 116.396 73.6436 117.853C75.0267 120.128 75.0886 120.142 77.8013 118.746C84.0935 115.511 96.9919 115.499 103.096 118.723C105.815 120.157 105.925 120.136 107.301 117.945C108.208 116.506 108.358 116.093 108.798 113.812C109.519 110.089 109.51 110.108 110.157 110.035C111.864 109.846 110.817 115.696 108.47 119.447C107.027 121.755 107.062 121.362 108.049 124.17C108.792 126.292 108.604 129.285 107.59 131.397C105.951 134.816 103.164 137.038 97.766 139.226C93.7116 140.867 93.3255 141.285 93.2264 144.105C93.15 146.297 92.9663 146.803 92.25 146.803C91.4159 146.803 91.2405 146.049 91.5006 143.552C91.8144 140.517 92.3573 139.75 95.0452 138.541C101.412 135.676 101.845 135.436 103.619 133.749C108.559 129.057 107.795 122.976 101.897 120.025C96.6987 117.426 84.8243 117.416 79.2525 120.006C74.9586 122.001 73.1667 126.018 74.7315 130.137C75.8772 133.155 79.044 135.695 84.1204 137.669C88.5939 139.409 89.5477 140.633 89.4321 144.489C89.3805 146.242 89.3061 146.669 89.0254 146.817C88.8375 146.917 88.5815 147 88.4577 147C88.3338 147 88.1398 146.758 88.0262 146.461C87.9127 146.166 87.8198 145.229 87.8198 144.382Z" fill="#F2F5F9"/>
<path d="M89 146.504C87 136.7 87.8617 140.422 84.7325 139.231C81.6034 138.04 75.673 134.357 74.5 131C72.4045 125.004 76.6953 119.898 83 118.5C86.0908 117.816 95.6281 117.52 99 118.5C105.569 120.409 109.013 125.215 106 131C104.467 133.941 101.247 136.914 95.3617 139.231C91.28 140.836 92.3617 146.504 92.3617 146.504H89Z" fill="#F2F9FF"/>
</svg>
