<?xml version="1.0" encoding="UTF-8"?>
<svg version="1.1" xmlns="http://www.w3.org/2000/svg" width="533" height="468">
<path d="M0 0 C0.68531799 -0.00335861 1.37063599 -0.00671722 2.07672119 -0.01017761 C4.33420648 -0.01964653 6.59161719 -0.02162909 8.84912109 -0.02270508 C10.42988108 -0.02592194 12.01064077 -0.02928633 13.59140015 -0.03279114 C16.90501596 -0.03877332 20.21860573 -0.04063212 23.53222656 -0.04003906 C27.75164477 -0.03993783 31.97089324 -0.05355384 36.19027138 -0.07081127 C39.45735419 -0.08200518 42.72439703 -0.08395597 45.99149704 -0.08342934 C47.54541989 -0.08459974 49.09934409 -0.08896791 50.65324783 -0.0967617 C69.28382547 -0.18141325 84.12034439 2.65118541 97.93505859 16.02026367 C102.45424035 20.85111314 105.36636494 26.10435838 107.99755859 32.14526367 C108.35720703 32.9006543 108.71685547 33.65604492 109.08740234 34.43432617 C110.29606709 38.03438341 110.53986758 41.57087642 110.74755859 45.33276367 C110.80298828 46.03723633 110.85841797 46.74170898 110.91552734 47.4675293 C111.49584861 57.18351414 108.83751098 65.37622624 104.74755859 74.08276367 C104.37759766 74.89938477 104.00763672 75.71600586 103.62646484 76.55737305 C100.70495584 82.9138986 97.40594226 89.03821306 93.99755859 95.14526367 C95.31191895 95.11384277 95.31191895 95.11384277 96.65283203 95.08178711 C99.96300162 95.01284342 103.2723879 94.96309803 106.58300781 94.92553711 C108.00468121 94.90565357 109.42627542 94.8785364 110.84765625 94.84350586 C125.91746825 94.48191545 139.0326702 97.63932861 150.28662109 108.31713867 C152.327663 110.53400067 154.2053792 112.72166242 155.99755859 115.14526367 C156.37710693 115.63591309 156.75665527 116.1265625 157.14770508 116.63208008 C161.99193087 123.51112781 163.92802569 131.68498185 166.31005859 139.64526367 C167.03103281 142.00795696 167.75626636 144.36931288 168.48200989 146.73054504 C168.96548097 148.30372751 169.44773452 149.87728468 169.92875671 151.45121765 C171.9836013 158.15914845 174.18035664 164.81437775 176.43505859 171.45776367 C178.77561085 178.38354793 180.94402722 185.30873128 182.88037109 192.36010742 C184.68051747 198.45920474 186.75411562 204.46884412 188.82958984 210.47924805 C191.01330273 216.89445277 192.93107836 223.35772257 194.76318359 229.87963867 C197.8605682 240.87726568 201.31626935 251.74700065 204.83239746 262.61688232 C206.60564833 268.09926789 208.36797936 273.58516065 210.13037109 279.07104492 C210.64204834 280.66281555 210.64204834 280.66281555 211.1640625 282.28674316 C214.05623378 291.29737705 216.874917 300.32788632 219.61425781 309.38623047 C219.87996582 310.2631958 220.14567383 311.14016113 220.41943359 312.04370117 C220.66959229 312.87289063 220.91975098 313.70208008 221.17749023 314.55639648 C221.77307218 316.43658432 222.40776259 318.30452361 223.06567383 320.16381836 C225.16027783 326.09473261 226.70261986 331.33424497 226.56005859 337.64526367 C226.54765137 338.36665527 226.53524414 339.08804687 226.52246094 339.83129883 C226.00498251 352.28122108 220.00154273 360.85249471 210.99755859 369.14526367 C208.6379092 371.00761062 206.8319533 371.9021081 203.99755859 373.14526367 C202.87034912 373.64496332 202.87034912 373.64496332 201.72036773 374.15475792 C194.17307034 377.22301497 187.51970648 377.71443376 179.43070984 377.65992737 C178.09062607 377.66526334 176.7505483 377.67233503 175.41048175 377.68097442 C171.75672103 377.69949029 168.10336867 377.6933354 164.44959176 377.68282139 C160.49784329 377.67579757 156.54617606 377.69185146 152.5944519 377.70481873 C144.8635039 377.72641204 137.13270337 377.72634366 129.40173515 377.71819318 C123.11444101 377.7118813 116.82718972 377.7130411 110.53989601 377.71946526 C109.64343612 377.72036691 108.74697622 377.72126857 107.82335088 377.72219754 C106.00190298 377.72404884 104.18045509 377.7259114 102.35900722 377.7277851 C85.29479657 377.74434778 68.23066871 377.73565793 51.16646305 377.71879952 C35.57605266 377.70410902 19.9858351 377.71872453 4.39544954 377.74756969 C-11.63534323 377.77700741 -27.66604714 377.7879229 -43.69686574 377.77838749 C-45.51235432 377.777365 -47.32784292 377.77637039 -49.14333153 377.77540398 C-50.03645253 377.77492759 -50.92957353 377.7744512 -51.84975881 377.77396037 C-58.1231282 377.77180174 -64.39641293 377.78157107 -70.66976357 377.796175 C-78.32434387 377.81374657 -85.97867858 377.81351232 -93.63324944 377.79082335 C-97.5338489 377.77972384 -101.43401646 377.77642004 -105.33459663 377.79512405 C-108.91450995 377.81206854 -112.49361939 377.80539249 -116.07348194 377.78090727 C-117.96243961 377.77379969 -119.85144223 377.79093765 -121.74032384 377.8093186 C-134.0710902 377.67649345 -144.97151109 374.39201903 -153.87744141 365.61791992 C-162.16630587 355.97297285 -165.10211079 346.3281526 -164.97900391 333.75073242 C-164.58728825 328.57448985 -163.02795358 324.10784098 -161.15112305 319.29248047 C-159.98331988 316.09287353 -159.03879356 312.89255582 -158.13134766 309.61010742 C-156.16846397 302.64772663 -153.99694433 295.77116243 -151.75244141 288.89526367 C-148.32014699 278.30807621 -144.99705518 267.69284349 -141.75048828 257.04736328 C-139.99818608 251.3200786 -138.18527222 245.62661503 -136.25244141 239.95776367 C-134.60502579 235.12020209 -133.2058289 230.27910185 -131.93994141 225.33276367 C-130.64064863 220.30256995 -129.08830236 215.62694816 -127.05224609 210.85644531 C-125.90622242 207.89677254 -125.04560929 204.93530195 -124.20166016 201.87573242 C-121.90106027 193.70461794 -119.37440437 185.61342851 -116.81494141 177.52026367 C-116.33176135 175.98910318 -115.84860746 174.45793443 -115.36547852 172.92675781 C-114.14803795 169.07141564 -112.92730008 165.21712638 -111.70532227 161.36322021 C-111.02924892 159.22985539 -110.35451589 157.09607143 -109.68017578 154.9621582 C-108.48042239 151.16732649 -107.27342069 147.37482634 -106.06494141 143.58276367 C-105.53574097 141.90996338 -105.53574097 141.90996338 -104.99584961 140.20336914 C-99.44578926 122.87486214 -99.44578926 122.87486214 -94.50244141 115.14526367 C-93.65166016 113.78401367 -93.65166016 113.78401367 -92.78369141 112.39526367 C-90.93762731 110.06339323 -89.62515283 109.38994028 -87.00244141 108.14526367 C-86.50744141 106.66026367 -86.50744141 106.66026367 -86.00244141 105.14526367 C-83.63134766 103.42651367 -83.63134766 103.42651367 -80.56494141 101.64526367 C-79.081875 100.76354492 -79.081875 100.76354492 -77.56884766 99.86401367 C-67.998956 95.25201769 -58.85783121 94.63098296 -48.37744141 94.45776367 C-46.97767146 94.42451305 -45.57793053 94.39001654 -44.17822266 94.35424805 C-40.78637655 94.2723759 -37.3947693 94.20302579 -34.00244141 94.14526367 C-34.51033203 93.06889648 -35.01822266 91.9925293 -35.54150391 90.88354492 C-36.97601356 87.8428181 -38.40435198 84.7992636 -39.83056641 81.75463867 C-41.13092013 78.98253136 -42.44839567 76.22117982 -43.79931641 73.47338867 C-50.49227829 59.62359625 -51.54193788 47.90716008 -47.00244141 33.14526367 C-42.07377742 20.82360371 -33.99090627 10.27654147 -21.71337891 4.63354492 C-14.27877871 1.70501731 -8.01043832 0.02472821 0 0 Z M-23.54541016 33.93432617 C-28.01015303 40.41258054 -28.45745898 48.08851885 -27.52148438 55.69311523 C-25.74826279 64.07046124 -21.05465969 71.6945519 -17.00244141 79.14526367 C-16.19568218 80.68777464 -15.39210618 82.23195623 -14.59228516 83.77807617 C-11.80787987 89.83029114 -11.80787987 89.83029114 -8.00244141 95.14526367 C-5.56848122 95.24025013 -3.16301188 95.27084784 -0.72875977 95.25878906 C0.03216476 95.25893509 0.79308929 95.25908112 1.57707214 95.25923157 C4.10398158 95.25853229 6.63081821 95.25073922 9.15771484 95.24291992 C10.90506449 95.24105579 12.65241466 95.23963187 14.39976501 95.2386322 C19.00787794 95.2348066 23.61595954 95.22497596 28.22406006 95.21392822 C32.9226438 95.20371501 37.62123258 95.19913478 42.31982422 95.1940918 C51.54574947 95.18335373 60.77165143 95.1662768 69.99755859 95.14526367 C71.5814224 92.14033464 73.16455091 89.13501879 74.74755859 86.12963867 C75.19099609 85.28836426 75.63443359 84.44708984 76.09130859 83.58032227 C87.68061729 63.81376291 87.68061729 63.81376291 88.34521484 41.71948242 C85.22037199 33.95431498 80.49093091 27.9345172 72.78540039 24.45019531 C65.04013013 21.37771136 57.57095609 21.43734022 49.39208984 21.51635742 C47.81654191 21.51552642 46.2409941 21.51305834 44.66545105 21.50904846 C41.38501475 21.50620995 38.10526862 21.52070336 34.82495117 21.54833984 C30.64221155 21.58250505 26.46069709 21.57635803 22.27789783 21.55767727 C19.03226176 21.54706119 15.78690606 21.55608518 12.54129601 21.57106209 C10.99968997 21.57620494 9.45805418 21.57581003 7.91645241 21.56951714 C-5.3233868 21.53572924 -14.69657999 23.67416359 -23.54541016 33.93432617 Z M-76.43603516 126.78588867 C-80.85618557 133.1200606 -82.76702542 140.83622815 -85.00244141 148.14526367 C-85.34146484 149.23323242 -85.68048828 150.32120117 -86.02978516 151.44213867 C-86.68861547 153.5694462 -87.34210395 155.69841416 -87.99072266 157.82885742 C-89.04133739 161.27276441 -90.11325474 164.70942057 -91.18994141 168.14526367 C-93.47780393 175.45397154 -95.7531891 182.7665523 -98.02481079 190.08032227 C-98.61361994 191.9757707 -99.20292222 193.87106592 -99.79223633 195.76635742 C-101.42090371 201.01204571 -103.04090868 206.25782321 -104.58837891 211.52807617 C-105.43662086 214.37721029 -106.35518234 217.1584897 -107.42822266 219.93041992 C-109.6552212 225.71252321 -111.37783882 231.66082652 -113.18994141 237.58276367 C-113.98768351 240.17705063 -114.78761468 242.77065807 -115.58837891 245.36401367 C-115.78963882 246.01615341 -115.99089874 246.66829315 -116.19825745 247.3401947 C-118.18730307 253.77045532 -120.24742616 260.17734699 -122.31494141 266.58276367 C-124.69031451 273.94968051 -126.94439339 281.31962149 -129.01416016 288.77807617 C-130.44261535 293.64498676 -132.08462602 298.4347724 -133.71289062 303.23779297 C-135.74743859 309.27886515 -137.59370052 315.36201739 -139.35375977 321.48828125 C-140.21133088 324.47198287 -141.09850961 327.42234461 -142.11572266 330.35620117 C-143.63298759 335.12856753 -143.98911427 339.58450341 -142.16259766 344.32495117 C-139.02875614 349.9173283 -134.3907117 353.79843359 -128.21532029 355.69375962 C-125.63792611 356.21963744 -123.26313498 356.27451694 -120.63153553 356.27948475 C-119.53533542 356.28394259 -118.4391353 356.28840044 -117.309717 356.29299337 C-116.10574968 356.292809 -114.90178236 356.29262464 -113.66133118 356.29243469 C-112.38202813 356.29611138 -111.10272508 356.29978807 -109.78465527 356.30357617 C-106.23097244 356.31358748 -102.6773065 356.31731156 -99.12361157 356.31996548 C-95.29183748 356.32387108 -91.46007673 356.33344919 -87.62831116 356.34217834 C-78.37364793 356.36193481 -69.11898362 356.37200761 -59.86430457 356.38090613 C-55.50561199 356.38529009 -51.14692062 356.39065659 -46.78822899 356.395895 C-32.29838087 356.41290593 -17.80853351 356.42740026 -3.31867695 356.43464375 C0.4409504 356.43655362 4.20057775 356.43847396 7.96020508 356.44042969 C8.89463532 356.44091343 9.82906555 356.44139717 10.79181186 356.44189557 C25.93012027 356.45019649 41.06834967 356.47553507 56.20662358 356.50801037 C71.75011583 356.54108303 87.29356793 356.55909267 102.83709556 356.56228799 C111.56369 356.56445281 120.29016921 356.57319755 129.01672935 356.59874916 C136.44832908 356.62045893 143.87978559 356.6285052 151.31141343 356.61878238 C155.10194196 356.61423855 158.89217499 356.61612845 162.68266296 356.63554382 C166.79582641 356.65642971 170.90833492 356.64618758 175.02153015 356.63301086 C176.21434386 356.64398011 177.40715758 356.65494936 178.63611716 356.666251 C187.18571263 356.60011271 194.0498278 355.16600478 200.43505859 349.20776367 C204.03102006 344.91015118 205.1037965 342.96994623 204.77490234 337.32104492 C203.9889526 330.89224682 202.02440023 324.81733158 200.12255859 318.64526367 C199.72493431 317.3364754 199.32747713 316.02763634 198.93017578 314.71875 C195.43068342 303.26593651 191.63602952 291.91335715 187.80908203 280.56665039 C185.54123248 273.83491171 183.30444892 267.10786285 181.37255859 260.27026367 C179.30565274 252.98328902 176.91598659 245.82272332 174.49755859 238.64526367 C171.49788312 229.73896006 168.62745943 220.82528952 166.04443359 211.78979492 C165.05089428 208.3309435 164.00492034 204.89366581 162.93505859 201.45776367 C161.20203233 195.87434438 159.59442526 190.26105996 158.02490234 184.62963867 C156.7867064 180.43012999 155.39777154 176.29299774 153.99755859 172.14526367 C153.30148383 170.05958041 152.60622877 167.97362348 151.91162109 165.88745117 C150.74685389 162.38935225 149.5794937 158.89223383 148.40405273 155.39770508 C145.00354306 145.26838101 145.00354306 145.26838101 143.57958984 140.36401367 C141.01239585 131.62067182 137.68929629 124.89424957 129.88037109 119.75073242 C123.94036339 116.57899246 118.44196723 116.02029494 111.73724365 116.00482178 C111.01653285 116.00185066 110.29582205 115.99887953 109.55327153 115.99581838 C107.14373818 115.98716251 104.73425469 115.98562577 102.32470703 115.98413086 C100.59475092 115.97950048 98.86479583 115.97447552 97.13484192 115.96908569 C92.43840287 115.95598088 87.74197811 115.94952048 83.04552364 115.94507504 C80.10948177 115.94214122 77.17344378 115.93803582 74.23740387 115.93357086 C65.04569478 115.91990099 55.85399458 115.91023183 46.66227603 115.90636897 C36.06200499 115.90188931 25.46186297 115.88434354 14.86163116 115.85536838 C6.66103024 115.83373274 -1.53953442 115.82366368 -9.74016356 115.82232785 C-14.63483249 115.82128118 -19.52938005 115.81540262 -24.42401886 115.79750824 C-29.03037149 115.78099501 -33.63651195 115.77888782 -38.24288368 115.78764725 C-39.9290734 115.78841588 -41.61527469 115.7840979 -43.30143547 115.774189 C-56.12374972 115.70328448 -67.43479792 116.48474524 -76.43603516 126.78588867 Z " fill="#137EFE" transform="translate(233.00244140625,62.854736328125)"/>
<path d="M0 0 C0.69977463 -0.00175232 1.39954926 -0.00350464 2.12052917 -0.00531006 C4.42128009 -0.00969262 6.72195346 -0.00680425 9.02270508 -0.00341797 C10.62502558 -0.00409181 12.22734598 -0.00506251 13.82966614 -0.00631714 C17.18105039 -0.00778904 20.53240792 -0.00565501 23.88378906 -0.00097656 C28.18475806 0.00473427 32.48566484 0.00142998 36.78663158 -0.00454903 C40.09194918 -0.00815655 43.39725193 -0.00701541 46.70256996 -0.00442123 C48.28904541 -0.00375321 49.87552219 -0.00457606 51.46199608 -0.00690079 C53.67391936 -0.00943192 55.8857406 -0.00558083 58.09765625 0 C59.98698128 0.00119339 59.98698128 0.00119339 61.91447449 0.00241089 C64.85473633 0.12939453 64.85473633 0.12939453 66.85473633 1.12939453 C66.85473633 1.78939453 66.85473633 2.44939453 66.85473633 3.12939453 C68.17473633 3.45939453 69.49473633 3.78939453 70.85473633 4.12939453 C60.62337143 4.04503835 50.39216324 3.95017333 40.16102219 3.84186745 C35.41035638 3.79190811 30.65971278 3.74557799 25.90893555 3.70751953 C21.32471674 3.67066221 16.7406838 3.62430096 12.15662384 3.57133102 C10.40716053 3.55278947 8.65765737 3.53768061 6.90813446 3.52605057 C4.4588261 3.50918403 2.0099432 3.48014822 -0.43920898 3.44824219 C-1.16353622 3.446082 -1.88786346 3.44392181 -2.63414001 3.44169617 C-6.29254553 3.38075985 -9.03244305 3.13864473 -12.14526367 1.12939453 C-8.04537869 0.14723547 -4.21024766 0.00265437 0 0 Z " fill="#1E6EFB" transform="translate(233.145263671875,62.87060546875)"/>
<path d="M0 0 C23.43 0 46.86 0 71 0 C70.67 0.99 70.34 1.98 70 3 C47.23 3 24.46 3 1 3 C0.67 2.01 0.34 1.02 0 0 Z " fill="#2177FF" transform="translate(231,82)"/>
<path d="M0 0 C0.76563086 -0.00226556 1.53126172 -0.00453111 2.32009351 -0.00686532 C4.88726963 -0.0131989 7.45439286 -0.01237638 10.02157593 -0.0115509 C11.8612627 -0.01454269 13.70094884 -0.01794527 15.54063416 -0.02172852 C20.53830943 -0.03056816 25.53596759 -0.03290654 30.53364992 -0.0335443 C34.70155944 -0.03449315 38.86946496 -0.03817096 43.03737295 -0.0417164 C52.86495438 -0.04985992 62.69252666 -0.05230063 72.52011108 -0.05158997 C82.6721383 -0.05098838 92.82411252 -0.06155659 102.97612631 -0.07733363 C111.68359968 -0.09038559 120.39105567 -0.09577489 129.09853876 -0.09513456 C134.30316492 -0.09487899 139.50774393 -0.09776284 144.71236038 -0.10831261 C149.60263182 -0.11795486 154.49281065 -0.11809958 159.38308525 -0.11079597 C161.18186388 -0.10974546 162.98064816 -0.11214043 164.77941704 -0.11815643 C167.22650931 -0.12581349 169.67327662 -0.12127384 172.12036133 -0.11352539 C172.8394145 -0.11866895 173.55846767 -0.12381252 174.29931033 -0.12911195 C179.20492517 -0.09455908 179.20492517 -0.09455908 181.43319702 2.13371277 C179.78319702 2.46371277 178.13319702 2.79371277 176.43319702 3.13371277 C176.43319702 2.80371277 176.43319702 2.47371277 176.43319702 2.13371277 C152.67658673 2.11035673 128.91997815 2.09272028 105.16335869 2.0819006 C94.13285819 2.0767434 83.10236482 2.06971165 72.0718689 2.05827332 C62.45816548 2.04830891 52.84446723 2.04185514 43.23075879 2.03962427 C38.13997643 2.03832016 33.04920886 2.03525317 27.95843124 2.02798271 C23.16671775 2.02119482 18.37502511 2.01910147 13.58330727 2.02060509 C11.82491378 2.02033001 10.06651959 2.01834131 8.30813026 2.01450729 C5.90609852 2.00952682 3.5041454 2.01073056 1.10211182 2.01345825 C0.40754533 2.01054541 -0.28702116 2.00763257 -1.00263512 2.00463146 C-4.95957559 2.01676322 -8.68375219 2.37505597 -12.56680298 3.13371277 C-11.56680298 1.13371277 -11.56680298 1.13371277 -9.97722816 0.51706982 C-6.65046918 -0.01202211 -3.35894659 -0.00727922 0 0 Z " fill="#2479F5" transform="translate(177.56680297851563,176.8662872314453)"/>
<path d="M0 0 C1.71489252 4.0990114 0.11530367 7.5374377 -1.25 11.5 C-3.21520584 17.43557173 -4.89427877 23.33282524 -6.2265625 29.44921875 C-7.09023374 32.29758904 -8.37911271 34.514938 -10 37 C-10.99 36.67 -11.98 36.34 -13 36 C-5.49703112 8.85564962 -5.49703112 8.85564962 -2 1 C-1.34 0.67 -0.68 0.34 0 0 Z " fill="#176EFC" transform="translate(108,273)"/>
<path d="M0 0 C0.99 0.33 1.98 0.66 3 1 C3.625 2.75 3.625 2.75 4 5 C4.78223257 9.10672097 5.91389563 12.92292922 7.2734375 16.87109375 C8.97575043 21.85905367 10.23697959 26.78602721 11 32 C10.01 32 9.02 32 8 32 C5.42115295 24.45370167 2.90647952 16.89215867 0.625 9.25 C0.28726562 8.12078125 -0.05046875 6.9915625 -0.3984375 5.828125 C-1 3 -1 3 0 0 Z " fill="#1D77FD" transform="translate(390,241)"/>
<path d="M0 0 C3.02076181 4.53114271 3.3216033 7.97182574 3.625 13.3125 C3.6765625 14.07240234 3.728125 14.83230469 3.78125 15.61523438 C4.24411342 23.44987838 4.24411342 23.44987838 3 27 C0.9375 29.3125 0.9375 29.3125 -1 31 C-0.89300781 30.00742188 -0.78601563 29.01484375 -0.67578125 27.9921875 C0.22322264 18.34550566 -0.39569049 10.41671234 -3 1 C-2.01 0.67 -1.02 0.34 0 0 Z " fill="#207AFC" transform="translate(340,95)"/>
<path d="M0 0 C0.66 0.66 1.32 1.32 2 2 C1.55524262 7.05336402 0.01825201 11.94855772 -1.375 16.8125 C-1.68824219 17.97555664 -1.68824219 17.97555664 -2.0078125 19.16210938 C-2.57496373 21.13849309 -3.27826611 23.07468099 -4 25 C-4.99 25.33 -5.98 25.66 -7 26 C-7.33 26.99 -7.66 27.98 -8 29 C-9 27 -9 27 -7.875 23.375 C-7.5965625 22.58738281 -7.318125 21.79976563 -7.03125 20.98828125 C-5.48123085 16.49674847 -4.10817459 11.9516846 -2.71435547 7.40966797 C-1.10584336 2.21168671 -1.10584336 2.21168671 0 0 Z " fill="#1B77FC" transform="translate(100,355)"/>
<path d="M0 0 C23.43 0 46.86 0 71 0 C70.67 0.99 70.34 1.98 70 3 C67.69 3 65.38 3 63 3 C63 2.67 63 2.34 63 2 C42.21 1.67 21.42 1.34 0 1 C0 0.67 0 0.34 0 0 Z " fill="#207AF2" transform="translate(231,82)"/>
<path d="M0 0 C1.85546875 0.14453125 1.85546875 0.14453125 4 1 C5.30078125 3.51171875 5.30078125 3.51171875 6.3125 6.6875 C6.65925781 7.72261719 7.00601562 8.75773437 7.36328125 9.82421875 C8.04817253 13.24027159 7.78315995 15.62988589 7 19 C4.67527795 16.14693203 3.2491742 13.45925163 2 10 C1.34 10.66 0.68 11.32 0 12 C-0.625 10.125 -0.625 10.125 -1 8 C-0.34 7.34 0.32 6.68 1 6 C0.67801034 2.90073181 0.67801034 2.90073181 0 0 Z " fill="#1B76FB" transform="translate(435,328)"/>
<path d="M0 0 C2 2 2 2 2.1171875 4.64453125 C1.46110325 13.22653648 1.46110325 13.22653648 -0.9375 17.25 C-3 19 -3 19 -5 19 C-4.7834375 18.3709375 -4.566875 17.741875 -4.34375 17.09375 C-2.51939276 11.48554072 -1.67276033 6.89031404 -2 1 C-1.34 0.67 -0.68 0.34 0 0 Z " fill="#1E81FB" transform="translate(439,395)"/>
<path d="M0 0 C1.32 0.33 2.64 0.66 4 1 C4.66 5.62 5.32 10.24 6 15 C6.66 15 7.32 15 8 15 C7.67 17.31 7.34 19.62 7 22 C4.78016081 18.67024121 3.61590228 15.32488685 2.375 11.5625 C2.14554687 10.89412109 1.91609375 10.22574219 1.6796875 9.53710938 C0.54959381 6.14346494 0 3.61886355 0 0 Z " fill="#1872FD" transform="translate(409,305)"/>
<path d="M0 0 C0.9075 0.185625 1.815 0.37125 2.75 0.5625 C5.68314324 0.95734621 7.2644657 0.94691572 10 0 C10 0.99 10 1.98 10 3 C11.27875 3.0825 12.5575 3.165 13.875 3.25 C16.0546875 3.390625 16.0546875 3.390625 18 4 C19.2578125 6.046875 19.2578125 6.046875 20 8 C12.54928441 6.93787671 6.56342244 4.65875889 0 1 C0 0.67 0 0.34 0 0 Z " fill="#1870FD" transform="translate(84,432)"/>
<path d="M0 0 C0.33 0.66 0.66 1.32 1 2 C1.99 2 2.98 2 4 2 C4.625 3.875 4.625 3.875 5 6 C4.34 6.66 3.68 7.32 3 8 C2.34 7.67 1.68 7.34 1 7 C1 7.99 1 8.98 1 10 C0.34 10 -0.32 10 -1 10 C-1.33 11.65 -1.66 13.3 -2 15 C-2.66 15 -3.32 15 -4 15 C-2.9318153 9.88634986 -1.76892524 4.92772031 0 0 Z " fill="#1772FC" transform="translate(129,200)"/>
<path d="M0 0 C0 3 0 3 -1 5 C-1.66 5.309375 -2.32 5.61875 -3 5.9375 C-5.34608221 6.8891846 -5.34608221 6.8891846 -6 10 C-8.70645969 13.24775163 -12.26093498 15.13046749 -16 17 C-12.75922913 9.33999612 -6.49823492 4.7851926 0 0 Z " fill="#176BFD" transform="translate(208,69)"/>
<path d="M0 0 C0.33 0.66 0.66 1.32 1 2 C0.67 2.66 0.34 3.32 0 4 C0.66 4.33 1.32 4.66 2 5 C1.3844197 7.14855454 0.75726569 9.29379625 0.125 11.4375 C-0.39707031 13.22994141 -0.39707031 13.22994141 -0.9296875 15.05859375 C-2 18 -2 18 -4 19 C-4.21354229 13.12758706 -3.88691666 7.61415945 -2 2 C-1.34 1.34 -0.68 0.68 0 0 Z " fill="#1675FA" transform="translate(118,298)"/>
<path d="M0 0 C-3.77024843 3.92734211 -7.88470051 7.44406161 -12 11 C-12.66 10.67 -13.32 10.34 -14 10 C-10.72001836 3.56151753 -7.9294792 -0.67966965 0 0 Z " fill="#1C76F8" transform="translate(157,165)"/>
<path d="M0 0 C5.95507399 0.3916035 10.62819824 1.37124595 16 4 C16 4.99 16 5.98 16 7 C11.125 6.125 11.125 6.125 10 5 C8.88625 4.855625 7.7725 4.71125 6.625 4.5625 C3 4 3 4 0 2 C0 1.34 0 0.68 0 0 Z " fill="#1C73FE" transform="translate(300,64)"/>
<path d="M0 0 C3.47548539 3.24378636 5.82682259 5.71405824 6.1953125 10.578125 C6.16050781 11.90070313 6.16050781 11.90070313 6.125 13.25 C6.10695313 14.14203125 6.08890625 15.0340625 6.0703125 15.953125 C6.03550781 16.96632812 6.03550781 16.96632812 6 18 C3.52621876 15.52621876 2.96861769 13.43825655 1.875 10.125 C1.52179688 9.07570312 1.16859375 8.02640625 0.8046875 6.9453125 C0 4 0 4 0 0 Z " fill="#1B77FB" transform="translate(400,215)"/>
<path d="M0 0 C3 1 3 1 4.1484375 2.640625 C5.25224215 5.69887276 5.43050928 8.50848798 5.625 11.75 C5.69976562 12.92046875 5.77453125 14.0909375 5.8515625 15.296875 C5.90054687 16.18890625 5.94953125 17.0809375 6 18 C5.34 17.67 4.68 17.34 4 17 C3.4375 15.07421875 3.4375 15.07421875 3 12.6875 C2.5385814 10.19501561 2.11045862 8.21238918 0.9375 5.95703125 C0 4 0 4 0 0 Z " fill="#1D7BF6" transform="translate(449,371)"/>
<path d="M0 0 C0.99 0.495 0.99 0.495 2 1 C2.33 1.99 2.66 2.98 3 4 C3.66 4.33 4.32 4.66 5 5 C6.72664863 8.45329726 7.21952523 11.15830842 7 15 C6.01 15.495 6.01 15.495 5 16 C2.38592128 10.63809899 0.50771472 5.96564796 0 0 Z " fill="#1B76FA" transform="translate(442,350)"/>
<path d="M0 0 C1.125 1.6875 1.125 1.6875 2 4 C1.125 6.75 1.125 6.75 0 9 C-1.32 9 -2.64 9 -4 9 C-4.33 6.69 -4.66 4.38 -5 2 C-3.35 1.34 -1.7 0.68 0 0 Z " fill="#1973FD" transform="translate(404,272)"/>
<path d="M0 0 C2.12508244 3.18762365 2.5020163 5.26512223 3 9 C1.68 9.33 0.36 9.66 -1 10 C-1 8.35 -1 6.7 -1 5 C-1.99 5 -2.98 5 -4 5 C-4 4.34 -4 3.68 -4 3 C-3.34 3 -2.68 3 -2 3 C-2 2.34 -2 1.68 -2 1 C-1.34 0.67 -0.68 0.34 0 0 Z " fill="#217DFB" transform="translate(393,187)"/>
<path d="M0 0 C0.66 0.33 1.32 0.66 2 1 C0.31326082 5.49797113 -1.81673892 9.72886302 -4 14 C-4.66 13.34 -5.32 12.68 -6 12 C-5.34 11.01 -4.68 10.02 -4 9 C-3.67 7.824375 -3.34 6.64875 -3 5.4375 C-2 2 -2 2 0 0 Z " fill="#166DFD" transform="translate(332,142)"/>
<path d="M0 0 C2.21399303 3.79541663 3.00980198 7.75629421 4 12 C3.01 12.495 3.01 12.495 2 13 C1.34 10.69 0.68 8.38 0 6 C-0.66 6 -1.32 6 -2 6 C-2.33 4.68 -2.66 3.36 -3 2 C-2.01 1.34 -1.02 0.68 0 0 Z " fill="#136AFD" transform="translate(422,277)"/>
<path d="M0 0 C0.66 0 1.32 0 2 0 C1.55170486 1.98146451 1.09107502 3.96014211 0.625 5.9375 C0.36976563 7.03964844 0.11453125 8.14179688 -0.1484375 9.27734375 C-0.42945313 10.17582031 -0.71046875 11.07429688 -1 12 C-1.99 12.495 -1.99 12.495 -3 13 C-3.33 10.69 -3.66 8.38 -4 6 C-2.68 5.34 -1.36 4.68 0 4 C0 2.68 0 1.36 0 0 Z " fill="#1770FD" transform="translate(132,257)"/>
<path d="M0 0 C1 2 1 2 0.3125 4.4375 C-1.14376529 7.28068461 -2.45834986 8.15152717 -5 10 C-6.73490246 12.58443323 -6.73490246 12.58443323 -8 15 C-8.66 14.67 -9.32 14.34 -10 14 C-8.52208672 11.85329364 -7.0427346 9.70760477 -5.5625 7.5625 C-5.14162109 6.95083984 -4.72074219 6.33917969 -4.28710938 5.70898438 C-1.11328125 1.11328125 -1.11328125 1.11328125 0 0 Z " fill="#1166FE" transform="translate(144,171)"/>
<path d="M0 0 C1.9451 2.91765 2.45276317 4.62537285 3 8 C2.01 8.495 2.01 8.495 1 9 C0.01 10.485 0.01 10.485 -1 12 C-1.66 8.37 -2.32 4.74 -3 1 C-2.01 0.67 -1.02 0.34 0 0 Z " fill="#196EFD" transform="translate(340,95)"/>
<path d="M0 0 C0.66 0 1.32 0 2 0 C2.99 2.97 3.98 5.94 5 9 C3.02 9.99 3.02 9.99 1 11 C0.63890458 9.35567294 0.28629924 7.7094792 -0.0625 6.0625 C-0.25972656 5.14597656 -0.45695312 4.22945313 -0.66015625 3.28515625 C-0.77230469 2.53105469 -0.88445312 1.77695312 -1 1 C-0.67 0.67 -0.34 0.34 0 0 Z " fill="#196EFD" transform="translate(435,384)"/>
<path d="M0 0 C0.66 0 1.32 0 2 0 C1.67 2.97 1.34 5.94 1 9 C0.01 9.33 -0.98 9.66 -2 10 C-3.01136941 7.26930259 -3.04557718 6.13998707 -2.125 3.3125 C-1 1 -1 1 0 0 Z " fill="#207AFD" transform="translate(435,374)"/>
<path d="M0 0 C0.99 0 1.98 0 3 0 C2.34 3.3 1.68 6.6 1 10 C0.01 10 -0.98 10 -2 10 C-1.125 2.25 -1.125 2.25 0 0 Z " fill="#217EFB" transform="translate(132,192)"/>
<path d="M0 0 C0.99 0 1.98 0 3 0 C1.95902388 3.86648272 0.96301592 7.49461443 -1 11 C-1.99 11 -2.98 11 -4 11 C-2.7874262 7.27566618 -1.49140021 3.62197194 0 0 Z " fill="#0884FF" transform="translate(311,147)"/>
<path d="M0 0 C2.475 0.495 2.475 0.495 5 1 C5.33 2.65 5.66 4.3 6 6 C6.66 6 7.32 6 8 6 C8.33 6.99 8.66 7.98 9 9 C6.75 9 6.75 9 4 8 C2.32801232 5.47332213 1.14194429 2.80063432 0 0 Z " fill="#126CFE" transform="translate(72,417)"/>
<path d="M0 0 C0.66 0.66 1.32 1.32 2 2 C1.625 5.125 1.625 5.125 1 8 C0.01 8 -0.98 8 -2 8 C-2.6875 5.6875 -2.6875 5.6875 -3 3 C-1.5625 1.1875 -1.5625 1.1875 0 0 Z " fill="#1D76FC" transform="translate(121,288)"/>
<path d="M0 0 C0.6875 1.625 0.6875 1.625 1 4 C-0.4375 7.25 -0.4375 7.25 -2 10 C-2.66 9.67 -3.32 9.34 -4 9 C-3.71848913 7.68528432 -3.42446661 6.37324233 -3.125 5.0625 C-2.96257812 4.33160156 -2.80015625 3.60070312 -2.6328125 2.84765625 C-2 1 -2 1 0 0 Z " fill="#1D78F8" transform="translate(108,273)"/>
<path d="M0 0 C0.95465783 2.16967689 1.14401212 3.56328793 0.3984375 5.82421875 C-0.35870385 7.5684743 -1.17609198 9.28627131 -2 11 C-2.66 10.67 -3.32 10.34 -4 10 C-4.1875 7.625 -4.1875 7.625 -4 5 C-3.01 4.34 -2.02 3.68 -1 3 C-0.67 2.01 -0.34 1.02 0 0 Z " fill="#1B79FA" transform="translate(114,254)"/>
<path d="M0 0 C0.33 0 0.66 0 1 0 C1 5.61 1 11.22 1 17 C0.01 16.67 -0.98 16.34 -2 16 C-1.34 10.72 -0.68 5.44 0 0 Z " fill="#1B7CF6" transform="translate(186,104)"/>
<path d="M0 0 C0.33 0.99 0.66 1.98 1 3 C-0.21484375 5.26171875 -0.21484375 5.26171875 -1.9375 7.6875 C-2.78634766 8.89986328 -2.78634766 8.89986328 -3.65234375 10.13671875 C-4.09707031 10.75160156 -4.54179687 11.36648437 -5 12 C-5.66 10.68 -6.32 9.36 -7 8 C-6.01 7.34 -5.02 6.68 -4 6 C-2.9590934 4.35857037 -1.95495674 2.69287785 -1 1 C-0.67 0.67 -0.34 0.34 0 0 Z " fill="#1F7AFB" transform="translate(141,178)"/>
<path d="M0 0 C0.66 0.33 1.32 0.66 2 1 C2.59355614 3.64860427 2.74209269 6.29197322 3 9 C2.01 8.67 1.02 8.34 0 8 C-0.38063221 5.6739143 -0.71269945 3.33944736 -1 1 C-0.67 0.67 -0.34 0.34 0 0 Z " fill="#1E76FB" transform="translate(430,366)"/>
<path d="M0 0 C0.66 0 1.32 0 2 0 C1.67 2.31 1.34 4.62 1 7 C-0.32 7.33 -1.64 7.66 -3 8 C-1.125 1.125 -1.125 1.125 0 0 Z " fill="#1F75FE" transform="translate(98,302)"/>
<path d="M0 0 C0.99 0 1.98 0 3 0 C2.5020163 3.73487777 2.12508244 5.81237635 0 9 C-0.33 8.67 -0.66 8.34 -1 8 C-0.82364548 5.30917128 -0.38164079 2.67148554 0 0 Z " fill="#1D79FC" transform="translate(122,223)"/>
<path d="M0 0 C1.32 0 2.64 0 4 0 C2.515 5.445 2.515 5.445 1 11 C0.67 11 0.34 11 0 11 C0 7.37 0 3.74 0 0 Z " fill="#146BFE" transform="translate(105,337)"/>
<path d="M0 0 C0.2475 0.639375 0.495 1.27875 0.75 1.9375 C1.81562433 4.18741541 1.81562433 4.18741541 4.125 4.75 C4.74375 4.8325 5.3625 4.915 6 5 C5.01 6.485 5.01 6.485 4 8 C1.95880212 6.38405168 -0.04072937 4.7143618 -2 3 C-2 2.34 -2 1.68 -2 1 C-1.34 0.67 -0.68 0.34 0 0 Z " fill="#116FFE" transform="translate(365,181)"/>
<path d="M0 0 C0.33 0.99 0.66 1.98 1 3 C0.01 3.99 -0.98 4.98 -2 6 C-1.49396008 3.83125748 -1.00016187 2.00032373 0 0 Z M-5 6 C-4.01 6 -3.02 6 -2 6 C-2.33 7.32 -2.66 8.64 -3 10 C-3.66 10 -4.32 10 -5 10 C-5 8.68 -5 7.36 -5 6 Z " fill="#1D82FB" transform="translate(454,412)"/>
<path d="M0 0 C0.99 0.33 1.98 0.66 3 1 C2.45276317 4.37462715 1.9451 6.08235 0 9 C-1.125 3.375 -1.125 3.375 0 0 Z " fill="#1A79F5" transform="translate(79,360)"/>
<path d="M0 0 C3.36720387 1.39332574 4.9859524 2.9789286 7 6 C5.35 5.67 3.7 5.34 2 5 C2 4.34 2 3.68 2 3 C1.34 3 0.68 3 0 3 C0 2.01 0 1.02 0 0 Z " fill="#1096FE" transform="translate(378,168)"/>
<path d="M0 0 C5.75 -0.125 5.75 -0.125 8 1 C8 1.99 8 2.98 8 4 C4.31245243 3.50168276 2.39509338 2.89932357 0 0 Z " fill="#277DFD" transform="translate(308,67)"/>
<path d="M0 0 C0.99 0.33 1.98 0.66 3 1 C3.1875 3.375 3.1875 3.375 3 6 C2.01 6.66 1.02 7.32 0 8 C0 5.36 0 2.72 0 0 Z " fill="#1F7AFD" transform="translate(426,354)"/>
<path d="M0 0 C2.45823172 3.68734758 3.01242616 6.69699971 4 11 C2 9.4375 2 9.4375 0 7 C-0.25 3.25 -0.25 3.25 0 0 Z " fill="#0D68FF" transform="translate(406,227)"/>
<path d="M0 0 C0.66 0 1.32 0 2 0 C2.33 2.64 2.66 5.28 3 8 C2.67 7.34 2.34 6.68 2 6 C1.01 5.67 0.02 5.34 -1 5 C-0.67 3.35 -0.34 1.7 0 0 Z " fill="#1F7BFA" transform="translate(382,215)"/>
<path d="M0 0 C2 2 2 2 2 5 C2.99 5 3.98 5 5 5 C4.67 6.32 4.34 7.64 4 9 C3.34 9 2.68 9 2 9 C0.50178941 5.62902617 0 3.79557881 0 0 Z " fill="#166DFE" transform="translate(188,130)"/>
<path d="M0 0 C0.33 0 0.66 0 1 0 C1.125 6.625 1.125 6.625 0 10 C-0.66 10 -1.32 10 -2 10 C-2.25 3.375 -2.25 3.375 0 0 Z " fill="#0E58FC" transform="translate(205,110)"/>
<path d="M0 0 C2.64 0 5.28 0 8 0 C8 0.66 8 1.32 8 2 C4.71303767 2.79953138 3.28976808 3.09658936 0 2 C0 1.34 0 0.68 0 0 Z " fill="#0A85FF" transform="translate(421,431)"/>
<path d="M0 0 C0.66 0 1.32 0 2 0 C2.185625 0.9590625 2.185625 0.9590625 2.375 1.9375 C2.684375 2.9584375 2.684375 2.9584375 3 4 C3.66 4.33 4.32 4.66 5 5 C4.01 5.99 3.02 6.98 2 8 C1.34 5.36 0.68 2.72 0 0 Z " fill="#146EFF" transform="translate(418,335)"/>
<path d="M0 0 C0.33 0.99 0.66 1.98 1 3 C1.99 3.33 2.98 3.66 4 4 C3.67 5.98 3.34 7.96 3 10 C0.70366176 6.55549263 0.45983515 4.06187717 0 0 Z " fill="#207CF7" transform="translate(415,262)"/>
<path d="M0 0 C0.99 0.33 1.98 0.66 3 1 C2.01 1.495 2.01 1.495 1 2 C0.67 2.99 0.34 3.98 0 5 C-1.65 5.33 -3.3 5.66 -5 6 C-3.63016497 2.83884224 -3.0109362 2.0072908 0 0 Z " fill="#257CFB" transform="translate(161,181)"/>
<path d="M0 0 C0.99 0.33 1.98 0.66 3 1 C1.02 1.99 1.02 1.99 -1 3 C-0.67 2.01 -0.34 1.02 0 0 Z M-4 3 C-3.01 3 -2.02 3 -1 3 C-1.33 3.99 -1.66 4.98 -2 6 C-3.32 5.67 -4.64 5.34 -6 5 C-5.34 4.34 -4.68 3.68 -4 3 Z " fill="#237BF1" transform="translate(208,71)"/>
<path d="M0 0 C1.65 0.33 3.3 0.66 5 1 C4.01 2.32 3.02 3.64 2 5 C1.01 4.67 0.02 4.34 -1 4 C-0.67 2.68 -0.34 1.36 0 0 Z " fill="#136FFE" transform="translate(80,356)"/>
<path d="M0 0 C0.99 0 1.98 0 3 0 C3.33 1.65 3.66 3.3 4 5 C3.01 5.33 2.02 5.66 1 6 C0.67 4.02 0.34 2.04 0 0 Z " fill="#1D7EF7" transform="translate(432,318)"/>
<path d="M0 0 C1.77706209 2.66559313 2.87548273 5.0280615 4 8 C3.01 8.495 3.01 8.495 2 9 C1.71125 8.38125 1.4225 7.7625 1.125 7.125 C0.06279958 4.86674235 0.06279958 4.86674235 -2 3 C-1.34 2.01 -0.68 1.02 0 0 Z " fill="#106AFE" transform="translate(212,133)"/>
</svg>
