<?xml version="1.0" encoding="UTF-8"?>
<svg version="1.1" xmlns="http://www.w3.org/2000/svg" width="1500" height="1500">
<path d="M0 0 C3.70060643 0.01071863 7.40072653 0.00003917 11.10131836 -0.01269531 C25.60285704 -0.01993757 39.85962014 0.63840711 54.27124023 2.26074219 C54.27124023 2.92074219 54.27124023 3.58074219 54.27124023 4.26074219 C54.87967773 4.28652344 55.48811523 4.31230469 56.11499023 4.33886719 C64.79951481 4.90080701 72.90487686 7.00381857 81.27124023 9.26074219 C81.27124023 9.92074219 81.27124023 10.58074219 81.27124023 11.26074219 C82.50874023 11.40511719 83.74624023 11.54949219 85.02124023 11.69824219 C87.83628523 12.0476272 90.54138993 12.46453585 93.27124023 13.26074219 C93.27124023 13.92074219 93.27124023 14.58074219 93.27124023 15.26074219 C94.52936523 15.40511719 95.78749023 15.54949219 97.08374023 15.69824219 C99.69791146 15.99822905 101.74563916 16.41887516 104.27124023 17.26074219 C104.27124023 17.92074219 104.27124023 18.58074219 104.27124023 19.26074219 C105.42624023 19.34324219 106.58124023 19.42574219 107.77124023 19.51074219 C111.8524356 20.0036752 114.93285542 21.34990919 118.50952148 23.32324219 C120.42097172 24.4031563 120.42097172 24.4031563 123.27124023 25.26074219 C123.27124023 25.92074219 123.27124023 26.58074219 123.27124023 27.26074219 C125.25124023 27.59074219 127.23124023 27.92074219 129.27124023 28.26074219 C129.27124023 28.92074219 129.27124023 29.58074219 129.27124023 30.26074219 C133.23124023 31.25074219 133.23124023 31.25074219 137.27124023 32.26074219 C137.27124023 32.92074219 137.27124023 33.58074219 137.27124023 34.26074219 C139.25124023 34.92074219 141.23124023 35.58074219 143.27124023 36.26074219 C143.27124023 36.92074219 143.27124023 37.58074219 143.27124023 38.26074219 C144.05499023 38.40511719 144.83874023 38.54949219 145.64624023 38.69824219 C148.27124023 39.26074219 148.27124023 39.26074219 150.27124023 40.26074219 C150.27124023 40.92074219 150.27124023 41.58074219 150.27124023 42.26074219 C150.78686523 42.34324219 151.30249023 42.42574219 151.83374023 42.51074219 C156.63126844 43.98690471 160.89598998 46.53020243 164.27124023 50.26074219 C164.93124023 50.59074219 165.59124023 50.92074219 166.27124023 51.26074219 C166.27124023 51.92074219 166.27124023 52.58074219 166.27124023 53.26074219 C167.15811523 53.48761719 168.04499023 53.71449219 168.95874023 53.94824219 C172.75095795 55.45081902 174.52140302 57.29381256 177.27124023 60.26074219 C178.03436523 60.81761719 178.79749023 61.37449219 179.58374023 61.94824219 C180.41905273 62.59792969 180.41905273 62.59792969 181.27124023 63.26074219 C181.27124023 63.92074219 181.27124023 64.58074219 181.27124023 65.26074219 C181.84100586 65.525 182.41077148 65.78925781 182.99780273 66.06152344 C189.30119718 69.38650986 194.54279833 74.17035893 198.98608398 79.69042969 C200.3788407 81.45235803 200.3788407 81.45235803 202.64624023 83.57324219 C204.27124023 85.26074219 204.27124023 85.26074219 204.27124023 87.26074219 C205.26124023 87.59074219 206.25124023 87.92074219 207.27124023 88.26074219 C207.27124023 89.25074219 207.27124023 90.24074219 207.27124023 91.26074219 C208.59124023 91.92074219 209.91124023 92.58074219 211.27124023 93.26074219 C211.27124023 93.92074219 211.27124023 94.58074219 211.27124023 95.26074219 C212.59124023 95.92074219 213.91124023 96.58074219 215.27124023 97.26074219 C215.27124023 98.25074219 215.27124023 99.24074219 215.27124023 100.26074219 C216.26124023 100.59074219 217.25124023 100.92074219 218.27124023 101.26074219 C221.43799249 103.6674739 222.19103257 106.52156182 223.27124023 110.26074219 C223.93124023 110.26074219 224.59124023 110.26074219 225.27124023 110.26074219 C225.37436523 110.90011719 225.47749023 111.53949219 225.58374023 112.19824219 C225.92405273 113.21917969 225.92405273 113.21917969 226.27124023 114.26074219 C227.26124023 114.59074219 228.25124023 114.92074219 229.27124023 115.26074219 C229.60124023 116.25074219 229.93124023 117.24074219 230.27124023 118.26074219 C230.93124023 118.59074219 231.59124023 118.92074219 232.27124023 119.26074219 C233.84672706 121.88655357 234.27124023 123.13174006 234.27124023 126.26074219 C234.93124023 126.26074219 235.59124023 126.26074219 236.27124023 126.26074219 C237.73186874 128.90813135 238.27124023 130.15522553 238.27124023 133.26074219 C238.93124023 133.26074219 239.59124023 133.26074219 240.27124023 133.26074219 C240.93124023 135.24074219 241.59124023 137.22074219 242.27124023 139.26074219 C242.93124023 139.26074219 243.59124023 139.26074219 244.27124023 139.26074219 C244.72499023 140.33324219 245.17874023 141.40574219 245.64624023 142.51074219 C246.52036803 144.56556392 247.41546685 146.53401367 248.45874023 148.51074219 C249.27124023 150.26074219 249.27124023 150.26074219 249.27124023 153.26074219 C249.93124023 153.26074219 250.59124023 153.26074219 251.27124023 153.26074219 C251.65795898 154.22753906 252.04467773 155.19433594 252.44311523 156.19042969 C252.69335449 156.8158667 252.94359375 157.44130371 253.20141602 158.08569336 C253.75231989 159.46328116 254.30276865 160.84105104 254.8527832 162.21899414 C256.03159373 165.17086016 257.21377361 168.12059399 258.41967773 171.06152344 C265.6092726 188.63289329 265.6092726 188.63289329 265.27124023 195.26074219 C265.93124023 195.26074219 266.59124023 195.26074219 267.27124023 195.26074219 C267.39241211 195.82921875 267.51358398 196.39769531 267.63842773 196.98339844 C268.44031998 200.67827116 269.28630201 204.31301541 270.33374023 207.94824219 C272.0031205 213.84671912 272.37619151 219.17356802 272.27124023 225.26074219 C272.93124023 225.26074219 273.59124023 225.26074219 274.27124023 225.26074219 C276.25826483 239.87035182 276.58192522 254.32618518 276.53198242 269.05834961 C276.52124766 272.82063877 276.53194501 276.58245166 276.54467773 280.34472656 C276.55197043 293.37838847 276.50451245 306.38213667 274.27124023 319.26074219 C273.94124023 319.59074219 273.61124023 319.92074219 273.27124023 320.26074219 C272.77542112 323.05047141 272.32304122 325.83536801 271.89624023 328.63574219 C270.78443501 335.65745008 269.38329577 342.46022295 267.27124023 349.26074219 C266.61124023 349.26074219 265.95124023 349.26074219 265.27124023 349.26074219 C265.2106543 349.86402344 265.15006836 350.46730469 265.08764648 351.08886719 C265.00385742 351.88808594 264.92006836 352.68730469 264.83374023 353.51074219 C264.7525293 354.29964844 264.67131836 355.08855469 264.58764648 355.90136719 C264.2948903 358.08438858 263.85059605 360.13806038 263.27124023 362.26074219 C262.61124023 362.26074219 261.95124023 362.26074219 261.27124023 362.26074219 C261.12686523 363.51886719 260.98249023 364.77699219 260.83374023 366.07324219 C260.53375337 368.68741341 260.11310726 370.73514111 259.27124023 373.26074219 C258.61124023 373.26074219 257.95124023 373.26074219 257.27124023 373.26074219 C257.15006836 374.13730469 257.02889648 375.01386719 256.90405273 375.91699219 C254.94921189 386.24627469 249.04514307 395.96057413 244.27124023 405.26074219 C243.61124023 405.26074219 242.95124023 405.26074219 242.27124023 405.26074219 C242.12686523 405.85886719 241.98249023 406.45699219 241.83374023 407.07324219 C241.38399634 408.82224623 240.84231682 410.54751242 240.27124023 412.26074219 C239.61124023 412.26074219 238.95124023 412.26074219 238.27124023 412.26074219 C238.12686523 412.85886719 237.98249023 413.45699219 237.83374023 414.07324219 C237.38399634 415.82224623 236.84231682 417.54751242 236.27124023 419.26074219 C235.61124023 419.26074219 234.95124023 419.26074219 234.27124023 419.26074219 C233.61124023 421.24074219 232.95124023 423.22074219 232.27124023 425.26074219 C231.61124023 425.26074219 230.95124023 425.26074219 230.27124023 425.26074219 C230.00311523 425.98261719 229.73499023 426.70449219 229.45874023 427.44824219 C228.27222662 430.25840602 226.99638385 432.74490775 225.27124023 435.26074219 C224.61124023 435.26074219 223.95124023 435.26074219 223.27124023 435.26074219 C223.27124023 436.25074219 223.27124023 437.24074219 223.27124023 438.26074219 C223.86936523 438.50824219 224.46749023 438.75574219 225.08374023 439.01074219 C227.58750943 440.44146744 228.75196411 441.82990039 230.27124023 444.26074219 C230.27124023 444.92074219 230.27124023 445.58074219 230.27124023 446.26074219 C230.93124023 446.26074219 231.59124023 446.26074219 232.27124023 446.26074219 C233.73186874 448.90813135 234.27124023 450.15522553 234.27124023 453.26074219 C235.26124023 453.59074219 236.25124023 453.92074219 237.27124023 454.26074219 C237.60124023 455.25074219 237.93124023 456.24074219 238.27124023 457.26074219 C238.93124023 457.59074219 239.59124023 457.92074219 240.27124023 458.26074219 C241.84672706 460.88655357 242.27124023 462.13174006 242.27124023 465.26074219 C242.93124023 465.26074219 243.59124023 465.26074219 244.27124023 465.26074219 C245.11193439 466.86106356 245.94355528 468.4661539 246.77124023 470.07324219 C247.23530273 470.9665625 247.69936523 471.85988281 248.17749023 472.78027344 C249.27124023 475.26074219 249.27124023 475.26074219 249.27124023 478.26074219 C249.93124023 478.26074219 250.59124023 478.26074219 251.27124023 478.26074219 C252.37782017 481.23901787 253.48104558 484.21852604 254.58374023 487.19824219 C254.8924707 488.02904297 255.20120117 488.85984375 255.51928711 489.71582031 C261.7302141 506.51801227 261.7302141 506.51801227 261.27124023 511.26074219 C261.93124023 511.26074219 262.59124023 511.26074219 263.27124023 511.26074219 C264.59512253 517.6910276 265.51918426 523.69022559 265.27124023 530.26074219 C265.93124023 530.26074219 266.59124023 530.26074219 267.27124023 530.26074219 C268.47484814 539.64319755 268.38427587 548.94606738 268.33374023 558.38574219 C268.32871461 560.02636582 268.32415358 561.66699094 268.32006836 563.30761719 C268.30914829 567.2920296 268.29194241 571.27636908 268.27124023 575.26074219 C268.93124023 575.26074219 269.59124023 575.26074219 270.27124023 575.26074219 C270.27124023 574.60074219 270.27124023 573.94074219 270.27124023 573.26074219 C276.35398563 572.37249906 282.2537047 572.11405348 288.39624023 572.12792969 C289.34257324 572.12697296 290.28890625 572.12601624 291.26391602 572.12503052 C293.25398831 572.12435354 295.24406287 572.126174 297.23413086 572.13037109 C300.26217661 572.13572616 303.29007404 572.13040964 306.31811523 572.12402344 C308.26082389 572.1246843 310.20353246 572.12596564 312.14624023 572.12792969 C313.0422998 572.12590546 313.93835938 572.12388123 314.86157227 572.12179565 C329.18513259 572.17463455 329.18513259 572.17463455 331.27124023 574.26074219 C333.9566837 574.82348984 336.6337741 575.34135242 339.33374023 575.82324219 C340.09235352 575.96181641 340.8509668 576.10039063 341.63256836 576.24316406 C343.51148999 576.58586046 345.39128725 576.92374949 347.27124023 577.26074219 C347.27124023 577.92074219 347.27124023 578.58074219 347.27124023 579.26074219 C348.50874023 579.40511719 349.74624023 579.54949219 351.02124023 579.69824219 C353.83628523 580.0476272 356.54138993 580.46453585 359.27124023 581.26074219 C359.27124023 581.92074219 359.27124023 582.58074219 359.27124023 583.26074219 C360.54999023 583.46699219 361.82874023 583.67324219 363.14624023 583.88574219 C368.11315796 584.96243163 371.87420428 587.17282519 376.10717773 589.92089844 C378.31691115 591.4040363 378.31691115 591.4040363 381.27124023 592.26074219 C381.27124023 592.92074219 381.27124023 593.58074219 381.27124023 594.26074219 C383.25124023 594.92074219 385.23124023 595.58074219 387.27124023 596.26074219 C387.27124023 596.92074219 387.27124023 597.58074219 387.27124023 598.26074219 C388.92124023 598.59074219 390.57124023 598.92074219 392.27124023 599.26074219 C392.60124023 600.25074219 392.93124023 601.24074219 393.27124023 602.26074219 C395.14784256 602.84738193 395.14784256 602.84738193 397.27124023 603.26074219 C402.07057615 605.89328931 404.32914648 608.12806584 406.27124023 613.26074219 C407.03178711 613.56109375 407.79233398 613.86144531 408.57592773 614.17089844 C413.13294378 616.01351797 415.98539085 619.70273154 419.27124023 623.26074219 C419.79588867 623.82792969 420.32053711 624.39511719 420.86108398 624.97949219 C423.25444083 627.69890055 424.49276295 629.75759439 425.27124023 633.26074219 C426.26124023 633.59074219 427.25124023 633.92074219 428.27124023 634.26074219 C432.27124023 639.63217076 432.27124023 639.63217076 432.27124023 642.26074219 C432.93124023 642.26074219 433.59124023 642.26074219 434.27124023 642.26074219 C435.73186874 644.90813135 436.27124023 646.15522553 436.27124023 649.26074219 C436.93124023 649.26074219 437.59124023 649.26074219 438.27124023 649.26074219 C439.73186874 651.90813135 440.27124023 653.15522553 440.27124023 656.26074219 C440.93124023 656.26074219 441.59124023 656.26074219 442.27124023 656.26074219 C443.52789001 659.1667448 444.27124023 661.05678803 444.27124023 664.26074219 C444.93124023 664.26074219 445.59124023 664.26074219 446.27124023 664.26074219 C446.68116211 665.50210938 447.09108398 666.74347656 447.51342773 668.02246094 C448.05761812 669.66441469 448.60189342 671.30634029 449.14624023 672.94824219 C449.4156543 673.76486328 449.68506836 674.58148437 449.96264648 675.42285156 C451.03150636 678.64246606 452.08744457 681.82255806 453.40014648 684.95214844 C454.46826684 687.78290688 454.89545604 690.52009707 455.33374023 693.51074219 C455.59918856 697.20101735 455.59918856 697.20101735 457.27124023 700.26074219 C458.2205053 706.18214895 458.41827383 711.96038132 458.40405273 717.94824219 C458.40500946 718.85018311 458.40596619 719.75212402 458.4069519 720.68139648 C458.40762861 722.57731191 458.40581011 724.47322973 458.40161133 726.36914062 C458.39625586 729.25233216 458.40157373 732.13536793 458.40795898 735.01855469 C458.40729811 736.87011753 458.40601676 738.72168027 458.40405273 740.57324219 C458.40607697 741.4255542 458.4081012 742.27786621 458.41018677 743.15600586 C458.35592477 757.17605765 458.35592477 757.17605765 456.27124023 759.26074219 C455.778797 761.77932234 455.32691856 764.29409853 454.89624023 766.82324219 C453.86028228 772.60570195 452.57177992 777.84579265 450.27124023 783.26074219 C449.53345339 785.25757833 448.80470796 787.257772 448.08374023 789.26074219 C447.73956055 790.20949219 447.39538086 791.15824219 447.04077148 792.13574219 C446.78682617 792.83699219 446.53288086 793.53824219 446.27124023 794.26074219 C445.61124023 794.26074219 444.95124023 794.26074219 444.27124023 794.26074219 C444.12686523 795.20949219 443.98249023 796.15824219 443.83374023 797.13574219 C443.27124023 800.26074219 443.27124023 800.26074219 442.27124023 802.26074219 C441.61124023 802.26074219 440.95124023 802.26074219 440.27124023 802.26074219 C440.12686523 803.04449219 439.98249023 803.82824219 439.83374023 804.63574219 C439.27124023 807.26074219 439.27124023 807.26074219 438.27124023 809.26074219 C437.61124023 809.26074219 436.95124023 809.26074219 436.27124023 809.26074219 C436.12686523 810.04449219 435.98249023 810.82824219 435.83374023 811.63574219 C435.27124023 814.26074219 435.27124023 814.26074219 434.27124023 816.26074219 C433.61124023 816.26074219 432.95124023 816.26074219 432.27124023 816.26074219 C432.00311523 817.00324219 431.73499023 817.74574219 431.45874023 818.51074219 C430.31847273 821.15136167 429.17743718 823.11627063 427.27124023 825.26074219 C426.61124023 825.26074219 425.95124023 825.26074219 425.27124023 825.26074219 C425.20936523 825.79699219 425.14749023 826.33324219 425.08374023 826.88574219 C423.87088759 830.43100375 421.82513098 832.51998139 419.27124023 835.26074219 C418.61124023 835.26074219 417.95124023 835.26074219 417.27124023 835.26074219 C417.04436523 835.81761719 416.81749023 836.37449219 416.58374023 836.94824219 C414.89573987 839.92233806 412.80447507 841.98083084 410.27124023 844.26074219 C409.61124023 844.26074219 408.95124023 844.26074219 408.27124023 844.26074219 C408.27124023 844.92074219 408.27124023 845.58074219 408.27124023 846.26074219 C405.98263424 848.35457321 403.68185538 850.31556457 401.27124023 852.26074219 C400.49135742 852.90398438 399.71147461 853.54722656 398.90795898 854.20996094 C397.7265332 855.16322266 397.7265332 855.16322266 396.52124023 856.13574219 C395.78389648 856.73128906 395.04655273 857.32683594 394.28686523 857.94042969 C392.27124023 859.26074219 392.27124023 859.26074219 389.27124023 859.26074219 C389.27124023 859.92074219 389.27124023 860.58074219 389.27124023 861.26074219 C387.29124023 861.92074219 385.31124023 862.58074219 383.27124023 863.26074219 C383.27124023 863.92074219 383.27124023 864.58074219 383.27124023 865.26074219 C382.50811523 865.63199219 381.74499023 866.00324219 380.95874023 866.38574219 C378.87100263 867.4198094 376.83806431 868.50620854 374.81030273 869.65527344 C369.27449401 872.78800187 363.84702819 875.34047824 357.82202148 877.38574219 C355.58600229 878.15276868 353.4460484 879.02693852 351.27124023 879.94824219 C346.44054017 881.80001055 341.39539472 881.98757954 336.27124023 882.26074219 C336.27124023 882.92074219 336.27124023 883.58074219 336.27124023 884.26074219 C325.21058591 886.33225552 314.40294174 886.57061824 303.18530273 886.52148438 C300.27623659 886.51076061 297.36778777 886.5214379 294.45874023 886.53417969 C284.20673917 886.54072798 274.37693609 886.15340451 264.27124023 884.26074219 C264.27124023 883.60074219 264.27124023 882.94074219 264.27124023 882.26074219 C263.56999023 882.22335937 262.86874023 882.18597656 262.14624023 882.14746094 C255.92482701 881.71635758 250.96838688 880.695336 245.27124023 878.26074219 C242.94018216 877.35900494 240.60669184 876.46353854 238.27124023 875.57324219 C236.27111314 874.80273868 234.27106969 874.03201788 232.27124023 873.26074219 C232.27124023 872.60074219 232.27124023 871.94074219 232.27124023 871.26074219 C231.32249023 871.11636719 230.37374023 870.97199219 229.39624023 870.82324219 C226.27124023 870.26074219 226.27124023 870.26074219 224.27124023 869.26074219 C224.27124023 868.60074219 224.27124023 867.94074219 224.27124023 867.26074219 C221.96124023 866.60074219 219.65124023 865.94074219 217.27124023 865.26074219 C217.27124023 864.60074219 217.27124023 863.94074219 217.27124023 863.26074219 C215.29124023 862.60074219 213.31124023 861.94074219 211.27124023 861.26074219 C211.27124023 860.60074219 211.27124023 859.94074219 211.27124023 859.26074219 C210.19036133 858.87015625 210.19036133 858.87015625 209.08764648 858.47167969 C206.16292685 857.21417194 203.80423735 855.72304927 201.20874023 853.88574219 C199.95383789 853.00789063 199.95383789 853.00789063 198.67358398 852.11230469 C196.32041419 850.29864212 194.24766617 848.47908631 192.27124023 846.26074219 C192.27124023 845.60074219 192.27124023 844.94074219 192.27124023 844.26074219 C191.52874023 844.03386719 190.78624023 843.80699219 190.02124023 843.57324219 C186.72866554 842.00178608 185.29626915 840.26078502 183.27124023 837.26074219 C183.27124023 836.60074219 183.27124023 835.94074219 183.27124023 835.26074219 C182.61124023 835.26074219 181.95124023 835.26074219 181.27124023 835.26074219 C179.76342773 833.83496094 179.76342773 833.83496094 178.14624023 831.94824219 C177.33799805 831.02591797 177.33799805 831.02591797 176.51342773 830.08496094 C175.27124023 828.26074219 175.27124023 828.26074219 175.27124023 825.26074219 C174.28124023 824.93074219 173.29124023 824.60074219 172.27124023 824.26074219 C171.58374023 822.19824219 171.58374023 822.19824219 171.27124023 820.26074219 C170.61124023 820.26074219 169.95124023 820.26074219 169.27124023 820.26074219 C168.61124023 818.28074219 167.95124023 816.30074219 167.27124023 814.26074219 C166.61124023 814.26074219 165.95124023 814.26074219 165.27124023 814.26074219 C164.94124023 812.61074219 164.61124023 810.96074219 164.27124023 809.26074219 C163.61124023 809.26074219 162.95124023 809.26074219 162.27124023 809.26074219 C160.81061173 806.61335302 160.27124023 805.36625884 160.27124023 802.26074219 C159.61124023 802.26074219 158.95124023 802.26074219 158.27124023 802.26074219 C157.01459046 799.35473958 156.27124023 797.46469634 156.27124023 794.26074219 C155.61124023 794.26074219 154.95124023 794.26074219 154.27124023 794.26074219 C153.07836612 790.38390132 152.27124023 787.34452295 152.27124023 783.26074219 C151.61124023 783.26074219 150.95124023 783.26074219 150.27124023 783.26074219 C148.97880488 779.14110449 148.00871398 775.59242536 148.27124023 771.26074219 C147.61124023 771.26074219 146.95124023 771.26074219 146.27124023 771.26074219 C146.16166992 770.52210938 146.05209961 769.78347656 145.93920898 769.02246094 C144.83268769 761.94252389 143.30020885 755.13218257 141.27124023 748.26074219 C138.63124023 748.59074219 135.99124023 748.92074219 133.27124023 749.26074219 C133.27124023 749.92074219 133.27124023 750.58074219 133.27124023 751.26074219 C123.86121746 753.55686975 123.86121746 753.55686975 119.27124023 753.26074219 C119.27124023 753.92074219 119.27124023 754.58074219 119.27124023 755.26074219 C114.19037227 756.10755351 109.42295646 756.35112317 104.27124023 756.26074219 C104.27124023 756.92074219 104.27124023 757.58074219 104.27124023 758.26074219 C97.76262311 759.0920686 91.42256645 759.40814741 84.86499023 759.39355469 C83.9002478 759.39451141 82.93550537 759.39546814 81.94152832 759.39645386 C79.91455011 759.39713025 77.88756967 759.39531393 75.8605957 759.39111328 C72.77997922 759.38575738 69.6995085 759.39107676 66.61889648 759.39746094 C64.63842742 759.39680006 62.65795844 759.3955187 60.67749023 759.39355469 C59.76785522 759.39557892 58.85822021 759.39760315 57.92102051 759.39968872 C42.35386226 759.34336421 42.35386226 759.34336421 40.27124023 757.26074219 C37.92400057 756.86324919 35.56795475 756.51705496 33.20874023 756.19824219 C31.91838867 756.02164063 30.62803711 755.84503906 29.29858398 755.66308594 C28.29956055 755.5303125 27.30053711 755.39753906 26.27124023 755.26074219 C26.27124023 754.60074219 26.27124023 753.94074219 26.27124023 753.26074219 C25.59577148 753.20015625 24.92030273 753.13957031 24.22436523 753.07714844 C23.33233398 752.99335937 22.44030273 752.90957031 21.52124023 752.82324219 C20.63952148 752.74203125 19.75780273 752.66082031 18.84936523 752.57714844 C16.57773571 752.29835754 14.472722 751.87283642 12.27124023 751.26074219 C12.27124023 750.60074219 12.27124023 749.94074219 12.27124023 749.26074219 C11.03374023 749.11636719 9.79624023 748.97199219 8.52124023 748.82324219 C5.70619524 748.47385717 3.00109054 748.05694853 0.27124023 747.26074219 C0.27124023 746.60074219 0.27124023 745.94074219 0.27124023 745.26074219 C-0.82188477 745.11636719 -1.91500977 744.97199219 -3.04125977 744.82324219 C-6.72875977 744.26074219 -6.72875977 744.26074219 -9.72875977 743.26074219 C-9.72875977 742.60074219 -9.72875977 741.94074219 -9.72875977 741.26074219 C-12.36875977 740.60074219 -15.00875977 739.94074219 -17.72875977 739.26074219 C-17.72875977 738.60074219 -17.72875977 737.94074219 -17.72875977 737.26074219 C-18.74969727 737.13699219 -18.74969727 737.13699219 -19.79125977 737.01074219 C-23.60345046 736.0374169 -26.36946306 734.30266764 -29.72875977 732.26074219 C-29.72875977 731.60074219 -29.72875977 730.94074219 -29.72875977 730.26074219 C-30.49188477 730.15761719 -31.25500977 730.05449219 -32.04125977 729.94824219 C-34.99887131 729.19164389 -35.72106976 728.44301394 -37.72875977 726.26074219 C-39.82865629 725.08499508 -39.82865629 725.08499508 -41.72875977 724.26074219 C-41.72875977 723.60074219 -41.72875977 722.94074219 -41.72875977 722.26074219 C-42.34750977 722.11636719 -42.96625977 721.97199219 -43.60375977 721.82324219 C-45.72875977 721.26074219 -45.72875977 721.26074219 -47.72875977 720.26074219 C-47.72875977 719.60074219 -47.72875977 718.94074219 -47.72875977 718.26074219 C-48.53313477 717.97199219 -49.33750977 717.68324219 -50.16625977 717.38574219 C-52.72875977 716.26074219 -52.72875977 716.26074219 -53.72875977 714.26074219 C-54.71875977 713.93074219 -55.70875977 713.60074219 -56.72875977 713.26074219 C-58.91625977 711.32324219 -58.91625977 711.32324219 -60.72875977 709.26074219 C-60.72875977 708.60074219 -60.72875977 707.94074219 -60.72875977 707.26074219 C-62.04875977 706.60074219 -63.36875977 705.94074219 -64.72875977 705.26074219 C-64.72875977 704.60074219 -64.72875977 703.94074219 -64.72875977 703.26074219 C-66.04875977 702.60074219 -67.36875977 701.94074219 -68.72875977 701.26074219 C-68.72875977 700.60074219 -68.72875977 699.94074219 -68.72875977 699.26074219 C-70.04875977 698.60074219 -71.36875977 697.94074219 -72.72875977 697.26074219 C-72.72875977 696.60074219 -72.72875977 695.94074219 -72.72875977 695.26074219 C-73.38875977 695.26074219 -74.04875977 695.26074219 -74.72875977 695.26074219 C-75.91235352 693.79980469 -75.91235352 693.79980469 -77.16625977 691.88574219 C-78.94564222 689.1748335 -79.92070007 688.13278198 -82.72875977 686.26074219 C-83.05875977 685.27074219 -83.38875977 684.28074219 -83.72875977 683.26074219 C-84.47125977 682.54917969 -84.47125977 682.54917969 -85.22875977 681.82324219 C-86.97061947 680.00880499 -87.3073099 678.70515142 -87.72875977 676.26074219 C-88.38875977 676.26074219 -89.04875977 676.26074219 -89.72875977 676.26074219 C-91.18938827 673.61335302 -91.72875977 672.36625884 -91.72875977 669.26074219 C-92.71875977 668.93074219 -93.70875977 668.60074219 -94.72875977 668.26074219 C-95.05875977 667.27074219 -95.38875977 666.28074219 -95.72875977 665.26074219 C-96.38875977 664.93074219 -97.04875977 664.60074219 -97.72875977 664.26074219 C-98.78198242 662.45068359 -98.78198242 662.45068359 -99.89282227 660.11230469 C-100.29243164 659.27183594 -100.69204102 658.43136719 -101.10375977 657.56542969 C-101.72250977 656.23898437 -101.72250977 656.23898437 -102.35375977 654.88574219 C-102.77399414 654.00917969 -103.19422852 653.13261719 -103.62719727 652.22949219 C-106.72875977 645.64370688 -106.72875977 645.64370688 -106.72875977 642.26074219 C-107.38875977 642.26074219 -108.04875977 642.26074219 -108.72875977 642.26074219 C-108.91051758 641.62007812 -109.09227539 640.97941406 -109.27954102 640.31933594 C-109.5309082 639.454375 -109.78227539 638.58941406 -110.04125977 637.69824219 C-110.28489258 636.85132813 -110.52852539 636.00441406 -110.77954102 635.13183594 C-111.71909618 632.14001182 -111.71909618 632.14001182 -113.20532227 628.88964844 C-114.75028649 625.20946442 -115.8051425 621.62536371 -116.79125977 617.76074219 C-118.20468835 612.26497416 -118.20468835 612.26497416 -119.78344727 606.81542969 C-120.84145062 602.83698731 -121.3587838 598.96981954 -121.79125977 594.88574219 C-121.90485968 590.19311632 -121.90485968 590.19311632 -123.72875977 586.26074219 C-123.82689963 584.82333866 -123.85674257 583.38117892 -123.8581543 581.94042969 C-123.86130646 581.02277832 -123.86445862 580.10512695 -123.8677063 579.15966797 C-123.86466995 577.66282471 -123.86466995 577.66282471 -123.86157227 576.13574219 C-123.86252899 575.11851074 -123.86348572 574.1012793 -123.86447144 573.05322266 C-123.86515338 570.89778583 -123.86329812 568.74234697 -123.85913086 566.58691406 C-123.85378282 563.27501848 -123.85907539 559.96325852 -123.86547852 556.65136719 C-123.86481774 554.56282522 -123.86353658 552.47428334 -123.86157227 550.38574219 C-123.8635965 549.38784668 -123.86562073 548.38995117 -123.8677063 547.36181641 C-123.86297806 545.98533936 -123.86297806 545.98533936 -123.8581543 544.58105469 C-123.8573587 543.76910645 -123.85656311 542.9571582 -123.85574341 542.12060547 C-123.72875977 540.26074219 -123.72875977 540.26074219 -122.72875977 539.26074219 C-122.43173962 537.63169951 -122.19063031 535.99236588 -121.97485352 534.35058594 C-121.84272461 533.36123047 -121.7105957 532.371875 -121.57446289 531.35253906 C-121.43975586 530.31162109 -121.30504883 529.27070312 -121.16625977 528.19824219 C-121.02768555 527.15345703 -120.88911133 526.10867188 -120.74633789 525.03222656 C-120.4033671 522.44220575 -120.06435345 519.85172749 -119.72875977 517.26074219 C-121.70875977 516.27074219 -123.68875977 515.28074219 -125.72875977 514.26074219 C-125.72875977 513.60074219 -125.72875977 512.94074219 -125.72875977 512.26074219 C-126.45063477 512.15761719 -127.17250977 512.05449219 -127.91625977 511.94824219 C-131.04951589 511.18233513 -132.99423586 509.97079346 -135.72875977 508.26074219 C-136.80512695 507.59816406 -137.88149414 506.93558594 -138.99047852 506.25292969 C-140.71959586 505.18488705 -142.44816922 504.11598028 -144.17602539 503.04589844 C-147.39657466 501.0547136 -147.39657466 501.0547136 -150.72875977 499.26074219 C-150.72875977 498.60074219 -150.72875977 497.94074219 -150.72875977 497.26074219 C-152.37875977 496.60074219 -154.02875977 495.94074219 -155.72875977 495.26074219 C-155.72875977 494.60074219 -155.72875977 493.94074219 -155.72875977 493.26074219 C-157.04875977 492.93074219 -158.36875977 492.60074219 -159.72875977 492.26074219 C-159.72875977 491.60074219 -159.72875977 490.94074219 -159.72875977 490.26074219 C-160.67750977 489.99261719 -161.62625977 489.72449219 -162.60375977 489.44824219 C-165.72875977 488.26074219 -165.72875977 488.26074219 -167.72875977 485.26074219 C-168.71875977 484.93074219 -169.70875977 484.60074219 -170.72875977 484.26074219 C-171.96380746 482.76568445 -173.19640111 481.26819124 -174.39672852 479.74511719 C-176.20535192 477.72964243 -178.41517775 476.63638555 -180.72875977 475.26074219 C-181.41144114 473.93553716 -182.07946387 472.60262037 -182.72875977 471.26074219 C-184.76235457 469.99269653 -184.76235457 469.99269653 -186.72875977 469.26074219 C-186.72875977 468.60074219 -186.72875977 467.94074219 -186.72875977 467.26074219 C-188.04875977 466.60074219 -189.36875977 465.94074219 -190.72875977 465.26074219 C-190.72875977 464.60074219 -190.72875977 463.94074219 -190.72875977 463.26074219 C-192.04875977 462.60074219 -193.36875977 461.94074219 -194.72875977 461.26074219 C-194.72875977 460.60074219 -194.72875977 459.94074219 -194.72875977 459.26074219 C-195.71875977 458.93074219 -196.70875977 458.60074219 -197.72875977 458.26074219 C-197.72875977 457.27074219 -197.72875977 456.28074219 -197.72875977 455.26074219 C-199.04875977 454.60074219 -200.36875977 453.94074219 -201.72875977 453.26074219 C-201.72875977 452.60074219 -201.72875977 451.94074219 -201.72875977 451.26074219 C-202.71875977 450.93074219 -203.70875977 450.60074219 -204.72875977 450.26074219 C-207.18959554 448.19364013 -208.30920879 446.09984414 -209.72875977 443.26074219 C-210.50219727 442.51824219 -210.50219727 442.51824219 -211.29125977 441.76074219 C-212.72875977 440.26074219 -212.72875977 440.26074219 -213.22875977 438.13574219 C-213.39375977 437.51699219 -213.55875977 436.89824219 -213.72875977 436.26074219 C-214.71875977 435.93074219 -215.70875977 435.60074219 -216.72875977 435.26074219 C-216.72875977 434.27074219 -216.72875977 433.28074219 -216.72875977 432.26074219 C-217.71875977 431.93074219 -218.70875977 431.60074219 -219.72875977 431.26074219 C-220.41625977 429.19824219 -220.41625977 429.19824219 -220.72875977 427.26074219 C-221.38875977 427.26074219 -222.04875977 427.26074219 -222.72875977 427.26074219 C-223.38875977 425.28074219 -224.04875977 423.30074219 -224.72875977 421.26074219 C-225.38875977 421.26074219 -226.04875977 421.26074219 -226.72875977 421.26074219 C-228.27556083 418.16714006 -229.8155963 415.07664873 -231.29125977 411.94824219 C-232.45019553 409.15928978 -232.45019553 409.15928978 -234.72875977 408.26074219 C-235.36157227 406.41308594 -235.36157227 406.41308594 -235.85375977 404.19824219 C-236.02133789 403.46476562 -236.18891602 402.73128906 -236.36157227 401.97558594 C-236.48274414 401.4096875 -236.60391602 400.84378906 -236.72875977 400.26074219 C-237.38875977 400.26074219 -238.04875977 400.26074219 -238.72875977 400.26074219 C-239.05875977 398.28074219 -239.38875977 396.30074219 -239.72875977 394.26074219 C-240.38875977 394.26074219 -241.04875977 394.26074219 -241.72875977 394.26074219 C-242.98540954 391.35473958 -243.72875977 389.46469634 -243.72875977 386.26074219 C-244.38875977 386.26074219 -245.04875977 386.26074219 -245.72875977 386.26074219 C-246.73692033 383.68033123 -247.73547086 381.09687275 -248.72875977 378.51074219 C-249.01493164 377.78113281 -249.30110352 377.05152344 -249.59594727 376.29980469 C-249.86665039 375.59082031 -250.13735352 374.88183594 -250.41625977 374.15136719 C-250.79331055 373.17731934 -250.79331055 373.17731934 -251.17797852 372.18359375 C-251.72875977 370.26074219 -251.72875977 370.26074219 -251.72875977 366.26074219 C-252.38875977 366.26074219 -253.04875977 366.26074219 -253.72875977 366.26074219 C-254.86640328 361.99457902 -255.72875977 358.69587908 -255.72875977 354.26074219 C-256.38875977 354.26074219 -257.04875977 354.26074219 -257.72875977 354.26074219 C-257.91051758 353.37322266 -257.91051758 353.37322266 -258.09594727 352.46777344 C-258.26352539 351.67757813 -258.43110352 350.88738281 -258.60375977 350.07324219 C-258.76618164 349.2959375 -258.92860352 348.51863281 -259.09594727 347.71777344 C-259.67469363 345.22970703 -259.67469363 345.22970703 -260.73266602 342.85058594 C-261.86580453 339.90442579 -262.33400232 337.1308518 -262.79125977 334.01074219 C-263.05670809 330.32046703 -263.05670809 330.32046703 -264.72875977 327.26074219 C-267.85651196 310.52643297 -268.20955234 293.39607666 -268.11987305 276.42944336 C-268.10378059 272.82790193 -268.11984619 269.22748468 -268.13891602 265.62597656 C-268.15135798 249.3323986 -266.87702819 233.40828004 -264.72875977 217.26074219 C-264.06875977 217.26074219 -263.40875977 217.26074219 -262.72875977 217.26074219 C-262.67268555 216.13539063 -262.67268555 216.13539063 -262.61547852 214.98730469 C-262.16394099 207.95748516 -260.9608047 201.91113837 -258.72875977 195.26074219 C-258.32418167 193.95063114 -257.92343648 192.63933295 -257.52563477 191.32714844 C-257.09339404 189.90916416 -256.66110223 188.49119545 -256.22875977 187.07324219 C-256.02734375 186.40776367 -255.82592773 185.74228516 -255.6184082 185.05664062 C-254.25244226 180.64739904 -252.58152816 176.48818558 -250.72875977 172.26074219 C-250.35567345 170.93798163 -249.99829561 169.60842142 -249.72875977 168.26074219 C-249.06875977 168.26074219 -248.40875977 168.26074219 -247.72875977 168.26074219 C-247.63079102 167.71546875 -247.53282227 167.17019531 -247.43188477 166.60839844 C-246.26876234 160.74265172 -244.34336074 155.62955875 -241.72875977 150.26074219 C-241.06875977 150.26074219 -240.40875977 150.26074219 -239.72875977 150.26074219 C-239.39875977 148.61074219 -239.06875977 146.96074219 -238.72875977 145.26074219 C-238.06875977 145.26074219 -237.40875977 145.26074219 -236.72875977 145.26074219 C-236.58438477 144.31199219 -236.44000977 143.36324219 -236.29125977 142.38574219 C-235.72875977 139.26074219 -235.72875977 139.26074219 -234.72875977 137.26074219 C-234.06875977 137.26074219 -233.40875977 137.26074219 -232.72875977 137.26074219 C-232.44000977 136.12636719 -232.15125977 134.99199219 -231.85375977 133.82324219 C-231.48250977 132.64761719 -231.11125977 131.47199219 -230.72875977 130.26074219 C-230.06875977 129.93074219 -229.40875977 129.60074219 -228.72875977 129.26074219 C-227.69289186 127.27908185 -226.69763558 125.27600387 -225.72875977 123.26074219 C-224.16625977 120.38574219 -224.16625977 120.38574219 -222.72875977 118.26074219 C-222.06875977 118.26074219 -221.40875977 118.26074219 -220.72875977 118.26074219 C-220.64625977 117.72449219 -220.56375977 117.18824219 -220.47875977 116.63574219 C-219.4558217 113.39643832 -217.72842279 110.9875554 -215.72875977 108.26074219 C-215.06875977 107.93074219 -214.40875977 107.60074219 -213.72875977 107.26074219 C-212.59525443 105.24404391 -212.59525443 105.24404391 -211.72875977 103.26074219 C-211.06875977 103.26074219 -210.40875977 103.26074219 -209.72875977 103.26074219 C-209.48125977 102.53886719 -209.23375977 101.81699219 -208.97875977 101.07324219 C-206.65334121 95.84105043 -202.72644979 92.25843221 -198.72875977 88.26074219 C-197.74216171 87.10035314 -196.76333512 85.93332395 -195.79125977 84.76074219 C-193.05855526 81.51783966 -189.98832335 78.97704517 -186.72875977 76.26074219 C-185.70927492 75.08992756 -184.70975282 73.90149148 -183.72875977 72.69824219 C-181.08250893 69.49924967 -178.23890866 67.50126276 -174.72875977 65.26074219 C-173.04213519 63.61427534 -171.3736427 61.94891152 -169.72875977 60.26074219 C-166.10807011 57.26074219 -166.10807011 57.26074219 -163.72875977 57.26074219 C-163.72875977 56.60074219 -163.72875977 55.94074219 -163.72875977 55.26074219 C-163.08938477 54.97199219 -162.45000977 54.68324219 -161.79125977 54.38574219 C-159.57669897 53.43250768 -159.57669897 53.43250768 -158.72875977 51.26074219 C-156.74987016 50.53380315 -154.74921419 49.86257968 -152.72875977 49.26074219 C-152.72875977 48.60074219 -152.72875977 47.94074219 -152.72875977 47.26074219 C-150.29742923 45.62210822 -147.88104442 44.11152884 -145.35375977 42.63574219 C-144.30575195 42.00539063 -144.30575195 42.00539063 -143.23657227 41.36230469 C-138.00016804 38.26074219 -138.00016804 38.26074219 -135.72875977 38.26074219 C-135.72875977 37.60074219 -135.72875977 36.94074219 -135.72875977 36.26074219 C-133.0813706 34.80011368 -131.83427642 34.26074219 -128.72875977 34.26074219 C-128.72875977 33.60074219 -128.72875977 32.94074219 -128.72875977 32.26074219 C-125.82275715 31.00409241 -123.93271392 30.26074219 -120.72875977 30.26074219 C-120.72875977 29.60074219 -120.72875977 28.94074219 -120.72875977 28.26074219 C-117.75875977 27.76574219 -117.75875977 27.76574219 -114.72875977 27.26074219 C-114.72875977 26.60074219 -114.72875977 25.94074219 -114.72875977 25.26074219 C-111.82275715 24.00409241 -109.93271392 23.26074219 -106.72875977 23.26074219 C-106.72875977 22.60074219 -106.72875977 21.94074219 -106.72875977 21.26074219 C-102.90555419 19.83815407 -99.81594671 19.02031943 -95.72875977 19.26074219 C-95.72875977 18.60074219 -95.72875977 17.94074219 -95.72875977 17.26074219 C-92.10902575 15.94447527 -89.63308846 15.26074219 -85.72875977 15.26074219 C-85.72875977 14.60074219 -85.72875977 13.94074219 -85.72875977 13.26074219 C-77.30018834 10.9750279 -77.30018834 10.9750279 -72.72875977 11.26074219 C-72.72875977 10.60074219 -72.72875977 9.94074219 -72.72875977 9.26074219 C-69.35648739 8.41610162 -65.98056056 7.58707571 -62.60375977 6.76074219 C-61.65243164 6.52226562 -60.70110352 6.28378906 -59.72094727 6.03808594 C-54.96811176 4.88288286 -50.66142668 3.92857607 -45.72875977 4.26074219 C-45.72875977 3.60074219 -45.72875977 2.94074219 -45.72875977 2.26074219 C-30.46245691 0.43969553 -15.36841136 -0.05279497 0 0 Z " fill="#4AB2FC" transform="translate(422.728759765625,367.7392578125)"/>
<path d="M0 0 C2.9943465 0.01072893 5.98809331 0.00003401 8.98242188 -0.01269531 C22.86171967 -0.02356175 36.6119202 0.21569106 49.99804688 4.26074219 C51.80555009 4.65913065 53.61778691 5.03713069 55.43554688 5.38574219 C56.73298828 5.63710938 56.73298828 5.63710938 58.05664062 5.89355469 C58.69730469 6.01472656 59.33796875 6.13589844 59.99804688 6.26074219 C59.99804688 6.92074219 59.99804688 7.58074219 59.99804688 8.26074219 C61.09117187 8.34324219 62.18429687 8.42574219 63.31054688 8.51074219 C68.83934366 9.17578597 73.84799312 11.22533491 78.99804688 13.26074219 C78.99804688 13.92074219 78.99804688 14.58074219 78.99804688 15.26074219 C80.11179687 15.40511719 81.22554687 15.54949219 82.37304688 15.69824219 C85.99804688 16.26074219 85.99804688 16.26074219 87.99804688 17.26074219 C87.99804688 17.92074219 87.99804688 18.58074219 87.99804688 19.26074219 C89.20460938 19.35355469 89.20460938 19.35355469 90.43554688 19.44824219 C95.16159197 20.52611212 98.87318114 22.77665638 102.99804688 25.26074219 C102.99804688 25.92074219 102.99804688 26.58074219 102.99804688 27.26074219 C103.59617187 27.40511719 104.19429687 27.54949219 104.81054688 27.69824219 C106.55955092 28.14798608 108.2848171 28.6896656 109.99804688 29.26074219 C109.99804688 29.92074219 109.99804688 30.58074219 109.99804688 31.26074219 C111.31804687 31.59074219 112.63804687 31.92074219 113.99804688 32.26074219 C113.99804688 32.92074219 113.99804688 33.58074219 113.99804688 34.26074219 C115.97804688 34.92074219 117.95804688 35.58074219 119.99804688 36.26074219 C119.99804688 36.92074219 119.99804688 37.58074219 119.99804688 38.26074219 C121.64804688 38.92074219 123.29804687 39.58074219 124.99804688 40.26074219 C124.99804688 40.92074219 124.99804688 41.58074219 124.99804688 42.26074219 C126.08085938 42.63199219 126.08085938 42.63199219 127.18554688 43.01074219 C130.27411269 44.38343811 132.50816105 45.98427515 134.99804688 48.26074219 C134.99804688 48.92074219 134.99804688 49.58074219 134.99804688 50.26074219 C135.83335937 50.60105469 135.83335937 50.60105469 136.68554688 50.94824219 C139.67009437 52.64217455 141.62458733 54.77688917 143.99804688 57.26074219 C144.76955078 57.98390625 144.76955078 57.98390625 145.55664062 58.72167969 C150.37589821 63.28494899 154.21202502 68.41817142 158.08007812 73.78417969 C159.75928574 76.32191548 159.75928574 76.32191548 161.99804688 77.26074219 C164.39986887 81.16370292 166.42824727 84.94379329 167.99804688 89.26074219 C168.65804688 89.26074219 169.31804687 89.26074219 169.99804688 89.26074219 C170.83653492 90.71611786 171.66868622 92.17514592 172.49804688 93.63574219 C173.19414063 94.85390625 173.19414063 94.85390625 173.90429688 96.09667969 C174.99804688 98.26074219 174.99804688 98.26074219 174.99804688 100.26074219 C175.65804688 100.26074219 176.31804687 100.26074219 176.99804688 100.26074219 C178.25469665 103.1667448 178.99804688 105.05678803 178.99804688 108.26074219 C179.65804688 108.26074219 180.31804687 108.26074219 180.99804688 108.26074219 C182.0066311 110.67414014 183.0050736 113.09092894 183.99804688 115.51074219 C184.28421875 116.19265625 184.57039063 116.87457031 184.86523438 117.57714844 C186.29150181 121.07489954 186.99804688 123.42974407 186.99804688 127.26074219 C187.65804688 127.26074219 188.31804687 127.26074219 188.99804688 127.26074219 C191.20381255 133.45789337 192.84770423 139.62358093 194.25195312 146.04980469 C194.75517275 148.21549335 195.33202832 150.36519981 195.97558594 152.4934082 C199.57055148 165.73932829 199.34337943 179.79314122 199.3137207 193.4152832 C199.3105688 196.42729227 199.33409389 199.43830715 199.359375 202.45019531 C199.41044132 218.16021096 198.67858205 234.15941581 193.99804688 249.26074219 C193.61401885 250.73759069 193.23702648 252.21632523 192.87304688 253.69824219 C192.58429688 254.87386719 192.29554688 256.04949219 191.99804688 257.26074219 C191.33804687 257.26074219 190.67804688 257.26074219 189.99804688 257.26074219 C189.66804688 259.90074219 189.33804687 262.54074219 188.99804688 265.26074219 C188.33804687 265.26074219 187.67804688 265.26074219 186.99804688 265.26074219 C186.93617188 266.16824219 186.87429688 267.07574219 186.81054688 268.01074219 C186.02702889 273.7684122 183.34041968 278.99688595 180.99804688 284.26074219 C180.33804687 284.26074219 179.67804688 284.26074219 178.99804688 284.26074219 C178.85367187 285.20949219 178.70929688 286.15824219 178.56054688 287.13574219 C177.99804688 290.26074219 177.99804688 290.26074219 176.99804688 292.26074219 C176.33804687 292.26074219 175.67804688 292.26074219 174.99804688 292.26074219 C174.85367187 293.04449219 174.70929688 293.82824219 174.56054688 294.63574219 C173.99804688 297.26074219 173.99804688 297.26074219 172.99804688 299.26074219 C172.33804687 299.26074219 171.67804688 299.26074219 170.99804688 299.26074219 C170.66804688 300.58074219 170.33804687 301.90074219 169.99804688 303.26074219 C169.33804687 303.26074219 168.67804688 303.26074219 167.99804688 303.26074219 C167.88332031 303.83308594 167.76859375 304.40542969 167.65039062 304.99511719 C166.93622331 307.47545875 165.92496815 309.32442916 164.56054688 311.51074219 C163.91279297 312.57035156 163.91279297 312.57035156 163.25195312 313.65136719 C162.83816406 314.18246094 162.424375 314.71355469 161.99804688 315.26074219 C161.33804687 315.26074219 160.67804688 315.26074219 159.99804688 315.26074219 C159.75054688 315.98261719 159.50304688 316.70449219 159.24804688 317.44824219 C156.92262832 322.68043394 152.9957369 326.26305216 148.99804688 330.26074219 C147.99035125 331.44171881 146.99066027 332.62956095 145.99804688 333.82324219 C143.57014797 336.68916409 141.10147456 339.10558407 137.99804688 341.26074219 C137.33804687 341.26074219 136.67804688 341.26074219 135.99804688 341.26074219 C135.66804688 342.25074219 135.33804687 343.24074219 134.99804688 344.26074219 C133.24515631 345.88983309 131.42231511 347.44478566 129.56054688 348.94824219 C128.57183594 349.75648438 127.583125 350.56472656 126.56445312 351.39746094 C123.99804688 353.26074219 123.99804688 353.26074219 121.99804688 353.26074219 C121.99804688 353.92074219 121.99804688 354.58074219 121.99804688 355.26074219 C119.73242188 356.91699219 119.73242188 356.91699219 116.74804688 358.76074219 C115.77351563 359.36917969 114.79898437 359.97761719 113.79492188 360.60449219 C110.99804688 362.26074219 110.99804688 362.26074219 108.70117188 363.35449219 C106.81284262 364.14821421 106.81284262 364.14821421 105.99804688 366.26074219 C103.09544876 367.63565708 101.23665982 368.26074219 97.99804688 368.26074219 C97.66804688 369.25074219 97.33804687 370.24074219 96.99804688 371.26074219 C95.01804687 371.59074219 93.03804687 371.92074219 90.99804688 372.26074219 C90.99804688 372.92074219 90.99804688 373.58074219 90.99804688 374.26074219 C86.61243582 376.02526538 82.22413821 377.78271818 77.83154297 379.52978516 C76.33971861 380.12452845 74.85017581 380.72499226 73.36132812 381.32714844 C69.95959517 382.66840314 67.72137795 383.26074219 63.99804688 383.26074219 C63.99804688 383.92074219 63.99804688 384.58074219 63.99804688 385.26074219 C63.05703125 385.45410156 62.11601563 385.64746094 61.14648438 385.84667969 C59.90125 386.10707031 58.65601563 386.36746094 57.37304688 386.63574219 C55.52839844 387.01859375 55.52839844 387.01859375 53.64648438 387.40917969 C50.3378335 388.18143439 47.21280031 389.17406497 43.99804688 390.26074219 C37.96590313 391.26609948 32.10481341 391.37336698 25.99804688 391.26074219 C25.99804688 391.92074219 25.99804688 392.58074219 25.99804688 393.26074219 C10.81804687 393.26074219 -4.36195313 393.26074219 -20.00195312 393.26074219 C-20.00195312 392.60074219 -20.00195312 391.94074219 -20.00195312 391.26074219 C-21.79632812 391.32261719 -21.79632812 391.32261719 -23.62695312 391.38574219 C-31.92458226 391.38574219 -40.31976402 390.44816587 -48.00195312 387.26074219 C-49.76346592 386.84415084 -51.53508446 386.46789101 -53.31445312 386.13574219 C-54.19746094 385.96816406 -55.08046875 385.80058594 -55.99023438 385.62792969 C-56.65410156 385.50675781 -57.31796875 385.38558594 -58.00195312 385.26074219 C-58.00195312 384.60074219 -58.00195312 383.94074219 -58.00195312 383.26074219 C-59.61070312 383.16792969 -59.61070312 383.16792969 -61.25195312 383.07324219 C-67.25526751 382.33748963 -72.5290948 379.70892915 -78.00195312 377.26074219 C-79.41754444 376.6540602 -80.83399241 376.04936549 -82.25195312 375.44824219 C-83.15945313 375.05636719 -84.06695313 374.66449219 -85.00195312 374.26074219 C-85.00195312 373.60074219 -85.00195312 372.94074219 -85.00195312 372.26074219 C-85.78570313 372.11636719 -86.56945313 371.97199219 -87.37695312 371.82324219 C-90.00195312 371.26074219 -90.00195312 371.26074219 -92.00195312 370.26074219 C-92.00195312 369.60074219 -92.00195312 368.94074219 -92.00195312 368.26074219 C-92.76507812 368.11636719 -93.52820312 367.97199219 -94.31445312 367.82324219 C-97.00195312 367.26074219 -97.00195312 367.26074219 -100.00195312 366.26074219 C-100.33195312 365.60074219 -100.66195313 364.94074219 -101.00195312 364.26074219 C-102.71256807 363.27384895 -104.42568488 362.29068813 -106.15820312 361.34277344 C-108.63587574 359.88871557 -110.76819342 358.06015973 -113.00195312 356.26074219 C-113.99195313 355.93074219 -114.98195313 355.60074219 -116.00195312 355.26074219 C-116.00195312 354.60074219 -116.00195312 353.94074219 -116.00195312 353.26074219 C-116.53820313 353.01324219 -117.07445312 352.76574219 -117.62695312 352.51074219 C-122.29772203 350.05244277 -126.52797495 347.26917854 -130.00195312 343.26074219 C-130.00195312 342.60074219 -130.00195312 341.94074219 -130.00195312 341.26074219 C-130.55882812 341.21949219 -131.11570312 341.17824219 -131.68945312 341.13574219 C-134.59349744 340.03691461 -135.89455921 338.23240089 -137.76367188 335.81933594 C-139.09867529 334.07106394 -139.09867529 334.07106394 -141.31445312 332.01074219 C-143.00195312 330.26074219 -143.00195312 330.26074219 -143.00195312 328.26074219 C-143.66195312 328.26074219 -144.32195313 328.26074219 -145.00195312 328.26074219 C-146.50976562 326.83496094 -146.50976562 326.83496094 -148.12695312 324.94824219 C-148.93519531 324.02591797 -148.93519531 324.02591797 -149.75976562 323.08496094 C-151.00195312 321.26074219 -151.00195312 321.26074219 -151.00195312 318.26074219 C-151.99195313 317.93074219 -152.98195313 317.60074219 -154.00195312 317.26074219 C-156.04492187 314.86230469 -156.04492187 314.86230469 -158.18945312 311.88574219 C-158.90488281 310.90863281 -159.6203125 309.93152344 -160.35742188 308.92480469 C-162.00195312 306.26074219 -162.00195312 306.26074219 -162.00195312 303.26074219 C-162.66195312 303.26074219 -163.32195313 303.26074219 -164.00195312 303.26074219 C-165.00704114 301.47192483 -166.00588048 299.67959523 -167.00195312 297.88574219 C-167.55882812 296.88800781 -168.11570312 295.89027344 -168.68945312 294.86230469 C-170.00195312 292.26074219 -170.00195312 292.26074219 -170.00195312 290.26074219 C-170.66195312 290.26074219 -171.32195313 290.26074219 -172.00195312 290.26074219 C-172.39382813 289.33261719 -172.78570313 288.40449219 -173.18945312 287.44824219 C-174.17022469 285.13474753 -175.19393899 282.85974418 -176.27929688 280.59277344 C-178.74632131 275.40844672 -180.61858812 271.01121719 -181.00195312 265.26074219 C-181.66195312 265.26074219 -182.32195313 265.26074219 -183.00195312 265.26074219 C-184.13959664 260.99457902 -185.00195312 257.69587908 -185.00195312 253.26074219 C-185.66195312 253.26074219 -186.32195313 253.26074219 -187.00195312 253.26074219 C-188.19284298 247.88047194 -189.29390503 242.80782835 -189.00195312 237.26074219 C-189.66195312 237.26074219 -190.32195313 237.26074219 -191.00195312 237.26074219 C-192.89103803 224.60193692 -193.31446986 212.13867368 -193.26269531 199.34936523 C-193.25195634 196.19918634 -193.26266369 193.049576 -193.27539062 189.89941406 C-193.28208723 178.52289409 -192.81511376 167.50419674 -191.00195312 156.26074219 C-190.34195313 156.26074219 -189.68195312 156.26074219 -189.00195312 156.26074219 C-189.04320312 155.31199219 -189.08445312 154.36324219 -189.12695312 153.38574219 C-189.1467982 148.55346561 -188.05969509 143.95447214 -187.00195312 139.26074219 C-186.34195313 139.26074219 -185.68195312 139.26074219 -185.00195312 139.26074219 C-184.85757813 138.02324219 -184.71320312 136.78574219 -184.56445312 135.51074219 C-184.21506811 132.69569719 -183.79815946 129.99059249 -183.00195312 127.26074219 C-182.34195313 127.26074219 -181.68195312 127.26074219 -181.00195312 127.26074219 C-180.92074219 126.29007813 -180.83953125 125.31941406 -180.75585938 124.31933594 C-180.07680685 119.56596823 -178.05603594 115.58930807 -175.93945312 111.32324219 C-175.56240234 110.54400391 -175.18535156 109.76476562 -174.796875 108.96191406 C-173.87380257 107.0573469 -172.93906251 105.15844205 -172.00195312 103.26074219 C-171.34195313 103.26074219 -170.68195312 103.26074219 -170.00195312 103.26074219 C-169.85757813 102.47699219 -169.71320312 101.69324219 -169.56445312 100.88574219 C-169.00195312 98.26074219 -169.00195312 98.26074219 -168.00195312 96.26074219 C-167.34195313 96.26074219 -166.68195312 96.26074219 -166.00195312 96.26074219 C-165.85757813 95.47699219 -165.71320312 94.69324219 -165.56445312 93.88574219 C-165.00195312 91.26074219 -165.00195312 91.26074219 -164.00195312 89.26074219 C-163.34195313 89.26074219 -162.68195312 89.26074219 -162.00195312 89.26074219 C-161.74414062 88.5453125 -161.48632812 87.82988281 -161.22070312 87.09277344 C-159.92810547 84.08914108 -158.37418223 81.62568847 -156.50195312 78.94824219 C-155.58929687 77.62373047 -155.58929687 77.62373047 -154.65820312 76.27246094 C-154.11164062 75.60859375 -153.56507813 74.94472656 -153.00195312 74.26074219 C-152.34195313 74.26074219 -151.68195312 74.26074219 -151.00195312 74.26074219 C-150.34195313 72.61074219 -149.68195312 70.96074219 -149.00195312 69.26074219 C-148.34195313 69.26074219 -147.68195312 69.26074219 -147.00195312 69.26074219 C-146.78539062 68.555625 -146.56882812 67.85050781 -146.34570312 67.12402344 C-144.67472735 63.56348495 -142.28804043 61.14433959 -139.50195312 58.44824219 C-139.00308594 57.94615234 -138.50421875 57.4440625 -137.99023438 56.92675781 C-134.26935321 53.26074219 -134.26935321 53.26074219 -132.00195312 53.26074219 C-131.67195312 52.27074219 -131.34195313 51.28074219 -131.00195312 50.26074219 C-126.54481027 46.26074219 -126.54481027 46.26074219 -124.00195312 46.26074219 C-123.67195312 45.27074219 -123.34195313 44.28074219 -123.00195312 43.26074219 C-121.66861979 42.92740885 -120.33528646 42.59407552 -119.00195312 42.26074219 C-118.67195313 41.27074219 -118.34195312 40.28074219 -118.00195312 39.26074219 C-116.35195312 38.93074219 -114.70195313 38.60074219 -113.00195312 38.26074219 C-112.67195313 37.27074219 -112.34195312 36.28074219 -112.00195312 35.26074219 C-109.93945312 34.57324219 -109.93945312 34.57324219 -108.00195312 34.26074219 C-108.00195312 33.60074219 -108.00195312 32.94074219 -108.00195312 32.26074219 C-106.35742188 30.97167969 -106.35742188 30.97167969 -104.18945312 29.63574219 C-103.48175781 29.18972656 -102.7740625 28.74371094 -102.04492188 28.28417969 C-100.00195312 27.26074219 -100.00195312 27.26074219 -97.00195312 27.26074219 C-97.00195312 26.60074219 -97.00195312 25.94074219 -97.00195312 25.26074219 C-94.35456396 23.80011368 -93.10746978 23.26074219 -90.00195312 23.26074219 C-90.00195312 22.60074219 -90.00195312 21.94074219 -90.00195312 21.26074219 C-87.09595051 20.00409241 -85.20590728 19.26074219 -82.00195312 19.26074219 C-82.00195312 18.60074219 -82.00195312 17.94074219 -82.00195312 17.26074219 C-78.63097929 15.76253159 -76.79753193 15.26074219 -73.00195312 15.26074219 C-73.00195312 14.60074219 -73.00195312 13.94074219 -73.00195312 13.26074219 C-69.55955864 12.02187191 -66.11534725 10.78873109 -62.66601562 9.56933594 C-60.61051918 8.83523007 -58.55915206 8.08823136 -56.52539062 7.29589844 C-50.15350505 4.89749207 -43.76600561 4.56392228 -37.00195312 4.26074219 C-37.00195312 3.60074219 -37.00195312 2.94074219 -37.00195312 2.26074219 C-24.64025518 0.43967326 -12.4876746 -0.05308691 0 0 Z " fill="#4AB2FC" transform="translate(1145.001953125,786.7392578125)"/>
<path d="M0 0 C2.86935547 0.01072839 5.73808514 0.00003553 8.60742188 -0.01269531 C22.65447705 -0.02334532 36.60220826 0.19910823 49.87304688 5.26074219 C52.55415284 6.1759274 55.24514388 7.06082523 57.93554688 7.94824219 C59.25992229 8.38917816 60.58415372 8.83054697 61.90820312 9.27246094 C62.88660156 9.59859375 63.865 9.92472656 64.87304688 10.26074219 C64.87304688 10.92074219 64.87304688 11.58074219 64.87304688 12.26074219 C69.32804687 13.25074219 69.32804687 13.25074219 73.87304688 14.26074219 C73.87304688 14.92074219 73.87304688 15.58074219 73.87304688 16.26074219 C76.51304687 16.92074219 79.15304687 17.58074219 81.87304688 18.26074219 C81.87304688 18.92074219 81.87304688 19.58074219 81.87304688 20.26074219 C83.85304688 20.92074219 85.83304688 21.58074219 87.87304688 22.26074219 C87.87304688 22.92074219 87.87304688 23.58074219 87.87304688 24.26074219 C88.57429687 24.34324219 89.27554688 24.42574219 89.99804688 24.51074219 C93.56339207 25.44083224 95.96320259 27.02760588 98.87304688 29.26074219 C98.87304688 29.92074219 98.87304688 30.58074219 98.87304688 31.26074219 C100.85304688 32.25074219 100.85304688 32.25074219 102.87304688 33.26074219 C102.87304688 33.92074219 102.87304688 34.58074219 102.87304688 35.26074219 C103.67742187 35.35355469 103.67742187 35.35355469 104.49804688 35.44824219 C110.39783628 37.46659119 114.02209448 42.63959932 117.87304688 47.26074219 C119.35143198 48.45603227 120.82991064 49.6512332 122.31445312 50.83886719 C125.29340377 53.55650637 127.82557772 56.79020936 129.87304688 60.26074219 C129.87304688 61.25074219 129.87304688 62.24074219 129.87304688 63.26074219 C130.86304688 63.59074219 131.85304688 63.92074219 132.87304688 64.26074219 C136.87304688 69.51788504 136.87304688 69.51788504 136.87304688 73.26074219 C137.53304688 73.26074219 138.19304687 73.26074219 138.87304688 73.26074219 C139.53304688 75.24074219 140.19304687 77.22074219 140.87304688 79.26074219 C141.53304688 79.26074219 142.19304687 79.26074219 142.87304688 79.26074219 C148.87304688 92.62967423 148.87304688 92.62967423 148.87304688 96.26074219 C149.53304688 96.26074219 150.19304687 96.26074219 150.87304688 96.26074219 C151.71582118 98.65361923 152.54741689 101.04945238 153.37304688 103.44824219 C153.61152344 104.12177734 153.85 104.7953125 154.09570312 105.48925781 C155.3603228 109.19278686 156.17755908 112.34014754 155.87304688 116.26074219 C156.53304688 116.26074219 157.19304687 116.26074219 157.87304688 116.26074219 C157.95868896 116.85612793 158.04433105 117.45151367 158.13256836 118.06494141 C158.5216594 120.75573848 158.91603688 123.44573451 159.31054688 126.13574219 C159.44525391 127.07289063 159.57996094 128.01003906 159.71875 128.97558594 C159.91694336 130.31943359 159.91694336 130.31943359 160.11914062 131.69042969 C160.2395874 132.51784668 160.36003418 133.34526367 160.48413086 134.19775391 C160.7856136 136.31401986 160.7856136 136.31401986 161.87304688 138.26074219 C161.97228076 141.2386949 162.012857 144.19278061 162.00585938 147.17089844 C162.00729446 148.49485878 162.00729446 148.49485878 162.00875854 149.8455658 C162.00943956 151.71255566 162.00759072 153.57954788 162.00341797 155.4465332 C161.99806227 158.31499507 162.00336886 161.1833008 162.00976562 164.05175781 C162.00910495 165.86230504 162.00782402 167.67285216 162.00585938 169.48339844 C162.00788361 170.34691422 162.00990784 171.21042999 162.01199341 172.10011292 C161.98800127 178.1457878 161.98800127 178.1457878 160.87304688 179.26074219 C160.57660952 180.81661962 160.33523793 182.38309406 160.11914062 183.95214844 C159.98701172 184.89638672 159.85488281 185.840625 159.71875 186.81347656 C159.51668945 188.30331055 159.51668945 188.30331055 159.31054688 189.82324219 C159.17197266 190.82033203 159.03339844 191.81742188 158.890625 192.84472656 C158.54768782 195.31623935 158.20867233 197.78822764 157.87304688 200.26074219 C157.21304687 200.26074219 156.55304688 200.26074219 155.87304688 200.26074219 C155.81246094 200.875625 155.751875 201.49050781 155.68945312 202.12402344 C155.60566406 202.93226563 155.521875 203.74050781 155.43554688 204.57324219 C155.35433594 205.37375 155.273125 206.17425781 155.18945312 206.99902344 C154.87304688 209.26074219 154.87304688 209.26074219 153.87304688 212.26074219 C153.21304687 212.26074219 152.55304688 212.26074219 151.87304688 212.26074219 C151.54304688 214.90074219 151.21304687 217.54074219 150.87304688 220.26074219 C150.21304687 220.26074219 149.55304688 220.26074219 148.87304688 220.26074219 C148.72867187 221.20949219 148.58429688 222.15824219 148.43554688 223.13574219 C147.87304688 226.26074219 147.87304688 226.26074219 146.87304688 228.26074219 C146.21304687 228.26074219 145.55304688 228.26074219 144.87304688 228.26074219 C144.81117188 229.06511719 144.74929688 229.86949219 144.68554688 230.69824219 C143.60767694 235.42428729 141.35713268 239.13587645 138.87304688 243.26074219 C138.21304687 243.26074219 137.55304688 243.26074219 136.87304688 243.26074219 C136.79054688 243.79699219 136.70804688 244.33324219 136.62304688 244.88574219 C135.59723417 248.1341491 133.90740793 250.54826077 131.87304688 253.26074219 C131.21304687 253.26074219 130.55304688 253.26074219 129.87304688 253.26074219 C129.21304687 254.91074219 128.55304688 256.56074219 127.87304688 258.26074219 C127.21304687 258.26074219 126.55304688 258.26074219 125.87304688 258.26074219 C125.81117188 258.79699219 125.74929688 259.33324219 125.68554688 259.88574219 C123.68251703 265.74075249 118.5146893 269.48940772 113.87304688 273.26074219 C113.00679687 274.12699219 112.14054687 274.99324219 111.24804688 275.88574219 C109.20786494 277.92592413 107.28257369 279.68208669 104.87304688 281.26074219 C104.21304687 281.26074219 103.55304688 281.26074219 102.87304688 281.26074219 C102.21304687 282.58074219 101.55304688 283.90074219 100.87304688 285.26074219 C100.21304687 285.26074219 99.55304688 285.26074219 98.87304688 285.26074219 C98.87304688 285.92074219 98.87304688 286.58074219 98.87304688 287.26074219 C97.22851562 288.54980469 97.22851562 288.54980469 95.06054688 289.88574219 C94.35285156 290.33175781 93.64515625 290.77777344 92.91601562 291.23730469 C90.87304688 292.26074219 90.87304688 292.26074219 87.87304688 292.26074219 C87.87304688 292.92074219 87.87304688 293.58074219 87.87304688 294.26074219 C85.17235259 295.75417843 82.46132313 297.22780711 79.74804688 298.69824219 C78.9875 299.11912109 78.22695313 299.54 77.44335938 299.97363281 C73.24007798 302.23833184 69.71454432 303.83537101 64.87304688 304.26074219 C64.87304688 304.92074219 64.87304688 305.58074219 64.87304688 306.26074219 C61.0498413 307.68333031 57.96023382 308.50116495 53.87304688 308.26074219 C53.87304688 308.92074219 53.87304688 309.58074219 53.87304688 310.26074219 C44.4630241 312.55686975 44.4630241 312.55686975 39.87304688 312.26074219 C39.87304688 312.92074219 39.87304688 313.58074219 39.87304688 314.26074219 C38.80183594 314.39351562 37.730625 314.52628906 36.62695312 314.66308594 C35.22978918 314.84124778 33.83265528 315.01964537 32.43554688 315.19824219 C31.72849609 315.28525391 31.02144531 315.37226562 30.29296875 315.46191406 C26.78486719 315.64290409 26.78486719 315.64290409 23.87304688 317.26074219 C20.78223222 317.36191139 17.71422132 317.40042776 14.62304688 317.39355469 C13.69459961 317.39451141 12.76615234 317.39546814 11.80957031 317.39645386 C9.84244723 317.39713574 7.87532191 317.39528091 5.90820312 317.39111328 C2.88601661 317.38576514 -0.13602127 317.39105801 -3.15820312 317.39746094 C-5.06445346 317.39680016 -6.97070369 317.395519 -8.87695312 317.39355469 C-10.24255371 317.39659103 -10.24255371 317.39659103 -11.63574219 317.39968872 C-18.01200344 317.37569187 -18.01200344 317.37569187 -19.12695312 316.26074219 C-22.58077438 315.71636506 -26.04461572 315.29431996 -29.51367188 314.85839844 C-32.91419667 314.29593326 -35.88502384 313.40364456 -39.12695312 312.26074219 C-40.74573737 311.85975893 -42.37054424 311.48179862 -44.00195312 311.13574219 C-44.783125 310.96816406 -45.56429687 310.80058594 -46.36914062 310.62792969 C-46.94921875 310.50675781 -47.52929688 310.38558594 -48.12695312 310.26074219 C-48.12695312 309.60074219 -48.12695312 308.94074219 -48.12695312 308.26074219 C-49.03445313 308.19886719 -49.94195313 308.13699219 -50.87695312 308.07324219 C-56.63462314 307.28972421 -61.86309689 304.603115 -67.12695312 302.26074219 C-67.12695312 301.60074219 -67.12695312 300.94074219 -67.12695312 300.26074219 C-68.33351563 300.16792969 -68.33351563 300.16792969 -69.56445312 300.07324219 C-74.29049822 298.99537225 -78.00208739 296.744828 -82.12695312 294.26074219 C-82.12695312 293.60074219 -82.12695312 292.94074219 -82.12695312 292.26074219 C-83.44695312 291.93074219 -84.76695312 291.60074219 -86.12695312 291.26074219 C-86.12695312 290.60074219 -86.12695312 289.94074219 -86.12695312 289.26074219 C-86.70960938 289.14601563 -87.29226563 289.03128906 -87.89257812 288.91308594 C-90.29218447 288.21250157 -91.85556245 287.27881624 -93.87695312 285.82324219 C-94.79734375 285.17548828 -94.79734375 285.17548828 -95.73632812 284.51464844 C-96.19523438 284.10085938 -96.65414062 283.68707031 -97.12695312 283.26074219 C-97.12695312 282.60074219 -97.12695312 281.94074219 -97.12695312 281.26074219 C-97.80757812 281.07511719 -98.48820313 280.88949219 -99.18945312 280.69824219 C-103.26352191 278.70454895 -106.26072255 275.76299511 -109.12695312 272.26074219 C-109.12695312 271.60074219 -109.12695312 270.94074219 -109.12695312 270.26074219 C-110.0009375 269.87208984 -110.0009375 269.87208984 -110.89257812 269.47558594 C-113.29039151 268.17187971 -114.94452107 266.74328686 -116.87695312 264.82324219 C-117.49054687 264.22640625 -118.10414063 263.62957031 -118.73632812 263.01464844 C-120.12695312 261.26074219 -120.12695312 261.26074219 -120.12695312 258.26074219 C-121.11695313 257.93074219 -122.10695313 257.60074219 -123.12695312 257.26074219 C-123.81445312 255.19824219 -123.81445312 255.19824219 -124.12695312 253.26074219 C-124.78695312 253.26074219 -125.44695313 253.26074219 -126.12695312 253.26074219 C-128.12695312 250.26074219 -128.12695312 250.26074219 -128.12695312 247.26074219 C-129.11695313 246.93074219 -130.10695313 246.60074219 -131.12695312 246.26074219 C-131.12695312 245.27074219 -131.12695312 244.28074219 -131.12695312 243.26074219 C-131.78695312 243.26074219 -132.44695313 243.26074219 -133.12695312 243.26074219 C-134.13427712 241.32703988 -135.13258601 239.38863913 -136.12695312 237.44824219 C-136.68382812 236.36929688 -137.24070312 235.29035156 -137.81445312 234.17871094 C-139.12695312 231.26074219 -139.12695312 231.26074219 -139.12695312 228.26074219 C-139.78695312 228.26074219 -140.44695313 228.26074219 -141.12695312 228.26074219 C-142.3836029 225.35473958 -143.12695312 223.46469634 -143.12695312 220.26074219 C-143.78695312 220.26074219 -144.44695313 220.26074219 -145.12695312 220.26074219 C-145.78695312 216.63074219 -146.44695313 213.00074219 -147.12695312 209.26074219 C-147.78695312 209.26074219 -148.44695313 209.26074219 -149.12695312 209.26074219 C-149.94874613 205.95047847 -150.75763796 202.63718547 -151.56445312 199.32324219 C-151.79455078 198.39705078 -152.02464844 197.47085938 -152.26171875 196.51660156 C-153.34158463 192.05628596 -154.26192816 187.70160522 -154.72460938 183.13183594 C-154.69264939 179.48497309 -154.69264939 179.48497309 -156.12695312 178.26074219 C-156.22805666 175.31538648 -156.26664592 172.39396659 -156.25976562 169.44824219 C-156.26072235 168.56418701 -156.26167908 167.68013184 -156.26266479 166.76928711 C-156.26334664 164.89632089 -156.26149206 163.02335233 -156.25732422 161.15039062 C-156.25197602 158.27305831 -156.25726906 155.39588211 -156.26367188 152.51855469 C-156.26301109 150.70345017 -156.26172993 148.88834576 -156.25976562 147.07324219 C-156.26178986 146.20658936 -156.26381409 145.33993652 -156.26589966 144.44702148 C-156.24190322 138.37569228 -156.24190322 138.37569228 -155.12695312 137.26074219 C-154.79876301 134.78141501 -154.51465607 132.30954789 -154.25195312 129.82324219 C-153.49674859 123.34303106 -152.28405989 117.43296784 -150.12695312 111.26074219 C-149.69003997 109.9476096 -149.25532741 108.63374371 -148.82226562 107.31933594 C-147.60430449 103.628401 -146.36928436 99.9435423 -145.12695312 96.26074219 C-144.46695313 96.26074219 -143.80695312 96.26074219 -143.12695312 96.26074219 C-143.05605469 95.45378906 -142.98515625 94.64683594 -142.91210938 93.81542969 C-141.88939305 89.18522147 -139.84721042 85.510786 -137.56445312 81.38574219 C-137.13970703 80.60199219 -136.71496094 79.81824219 -136.27734375 79.01074219 C-135.23484775 77.08973832 -134.18462868 75.17341729 -133.12695312 73.26074219 C-132.46695313 73.26074219 -131.80695312 73.26074219 -131.12695312 73.26074219 C-131.04445313 72.72449219 -130.96195313 72.18824219 -130.87695312 71.63574219 C-129.85114042 68.38733527 -128.16131418 65.9732236 -126.12695312 63.26074219 C-125.46695313 63.26074219 -124.80695312 63.26074219 -124.12695312 63.26074219 C-124.04832031 62.71289062 -123.9696875 62.16503906 -123.88867188 61.60058594 C-121.48676832 54.22243091 -114.14694185 47.91255166 -108.12695312 43.26074219 C-105.85276219 41.03943941 -103.62394092 38.81507473 -101.50195312 36.44824219 C-100.12695312 35.26074219 -100.12695312 35.26074219 -97.12695312 35.26074219 C-96.46695313 33.94074219 -95.80695312 32.62074219 -95.12695312 31.26074219 C-94.46695313 31.26074219 -93.80695312 31.26074219 -93.12695312 31.26074219 C-93.12695312 30.60074219 -93.12695312 29.94074219 -93.12695312 29.26074219 C-86.60864327 25.37482669 -86.60864327 25.37482669 -83.75195312 24.69824219 C-83.21570313 24.55386719 -82.67945313 24.40949219 -82.12695312 24.26074219 C-81.63195312 22.77574219 -81.63195312 22.77574219 -81.12695312 21.26074219 C-79.31689453 20.09399414 -79.31689453 20.09399414 -76.97851562 18.99902344 C-76.13804687 18.60263672 -75.29757812 18.20625 -74.43164062 17.79785156 C-73.54734375 17.39373047 -72.66304687 16.98960937 -71.75195312 16.57324219 C-70.87539063 16.15751953 -69.99882813 15.74179687 -69.09570312 15.31347656 C-62.53909136 12.26074219 -62.53909136 12.26074219 -59.12695312 12.26074219 C-59.12695312 11.60074219 -59.12695312 10.94074219 -59.12695312 10.26074219 C-58.14855469 9.93460938 -57.17015625 9.60847656 -56.16210938 9.27246094 C-55.53183838 9.06210205 -54.90156738 8.85174316 -54.25219727 8.63500977 C-52.86531231 8.17326194 -51.47776623 7.71349556 -50.08959961 7.25561523 C-47.26989957 6.32340941 -44.46466092 5.38954741 -41.68945312 4.33105469 C-28.62726683 -0.61828934 -13.75425899 -0.06102572 0 0 Z " fill="#4AB2FC" transform="translate(840.126953125,244.7392578125)"/>
<path d="M0 0 C2.42196679 0.01072746 4.84319217 0.00003888 7.26513672 -0.01269531 C16.35778099 -0.01965113 24.97498013 0.51132663 33.92529297 2.26074219 C33.92529297 2.92074219 33.92529297 3.58074219 33.92529297 4.26074219 C35.08029297 4.36386719 36.23529297 4.46699219 37.42529297 4.57324219 C41.94780181 5.12751059 45.71233039 6.5469947 49.92529297 8.26074219 C50.91529297 8.59074219 51.90529297 8.92074219 52.92529297 9.26074219 C52.92529297 9.92074219 52.92529297 10.58074219 52.92529297 11.26074219 C53.87404297 11.40511719 54.82279297 11.54949219 55.80029297 11.69824219 C58.92529297 12.26074219 58.92529297 12.26074219 60.92529297 13.26074219 C60.92529297 13.92074219 60.92529297 14.58074219 60.92529297 15.26074219 C62.90529297 15.59074219 64.88529297 15.92074219 66.92529297 16.26074219 C67.25529297 17.25074219 67.58529297 18.24074219 67.92529297 19.26074219 C69.25567745 19.60565668 70.58986358 19.93590801 71.92529297 20.26074219 C75.17529297 22.19824219 75.17529297 22.19824219 77.92529297 24.26074219 C77.92529297 24.92074219 77.92529297 25.58074219 77.92529297 26.26074219 C78.64716797 26.46699219 79.36904297 26.67324219 80.11279297 26.88574219 C83.10806679 28.35009828 84.51672914 29.98935547 86.52294922 32.60449219 C88.59978932 35.05736183 91.05840782 36.97186953 93.56982422 38.96386719 C94.01712891 39.39183594 94.46443359 39.81980469 94.92529297 40.26074219 C94.92529297 40.92074219 94.92529297 41.58074219 94.92529297 42.26074219 C95.91529297 42.59074219 96.90529297 42.92074219 97.92529297 43.26074219 C98.25529297 44.25074219 98.58529297 45.24074219 98.92529297 46.26074219 C99.66779297 46.97230469 99.66779297 46.97230469 100.42529297 47.69824219 C102.16715268 49.51267938 102.5038431 50.81633296 102.92529297 53.26074219 C103.58529297 53.26074219 104.24529297 53.26074219 104.92529297 53.26074219 C105.91529297 56.23074219 105.91529297 56.23074219 106.92529297 59.26074219 C107.58529297 59.26074219 108.24529297 59.26074219 108.92529297 59.26074219 C109.91529297 63.71574219 109.91529297 63.71574219 110.92529297 68.26074219 C111.58529297 68.26074219 112.24529297 68.26074219 112.92529297 68.26074219 C113.25529297 69.91074219 113.58529297 71.56074219 113.92529297 73.26074219 C114.58529297 73.26074219 115.24529297 73.26074219 115.92529297 73.26074219 C117.11816708 77.13758306 117.92529297 80.17696142 117.92529297 84.26074219 C118.58529297 84.26074219 119.24529297 84.26074219 119.92529297 84.26074219 C120.13025391 85.54851562 120.33521484 86.83628906 120.54638672 88.16308594 C120.81830949 89.84150582 121.09045648 91.51988939 121.36279297 93.19824219 C121.4975 94.04837891 121.63220703 94.89851562 121.77099609 95.77441406 C121.903125 96.58330078 122.03525391 97.3921875 122.17138672 98.22558594 C122.35205688 99.34888306 122.35205688 99.34888306 122.53637695 100.49487305 C122.76289201 102.27783069 122.76289201 102.27783069 123.92529297 103.26074219 C124.01384458 105.92700249 124.0405397 108.56721333 124.02294922 111.23339844 C124.0208268 112.42986244 124.0208268 112.42986244 124.0186615 113.65049744 C124.01304613 116.20811654 124.00049109 118.76564937 123.98779297 121.32324219 C123.98277995 123.05305864 123.9782167 124.78287645 123.97412109 126.51269531 C123.96307172 130.76207772 123.94579683 135.01139531 123.92529297 139.26074219 C123.26529297 139.26074219 122.60529297 139.26074219 121.92529297 139.26074219 C121.96654297 140.37449219 122.00779297 141.48824219 122.05029297 142.63574219 C122.03574457 150.88468259 119.6816303 158.55874817 116.92529297 166.26074219 C116.59529297 167.25074219 116.26529297 168.24074219 115.92529297 169.26074219 C115.26529297 169.26074219 114.60529297 169.26074219 113.92529297 169.26074219 C113.59529297 171.24074219 113.26529297 173.22074219 112.92529297 175.26074219 C112.26529297 175.26074219 111.60529297 175.26074219 110.92529297 175.26074219 C109.93529297 179.22074219 109.93529297 179.22074219 108.92529297 183.26074219 C108.26529297 183.26074219 107.60529297 183.26074219 106.92529297 183.26074219 C105.93529297 186.23074219 105.93529297 186.23074219 104.92529297 189.26074219 C104.26529297 189.26074219 103.60529297 189.26074219 102.92529297 189.26074219 C102.63654297 190.23011719 102.34779297 191.19949219 102.05029297 192.19824219 C100.92529297 195.26074219 100.92529297 195.26074219 98.92529297 196.26074219 C97.79178763 198.27744046 97.79178763 198.27744046 96.92529297 200.26074219 C96.26529297 200.26074219 95.60529297 200.26074219 94.92529297 200.26074219 C94.59529297 201.25074219 94.26529297 202.24074219 93.92529297 203.26074219 C91.98779297 205.44824219 91.98779297 205.44824219 89.92529297 207.26074219 C89.26529297 207.26074219 88.60529297 207.26074219 87.92529297 207.26074219 C87.26529297 208.58074219 86.60529297 209.90074219 85.92529297 211.26074219 C85.26529297 211.26074219 84.60529297 211.26074219 83.92529297 211.26074219 C83.26529297 212.58074219 82.60529297 213.90074219 81.92529297 215.26074219 C81.26529297 215.26074219 80.60529297 215.26074219 79.92529297 215.26074219 C79.92529297 215.92074219 79.92529297 216.58074219 79.92529297 217.26074219 C78.06201172 218.76855469 78.06201172 218.76855469 75.61279297 220.38574219 C74.81228516 220.92457031 74.01177734 221.46339844 73.18701172 222.01855469 C70.92529297 223.26074219 70.92529297 223.26074219 67.92529297 223.26074219 C67.59529297 224.25074219 67.26529297 225.24074219 66.92529297 226.26074219 C64.94529297 226.59074219 62.96529297 226.92074219 60.92529297 227.26074219 C60.92529297 227.92074219 60.92529297 228.58074219 60.92529297 229.26074219 C59.27529297 229.59074219 57.62529297 229.92074219 55.92529297 230.26074219 C55.92529297 230.92074219 55.92529297 231.58074219 55.92529297 232.26074219 C52.30555895 233.5770091 49.82962166 234.26074219 45.92529297 234.26074219 C45.92529297 234.92074219 45.92529297 235.58074219 45.92529297 236.26074219 C41.74791823 237.85212304 38.39368512 238.47352277 33.92529297 238.26074219 C33.92529297 238.92074219 33.92529297 239.58074219 33.92529297 240.26074219 C24.17052835 242.16739475 14.75753451 242.57357349 4.85058594 242.52148438 C2.42861915 242.51075692 0.00739377 242.5214455 -2.41455078 242.53417969 C-11.50719505 242.5411355 -20.12439419 242.01015774 -29.07470703 240.26074219 C-29.07470703 239.60074219 -29.07470703 238.94074219 -29.07470703 238.26074219 C-29.67798828 238.20015625 -30.28126953 238.13957031 -30.90283203 238.07714844 C-31.70205078 237.99335937 -32.50126953 237.90957031 -33.32470703 237.82324219 C-34.50806641 237.70142578 -34.50806641 237.70142578 -35.71533203 237.57714844 C-37.89835342 237.28439226 -39.95202523 236.840098 -42.07470703 236.26074219 C-42.07470703 235.60074219 -42.07470703 234.94074219 -42.07470703 234.26074219 C-43.46689453 234.04417969 -43.46689453 234.04417969 -44.88720703 233.82324219 C-48.07470703 233.26074219 -48.07470703 233.26074219 -51.07470703 232.26074219 C-51.07470703 231.60074219 -51.07470703 230.94074219 -51.07470703 230.26074219 C-53.05470703 229.93074219 -55.03470703 229.60074219 -57.07470703 229.26074219 C-57.07470703 228.60074219 -57.07470703 227.94074219 -57.07470703 227.26074219 C-60.04470703 226.27074219 -60.04470703 226.27074219 -63.07470703 225.26074219 C-63.07470703 224.60074219 -63.07470703 223.94074219 -63.07470703 223.26074219 C-63.63287109 223.16277344 -64.19103516 223.06480469 -64.76611328 222.96386719 C-71.41417327 220.93907734 -77.46425396 215.27799994 -82.07470703 210.26074219 C-82.83783203 209.53886719 -83.60095703 208.81699219 -84.38720703 208.07324219 C-86.07470703 206.26074219 -86.07470703 206.26074219 -86.07470703 204.26074219 C-86.67283203 203.99261719 -87.27095703 203.72449219 -87.88720703 203.44824219 C-90.09289736 202.25086744 -91.5105389 201.21595235 -93.07470703 199.26074219 C-93.07470703 198.27074219 -93.07470703 197.28074219 -93.07470703 196.26074219 C-94.39470703 195.60074219 -95.71470703 194.94074219 -97.07470703 194.26074219 C-97.07470703 193.27074219 -97.07470703 192.28074219 -97.07470703 191.26074219 C-97.73470703 191.26074219 -98.39470703 191.26074219 -99.07470703 191.26074219 C-99.73470703 189.28074219 -100.39470703 187.30074219 -101.07470703 185.26074219 C-101.73470703 185.26074219 -102.39470703 185.26074219 -103.07470703 185.26074219 C-104.33135681 182.35473958 -105.07470703 180.46469634 -105.07470703 177.26074219 C-105.73470703 177.26074219 -106.39470703 177.26074219 -107.07470703 177.26074219 C-108.33135681 174.35473958 -109.07470703 172.46469634 -109.07470703 169.26074219 C-109.73470703 169.26074219 -110.39470703 169.26074219 -111.07470703 169.26074219 C-114.13917464 161.89176658 -115.76592197 155.24283597 -116.07470703 147.26074219 C-116.73470703 147.26074219 -117.39470703 147.26074219 -118.07470703 147.26074219 C-118.86863576 141.6728873 -119.22282096 136.27155305 -119.20751953 130.63183594 C-119.20847626 129.83850357 -119.20943298 129.0451712 -119.2104187 128.22779846 C-119.21109451 126.56307902 -119.20928236 124.89835685 -119.20507812 123.23364258 C-119.19971414 120.70159944 -119.20504723 118.16973308 -119.21142578 115.63769531 C-119.21076503 114.0107418 -119.20948394 112.3837884 -119.20751953 110.75683594 C-119.20954376 110.00873154 -119.21156799 109.26062714 -119.21365356 108.48985291 C-119.19376226 103.98161172 -118.81152187 99.7098014 -118.07470703 95.26074219 C-117.41470703 95.26074219 -116.75470703 95.26074219 -116.07470703 95.26074219 C-116.04892578 94.59429688 -116.02314453 93.92785156 -115.99658203 93.24121094 C-115.55074106 85.99629509 -113.85572171 79.94811238 -111.07470703 73.26074219 C-110.41470703 73.26074219 -109.75470703 73.26074219 -109.07470703 73.26074219 C-108.93033203 72.49761719 -108.78595703 71.73449219 -108.63720703 70.94824219 C-108.07470703 68.26074219 -108.07470703 68.26074219 -107.07470703 65.26074219 C-106.41470703 65.26074219 -105.75470703 65.26074219 -105.07470703 65.26074219 C-104.93033203 64.31199219 -104.78595703 63.36324219 -104.63720703 62.38574219 C-104.07470703 59.26074219 -104.07470703 59.26074219 -103.07470703 57.26074219 C-102.41470703 57.26074219 -101.75470703 57.26074219 -101.07470703 57.26074219 C-100.41470703 55.28074219 -99.75470703 53.30074219 -99.07470703 51.26074219 C-98.41470703 51.26074219 -97.75470703 51.26074219 -97.07470703 51.26074219 C-96.41470703 49.61074219 -95.75470703 47.96074219 -95.07470703 46.26074219 C-94.41470703 46.26074219 -93.75470703 46.26074219 -93.07470703 46.26074219 C-92.74470703 44.94074219 -92.41470703 43.62074219 -92.07470703 42.26074219 C-91.41470703 42.26074219 -90.75470703 42.26074219 -90.07470703 42.26074219 C-89.41470703 40.94074219 -88.75470703 39.62074219 -88.07470703 38.26074219 C-87.41470703 38.26074219 -86.75470703 38.26074219 -86.07470703 38.26074219 C-85.41470703 36.94074219 -84.75470703 35.62074219 -84.07470703 34.26074219 C-83.41470703 34.26074219 -82.75470703 34.26074219 -82.07470703 34.26074219 C-81.41470703 32.94074219 -80.75470703 31.62074219 -80.07470703 30.26074219 C-79.41470703 30.26074219 -78.75470703 30.26074219 -78.07470703 30.26074219 C-77.57970703 28.77574219 -77.57970703 28.77574219 -77.07470703 27.26074219 C-74.67626953 25.21777344 -74.67626953 25.21777344 -71.69970703 23.07324219 C-70.72259766 22.3578125 -69.74548828 21.64238281 -68.73876953 20.90527344 C-66.07470703 19.26074219 -66.07470703 19.26074219 -63.07470703 19.26074219 C-62.57970703 17.77574219 -62.57970703 17.77574219 -62.07470703 16.26074219 C-60.42470703 15.93074219 -58.77470703 15.60074219 -57.07470703 15.26074219 C-57.07470703 14.60074219 -57.07470703 13.94074219 -57.07470703 13.26074219 C-53.7037332 11.76253159 -51.87028584 11.26074219 -48.07470703 11.26074219 C-48.07470703 10.60074219 -48.07470703 9.94074219 -48.07470703 9.26074219 C-46.03825753 8.41473943 -43.99527216 7.58445969 -41.94970703 6.76074219 C-40.81275391 6.29667969 -39.67580078 5.83261719 -38.50439453 5.35449219 C-35.12754253 4.27759178 -32.58855975 4.04713412 -29.07470703 4.26074219 C-29.07470703 3.60074219 -29.07470703 2.94074219 -29.07470703 2.26074219 C-19.31994242 0.35408962 -9.90694857 -0.05208911 0 0 Z " fill="#4AB2FC" transform="translate(859.07470703125,611.7392578125)"/>
<path d="M0 0 C1.16337891 -0.00773438 2.32675781 -0.01546875 3.52539062 -0.0234375 C10.44233303 -0.00786757 16.84721876 0.56710663 23.5625 2.25 C23.5625 2.91 23.5625 3.57 23.5625 4.25 C28.0175 5.24 28.0175 5.24 32.5625 6.25 C32.5625 6.91 32.5625 7.57 32.5625 8.25 C33.6453125 8.6521875 33.6453125 8.6521875 34.75 9.0625 C40.53402873 11.50464546 43.64081786 14.32275834 47.5625 19.25 C48.325625 19.9925 49.08875 20.735 49.875 21.5 C51.5625 23.25 51.5625 23.25 51.5625 25.25 C52.2225 25.25 52.8825 25.25 53.5625 25.25 C54.5525 28.22 54.5525 28.22 55.5625 31.25 C56.2225 31.25 56.8825 31.25 57.5625 31.25 C59.06071059 34.62097383 59.5625 36.45442119 59.5625 40.25 C60.2225 40.25 60.8825 40.25 61.5625 40.25 C66.17203706 55.28587088 66.17203706 71.21412912 61.5625 86.25 C60.9025 86.25 60.2425 86.25 59.5625 86.25 C59.418125 87.343125 59.27375 88.43625 59.125 89.5625 C58.5625 93.25 58.5625 93.25 57.5625 96.25 C56.5725 96.745 56.5725 96.745 55.5625 97.25 C54.42899466 99.26669827 54.42899466 99.26669827 53.5625 101.25 C52.9025 101.25 52.2425 101.25 51.5625 101.25 C51.376875 101.930625 51.19125 102.61125 51 103.3125 C49.00630676 107.38656879 46.06475292 110.38376943 42.5625 113.25 C41.9025 113.25 41.2425 113.25 40.5625 113.25 C40.5625 113.91 40.5625 114.57 40.5625 115.25 C39.2425 115.58 37.9225 115.91 36.5625 116.25 C36.5625 116.91 36.5625 117.57 36.5625 118.25 C23.91876327 124.68634888 14.56665718 127.4383235 0.25 127.5 C-0.93529297 127.520625 -2.12058594 127.54125 -3.34179688 127.5625 C-10.33242446 127.59351776 -15.99129886 126.9630276 -22.4375 124.25 C-23.86835937 123.74146484 -23.86835937 123.74146484 -25.328125 123.22265625 C-30.01062265 121.41632851 -33.62484675 119.60051346 -37.4375 116.25 C-38.9225 115.755 -38.9225 115.755 -40.4375 115.25 C-41.68322684 113.80757945 -42.92400795 112.35960746 -44.109375 110.8671875 C-45.58355378 109.0184815 -45.58355378 109.0184815 -48.0625 106.625 C-50.11090461 104.57659539 -51.88968914 102.69391189 -53.4375 100.25 C-53.4375 99.26 -53.4375 98.27 -53.4375 97.25 C-54.4275 96.92 -55.4175 96.59 -56.4375 96.25 C-57.60546875 94.10546875 -57.60546875 94.10546875 -58.625 91.4375 C-59.14126953 90.12845703 -59.14126953 90.12845703 -59.66796875 88.79296875 C-60.4375 86.25 -60.4375 86.25 -60.4375 82.25 C-61.0975 82.25 -61.7575 82.25 -62.4375 82.25 C-65.59775249 68.38115161 -65.51857437 50.27500388 -59.4375 37.25 C-59.0559375 36.41210938 -58.674375 35.57421875 -58.28125 34.7109375 C-57.39148784 32.86150329 -56.42520485 31.04903383 -55.4375 29.25 C-54.7775 29.25 -54.1175 29.25 -53.4375 29.25 C-52.7775 27.27 -52.1175 25.29 -51.4375 23.25 C-50.7775 23.25 -50.1175 23.25 -49.4375 23.25 C-48.7775 21.93 -48.1175 20.61 -47.4375 19.25 C-46.7775 19.25 -46.1175 19.25 -45.4375 19.25 C-44.7775 17.93 -44.1175 16.61 -43.4375 15.25 C-42.7775 15.25 -42.1175 15.25 -41.4375 15.25 C-41.1075 14.26 -40.7775 13.27 -40.4375 12.25 C-39.4475 12.25 -38.4575 12.25 -37.4375 12.25 C-37.1075 11.26 -36.7775 10.27 -36.4375 9.25 C-35.4475 8.92 -34.4575 8.59 -33.4375 8.25 C-33.1075 7.59 -32.7775 6.93 -32.4375 6.25 C-28.8246899 4.80487596 -26.37062158 4.25 -22.4375 4.25 C-22.4375 3.59 -22.4375 2.93 -22.4375 2.25 C-14.877334 0.21674297 -7.80647225 -0.05172704 0 0 Z " fill="#4AB2FC" transform="translate(1028.4375,523.75)"/>
</svg>
