<svg width="98" height="107" viewBox="0 0 98 107" fill="none" xmlns="http://www.w3.org/2000/svg">
<path d="M42.2369 92.2534C42.2369 90.1487 42.0067 88.5837 40.8132 82.5205C38.7179 71.8855 38.9149 68.3295 41.8691 63.5897C43.4138 61.1132 43.4566 61.1914 40.4383 61.0043C34.7457 60.6516 30.5339 58.7717 28.7234 55.7792C26.2129 51.6289 27.2095 46.4345 31.0796 43.4988L32.5603 42.3742C29.2763 37.7101 28.2749 34.0144 28.5881 30.6549C28.7424 28.9929 28.7424 28.9929 26.8868 28.7017C24.3312 28.2992 24.4403 28.266 24.4403 29.4167C24.4403 29.9707 24.12 31.3604 23.7285 32.5063C22.8576 35.0514 22.86 34.9046 23.7214 37.1396C24.8058 39.9546 24.8674 41.1928 24.0725 44.1853C23.4034 46.7044 23.4034 46.7044 24.3929 48.3901C27.1739 53.1299 26.9105 58.696 23.7166 62.7042C22.2953 64.487 22.2953 64.487 23.2397 66.3952C25.1807 70.3158 25.0525 73.6304 22.962 73.6304C21.7424 73.6304 21.3936 73.164 21.0258 71.045C20.5203 68.1401 19.4217 66.3905 18.1522 66.4639C14.2417 66.6888 13.1787 66.6059 11.5082 65.9359C5.24852 63.4334 2.20174 55.8526 4.77631 49.1998C5.51902 47.2821 5.51902 47.2821 4.78818 45.362C3.54716 42.109 3.52581 40.0848 4.69089 36.6282C5.31258 34.7815 5.31258 34.7815 4.52716 31.9547C3.65157 28.8153 3.6492 27.4137 4.51292 24.5159C4.94004 23.0906 4.93767 23.074 4.35631 20.8343C1.30242 9.10793 13.8882 -0.326697 23.6217 6.39474C25.0336 7.36779 25.0335 7.36779 27.2925 7.2139C30.3773 7.00319 32.94 7.68268 35.2749 9.33048C36.8932 10.4716 36.8932 10.4716 38.7132 10.0526C41.0671 9.51041 42.6616 9.68798 45.4071 10.7984C47.5118 11.6483 47.5118 11.6483 49.085 10.9167C51.5338 9.78031 52.8579 9.58144 55.5914 9.94367C57.9121 10.2515 57.9121 10.2515 59.5755 9.14818C62.0694 7.48854 64.2382 6.94874 67.126 7.26362C69.3565 7.50748 69.3565 7.50748 71.0412 6.34502C80.8388 -0.416664 93.5124 9.21447 90.4015 21.0545C89.8629 23.1048 89.8629 23.1048 90.3707 25.0012C91.1134 27.7594 91.0541 29.876 90.169 32.3619C89.7775 33.458 89.4571 34.495 89.4571 34.6631C89.4571 34.8336 89.7775 35.8871 90.169 37.007C91.2154 39.9995 91.1798 42.1966 90.0408 45.1892C89.1961 47.4052 89.1961 47.4052 89.9198 49.6686C91.2297 53.762 90.6008 58.3456 88.2778 61.6294C87.4236 62.8368 87.2622 63.2819 86.949 65.299C85.4114 75.1338 76.2877 80.92 66.7416 78.1121C64.2714 77.3853 64.2714 77.3853 62.2118 78.0198C60.444 78.5643 59.8958 78.633 58.344 78.5075C56.5382 78.3607 56.5382 78.3607 56.4243 80.7898C56.327 82.8283 56.1277 83.7895 55.1904 86.7702C54.3101 89.5663 54.0301 90.8613 53.8782 92.8595C53.622 96.1906 52.9504 97.4478 50.943 98.3593C49.9203 98.8233 49.2298 98.963 47.9437 98.963C46.4938 98.963 46.0881 98.8612 44.9064 98.1936C42.8657 97.043 42.2369 95.6437 42.2369 92.2534ZM50.4043 92.0972C50.5016 90.6861 50.8979 88.8868 51.7284 86.0836C53.0643 81.5829 53.2091 79.9233 52.5281 76.971C51.8209 73.8908 52.7179 73.1877 55.8975 74.3264C58.5243 75.2687 59.407 75.2498 61.9697 74.1868C64.0555 73.3202 64.0555 73.3202 66.7202 74.246C75.0775 77.1438 82.4073 72.8018 83.6032 64.2478C83.9188 61.975 84.0066 61.7454 85.2595 59.8277C86.2941 58.2438 86.6619 57.4222 86.9514 56.0491C87.4829 53.5347 87.4497 53.2199 86.332 50.1113C85.3259 47.3105 85.3259 47.3105 86.351 44.8506C87.7154 41.5692 87.7059 39.6184 86.3107 36.9596C85.2073 34.8549 85.2097 34.6939 86.3724 32.0801C87.5849 29.3575 87.6347 27.9417 86.6263 24.9254C86.2442 23.7819 85.9714 22.7402 86.0212 22.61C87.2148 19.5085 87.3666 18.7912 87.2527 16.7338C86.8208 8.84751 77.728 4.844 72.1446 10.081C70.5287 11.5986 70.4741 11.6081 67.7406 11.0233C64.7982 10.3959 62.9189 10.8931 60.7809 12.8676C58.9918 14.5201 58.7189 14.5982 56.9155 13.9803C54.0942 13.012 51.5955 13.3364 49.0565 15.0031C47.4121 16.0803 47.405 16.0803 45.2813 14.809C42.6474 13.2345 41.0291 12.9954 38.585 13.817C35.9915 14.6882 35.8301 14.6598 34.0742 13.0522C31.699 10.8765 29.9027 10.3817 26.6305 10.9972C24.1888 11.4589 24.1888 11.4589 22.4993 10.1023C14.8539 3.96801 5.0397 11.1156 8.07698 20.6071C8.80071 22.8681 8.80071 22.8681 8.06037 25.1054C7.10173 27.9961 7.1919 29.2722 8.57529 32.4376C9.55766 34.6892 9.55766 34.6892 8.52308 36.8768C7.04953 39.9853 7.0519 41.5526 8.53495 44.9098C9.58376 47.2821 9.58376 47.2821 8.5302 49.5597C6.53461 53.8615 7.15393 57.936 10.26 60.9428C17.5353 67.9862 27.1739 57.3039 20.7339 49.3371C19.0966 47.3129 19.0349 46.998 19.8986 45.0684C21.4007 41.7113 21.3532 39.8528 19.6875 36.7939C18.5319 34.6726 18.5271 34.9188 19.7942 32.5347C21.5383 29.258 21.5146 27.3143 19.7136 25.2356C18.5817 23.9311 18.418 22.8136 19.2437 22.0228C20.0363 21.2629 20.6817 21.4428 22.4447 22.9107C25.0976 25.1219 28.0969 25.7115 31.26 24.639C33.3671 23.9263 33.659 23.9832 35.4552 25.4676C38.5139 28.0009 41.805 28.2684 45.286 26.2678C47.2888 25.1172 47.3813 25.1172 49.4599 26.2513C53.3918 28.401 56.6023 27.9677 60.0714 24.8236C60.9399 24.0376 60.9399 24.0376 63.6711 24.7147C67.4962 25.6617 69.1168 25.3421 71.9833 23.0693C74.0263 21.4475 74.686 21.2487 75.4572 22.0181C76.1477 22.7071 76.0599 23.8198 75.2294 24.9704C73.5589 27.2835 73.3216 30.9698 74.6409 34.0925C75.8985 37.0614 75.8985 37.1182 74.7761 39.4858C73.4236 42.341 73.4022 43.9036 74.6789 47.1471C75.5758 49.4294 75.5758 49.4294 74.3158 51.8917C73.0558 54.3539 73.0558 54.3539 73.1128 56.7925C73.1816 59.8821 72.987 60.1354 70.5501 60.1354C68.2982 60.1378 66.9101 60.7415 64.9809 62.5574C62.9663 64.4538 62.506 64.4822 60.8213 62.8036C53.6813 55.6939 42.9488 61.7572 42.9488 72.8965C42.9488 74.3975 43.2952 76.7034 44.2657 81.68C45.1555 86.2351 45.642 89.3887 45.763 91.3869C45.9196 93.9746 46.0074 94.4126 46.463 94.879C46.8118 95.2365 47.2745 95.4165 47.8725 95.4259C49.5216 95.452 50.2382 94.5097 50.4043 92.0972ZM60.6931 58.8262C61.1202 58.9091 61.7348 59.1837 62.0575 59.437C62.5962 59.8632 62.6816 59.8679 63.1182 59.5246C63.4979 59.2239 63.5928 58.8664 63.5928 57.7395C63.5928 53.066 60.6053 51.5081 53.864 52.6706C44.5955 54.2663 34.6437 53.414 34.6437 51.0228C34.6437 49.3939 35.4813 49.1193 39.0478 49.581C50.1291 51.0133 61.4999 48.7476 64.0911 44.5902C65.2609 42.7127 64.9619 39.4503 63.4575 37.6675C61.6328 35.5036 59.7867 35.4586 52.9789 37.4118C45.203 39.6397 42.0827 39.6065 39.2305 37.265C37.4888 35.835 37.0166 34.8099 37.0166 32.4566C37.0166 30.5625 37.0166 30.5625 35.925 30.0819C35.3247 29.8168 34.3091 29.2154 33.6661 28.7466C32.501 27.892 32.501 27.892 32.24 29.2746C31.3051 34.2393 33.3623 39.0667 37.3156 41.1951C41.4254 43.4064 45.5399 43.4419 53.864 41.3419C59.7226 39.8622 60.1569 39.8575 60.4369 41.2567C60.7097 42.618 60.2518 43.0371 57.5182 43.932C51.185 46.0012 46.3301 46.4984 40.3528 45.6887C36.4613 45.1608 36.2573 45.156 34.8739 45.5396C31.9861 46.3398 30.1542 49.2874 30.8044 52.0929C31.9529 57.0576 38.305 58.4853 51.847 56.828C58.3891 56.0278 58.8518 56.0846 59.5589 57.8081C59.8389 58.49 60.0809 58.7078 60.6931 58.8262ZM64.0128 50.8192C65.3582 51.9343 66.5992 54.0272 66.9029 55.6963C67.0406 56.4444 67.1782 57.0553 67.2114 57.0505C67.2446 57.0458 67.7572 56.9345 68.3528 56.8043C69.4324 56.5652 69.4324 56.5652 69.7267 54.5315C69.9497 52.9902 70.2345 52.119 70.9012 50.9139C71.7792 49.33 71.7792 49.33 71.0673 47.6893C69.9782 45.1797 70.009 41.3751 71.1361 38.8702C71.9168 37.1372 71.9168 37.1372 71.3355 35.9108C70.5073 34.1565 70.1419 32.0186 70.3199 29.9351C70.4006 28.9668 70.4433 28.1737 70.4124 28.1737C70.3816 28.1737 69.6626 28.3347 68.8131 28.5288C66.8412 28.9834 65.5314 28.9597 63.5263 28.4389C61.9199 28.0198 61.9199 28.0198 60.2043 29.1752C56.7518 31.5048 52.7938 31.7984 49.0328 30.0062C47.4074 29.232 47.4074 29.232 45.7582 30.0488C44.6193 30.6123 43.523 30.9437 42.2084 31.1165C40.3078 31.3699 40.3078 31.3699 40.4644 32.1985C41.1501 35.8469 44.3891 36.2967 52.4403 33.8605C58.2775 32.0943 60.0311 31.9452 62.6626 32.9964C69.169 35.5936 70.2606 45.3028 64.4707 49.0554C63.0185 49.9953 63.0185 49.9953 64.0128 50.8192Z" fill="#053870"/>
</svg>
