<svg width="49" height="51" viewBox="0 0 49 51" fill="none" xmlns="http://www.w3.org/2000/svg">
<g clip-path="url(#clip0_537_1847)">
<path d="M24.7277 49.2412L24.7179 44.8203C24.7121 42.3885 24.7453 39.6079 24.7912 38.6407C24.9085 36.1698 24.7922 36.3427 27.1174 35.1723C29.3547 34.0458 29.7965 33.6726 30.42 32.3849C31.8246 29.4841 30.4122 26.3753 27.3676 25.6679C26.2055 25.3983 22.206 25.3748 21.1612 25.6327C18.4704 26.2961 17.0698 28.7992 17.8322 31.5808C18.3082 33.315 19.1536 34.1503 21.5287 35.2348C23.676 36.2157 23.6105 35.9597 23.848 49.2412C22.9958 49.0712 22.9948 49.0556 22.9811 42.5976C22.9674 36.2734 23.2039 37.0325 20.867 35.8357C19.009 34.8841 18.4049 34.421 17.6269 33.3511C17.1392 32.6799 17.0835 32.6369 16.1687 32.2354C14.3986 31.4567 13.4212 30.3527 12.9951 28.6507C12.8768 28.1808 12.5455 27.279 12.2571 26.6469C11.8427 25.7353 11.7235 25.3602 11.6834 24.8394C11.656 24.4769 11.4899 23.5458 11.314 22.7691C10.9953 21.3564 10.9953 21.3564 11.183 20.055C11.2973 19.2646 11.3355 18.7194 11.2807 18.6686C11.2309 18.6217 10.3551 17.9935 9.33376 17.2724C7.2265 15.7845 5.44569 14.3189 5.21307 13.8822C4.99022 13.4631 5.30397 12.8642 6.63615 11.1603C14.3908 1.2436 29.1152 -0.203355 38.8784 7.99279C41.1 9.85791 43.6041 12.957 43.4643 13.6683C43.3744 14.1265 42.0735 15.2745 39.5792 17.0966C37.0849 18.9187 37.1768 18.7888 37.3996 20.2045C37.5648 21.2499 37.5648 21.2499 37.253 22.6177C37.081 23.37 36.8777 24.4251 36.8005 24.9625C36.69 25.7246 36.5708 26.1222 36.2561 26.77C36.0342 27.2262 35.7263 28.0899 35.5709 28.6888C35.091 30.5452 34.2817 31.4518 32.3533 32.295C31.373 32.7239 31.3535 32.7395 30.7299 33.5534C29.945 34.5783 29.4857 34.9183 27.5289 35.9216C25.3767 37.0247 25.6074 36.1591 25.6093 43.1271C25.6113 49.4962 25.6386 49.2412 24.933 49.2412H24.7277ZM13.7809 28.2853C13.9949 29.6219 14.5599 30.3908 15.9634 31.2545C16.3221 31.4743 16.6701 31.655 16.7375 31.655C16.8304 31.655 16.8568 31.3141 16.848 30.2452C16.8362 28.8354 16.8362 28.8354 16.1951 28.2179C15.5539 27.6004 15.5539 27.6004 15.4014 26.4857C15.288 25.664 15.1708 25.2126 14.9518 24.7632C14.7133 24.2747 14.6371 23.9533 14.5657 23.1414C14.5071 22.478 14.3898 21.9015 14.2266 21.4677C13.5278 19.6183 14.3859 17.9466 15.5715 18.8454C16.8128 19.7873 16.932 19.8469 17.7745 19.9407C18.2896 19.9983 18.7979 20.1302 19.1878 20.307C19.6697 20.5249 20.002 20.5962 20.7829 20.647C21.3254 20.6822 21.946 20.7741 22.164 20.8512C22.7993 21.075 25.7813 21.0398 26.5114 20.7995C26.8741 20.6803 27.352 20.6148 27.8534 20.6148C28.4877 20.6148 28.7673 20.5611 29.3615 20.3256C29.7623 20.1664 30.4279 19.9934 30.8403 19.9426C31.4336 19.8693 31.6916 19.7814 32.0767 19.5235C32.3445 19.3447 32.7443 19.077 32.9642 18.9295C34.27 18.0541 34.9649 19.3398 34.3267 21.4521C34.1664 21.9856 34.0041 22.774 33.966 23.2039C33.9162 23.7872 33.8106 24.1819 33.5516 24.7593C33.2603 25.409 33.1939 25.6914 33.1333 26.5247C33.0483 27.6991 32.9964 27.8125 32.28 28.3967C31.7288 28.8451 31.7288 28.8451 31.717 30.2501C31.7092 31.1372 31.7415 31.655 31.8031 31.655C32.063 31.655 33.1675 31.0415 33.5604 30.679C34.2602 30.0342 34.5935 29.4304 34.8085 28.4162C34.9248 27.8652 35.1868 27.1149 35.4878 26.4661C35.9325 25.5106 35.9863 25.3191 36.0635 24.4056C36.1163 23.794 36.2355 23.1697 36.3685 22.8131C36.9676 21.2108 36.604 19.2597 35.5064 18.1987C34.0159 16.7566 32.5811 16.656 30.4542 17.845C29.6684 18.2846 29.601 18.3032 28.5571 18.3794C27.6941 18.441 27.3745 18.5074 26.9835 18.7057C26.4342 18.9842 25.7931 19.0281 25.0405 18.8386C24.6818 18.7487 24.3582 18.7507 23.5548 18.8503C22.5364 18.9773 22.5227 18.9764 21.7672 18.7145C21.3166 18.5582 20.5269 18.395 19.8319 18.3139C18.7461 18.1869 18.5955 18.143 17.8439 17.7336C15.9634 16.7087 14.6166 16.8455 12.9306 18.2329C11.9874 19.0096 11.6707 20.7731 12.1516 22.5747C12.2894 23.0886 12.4487 23.9679 12.5054 24.5287C12.6022 25.4784 12.6461 25.62 13.1417 26.5824C13.5209 27.3181 13.7047 27.8095 13.7809 28.2853ZM16.1804 26.0382C16.2742 27.0484 16.3886 27.4031 16.7141 27.6874C16.8743 27.8271 17.0434 27.9424 17.0884 27.9424C17.1343 27.9424 17.3494 27.6434 17.5673 27.278C18.8115 25.1931 20.563 24.5502 24.7277 24.6518C28.3509 24.7397 29.8717 25.3768 31.0026 27.279C31.4434 28.0215 31.5245 28.0557 31.936 27.6727C32.2038 27.4216 32.2302 27.3357 32.2927 26.4759C32.3484 25.7197 32.4315 25.3777 32.7433 24.6176C33.0443 23.8839 33.146 23.4814 33.2193 22.7125C33.2789 22.1008 33.407 21.4922 33.5653 21.0769C34.0853 19.7111 33.8468 19.2421 32.9779 19.9202C32.3045 20.4458 31.8842 20.6177 31.0016 20.7281C30.6077 20.777 29.9577 20.948 29.557 21.1072C28.9833 21.3349 28.6754 21.3964 28.1153 21.3964C27.7068 21.3964 27.0734 21.4834 26.6278 21.6006C25.5165 21.8918 23.0818 21.8918 21.905 21.5996C21.4554 21.4883 20.7859 21.3964 20.4174 21.3964C19.9062 21.3964 19.5778 21.329 19.0266 21.1102C18.6297 20.9519 17.9544 20.775 17.5272 20.7164C16.7375 20.6089 16.415 20.4575 15.3555 19.6964C14.5921 19.1473 14.4807 19.6095 14.9899 21.201C15.1923 21.8322 15.3438 22.5444 15.3848 23.0544C15.4356 23.6904 15.5275 24.051 15.7836 24.6186C16.0094 25.1179 16.1364 25.5751 16.1804 26.0382ZM23.6428 18.014C24.411 17.971 24.9154 17.9866 25.1529 18.0609C25.3493 18.1224 25.6807 18.1723 25.8888 18.1723C26.097 18.1723 26.5046 18.0648 26.7929 17.9329C27.18 17.7561 27.6071 17.6691 28.4213 17.5997C29.4759 17.5099 29.556 17.4874 30.2226 17.0849C30.6429 16.8308 31.2313 16.5827 32.498 16.2524L31.0935 15.7942C26.8555 14.4147 22.6175 14.359 18.2114 15.6262C16.0621 16.2446 15.9341 16.316 16.7131 16.4645C17.063 16.5309 17.7628 16.7888 18.2701 17.037C19.0471 17.418 19.2807 17.4884 19.7645 17.4884C20.1007 17.4884 20.7829 17.6105 21.4134 17.7844C22.4289 18.0629 22.554 18.0756 23.6428 18.014Z" fill="#053870"/>
<path d="M29.9637 38.793C30.3331 36.9982 31.076 36.0115 33.2966 34.3623C37.992 30.8773 40.8186 25.8369 40.4658 21.58C40.4091 20.8971 40.4247 20.7955 40.6388 20.4545C40.9701 19.9269 45.4339 16.3696 45.6772 16.439C45.948 16.5172 46.7436 18.31 47.2372 19.9553C50.8995 32.1689 43.8476 45.2051 31.6565 48.7595C30.7358 49.0272 29.9373 49.247 29.8806 49.247C29.8239 49.247 29.7487 48.9989 29.7135 48.696C29.5669 47.4405 29.7604 39.7798 29.9637 38.793Z" fill="#4993C1"/>
<path d="M23.8484 49.2415C23.6109 35.96 23.6764 36.216 21.5291 35.2351C19.154 34.1506 18.3085 33.3153 17.8326 31.5811C17.0702 28.7995 18.4708 26.2964 21.1616 25.633C22.2064 25.3751 26.2059 25.3985 27.368 25.6682C30.4126 26.3755 31.8249 29.4844 30.4204 32.3851C29.7968 33.6728 29.355 34.0461 27.1178 35.1726C24.7926 36.343 24.9089 36.1701 24.7916 38.6409C24.7457 39.6082 24.7124 42.3888 24.7183 44.8205L24.7281 49.2415H23.8484Z" fill="#4993C1"/>
<path d="M13.7814 28.2854C13.7052 27.8096 13.5214 27.3181 13.1422 26.5824C12.6466 25.6201 12.6027 25.4784 12.5059 24.5287C12.4492 23.9679 12.2899 23.0886 12.1521 22.5747C11.6712 20.7731 11.9879 19.0096 12.9311 18.2329C14.6171 16.8455 15.9639 16.7087 17.8444 17.7336C18.596 18.143 18.7465 18.187 19.8324 18.314C20.5274 18.3951 21.3171 18.5582 21.7677 18.7146C22.5232 18.9764 22.5369 18.9774 23.5553 18.8504C24.3587 18.7507 24.6823 18.7487 25.041 18.8386C25.7935 19.0282 26.4347 18.9842 26.984 18.7058C27.375 18.5074 27.6946 18.441 28.5576 18.3794C29.6015 18.3032 29.6689 18.2847 30.4547 17.845C32.5815 16.656 34.0164 16.7566 35.5069 18.1987C36.6045 19.2597 36.9681 21.2108 36.3689 22.8131C36.236 23.1697 36.1168 23.794 36.064 24.4056C35.9868 25.3191 35.933 25.5106 35.4883 26.4662C35.1873 27.1149 34.9253 27.8652 34.809 28.4163C34.594 29.4304 34.2607 30.0342 33.5609 30.679C33.168 31.0415 32.0635 31.6551 31.8035 31.6551C31.742 31.6551 31.7097 31.1373 31.7175 30.2501C31.7293 28.8452 31.7293 28.8452 32.2805 28.3967C32.9969 27.8125 33.0487 27.6991 33.1338 26.5248C33.1944 25.6914 33.2608 25.409 33.5521 24.7593C33.8111 24.1819 33.9167 23.7872 33.9665 23.2039C34.0046 22.774 34.1669 21.9856 34.3272 21.4521C34.9654 19.3398 34.2705 18.0541 32.9647 18.9295C32.7448 19.077 32.345 19.3447 32.0772 19.5235C31.6921 19.7814 31.4341 19.8694 30.8408 19.9427C30.4283 19.9935 29.7627 20.1664 29.362 20.3256C28.7678 20.5611 28.4882 20.6148 27.8539 20.6148C27.3525 20.6148 26.8745 20.6803 26.5119 20.7995C25.7818 21.0398 22.7998 21.075 22.1645 20.8513C21.9465 20.7741 21.3259 20.6823 20.7834 20.6471C20.0025 20.5963 19.6702 20.525 19.1883 20.3071C18.7983 20.1302 18.2901 19.9983 17.775 19.9407C16.9325 19.8469 16.8133 19.7873 15.572 18.8455C14.3864 17.9466 13.5282 19.6183 14.2271 21.4678C14.3903 21.9016 14.5076 22.478 14.5662 23.1414C14.6376 23.9533 14.7138 24.2747 14.9523 24.7632C15.1712 25.2127 15.2885 25.664 15.4019 26.4857C15.5544 27.6005 15.5544 27.6005 16.1955 28.2179C16.8367 28.8354 16.8367 28.8354 16.8484 30.2452C16.8572 31.3141 16.8309 31.6551 16.738 31.6551C16.6706 31.6551 16.3226 31.4743 15.9639 31.2545C14.5604 30.3908 13.9954 29.6219 13.7814 28.2854Z" fill="#4993C1"/>
<path d="M16.1804 26.0382C16.1364 25.5751 16.0094 25.1178 15.7836 24.6186C15.5275 24.0509 15.4356 23.6904 15.3848 23.0544C15.3438 22.5444 15.1923 21.8321 14.9899 21.201C14.4807 19.6094 14.5921 19.1473 15.3555 19.6964C16.415 20.4575 16.7375 20.6089 17.5272 20.7164C17.9544 20.775 18.6297 20.9519 19.0266 21.1101C19.5778 21.329 19.9062 21.3964 20.4174 21.3964C20.7859 21.3964 21.4554 21.4882 21.905 21.5996C23.0818 21.8917 25.5165 21.8917 26.6278 21.6006C27.0734 21.4834 27.7068 21.3964 28.1153 21.3964C28.6754 21.3964 28.9833 21.3348 29.557 21.1072C29.9577 20.9479 30.6077 20.777 31.0016 20.7281C31.8842 20.6177 32.3045 20.4458 32.9779 19.9201C33.8468 19.2421 34.0853 19.7111 33.5653 21.0769C33.407 21.4921 33.2789 22.1008 33.2193 22.7124C33.146 23.4813 33.0443 23.8839 32.7433 24.6176C32.4315 25.3777 32.3484 25.7197 32.2927 26.4759C32.2302 27.3356 32.2038 27.4216 31.936 27.6727C31.5245 28.0557 31.4434 28.0215 31.0026 27.279C29.8717 25.3767 28.3509 24.7397 24.7277 24.6518C20.563 24.5502 18.8115 25.1931 17.5673 27.278C17.3494 27.6434 17.1343 27.9424 17.0884 27.9424C17.0434 27.9424 16.8743 27.8271 16.7141 27.6874C16.3886 27.4031 16.2742 27.0484 16.1804 26.0382Z" fill="#4993C1"/>
<path d="M23.6429 18.0139C22.5541 18.0755 22.429 18.0628 21.4135 17.7843C20.7831 17.6104 20.1009 17.4883 19.7647 17.4883C19.2808 17.4883 19.0472 17.4179 18.2702 17.0369C17.7629 16.7887 17.0631 16.5308 16.7132 16.4644C15.9342 16.3159 16.0623 16.2445 18.2116 15.6261C22.6177 14.3589 26.8556 14.4146 31.0936 15.7941L32.4981 16.2524C31.2314 16.5826 30.643 16.8307 30.2228 17.0848C29.5562 17.4873 29.476 17.5098 28.4214 17.5997C27.6073 17.669 27.1801 17.756 26.7931 17.9328C26.5048 18.0647 26.0972 18.1722 25.889 18.1722C25.6808 18.1722 25.3495 18.1224 25.153 18.0608C24.9155 17.9866 24.4112 17.9709 23.6429 18.0139Z" fill="#4993C1"/>
<path d="M2.77419 18.6929C3.41243 16.9987 3.64602 16.5962 3.99104 16.5962C4.26569 16.5962 8.71185 20.2082 8.8741 20.5629C8.94545 20.7182 9.04417 21.4617 9.09401 22.214C9.42535 27.2261 11.429 30.6974 16.0892 34.3329C19.5795 37.0568 19.6772 37.3127 19.7173 43.9379C19.7378 47.2665 19.7134 48.9519 19.644 49.1023C19.5404 49.3261 19.5404 49.3261 18.0987 48.8454C4.95964 44.4606 -1.87234 31.0188 2.77419 18.6929Z" fill="#4993C1"/>
</g>
<defs>
<clipPath id="clip0_537_1847">
<rect width="48.5764" height="51" fill="white"/>
</clipPath>
</defs>
</svg>
