<svg width="213" height="269" viewBox="0 0 213 269" fill="none" xmlns="http://www.w3.org/2000/svg">
<path d="M102.29 262.209C102.29 255.616 100.907 253.415 94.842 250.362C81.7835 243.795 80.071 242.769 76.3352 239.281C67.3473 230.901 64.1951 218.534 68.3422 207.917C70.1982 203.169 70.179 202.974 67.3473 198.542C61.8321 189.912 58.8425 173 62.8318 173C64.3433 173 64.329 172.959 65.8884 181.865C67.0412 188.467 67.3903 189.596 69.4424 193.374C72.6473 199.277 72.7908 199.313 79.0761 195.693C93.6558 187.298 123.542 187.267 137.687 195.631C143.986 199.354 144.24 199.298 147.43 193.614C149.53 189.882 149.879 188.809 150.898 182.891C152.568 173.23 152.548 173.281 154.046 173.092C158.001 172.602 155.576 187.778 150.138 197.511C146.794 203.5 146.875 202.479 149.162 209.766C150.884 215.271 150.449 223.037 148.1 228.517C144.302 237.386 137.844 243.151 125.336 248.83C115.941 253.089 115.047 254.171 114.817 261.489C114.64 267.177 114.215 268.489 112.555 268.489C110.622 268.489 110.216 266.534 110.818 260.054C111.546 252.18 112.804 250.188 119.031 247.053C133.783 239.618 134.788 238.995 138.897 234.619C150.343 222.445 148.573 206.666 134.907 199.012C122.863 192.266 95.3491 192.241 82.4388 198.961C72.4894 204.139 68.3375 214.561 71.9632 225.249C74.618 233.077 81.9557 239.669 93.7179 244.791C104.083 249.305 106.293 252.481 106.026 262.484C105.906 267.034 105.734 268.142 105.083 268.525C104.648 268.786 104.055 269 103.768 269C103.481 269 103.031 268.372 102.768 267.601C102.505 266.835 102.29 264.404 102.29 262.209Z" fill="currentColor"/>
<path d="M108.328 268.049C106.464 268.049 104.863 266.693 104.529 264.859C100.635 243.445 102.15 252.129 95.2218 249.177C87.9715 246.088 74.2302 236.53 71.5123 227.821C66.6569 212.264 76.599 199.017 91.2074 195.389C98.369 193.613 120.468 192.846 128.281 195.389C143.501 200.342 151.482 212.812 144.5 227.821C140.948 235.452 133.487 243.167 119.85 249.177C113.803 251.84 112.647 258.814 112.6 263.497C112.576 265.886 110.718 268.049 108.328 268.049Z" fill="currentColor"/>
<path d="M164.8 206.076C164.513 204.996 166.066 204.858 167.161 204.639C184.378 201.199 192.024 191.403 194.971 174.234C196.251 166.768 196.4 166.3 199.286 160.533C201.878 155.35 202.412 153.826 203.325 148.974C204.538 142.549 204.569 142.88 201.805 132.448C199.72 124.559 199.72 124.559 202.122 116.404C205.193 105.981 205.18 103.849 201.986 95.2264C199.426 88.3081 199.422 87.926 201.778 81.0579C204.786 72.2944 204.918 69.9363 202.873 61.213C201.181 53.9829 201.181 53.9829 202.538 48.6434C205.845 35.6112 203.719 24.9974 196.237 17.179C187.688 8.25461 177.262 7.99316 167.876 16.4651C162.823 21.0304 162.375 21.2013 158.024 20.2058C149.488 18.2651 145.083 19.4265 139.365 25.1381C135.063 29.437 134.195 29.7034 129.323 28.1951C122.258 26.0029 116.943 26.8376 110.967 31.066C107.077 33.8162 106.105 33.7458 100.604 30.2766C93.9188 26.0582 91.9059 25.7616 84.8133 27.9537C78.3087 29.9599 78.6706 30.0705 72.279 24.1929C67.0048 19.3461 64.0058 18.4963 56.402 19.693C49.9744 20.7036 49.7572 20.6432 44.6504 16.44C34.7216 8.26969 24.1188 8.71214 16.0989 17.6265C9.46314 25.0074 7.64023 34.5955 10.3995 47.6026C11.7927 54.1891 11.7927 54.1891 10.3588 60.0566C8.21922 68.785 8.30968 71.3944 11.0508 79.9719C13.6156 87.9914 13.6065 88.3433 10.5487 97.0918C8.05185 104.251 8.10613 106.941 10.9468 115.951C13.5342 124.157 13.5432 124.584 11.2725 131.306C6.6677 144.947 8.28707 155.536 16.3296 164.344C26.774 175.793 42.2168 169.528 45.9124 152.343C47.5046 144.942 45.9893 138.069 40.8824 129.572C37.422 123.81 37.422 123.805 39.7425 116.479C42.746 107.007 42.556 102.643 38.77 94.1605C36.4676 89.012 36.4993 87.6796 39.0369 81.8272C42.9089 72.8977 42.927 67.2313 39.1002 61.218C34.3823 53.812 37.3542 47.5925 43.2798 52.4746C53.1407 60.5895 57.1665 61.8616 65.5438 59.5136C72.5912 57.5376 72.4328 57.5075 78.1142 62.0929C86.4869 68.8453 91.639 69.3179 100.641 64.1593C106.141 61.0069 106.851 61.0069 112.288 64.1392C121.33 69.3531 127.016 68.7699 135.231 61.7811C139.813 57.8795 139.813 57.8795 145.987 59.2723C156.481 61.6404 158.978 61.1074 166.234 54.9433C171.341 50.6093 173.177 49.8702 174.806 51.4891C176.782 53.4601 176.656 55.0438 174.023 61.394C170.626 69.5794 170.472 77.991 173.544 87.3578C175.927 94.6331 175.927 94.8192 173.34 102.421C170.499 110.773 170.413 114.518 172.897 122.653C175.149 130.049 175.091 131.296 172.182 138.215C169.812 143.856 169.812 143.856 169.549 151.272C169.219 160.659 169.074 160.88 162.977 161.438C157.409 161.946 155.522 162.896 150.018 167.985C144.02 173.53 143.631 173.545 138.677 168.377C129.468 158.763 117.657 157.667 109.081 165.621L108.21 166.428C106.947 167.598 105.31 168.281 103.59 168.355L96.0615 168.677C95.2587 168.711 94.6324 167.99 94.7782 167.2C95.2034 164.902 94.6878 164.651 87.4594 163.651C71.6413 161.458 63.065 155.661 59.1568 144.509C55.9833 135.448 57.2131 126.513 65.4311 115.443C67.9431 112.06 68.6352 107.577 66.7877 103.789C62.3729 94.7287 60.5681 87.6293 60.5681 79.3284C60.5681 71.9424 60.4007 71.6458 55.6783 70.6955C51.7204 69.8961 50.6529 70.3838 50.3317 73.129C50.2141 74.1446 49.3773 78.1418 48.4681 82.0132C46.8171 89.0522 46.8171 89.0522 48.7169 95.7342C51.0328 103.879 51.1188 106.454 49.3863 115.785C48.156 122.417 48.156 122.417 50.4945 128.109C56.7684 143.373 56.3252 155.591 49.0471 168C46.1217 172.984 45.6824 173.763 47.8685 181.237C48.6927 184.054 47.8882 187.105 45.7314 189.096C44.2109 190.5 42.8839 191.528 42.1167 191.602C41.7091 191.641 41.5763 191.15 41.588 190.741C41.6559 188.493 39.5525 183.43 37.8065 181.635C35.9158 179.689 35.9158 179.689 29.6961 179.75C19.7266 179.84 13.5794 176.753 7.87996 168.799C0.0409812 157.853 -1.81812 144.962 2.26647 129.878C3.73657 124.443 3.73657 124.443 1.8458 116.982C-0.560626 107.479 -0.587766 105.317 1.61059 95.7544C3.26161 88.5494 3.26161 88.5494 1.4975 78.911C-0.271131 69.2726 -0.271131 69.2726 1.03612 61.9772C2.34337 54.6818 2.34337 54.6818 1.03612 46.1646C-1.10795 32.1973 1.39799 21.4326 9.0289 11.8093C19.2879 -1.1324 33.7129 -3.31951 47.5136 5.97196C52.0822 9.04901 52.0822 9.04901 57.4741 8.92834C65.5121 8.74734 69.565 9.92386 75.7666 14.2478C80.5387 17.5763 80.5387 17.5762 86.6679 16.8623C93.4529 16.0729 94.2671 16.2137 103.382 19.7483C107.068 21.1762 107.068 21.1762 111.976 18.9137C116.884 16.6511 116.884 16.6511 124.877 16.7718C132.865 16.8874 132.865 16.8874 137.284 13.8707C143.621 9.53169 146.833 8.62667 154.269 9.07415C159.987 9.42107 159.987 9.42107 162.638 7.60099C172.833 0.587131 177.913 -0.971504 185.738 0.511713C204.646 4.1016 216.258 25.2337 211.87 48.0601C210.603 54.6466 210.603 54.6466 211.802 60.8862C213.426 69.3229 213.376 71.5151 211.336 80.7563C209.613 88.5494 209.613 88.5494 211.359 95.5834C213.643 104.794 213.575 108.616 210.952 118.083C209.179 124.489 209.179 124.489 210.644 131.658C213.376 145.068 212.463 153.414 206.985 165.119C204.262 170.936 203.909 172.047 203.045 177.542C200.136 196.056 188.318 210.897 171.456 214.707C170.514 214.92 169.547 215 168.581 215C166.853 215 166.487 214.397 165.691 210.259C165.365 208.579 164.967 206.699 164.8 206.076ZM136.221 154.676C136.746 156.053 137.578 156.828 140.116 158.311C141.894 159.347 143.621 160.196 143.956 160.196C144.286 160.196 144.933 159.739 145.39 159.181C146.72 157.547 146.48 151.036 144.938 146.852C142.111 139.18 136.936 137.687 121.624 140.115C96.7142 144.067 76.4632 141.895 75.6354 135.183C75.0609 130.512 76.8567 129.964 88.3867 131.281C116.142 134.459 141.134 128.114 147.371 116.308C151.361 108.756 148.457 96.4633 141.88 93.0594C137.66 90.8723 134.611 91.3801 114.622 97.5946C99.6363 102.25 92.5301 101.466 85.7949 94.4069C82.0676 90.4952 81.846 89.8969 81.371 82.2696C81.0725 77.5234 80.8644 76.4021 80.1995 75.9848C79.7562 75.7033 77.3678 74.034 74.8936 72.2692C69.5786 68.4883 69.7595 68.3827 69.0539 75.648C67.4888 91.8025 75.3776 105.589 88.7486 110.069C97.2661 112.924 105.037 112.18 124.705 106.609C137.565 102.969 138.37 103.075 138.37 108.389C138.37 111.657 136.796 112.779 127.69 116.007C114.292 120.753 104.517 121.708 89.7211 119.727C77.3678 118.078 75.7123 118.289 71.4106 122.07C67.5521 125.464 65.7835 129.436 65.7745 134.74C65.7518 151.408 82.4792 156.953 117.553 151.91C132.227 149.799 134.493 150.136 136.221 154.676ZM147.855 135.339C151.433 139.547 153.998 145.636 155.088 152.529C155.097 152.599 155.961 152.413 157.006 152.117C158.051 151.82 159.25 151.372 159.67 151.121C160.227 150.789 160.634 149.256 161.163 145.5C161.715 141.568 162.384 139.115 163.972 135.223C166.057 130.115 166.057 130.115 164.551 125.67C162.285 118.978 162.258 107.374 164.492 100.858C166.207 95.8599 166.306 94.0399 165.031 91.2494C163.615 88.1724 162.796 82.3702 162.796 75.4318C162.796 72.0028 162.746 69.2023 162.683 69.2123C162.62 69.2224 160.941 69.6749 158.951 70.2129C154.233 71.495 151.741 71.4698 146.48 70.1022C142.151 68.976 142.151 68.976 137.886 72.0732C128.776 78.6999 121.29 79.5546 111.768 75.0597C106.648 72.6463 106.648 72.6463 102.495 74.6675C98.4919 76.6083 97.058 77.091 91.8923 78.2172C89.0426 78.8407 88.8436 79.7859 90.6167 84.3009C93.6203 91.9634 100.496 91.9533 123.443 84.2456C136.162 79.977 142.047 80.5853 149.131 86.9154C151.026 88.6148 155.106 94.3415 155.106 95.3069C155.106 95.5784 155.522 97.0918 156.034 98.6755C159.716 110.089 156.499 122.774 148.208 129.557C145.06 132.131 145.064 132.055 147.855 135.339Z" fill="currentColor"/>
</svg>
