<svg width="34" height="34" viewBox="0 0 34 34" fill="none" xmlns="http://www.w3.org/2000/svg">
<path d="M26.6956 11.1562C26.5011 13.857 24.4976 15.9375 22.3128 15.9375C20.1281 15.9375 18.1213 13.8577 17.93 11.1562C17.7308 8.3466 19.6811 6.375 22.3128 6.375C24.9445 6.375 26.8949 8.39773 26.6956 11.1562Z" stroke="white" stroke-width="2.5" stroke-linecap="round" stroke-linejoin="round"/>
<path d="M22.3122 20.1875C17.9845 20.1875 13.8229 22.3371 12.7803 26.5233C12.6422 27.0771 12.9895 27.625 13.5586 27.625H31.0666C31.6357 27.625 31.981 27.0771 31.8449 26.5233C30.8023 22.27 26.6406 20.1875 22.3122 20.1875Z" stroke="white" stroke-width="2.5" stroke-miterlimit="10"/>
<path d="M13.2815 12.3476C13.1261 14.5045 11.5071 16.2031 9.76199 16.2031C8.01683 16.2031 6.39519 14.5051 6.24246 12.3476C6.08374 10.1037 7.65956 8.5 9.76199 8.5C11.8644 8.5 13.4402 10.1449 13.2815 12.3476Z" stroke="white" stroke-width="2.5" stroke-linecap="round" stroke-linejoin="round"/>
<path d="M13.6794 20.3199C12.4807 19.7707 11.1606 19.5596 9.76139 19.5596C6.30827 19.5596 2.98131 21.2762 2.14792 24.6197C2.03834 25.062 2.31592 25.4996 2.77014 25.4996H10.2262" stroke="white" stroke-width="2.5" stroke-miterlimit="10" stroke-linecap="round"/>
</svg>
