<svg width="41" height="41" viewBox="0 0 41 41" fill="none" xmlns="http://www.w3.org/2000/svg">
<path d="M20.5 22.8916L12.1292 31.2624C11.816 31.5756 11.4173 31.7322 10.9333 31.7322C10.4493 31.7322 10.0507 31.5756 9.73749 31.2624C9.4243 30.9492 9.2677 30.5506 9.2677 30.0666C9.2677 29.5826 9.4243 29.184 9.73749 28.8708L18.1083 20.5L9.73749 12.1292C9.4243 11.816 9.2677 11.4173 9.2677 10.9333C9.2677 10.4493 9.4243 10.0507 9.73749 9.73749C10.0507 9.4243 10.4493 9.2677 10.9333 9.2677C11.4173 9.2677 11.816 9.4243 12.1292 9.73749L20.5 18.1083L28.8708 9.73749C29.184 9.4243 29.5826 9.2677 30.0666 9.2677C30.5506 9.2677 30.9492 9.4243 31.2624 9.73749C31.5756 10.0507 31.7322 10.4493 31.7322 10.9333C31.7322 11.4173 31.5756 11.816 31.2624 12.1292L22.8916 20.5L31.2624 28.8708C31.5756 29.184 31.7322 29.5826 31.7322 30.0666C31.7322 30.5506 31.5756 30.9492 31.2624 31.2624C30.9492 31.5756 30.5506 31.7322 30.0666 31.7322C29.5826 31.7322 29.184 31.5756 28.8708 31.2624L20.5 22.8916Z" fill="#4993C1"/>
</svg>
