<svg width="23" height="23" viewBox="0 0 23 23" fill="none" xmlns="http://www.w3.org/2000/svg">
<path d="M9.10417 19.167C11.2285 19.167 13.0375 18.4205 14.5312 16.9274C16.0249 15.4343 16.7715 13.6253 16.7708 11.5003C16.7702 9.37538 16.0237 7.56637 14.5312 6.07328C13.0388 4.5802 11.2298 3.83366 9.10417 3.83366H8.60104C8.44132 3.83366 8.28958 3.84963 8.14583 3.88158C9.05625 4.93574 9.76318 6.11385 10.2666 7.41591C10.7701 8.71796 11.0215 10.0794 11.0208 11.5003C11.0202 12.9212 10.7685 14.283 10.2657 15.5857C9.76286 16.8884 9.05625 18.0662 8.14583 19.1191C8.28958 19.151 8.44132 19.167 8.60104 19.167H9.10417ZM9.10417 21.0837C8.25764 21.0837 7.43092 20.976 6.624 20.7607C5.81708 20.5454 5.04658 20.2218 4.3125 19.7899C5.79792 18.9274 6.96804 17.7614 7.82288 16.292C8.67771 14.8225 9.10481 13.2253 9.10417 11.5003C9.10353 9.77533 8.67611 8.1781 7.82192 6.70866C6.96772 5.23921 5.79792 4.07324 4.3125 3.21074C5.04722 2.77949 5.81804 2.45621 6.62496 2.24091C7.43188 2.0256 8.25828 1.91763 9.10417 1.91699C10.4299 1.91699 11.6757 2.16871 12.8417 2.67216C14.0076 3.1756 15.0219 3.85826 15.8844 4.72012C16.7469 5.58198 17.4298 6.59621 17.9333 7.76283C18.4367 8.92944 18.6881 10.1753 18.6875 11.5003C18.6869 12.8254 18.4351 14.0712 17.9323 15.2378C17.4295 16.4044 16.7469 17.4187 15.8844 18.2805C15.0219 19.1424 14.0076 19.8254 12.8417 20.3294C11.6757 20.8335 10.4299 21.0849 9.10417 21.0837Z" fill="url(#paint0_linear_106_409)"/>
<defs>
<linearGradient id="paint0_linear_106_409" x1="11.5" y1="1.91699" x2="11.5" y2="21.0837" gradientUnits="userSpaceOnUse">
<stop stop-color="#8DB1FF"/>
<stop offset="1" stop-color="#D0E2FF"/>
</linearGradient>
</defs>
</svg>
