<svg fill="none" xmlns="http://www.w3.org/2000/svg" viewBox="0.5 -0.03 217 25.05">
<path d="M75.9766 16.4354V13.719H66.5V16.4354H75.9766Z" fill="#303035"/>
<path d="M83.1241 23.3011V10.0474H87.6339V7.48021H83.1241V6.34588C83.1241 4.82349 83.9773 4.16677 85.44 4.16677C85.9884 4.16677 86.5369 4.22647 87.0245 4.43543V1.98767C86.415 1.74886 85.6837 1.59961 84.7696 1.59961C81.7224 1.59961 80.0465 3.27125 80.0465 6.31603V7.48021H76.4813V10.0474H80.0465V23.3011H83.1241Z" fill="#303035"/>
<path d="M96.2992 23.5996C100.87 23.5996 104.222 20.0772 104.222 15.3907C104.222 10.7041 100.87 7.1817 96.2992 7.1817C91.7285 7.1817 88.3767 10.7041 88.3767 15.3907C88.3767 20.0772 91.7285 23.5996 96.2992 23.5996ZM96.2992 20.9429C93.6482 20.9429 91.5762 18.8533 91.5762 15.3907C91.5762 11.928 93.6482 9.86827 96.2992 9.86827C98.9503 9.86827 101.053 11.928 101.053 15.3907C101.053 18.8533 98.9503 20.9429 96.2992 20.9429Z" fill="#303035"/>
<path d="M110.437 15.2115C110.437 11.719 112.966 10.2265 116.44 10.4056V7.27125C113.789 7.27125 111.351 8.64438 110.224 10.8235V7.48021H107.359V23.3011H110.437V15.2115Z" fill="#303035"/>
<path d="M134.294 15.3907C134.294 10.5847 131.46 7.1817 127.133 7.1817C124.939 7.1817 123.08 8.25633 121.953 10.1966V1.86827H118.875V23.3011H121.74V20.4653C122.898 22.4653 124.848 23.5996 127.133 23.5996C131.491 23.5996 134.294 20.1369 134.294 15.3907ZM131.094 15.3907C131.094 18.913 129.175 20.913 126.524 20.913C123.903 20.913 121.953 18.8235 121.953 15.331C121.953 11.7787 123.964 9.83842 126.524 9.83842C129.175 9.83842 131.094 11.8086 131.094 15.3907Z" fill="#303035"/>
<path d="M147.5 16.7936C147.5 19.2713 145.824 20.9429 143.752 20.9429C141.741 20.9429 140.339 19.8086 140.339 17.0623V7.48021H137.262V17.6593C137.262 21.719 139.517 23.5996 142.777 23.5996C144.971 23.5996 146.86 22.4354 147.714 20.7936V23.3011H150.578V7.48021H147.5V16.7936Z" fill="#303035"/>
<path d="M157.93 14.3757C157.93 11.5698 159.697 9.83842 161.799 9.83842C164.085 9.83842 165.304 11.3608 165.304 14.0772V23.3011H168.381V13.0623C168.381 9.27125 166.187 7.1817 162.866 7.1817C160.642 7.1817 158.813 8.34588 157.716 10.1071V7.48021H154.852V23.3011H157.93V14.3757Z" fill="#303035"/>
<path d="M171.31 15.3907C171.31 20.1369 174.114 23.5996 178.471 23.5996C180.757 23.5996 182.707 22.4653 183.865 20.4653V23.3011H186.729V1.86827H183.651V10.1966C182.524 8.25633 180.635 7.1817 178.471 7.1817C174.114 7.1817 171.31 10.5847 171.31 15.3907ZM174.51 15.3907C174.51 11.8086 176.399 9.83842 179.081 9.83842C181.64 9.83842 183.651 11.7787 183.651 15.331C183.651 18.8235 181.701 20.913 179.081 20.913C176.399 20.913 174.51 18.913 174.51 15.3907Z" fill="#303035"/>
<path d="M197.65 23.5996C201.459 23.5996 204.232 21.4802 205.024 17.9578H201.977C201.459 20.0175 199.874 21.2414 197.589 21.2414C194.877 21.2414 193.232 19.3608 192.988 16.1369H205.024C205.573 11.0026 202.373 7.1817 197.559 7.1817C193.11 7.1817 189.849 10.6145 189.849 15.3011C189.849 20.2862 192.988 23.5996 197.65 23.5996ZM197.498 9.45036C199.996 9.45036 201.611 11.2115 201.764 14.1369H193.018C193.353 11.1817 195.029 9.45036 197.498 9.45036Z" fill="#303035"/>
<path d="M217.348 20.3757C216.708 20.6742 216.068 20.7936 215.337 20.7936C213.691 20.7936 212.625 20.0175 212.625 17.8384V10.0474H217.5V7.48021H212.625V2.79364H209.547V7.48021H205.982V10.0474H209.547V18.525C209.547 22.0175 211.619 23.5996 214.605 23.5996C215.58 23.5996 216.403 23.4504 217.348 23.0324V20.3757Z" fill="#303035"/>
<path d="M43.2495 7.27077C43.2495 13.5325 48.9726 14.3216 53.5678 15.0434H53.9328C57.2506 15.5638 58.7104 16.0843 58.7104 17.5112C58.7104 17.9813 58.7104 20.1468 54.2314 20.1468C50.9485 20.2884 47.6647 19.8858 44.5102 18.9549L43.3987 18.6527V23.3365L43.8964 23.5043C47.2237 24.605 50.7164 25.1051 54.2148 24.9817C60.6513 24.9817 64.5 22.1614 64.5 17.444C64.5 11.602 59.092 10.2086 53.8001 9.36922L53.1531 9.26849C50.6647 8.8488 49.039 8.24443 49.039 7.15324C49.039 5.69272 51.378 5.03801 53.1365 4.95407C55.8659 4.87704 58.5967 5.03994 61.2982 5.44092L62.6254 5.64237V0.941811L62.0117 0.84109C59.0836 0.256466 56.1042 -0.0247788 53.1199 0.00171046C47.0981 0.00171046 43.1665 2.83883 43.1665 7.2036" fill="#7A91C9"/>
<path d="M20.6225 3.08999L20.0916 3.32499L19.6603 3.10674C16.6464 1.57148 13.3794 0.609802 10.0221 0.269632C1.57827 0.269632 0.5 5.0373 0.5 9.18384V24.2927H6.40568V9.50281C6.40568 7.21969 6.6877 5.7424 10.4036 5.7424C12.7419 5.93702 15.0221 6.58085 17.1222 7.63941C17.1222 9.41889 17.2051 17.8127 17.2217 23.554V24.2591H23.1937C23.1937 24.2591 23.1937 8.54591 23.1937 7.6058C25.2712 6.57885 27.5235 5.96346 29.8293 5.79276C33.5453 5.79276 33.8273 7.27006 33.8273 9.55317V24.2591H39.7827V9.15028C39.7827 5.00375 38.7045 0.236075 30.2607 0.236075C26.8964 0.578729 23.6234 1.54622 20.6059 3.08999" fill="#7A91C9"/>
</svg>