<?xml version="1.0" encoding="UTF-8"?>
<svg xmlns="http://www.w3.org/2000/svg" version="1.1" viewBox="0 0 560 150">
  <!-- Generator: Adobe Illustrator 28.7.4, SVG Export Plug-In . SVG Version: 1.2.0 Build 166)  -->
  <g>
    <g id="Layer_1">
      <g>
        <g>
          <path d="M493.046,25.493c4.871,6.611,6.089,16.181,2.785,24.18-2.96,7.827-10.442,13.916-18.443,15.483-9.224,1.74-18.099-1.739-23.838-8.352-6.439-6.781-7.831-18.09-4.175-26.439,3.654-8.699,12.351-14.96,21.747-15.484,8.697-.521,17.225,3.655,21.924,10.612ZM472.583,24.268c-2.97.002-6.315,2.249-6.315,4.499v20.366c0,2.249,3.353,4.446,6.315,4.414,2.801-.022,6.369-2.164,6.369-4.519v-20.228c0-2.331-3.574-4.531-6.369-4.531Z" fill="#243d7e"/>
          <path d="M236.208,71.376c-6.133-2.943-12.848-12.825-15.857-21.487-1.714-4.86-2.996-10.621-7.568-11.847-3.116-.838-6.204,1.251-7.516,3.705-1.032,1.927-1.44,4.243-1.409,6.648-.031-.004-.031,14.66-.031,14.66l-18.251-.047-.03-45.445h18.632c.466,1.193.646,2.237,1.526,3.159.573.573,1.062.56,1.663.075,2.861-3.087,6.517-5.14,10.646-5.741,5.787-.84,11.51,1.065,14.274,5.773,4.135,7.046,3.463,18.075,3.68,26.794,0,0-.499,8.621,2.153,13.152,3.067,5.094,9.855,8.86,9.855,8.86l.021,5.128s-4.901-.091-11.788-3.386Z" fill="#243d7e"/>
          <path d="M445.718,20.362v7.479c-3.44-3.01-9.193-3.943-13.782-3.262-5.288.812-9.278,4.657-9.278,8.647.01-.153,0,13.712.095,13.75.067,4.59,4.054,7.461,9.396,8.701,4.576,1.061,10.439-.522,13.921-4.699v8.527c-5.917,5.391-14.27,7.477-22.446,5.217-8.7-1.914-16.182-10.438-17.924-18.963-1.914-8.87.871-18.092,7.31-24.179,6.613-5.74,15.311-8.35,24.185-5.74,2.957,1.042,5.915,2.435,8.523,4.522Z" fill="#243d7e"/>
          <path d="M363.768,17.409h-18.096v45.645h18.096V17.409Z" fill="#243d7e"/>
          <path d="M388.321,53.114l17.69-.046v10.034h-35.665l-.013-45.721,17.991.057-.003,35.676Z" fill="#243d7e"/>
          <path d="M285.123,25.929c4.872,6.608,6.089,16.18,2.785,24.178-2.957,7.828-10.439,13.918-18.444,15.484-9.223,1.742-18.093-1.738-23.838-8.35-6.436-6.783-7.83-18.092-4.175-26.442,3.654-8.697,12.353-14.959,21.75-15.482,8.7-.522,17.222,3.655,21.921,10.612ZM264.66,24.704c-2.966.002-6.313,2.249-6.313,4.499v20.367c0,2.252,3.35,4.446,6.316,4.412,2.799-.022,6.369-2.16,6.369-4.521v-20.23c0-2.33-3.572-4.53-6.371-4.527Z" fill="#243d7e"/>
          <path d="M327.723,17.375c4.347-.023,8.009,3.39,9.918,6.959,2.027,3.786,1.914,9.74-.349,13.395-1.39,2.088-3.479,3.826-5.565,4.871,5.74,4.522,6.298,11.469,6.439,18.09.08,3.784,2.323,4.764,3.718,6.734-.134-.005-.134,3.221-.067,3.358-5.74,0-11.308-1.568-14.614-6.264-4.001-6.264-6.351-15.189-13.744-17.573-.999-.246-2.325-.37-2.264.349l.005,15.714-18.273-.042V17.374c12.7,0,23.486.061,34.797,0ZM311.115,25.856l.021,10.704h5.668s5.419-.063,5.419-5.417c0-5.29-5.545-5.29-5.545-5.29l-5.563.004Z" fill="#243d7e"/>
        </g>
        <g>
          <path d="M152.917,143.45H17.976V8.294h134.941v135.156ZM20.453,140.974h129.986V10.771H20.453v130.202Z" fill="#243d7e"/>
          <path d="M148.865,139.417H21.777V12.097h127.089v127.32ZM23.622,137.572h123.399V13.942H23.622v123.631Z" fill="#243d7e"/>
          <path d="M121.421,116.545c-8.347-3.995-17.482-17.443-21.576-29.225-2.33-6.615-4.076-14.449-10.295-16.119-4.239-1.139-8.44,1.7-10.228,5.038-1.404,2.623-1.958,5.772-1.917,9.046-.042-.002-.042,19.942-.042,19.942l-24.827-.061-.042-61.825h25.347c.634,1.621.881,3.042,2.074,4.298.783.781,1.441.762,2.266.102,3.89-4.199,8.86-6.99,14.483-7.808,7.874-1.144,15.659,1.446,19.417,7.852,5.625,9.588,4.71,24.591,5.008,36.446,0,0-.679,11.731,2.927,17.892,4.176,6.929,13.452,12.073,13.452,12.073l-.013,6.96s-6.67-.123-16.034-4.61Z" fill="#243d7e"/>
          <path d="M85.21,133.632c-32.062,0-58.146-26.078-58.146-58.132s26.084-58.132,58.146-58.132,58.146,26.078,58.146,58.132-26.084,58.132-58.146,58.132ZM85.21,22.111c-29.446,0-53.403,23.95-53.403,53.389s23.956,53.389,53.403,53.389,53.403-23.95,53.403-53.389-23.956-53.389-53.403-53.389Z" fill="#243d7e"/>
        </g>
        <g>
          <path d="M185.797,104.54v-16.979h1.94c2.644,4.075,8.854,13.559,9.921,15.403h.024c-.145-2.45-.121-4.949-.121-7.714v-7.689h1.334v16.979h-1.795c-2.523-3.93-8.83-13.802-10.042-15.67h-.025c.121,2.232.097,4.706.097,7.786v7.883h-1.334Z" fill="#243d7e"/>
          <path d="M213.081,98.451c0,3.372-1.868,6.379-5.482,6.379-3.275,0-5.312-2.692-5.312-6.355,0-3.469,1.916-6.355,5.433-6.355,3.226,0,5.361,2.523,5.361,6.331ZM203.573,98.476c0,2.886,1.552,5.215,4.123,5.215,2.62,0,4.099-2.159,4.099-5.215,0-2.862-1.455-5.215-4.148-5.215-2.765,0-4.075,2.304-4.075,5.215Z" fill="#243d7e"/>
          <path d="M216.086,95.711c0-2.038-.025-2.911-.025-3.299h1.189c.024.388.049,1.164.049,2.717.703-1.819,2.256-2.911,4.221-3.008v1.31c-2.523.17-4.221,1.916-4.221,4.802v6.307h-1.213v-8.829Z" fill="#243d7e"/>
          <path d="M224.04,101.193c.412,1.576,1.528,2.522,3.444,2.522,2.159,0,3.032-.995,3.032-2.353,0-1.383-.582-2.062-3.299-2.717-3.129-.752-3.905-1.698-3.905-3.299,0-1.674,1.261-3.226,4.002-3.226s4.051,1.674,4.245,3.396h-1.212c-.218-1.019-1.019-2.28-3.081-2.28-2.11,0-2.717,1.043-2.717,2.013,0,1.116.582,1.674,2.984,2.256,3.42.825,4.269,1.94,4.269,3.76,0,2.207-1.795,3.566-4.342,3.566-2.765,0-4.318-1.455-4.657-3.638h1.237Z" fill="#243d7e"/>
          <path d="M235.826,98.67c1.116-1.188,4.511-4.633,6.136-6.258h1.552l-4.802,4.827,5.409,7.301h-1.504l-4.778-6.525-2.013,1.94v4.585h-1.213v-17.877h1.213v12.007Z" fill="#243d7e"/>
          <path d="M252.607,104.54v-10.988h-2.086v-1.14h2.086v-1.722c0-2.038.582-4.269,3.299-4.269.363,0,.897.073,1.188.17v1.164c-.364-.097-.946-.145-1.31-.145-1.431,0-1.965,1.019-1.965,3.129v1.674h2.644v1.14h-2.644v10.988h-1.212Z" fill="#243d7e"/>
          <path d="M268.202,98.451c0,3.372-1.867,6.379-5.481,6.379-3.275,0-5.313-2.692-5.313-6.355,0-3.469,1.916-6.355,5.433-6.355,3.226,0,5.361,2.523,5.361,6.331ZM258.693,98.476c0,2.886,1.552,5.215,4.123,5.215,2.62,0,4.1-2.159,4.1-5.215,0-2.862-1.455-5.215-4.148-5.215-2.765,0-4.075,2.304-4.075,5.215Z" fill="#243d7e"/>
          <path d="M271.207,95.711c0-2.038-.025-2.911-.025-3.299h1.188c.025.388.049,1.164.049,2.717.704-1.819,2.256-2.911,4.221-3.008v1.31c-2.523.17-4.221,1.916-4.221,4.802v6.307h-1.213v-8.829Z" fill="#243d7e"/>
          <path d="M279.137,98.621c.025,3.129,1.601,5.07,3.929,5.07,2.28,0,3.057-1.285,3.493-2.28h1.236c-.509,1.601-1.795,3.42-4.778,3.42-3.687,0-5.118-3.177-5.118-6.258,0-3.468,1.722-6.452,5.264-6.452,3.736,0,4.924,3.226,4.924,5.506,0,.34,0,.68-.025.995h-8.926ZM286.827,97.554c-.025-2.401-1.335-4.293-3.711-4.293-2.498,0-3.639,1.746-3.905,4.293h7.617Z" fill="#243d7e"/>
          <path d="M291.044,95.468c0-1.067,0-2.086-.025-3.056h1.188c.049.388.074,1.965.049,2.305.534-1.237,1.528-2.595,4.026-2.595,2.159,0,4.075,1.213,4.075,4.56v7.859h-1.213v-7.665c0-2.159-.898-3.566-3.008-3.566-2.887,0-3.881,2.402-3.881,5.045v6.186h-1.213v-9.072Z" fill="#243d7e"/>
          <path d="M304.333,86.663h1.213v2.353h-1.213v-2.353ZM304.333,92.412h1.213v12.128h-1.213v-12.128Z" fill="#243d7e"/>
          <path d="M309.523,95.468c0-1.067,0-2.086-.025-3.056h1.188c.049.388.074,1.965.049,2.305.534-1.237,1.528-2.595,4.026-2.595,2.159,0,4.075,1.213,4.075,4.56v7.859h-1.213v-7.665c0-2.159-.898-3.566-3.008-3.566-2.887,0-3.881,2.402-3.881,5.045v6.186h-1.213v-9.072Z" fill="#243d7e"/>
          <path d="M332.078,103.715c0,3.881-1.723,5.919-5.24,5.919-3.153,0-4.463-1.771-4.754-3.614h1.237c.437,1.674,1.819,2.474,3.566,2.474,3.153,0,4.026-2.037,4.026-5.118v-1.261c-.655,1.577-1.844,2.426-4.051,2.426-2.838,0-5.021-2.305-5.021-6.064,0-4.075,2.329-6.355,5.191-6.355,2.474,0,3.541,1.164,3.881,2.134.025-.703.048-1.552.073-1.843h1.14c0,.437-.048,2.353-.048,3.517v7.786ZM323.127,98.427c0,2.886,1.529,4.972,3.857,4.972,3.031,0,3.954-2.013,3.954-5.166,0-3.202-.97-4.972-3.881-4.972-2.79,0-3.93,2.401-3.93,5.166Z" fill="#243d7e"/>
          <path d="M342.673,104.54v-10.988h-2.086v-1.14h2.086v-1.722c0-2.038.583-4.269,3.299-4.269.364,0,.898.073,1.188.17v1.164c-.364-.097-.946-.145-1.31-.145-1.431,0-1.965,1.019-1.965,3.129v1.674h2.645v1.14h-2.645v10.988h-1.213Z" fill="#243d7e"/>
          <path d="M358.268,98.451c0,3.372-1.867,6.379-5.481,6.379-3.275,0-5.313-2.692-5.313-6.355,0-3.469,1.916-6.355,5.433-6.355,3.226,0,5.361,2.523,5.361,6.331ZM348.76,98.476c0,2.886,1.552,5.215,4.123,5.215,2.62,0,4.1-2.159,4.1-5.215,0-2.862-1.455-5.215-4.148-5.215-2.765,0-4.075,2.304-4.075,5.215Z" fill="#243d7e"/>
          <path d="M361.273,95.711c0-2.038-.025-2.911-.025-3.299h1.188c.025.388.049,1.164.049,2.717.704-1.819,2.256-2.911,4.221-3.008v1.31c-2.523.17-4.221,1.916-4.221,4.802v6.307h-1.213v-8.829Z" fill="#243d7e"/>
          <path d="M375.436,101.193c.412,1.576,1.528,2.522,3.444,2.522,2.159,0,3.032-.995,3.032-2.353,0-1.383-.582-2.062-3.299-2.717-3.129-.752-3.905-1.698-3.905-3.299,0-1.674,1.262-3.226,4.003-3.226s4.051,1.674,4.245,3.396h-1.213c-.219-1.019-1.019-2.28-3.08-2.28-2.111,0-2.717,1.043-2.717,2.013,0,1.116.582,1.674,2.983,2.256,3.421.825,4.27,1.94,4.27,3.76,0,2.207-1.795,3.566-4.342,3.566-2.765,0-4.318-1.455-4.657-3.638h1.237Z" fill="#243d7e"/>
          <path d="M384.31,92.412h2.256v-3.784h1.213v3.784h2.886v1.14h-2.886v7.883c0,1.358.291,2.134,1.455,2.134.364,0,.873-.024,1.261-.145v1.067c-.412.17-.994.218-1.503.218-1.552,0-2.426-.776-2.426-2.717v-8.441h-2.256v-1.14Z" fill="#243d7e"/>
          <path d="M402.816,98.451c0,3.372-1.867,6.379-5.481,6.379-3.275,0-5.313-2.692-5.313-6.355,0-3.469,1.916-6.355,5.433-6.355,3.226,0,5.361,2.523,5.361,6.331ZM393.307,98.476c0,2.886,1.552,5.215,4.123,5.215,2.62,0,4.1-2.159,4.1-5.215,0-2.862-1.455-5.215-4.148-5.215-2.765,0-4.075,2.304-4.075,5.215Z" fill="#243d7e"/>
          <path d="M405.821,95.541c0-1.043,0-2.183-.025-3.129h1.188c.025.413.074,1.456.049,2.159.509-1.213,1.625-2.45,3.639-2.45,1.698,0,3.032.849,3.517,2.401.606-1.261,1.819-2.401,3.954-2.401,1.867,0,3.808,1.067,3.808,4.439v7.98h-1.213v-7.835c0-1.625-.582-3.396-2.838-3.396-2.353,0-3.42,1.892-3.42,4.245v6.986h-1.189v-7.811c0-1.771-.534-3.42-2.765-3.42-2.352,0-3.492,2.086-3.492,4.56v6.67h-1.213v-8.999Z" fill="#243d7e"/>
          <path d="M425.925,86.663h1.213v2.353h-1.213v-2.353ZM425.925,92.412h1.213v12.128h-1.213v-12.128Z" fill="#243d7e"/>
          <path d="M429.15,107.305c1.188-2.353,1.625-4.512,1.698-5.87h1.213c-.17,2.013-.946,4.415-1.819,5.87h-1.091Z" fill="#243d7e"/>
          <path d="M441.494,95.711c0-2.038-.025-2.911-.025-3.299h1.188c.025.388.049,1.164.049,2.717.704-1.819,2.256-2.911,4.221-3.008v1.31c-2.523.17-4.221,1.916-4.221,4.802v6.307h-1.213v-8.829Z" fill="#243d7e"/>
          <path d="M449.424,98.621c.025,3.129,1.601,5.07,3.929,5.07,2.28,0,3.057-1.285,3.493-2.28h1.236c-.509,1.601-1.795,3.42-4.778,3.42-3.687,0-5.118-3.177-5.118-6.258,0-3.468,1.722-6.452,5.264-6.452,3.736,0,4.924,3.226,4.924,5.506,0,.34,0,.68-.025.995h-8.926ZM457.113,97.554c-.025-2.401-1.335-4.293-3.711-4.293-2.498,0-3.639,1.746-3.905,4.293h7.617Z" fill="#243d7e"/>
          <path d="M461.621,101.193c.412,1.576,1.528,2.522,3.444,2.522,2.159,0,3.032-.995,3.032-2.353,0-1.383-.582-2.062-3.299-2.717-3.129-.752-3.905-1.698-3.905-3.299,0-1.674,1.262-3.226,4.003-3.226s4.051,1.674,4.245,3.396h-1.213c-.219-1.019-1.019-2.28-3.08-2.28-2.111,0-2.717,1.043-2.717,2.013,0,1.116.582,1.674,2.983,2.256,3.421.825,4.27,1.94,4.27,3.76,0,2.207-1.795,3.566-4.342,3.566-2.765,0-4.318-1.455-4.657-3.638h1.237Z" fill="#243d7e"/>
          <path d="M472.655,98.621c.025,3.129,1.601,5.07,3.929,5.07,2.28,0,3.057-1.285,3.493-2.28h1.236c-.509,1.601-1.795,3.42-4.778,3.42-3.687,0-5.118-3.177-5.118-6.258,0-3.468,1.722-6.452,5.264-6.452,3.736,0,4.924,3.226,4.924,5.506,0,.34,0,.68-.025.995h-8.926ZM480.344,97.554c-.025-2.401-1.335-4.293-3.711-4.293-2.498,0-3.639,1.746-3.905,4.293h7.617Z" fill="#243d7e"/>
          <path d="M484.562,95.711c0-2.038-.025-2.911-.025-3.299h1.188c.025.388.049,1.164.049,2.717.704-1.819,2.256-2.911,4.221-3.008v1.31c-2.523.17-4.221,1.916-4.221,4.802v6.307h-1.213v-8.829Z" fill="#243d7e"/>
          <path d="M492.904,92.412c1.965,5.555,3.323,9.339,3.784,10.891h.024c.267-.897,1.626-4.512,3.978-10.891h1.285l-4.584,12.128h-1.456l-4.317-12.128h1.285Z" fill="#243d7e"/>
          <path d="M514.175,98.451c0,3.372-1.867,6.379-5.481,6.379-3.275,0-5.313-2.692-5.313-6.355,0-3.469,1.916-6.355,5.433-6.355,3.226,0,5.361,2.523,5.361,6.331ZM504.666,98.476c0,2.886,1.552,5.215,4.123,5.215,2.62,0,4.1-2.159,4.1-5.215,0-2.862-1.455-5.215-4.148-5.215-2.765,0-4.075,2.304-4.075,5.215Z" fill="#243d7e"/>
          <path d="M525.498,102.235c0,1.068.097,1.916.17,2.305h-1.164c-.097-.291-.17-.825-.218-1.868-.413.897-1.48,2.159-3.978,2.159-2.814,0-4.027-1.819-4.027-3.638,0-2.668,2.062-3.881,5.7-3.881h2.305v-1.237c0-1.213-.364-2.838-3.129-2.838-2.45,0-2.814,1.285-3.08,2.28h-1.213c.145-1.334.97-3.396,4.318-3.396,2.764,0,4.317,1.164,4.317,3.832v6.282ZM524.31,98.354h-2.377c-2.693,0-4.367.704-4.367,2.79,0,1.528,1.092,2.571,2.79,2.571,3.469,0,3.954-2.304,3.954-4.924v-.437Z" fill="#243d7e"/>
          <path d="M529.499,95.711c0-2.038-.025-2.911-.025-3.299h1.188c.025.388.049,1.164.049,2.717.704-1.819,2.256-2.911,4.221-3.008v1.31c-2.523.17-4.221,1.916-4.221,4.802v6.307h-1.213v-8.829Z" fill="#243d7e"/>
          <path d="M195.233,127.552c0,3.372-1.868,6.379-5.482,6.379-3.275,0-5.312-2.692-5.312-6.355,0-3.469,1.916-6.355,5.433-6.355,3.226,0,5.361,2.522,5.361,6.331ZM185.724,127.577c0,2.886,1.552,5.215,4.123,5.215,2.62,0,4.099-2.159,4.099-5.215,0-2.862-1.455-5.215-4.148-5.215-2.765,0-4.075,2.304-4.075,5.215Z" fill="#243d7e"/>
          <path d="M207.673,132.816c0,3.881-1.722,5.919-5.24,5.919-3.153,0-4.463-1.771-4.754-3.614h1.237c.437,1.674,1.819,2.474,3.566,2.474,3.153,0,4.027-2.037,4.027-5.118v-1.261c-.655,1.577-1.843,2.426-4.051,2.426-2.838,0-5.021-2.305-5.021-6.064,0-4.075,2.329-6.355,5.191-6.355,2.474,0,3.541,1.164,3.881,2.135.024-.704.049-1.552.073-1.844h1.14c0,.437-.049,2.353-.049,3.517v7.786ZM198.722,127.528c0,2.886,1.528,4.972,3.856,4.972,3.032,0,3.954-2.013,3.954-5.166,0-3.201-.97-4.972-3.881-4.972-2.789,0-3.929,2.401-3.929,5.166Z" fill="#243d7e"/>
          <path d="M217.953,124.642c0-1.043,0-2.183-.025-3.129h1.189c.024.413.073,1.455.049,2.159.509-1.213,1.625-2.45,3.638-2.45,1.698,0,3.032.849,3.517,2.401.606-1.261,1.819-2.401,3.954-2.401,1.868,0,3.808,1.067,3.808,4.439v7.98h-1.213v-7.835c0-1.625-.582-3.396-2.838-3.396-2.353,0-3.42,1.892-3.42,4.245v6.986h-1.188v-7.811c0-1.771-.534-3.42-2.765-3.42-2.353,0-3.493,2.086-3.493,4.56v6.67h-1.213v-8.999Z" fill="#243d7e"/>
          <path d="M246.231,131.336c0,1.068.097,1.916.17,2.305h-1.164c-.097-.291-.17-.825-.218-1.868-.412.898-1.48,2.159-3.978,2.159-2.813,0-4.026-1.819-4.026-3.638,0-2.669,2.062-3.881,5.7-3.881h2.305v-1.237c0-1.213-.364-2.838-3.129-2.838-2.45,0-2.814,1.285-3.081,2.28h-1.213c.146-1.334.97-3.396,4.318-3.396,2.765,0,4.318,1.164,4.318,3.832v6.282ZM245.042,127.455h-2.377c-2.693,0-4.366.704-4.366,2.79,0,1.528,1.092,2.571,2.789,2.571,3.469,0,3.954-2.304,3.954-4.924v-.437Z" fill="#243d7e"/>
          <path d="M259.497,132.816c0,3.881-1.722,5.919-5.239,5.919-3.153,0-4.463-1.771-4.754-3.614h1.237c.437,1.674,1.819,2.474,3.566,2.474,3.154,0,4.026-2.037,4.026-5.118v-1.261c-.655,1.577-1.843,2.426-4.05,2.426-2.838,0-5.021-2.305-5.021-6.064,0-4.075,2.329-6.355,5.191-6.355,2.474,0,3.541,1.164,3.881,2.135.025-.704.049-1.552.074-1.844h1.139c0,.437-.048,2.353-.048,3.517v7.786ZM250.546,127.528c0,2.886,1.528,4.972,3.856,4.972,3.032,0,3.954-2.013,3.954-5.166,0-3.201-.97-4.972-3.881-4.972-2.789,0-3.929,2.401-3.929,5.166Z" fill="#243d7e"/>
          <path d="M263.738,127.722c.025,3.129,1.601,5.07,3.929,5.07,2.28,0,3.057-1.286,3.493-2.28h1.236c-.509,1.601-1.795,3.42-4.778,3.42-3.687,0-5.118-3.177-5.118-6.258,0-3.468,1.722-6.452,5.264-6.452,3.736,0,4.924,3.226,4.924,5.506,0,.34,0,.68-.025.995h-8.926ZM271.427,126.655c-.025-2.401-1.335-4.293-3.711-4.293-2.498,0-3.639,1.746-3.905,4.293h7.617Z" fill="#243d7e"/>
          <path d="M281.66,126.849v1.189h-6.112v-1.189h6.112Z" fill="#243d7e"/>
          <path d="M301.231,127.552c0,3.372-1.867,6.379-5.481,6.379-3.275,0-5.313-2.692-5.313-6.355,0-3.469,1.916-6.355,5.433-6.355,3.226,0,5.361,2.522,5.361,6.331ZM291.723,127.577c0,2.886,1.552,5.215,4.123,5.215,2.62,0,4.1-2.159,4.1-5.215,0-2.862-1.455-5.215-4.148-5.215-2.765,0-4.075,2.304-4.075,5.215Z" fill="#243d7e"/>
          <path d="M313.671,132.816c0,3.881-1.722,5.919-5.239,5.919-3.153,0-4.463-1.771-4.754-3.614h1.237c.437,1.674,1.819,2.474,3.566,2.474,3.153,0,4.026-2.037,4.026-5.118v-1.261c-.655,1.577-1.844,2.426-4.051,2.426-2.838,0-5.021-2.305-5.021-6.064,0-4.075,2.329-6.355,5.191-6.355,2.474,0,3.541,1.164,3.881,2.135.025-.704.048-1.552.073-1.844h1.14c0,.437-.049,2.353-.049,3.517v7.786ZM304.721,127.528c0,2.886,1.529,4.972,3.857,4.972,3.031,0,3.954-2.013,3.954-5.166,0-3.201-.97-4.972-3.881-4.972-2.79,0-3.93,2.401-3.93,5.166Z" fill="#243d7e"/>
          <path d="M322.132,121.513h2.256v-3.784h1.213v3.784h2.886v1.14h-2.886v7.883c0,1.359.291,2.135,1.455,2.135.364,0,.873-.025,1.261-.146v1.067c-.412.17-.994.218-1.503.218-1.552,0-2.426-.776-2.426-2.717v-8.441h-2.256v-1.14Z" fill="#243d7e"/>
          <path d="M339.279,131.336c0,1.068.097,1.916.171,2.305h-1.165c-.097-.291-.17-.825-.218-1.868-.413.898-1.48,2.159-3.978,2.159-2.814,0-4.027-1.819-4.027-3.638,0-2.669,2.062-3.881,5.7-3.881h2.305v-1.237c0-1.213-.364-2.838-3.129-2.838-2.45,0-2.814,1.285-3.08,2.28h-1.213c.145-1.334.97-3.396,4.318-3.396,2.764,0,4.317,1.164,4.317,3.832v6.282ZM338.091,127.455h-2.377c-2.693,0-4.367.704-4.367,2.79,0,1.528,1.092,2.571,2.79,2.571,3.469,0,3.954-2.304,3.954-4.924v-.437Z" fill="#243d7e"/>
          <path d="M343.279,124.812c0-2.038-.025-2.911-.025-3.299h1.188c.025.388.049,1.164.049,2.717.704-1.819,2.256-2.911,4.221-3.008v1.31c-2.523.17-4.221,1.916-4.221,4.802v6.307h-1.213v-8.829Z" fill="#243d7e"/>
          <path d="M350.87,124.642c0-1.043,0-2.183-.025-3.129h1.188c.025.413.074,1.455.049,2.159.509-1.213,1.625-2.45,3.639-2.45,1.698,0,3.032.849,3.517,2.401.606-1.261,1.819-2.401,3.954-2.401,1.867,0,3.808,1.067,3.808,4.439v7.98h-1.213v-7.835c0-1.625-.582-3.396-2.838-3.396-2.353,0-3.42,1.892-3.42,4.245v6.986h-1.189v-7.811c0-1.771-.534-3.42-2.765-3.42-2.352,0-3.492,2.086-3.492,4.56v6.67h-1.213v-8.999Z" fill="#243d7e"/>
          <path d="M372.186,127.771c1.116-1.188,4.512-4.633,6.137-6.258h1.552l-4.803,4.827,5.41,7.301h-1.504l-4.778-6.525-2.014,1.94v4.585h-1.213v-17.877h1.213v12.007Z" fill="#243d7e"/>
          <path d="M382.251,124.812c0-2.038-.025-2.911-.025-3.299h1.188c.025.388.049,1.164.049,2.717.704-1.819,2.256-2.911,4.221-3.008v1.31c-2.523.17-4.221,1.916-4.221,4.802v6.307h-1.213v-8.829Z" fill="#243d7e"/>
          <path d="M390.181,127.722c.025,3.129,1.601,5.07,3.929,5.07,2.28,0,3.057-1.286,3.493-2.28h1.236c-.509,1.601-1.795,3.42-4.778,3.42-3.687,0-5.118-3.177-5.118-6.258,0-3.468,1.722-6.452,5.264-6.452,3.736,0,4.924,3.226,4.924,5.506,0,.34,0,.68-.025.995h-8.926ZM397.87,126.655c-.025-2.401-1.335-4.293-3.711-4.293-2.498,0-3.639,1.746-3.905,4.293h7.617Z" fill="#243d7e"/>
          <path d="M402.718,133.641v-10.988h-2.086v-1.14h2.086v-1.722c0-2.038.583-4.269,3.299-4.269.364,0,.898.073,1.188.17v1.164c-.364-.097-.946-.145-1.31-.145-1.431,0-1.965,1.019-1.965,3.129v1.674h2.645v1.14h-2.645v10.988h-1.213Z" fill="#243d7e"/>
          <path d="M406.452,121.513h2.256v-3.784h1.213v3.784h2.886v1.14h-2.886v7.883c0,1.359.291,2.135,1.455,2.135.364,0,.873-.025,1.261-.146v1.067c-.412.17-.994.218-1.503.218-1.552,0-2.426-.776-2.426-2.717v-8.441h-2.256v-1.14Z" fill="#243d7e"/>
        </g>
      </g>
    </g>
  </g>
</svg>