<svg width="31" height="31" viewBox="0 0 31 31" fill="none" xmlns="http://www.w3.org/2000/svg">
<g clip-path="url(#clip0_106_251)">
<path d="M0 3.39064C0 3.00525 0.153097 2.63564 0.42561 2.36312C0.698124 2.09061 1.06773 1.93751 1.45312 1.93751H9.69331C12.0706 1.93751 14.1825 3.08064 15.5058 4.8457C16.1819 3.94108 17.0601 3.20701 18.0703 2.70208C19.0805 2.19714 20.1948 1.93532 21.3241 1.93751H29.5488C29.9342 1.93751 30.3038 2.09061 30.5763 2.36312C30.8488 2.63564 31.0019 3.00525 31.0019 3.39064V23.7344C31.0019 24.1198 30.8488 24.4894 30.5763 24.7619C30.3038 25.0344 29.9342 25.1875 29.5488 25.1875H20.8165C20.244 25.1875 19.6771 25.3003 19.1482 25.5193C18.6193 25.7384 18.1387 26.0595 17.7339 26.4643L16.5288 27.6675C16.2564 27.9396 15.887 28.0925 15.5019 28.0925C15.1169 28.0925 14.7475 27.9396 14.4751 27.6675L13.2699 26.4643C12.8651 26.0595 12.3846 25.7384 11.8556 25.5193C11.3267 25.3003 10.7599 25.1875 10.1874 25.1875H1.45312C1.06773 25.1875 0.698124 25.0344 0.42561 24.7619C0.153097 24.4894 0 24.1198 0 23.7344L0 3.39064ZM14.0488 23.3934L14.0566 13.5645L14.0527 9.19926C14.0517 8.04376 13.5919 6.93593 12.7745 6.11922C11.9571 5.30252 10.8488 4.84376 9.69331 4.84376H2.90625V22.2813H10.1854C11.5522 22.2812 12.8913 22.6667 14.0488 23.3934ZM16.9628 9.20314L16.9551 23.3895C18.1119 22.6649 19.4495 22.2808 20.8146 22.2813H28.0938V4.84376H21.3222C20.166 4.84376 19.0572 5.30305 18.2396 6.12059C17.4221 6.93814 16.9628 8.04696 16.9628 9.20314Z" fill="white"/>
</g>
<defs>
<clipPath id="clip0_106_251">
<rect width="31" height="31" fill="white"/>
</clipPath>
</defs>
</svg>
