<?xml version="1.0" encoding="UTF-8"?>
<svg version="1.1" xmlns="http://www.w3.org/2000/svg" width="593" height="421">
<path d="M0 0 C7.20104739 7.8636201 9.89890131 18.61996299 12.265625 28.71875 C14.35424777 37.3786529 16.71394868 45.80361707 19.640625 54.21875 C19.88635254 55.28158203 20.13208008 56.34441406 20.38525391 57.43945312 C21.38006921 60.47451461 21.38006921 60.47451461 24.40258789 61.40771484 C26.00541626 61.80917725 26.00541626 61.80917725 27.640625 62.21875 C31.87397832 64.26562232 35.96501248 66.56637951 40.078125 68.84375 C41.18478516 69.43542969 42.29144531 70.02710938 43.43164062 70.63671875 C51.1543541 74.91121527 57.53546478 79.27619992 61.078125 87.59375 C62.23080961 95.02216193 62.74889099 102.58885867 58.640625 109.21875 C56.47471834 111.47129293 54.17040615 113.38899048 51.640625 115.21875 C52.67354186 119.44431899 54.03989887 123.21676223 55.890625 127.15625 C57.90113668 131.45387588 59.62300672 135.7831039 61.2421875 140.2421875 C63.66691039 146.81235909 66.29372433 153.28143827 69.0234375 159.73046875 C69.40834351 160.64048141 69.79324951 161.55049408 70.18981934 162.48808289 C71.78100225 166.24260123 73.37657826 169.99521002 74.97802734 173.74536133 C89.54630563 207.90617426 89.54630563 207.90617426 84.546875 221.21484375 C81.92259473 227.01767037 78.16623564 229.50441495 72.640625 232.21875 C64.96452956 234.16319139 54.97915415 234.59631572 47.640625 231.21875 C42.21789959 227.96099101 39.32549485 224.06311029 36.80859375 218.30859375 C34.74763866 213.69206723 32.65138849 209.10577143 30.44921875 204.5546875 C29.90305908 203.42546875 29.35689941 202.29625 28.79418945 201.1328125 C28.22788818 199.96492187 27.66158691 198.79703125 27.078125 197.59375 C25.85110498 195.06011722 24.62474059 192.52616735 23.3984375 189.9921875 C23.0889064 189.35287292 22.77937531 188.71355835 22.46046448 188.05487061 C20.27793357 183.5443327 18.10854178 179.02763477 15.9453125 174.5078125 C15.35233467 173.27032601 14.75931776 172.03285824 14.16625977 170.79541016 C13.04767722 168.46004827 11.93089637 166.12382232 10.81616211 163.78662109 C10.31093018 162.73297363 9.80569824 161.67932617 9.28515625 160.59375 C8.84534424 159.67335938 8.40553223 158.75296875 7.95239258 157.8046875 C5.69240813 152.59801386 5.69240813 152.59801386 1.453125 149.40625 C0.855 149.344375 0.256875 149.2825 -0.359375 149.21875 C-0.194375 149.8375 -0.029375 150.45625 0.140625 151.09375 C2.2447199 164.24434313 -1.38969044 175.66916213 -9.10546875 186.42578125 C-17.14090872 196.38304222 -26.57417796 202.26518737 -39.359375 204.21875 C-43.16104035 204.40470102 -46.96103647 204.53419818 -50.765625 204.64453125 C-54.93923316 205.31140125 -56.57483678 206.05101845 -59.359375 209.21875 C-60.46132857 212.75230799 -60.46132857 212.75230799 -60.921875 216.65625 C-61.85960179 223.16860088 -63.17179268 226.80284642 -68.48782349 230.83192444 C-72.19214408 232.62093866 -75.5004077 232.64676299 -79.52685547 232.62280273 C-80.33564148 232.62966599 -81.14442749 232.63652924 -81.97772217 232.64360046 C-84.64418226 232.66186108 -87.31005345 232.65803158 -89.9765625 232.65234375 C-91.83594961 232.65690642 -93.69533504 232.66221224 -95.55471802 232.66822815 C-99.45012262 232.67715818 -103.3453222 232.67473794 -107.24072266 232.66479492 C-112.22301482 232.65331452 -117.20459725 232.67350297 -122.18679619 232.70271206 C-126.02678902 232.72109533 -129.86661252 232.72077721 -133.70663834 232.71507454 C-135.54298014 232.71492154 -137.37933357 232.72094851 -139.21563339 232.73336601 C-141.78857107 232.7483119 -144.36020737 232.73757272 -146.93310547 232.72045898 C-147.68554535 232.73012695 -148.43798523 232.73979492 -149.21322632 232.74975586 C-154.41848721 232.67757555 -158.37620006 231.70306656 -162.359375 228.21875 C-168.07897758 220.75217649 -166.92203174 211.42904295 -166.87695312 202.45507812 C-166.88237808 200.64423562 -166.88950283 198.83339753 -166.89819336 197.02256775 C-166.91638523 192.11965746 -166.90937627 187.21708491 -166.89667702 182.31416893 C-166.88652791 177.17562343 -166.895948 172.03710624 -166.90222168 166.89855957 C-166.90949251 158.27037379 -166.89992516 149.64232511 -166.88085938 141.01416016 C-166.85909175 131.04839545 -166.86614352 121.08295811 -166.888165 111.11720133 C-166.90633504 102.5505031 -166.90886946 93.98390326 -166.89841032 85.41719198 C-166.89218423 80.30517812 -166.89131546 75.19331798 -166.90455627 70.08131409 C-166.91613748 65.2745645 -166.90804757 60.46823572 -166.88497925 55.66153145 C-166.87970428 53.9007544 -166.88118513 52.13994174 -166.89002991 50.379179 C-166.96602604 33.70952574 -166.96602604 33.70952574 -162.359375 27.21875 C-155.15400284 21.48386196 -148.25344902 21.96960206 -139.47338867 21.92358398 C-137.94790346 21.9120947 -136.42245748 21.89169118 -134.8972168 21.86206055 C-119.11949891 21.55571371 -119.11949891 21.55571371 -112.359375 26.21875 C-107.60484868 31.22351455 -106.12588119 35.09151477 -105.9453125 41.953125 C-105.88730469 43.89638672 -105.88730469 43.89638672 -105.828125 45.87890625 C-105.79667233 47.24218284 -105.76542493 48.60546418 -105.734375 49.96875 C-105.69617031 51.34768028 -105.65711713 52.72658734 -105.6171875 54.10546875 C-105.52289496 57.47642718 -105.4372928 60.84737978 -105.359375 64.21875 C-104.98425781 62.96320313 -104.60914063 61.70765625 -104.22265625 60.4140625 C-96.36924406 34.54536738 -81.20373329 9.35868817 -57.046875 -4.40625 C-37.64345372 -14.70415515 -16.94731112 -14.81621211 0 0 Z M-59.6484375 17.2890625 C-61.359375 19.21875 -61.359375 19.21875 -63.74609375 21.08984375 C-80.39628081 34.65389748 -90.03532602 59.33281204 -93.0390625 80.05859375 C-94.4277719 93.75939751 -93.48779841 106.78377943 -85.11328125 118.22265625 C-76.40306555 128.13561889 -65.17507535 131.9090865 -52.359375 133.21875 C-45.26065767 133.51181935 -38.14897496 133.36431904 -31.046875 133.28125 C7.9731438 132.89597464 7.9731438 132.89597464 14.02905273 138.50463867 C18.86113887 143.84510313 21.65823544 149.90168944 24.640625 156.40625 C25.63962688 158.54603919 26.63962511 160.68536351 27.640625 162.82421875 C28.13175781 163.88044434 28.62289062 164.93666992 29.12890625 166.02490234 C30.64871467 169.23584126 32.2274116 172.41074133 33.828125 175.58203125 C35.92360332 179.74150493 37.83065181 183.92598637 39.640625 188.21875 C41.55984551 192.44576299 43.53357719 196.64589936 45.515625 200.84375 C46.29099609 202.52210938 46.29099609 202.52210938 47.08203125 204.234375 C50.69025548 212.13320588 50.69025548 212.13320588 56.640625 218.21875 C60.99043676 219.41792756 64.69207128 218.7127884 68.640625 216.65625 C71.19508329 213.54300396 71.90607955 211.16856008 71.640625 207.21875 C70.33649466 202.84279643 68.52619493 198.7130537 66.703125 194.53125 C65.66861584 192.08230783 64.6347651 189.63308743 63.6015625 187.18359375 C63.09077148 185.98718262 62.57998047 184.79077148 62.05371094 183.55810547 C60.23696324 179.2648306 58.52730233 174.93447796 56.828125 170.59375 C52.58044733 159.85764725 48.01778928 149.25199476 43.4753418 138.63818359 C43.1791394 137.94447662 42.88293701 137.25076965 42.57775879 136.53604126 C42.02364423 135.23864579 41.46810233 133.94185849 40.9107666 132.64584351 C39.27323163 128.8097902 37.81072749 124.95621061 36.48176575 121.00518799 C34.25961238 116.28571719 30.02812749 114.90708286 25.453125 113.03125 C20.96520885 111.16492675 16.5908668 109.25109064 12.34375 106.87890625 C5.62803097 102.82840261 5.62803097 102.82840261 -1.8359375 101.20703125 C-4.17520536 101.99116785 -6.18400864 103.05286738 -8.359375 104.21875 C-19.0787401 108.39008665 -30.41431313 112.25319387 -41.609375 107.33203125 C-46.51522455 104.2111225 -49.57815257 99.68386429 -51.359375 94.21875 C-52.23039047 86.87588699 -51.97574341 80.21487098 -47.359375 74.21875 C-43.24922167 69.80252143 -39.37100685 66.57136717 -33.359375 65.21875 C-33.92804596 61.40600271 -34.99043486 58.82685494 -37.08203125 55.6015625 C-37.62021484 54.74691406 -38.15839844 53.89226562 -38.71289062 53.01171875 C-39.84980882 51.23682703 -40.9930259 49.46595396 -42.14257812 47.69921875 C-45.33643829 42.59977815 -47.23714272 39.27613802 -46.359375 33.21875 C-46.029375 32.55875 -45.699375 31.89875 -45.359375 31.21875 C-39.83305921 29.83717105 -39.83305921 29.83717105 -37.359375 30.21875 C-32.94460328 33.84112679 -30.10658098 38.3732335 -27.109375 43.15625 C-26.39430786 44.28015137 -26.39430786 44.28015137 -25.66479492 45.42675781 C-24.69066756 46.95796983 -23.71888992 48.49067932 -22.74951172 50.02490234 C-21.11049908 52.61151415 -19.44797644 55.18228675 -17.78295898 57.75219727 C-13.82193922 63.87171605 -9.9723734 70.05398952 -6.18359375 76.28125 C-5.58160156 77.250625 -4.97960937 78.22 -4.359375 79.21875 C-3.75480469 80.27191406 -3.15023437 81.32507813 -2.52734375 82.41015625 C0.07592524 85.7826795 2.05501177 86.66535555 6.015625 88.15625 C7.2698121 88.64832816 8.52237768 89.14455573 9.7734375 89.64453125 C10.41313477 89.89799316 11.05283203 90.15145508 11.71191406 90.41259766 C14.85485145 91.72626592 17.86436075 93.28394456 20.890625 94.84375 C30.52346052 100.14804442 30.52346052 100.14804442 41.078125 102.21875 C44.13957757 101.0240368 45.23605725 100.19312875 46.640625 97.21875 C46.39967446 94.21080337 46.04313883 92.65853143 43.98730469 90.41235352 C37.02918816 85.20626386 29.62082655 81.4432153 21.81640625 77.66992188 C11.90669468 72.71506609 8.21691745 67.66634591 4.640625 57.21875 C3.28488532 53.07048877 2.01694358 48.89953854 0.765625 44.71875 C0.06208688 42.42160255 -0.64234505 40.12472866 -1.34765625 37.828125 C-2.57848318 33.80375534 -3.78385716 29.77360442 -4.96484375 25.734375 C-5.44948909 24.14551826 -5.93509147 22.55695296 -6.421875 20.96875 C-6.6182959 20.26169922 -6.8147168 19.55464844 -7.01708984 18.82617188 C-9.03666758 12.39495624 -13.07491295 9.0236301 -18.8046875 5.875 C-33.20538201 2.17573903 -49.82795271 5.80877746 -59.6484375 17.2890625 Z M-151.359375 39.21875 C-151.96058374 42.4274675 -151.96058374 42.4274675 -151.85385132 46.1962738 C-151.85868015 46.91063648 -151.86350898 47.62499915 -151.86848414 48.36100918 C-151.87977998 50.76114271 -151.86241822 53.16021661 -151.84521484 55.56030273 C-151.84736012 57.27837412 -151.85123695 58.99644408 -151.85671997 60.71450806 C-151.86642972 65.38607998 -151.85108921 70.05727087 -151.83081388 74.72879672 C-151.81326989 79.61298117 -151.81676747 84.49715338 -151.8175354 89.38136292 C-151.8156611 97.58544301 -151.79828087 105.78937534 -151.77099609 113.9934082 C-151.73955439 123.48249104 -151.72899948 132.97141193 -151.7304672 142.4605431 C-151.73168757 151.58178676 -151.72147778 160.7029776 -151.70488358 169.8242054 C-151.69781729 173.70888748 -151.69415698 177.59355086 -151.69309616 181.47823906 C-151.69108831 186.05253535 -151.67888706 190.62669545 -151.65876389 195.20094681 C-151.65291775 196.88115798 -151.65046237 198.56138482 -151.65161896 200.24160576 C-151.65259927 202.53262989 -151.64130021 204.82327166 -151.62680054 207.11424255 C-151.62344885 208.3971691 -151.62009716 209.68009565 -151.61664391 211.00189877 C-151.37589351 214.01220509 -150.95235048 215.6979986 -149.359375 218.21875 C-140.13668294 218.26502979 -130.91403066 218.30059694 -121.69124794 218.32237434 C-117.40903252 218.33282483 -113.12689636 218.34700697 -108.84472656 218.36962891 C-104.71449374 218.39131238 -100.58433731 218.40330909 -96.45405197 218.40850449 C-94.87593762 218.41220835 -93.29782759 218.4194408 -91.71974564 218.43021011 C-89.51440549 218.44466549 -87.30938358 218.44673048 -85.10400391 218.44580078 C-83.21870468 218.45246262 -83.21870468 218.45246262 -81.2953186 218.45925903 C-78.23670758 218.52742532 -78.23670758 218.52742532 -76.359375 216.21875 C-76.00002283 214.31361311 -75.7189519 212.39323804 -75.484375 210.46875 C-74.70919299 205.25502582 -73.58963372 202.31041104 -70.359375 198.21875 C-70.359375 197.55875 -70.359375 196.89875 -70.359375 196.21875 C-69.0266385 195.55089099 -67.69317033 194.88449186 -66.359375 194.21875 C-65.72902344 193.88875 -65.09867187 193.55875 -64.44921875 193.21875 C-57.84777954 190.15165665 -51.40249221 189.47712977 -44.22436523 188.99023438 C-33.33333836 188.15788471 -27.36552658 183.31369541 -20.359375 175.21875 C-15.10373301 168.50842139 -14.72290425 162.57773254 -15.359375 154.21875 C-19.91086863 152.45504486 -23.62269635 151.99013792 -28.49121094 152.05517578 C-29.17828125 152.0613089 -29.86535156 152.06744202 -30.57324219 152.07376099 C-32.05627943 152.08799907 -33.539279 152.10674082 -35.02220917 152.12955093 C-37.37780774 152.1645688 -39.73313047 152.18500529 -42.08892822 152.2013855 C-48.78383463 152.25007223 -55.47836987 152.32106137 -62.17285156 152.41064453 C-66.27758589 152.46455377 -70.38210585 152.49841447 -74.48712921 152.52038193 C-76.04195312 152.53270678 -77.5967379 152.55259678 -79.15135956 152.5805397 C-90.71208032 152.78642918 -100.23485641 151.52316091 -109.54296875 144.0390625 C-119.38172076 134.17915189 -120.73192008 121.69130451 -120.77478027 108.5080719 C-120.77322433 107.64142977 -120.7716684 106.77478764 -120.77006531 105.88188362 C-120.76554911 103.14542322 -120.77968936 100.40959641 -120.79846191 97.67320251 C-120.84125832 90.88800141 -120.85252801 84.10281741 -120.86468506 77.31750488 C-120.8761998 71.55989837 -120.89968933 65.80258643 -120.93937683 60.04510307 C-120.9529614 57.34887769 -120.9487765 54.65304861 -120.94396973 51.95680237 C-120.95330502 50.31112149 -120.9634725 48.66544506 -120.97460938 47.01977539 C-120.96846115 46.27016037 -120.96231293 45.52054535 -120.95597839 44.74821472 C-120.99596667 40.75526412 -120.99596667 40.75526412 -122.73414612 37.25544739 C-125.04716713 35.78002268 -126.81313292 35.83032675 -129.54296875 35.8203125 C-130.55294922 35.81644531 -131.56292969 35.81257813 -132.60351562 35.80859375 C-133.65732422 35.82019531 -134.71113281 35.83179688 -135.796875 35.84375 C-136.84681641 35.83214844 -137.89675781 35.82054687 -138.97851562 35.80859375 C-139.98978516 35.81246094 -141.00105469 35.81632812 -142.04296875 35.8203125 C-143.42826782 35.82538818 -143.42826782 35.82538818 -144.84155273 35.83056641 C-147.96361084 36.31190766 -149.14494135 36.95905603 -151.359375 39.21875 Z M-34.734375 82.46875 C-36.81707755 85.99332354 -36.88184 88.18830573 -36.359375 92.21875 C-35.16284827 94.01423943 -35.16284827 94.01423943 -33.359375 95.21875 C-27.2391845 95.7840688 -21.00001747 93.3389915 -15.359375 91.21875 C-16.315956 89.44696947 -17.27470488 87.67635924 -18.234375 85.90625 C-19.03488281 84.42705078 -19.03488281 84.42705078 -19.8515625 82.91796875 C-21.36659626 80.12288542 -21.36659626 80.12288542 -23.359375 77.21875 C-28.1670897 77.21875 -31.29041391 79.20605002 -34.734375 82.46875 Z M-105.359375 111.21875 C-105.99098637 119.51391266 -105.5565649 125.50809272 -100.359375 132.21875 C-96.48985103 135.98905541 -91.97863014 139.04792901 -86.484375 139.40625 C-85.783125 139.344375 -85.081875 139.2825 -84.359375 139.21875 C-86.1363613 137.37068425 -87.88043584 135.57676888 -89.9375 134.0390625 C-97.36936791 128.38146936 -101.66951982 120.03622648 -104.359375 111.21875 C-104.689375 111.21875 -105.019375 111.21875 -105.359375 111.21875 Z " fill="#1575FD" transform="translate(282.359375,144.78125)"/>
<path d="M0 0 C0.77988281 0.5878125 1.55976563 1.175625 2.36328125 1.78125 C12.2546274 9.89381626 17.87292719 20.49878259 20 33 C20.97735332 46.83330859 18.74130178 59.73884109 9.8515625 70.6328125 C-0.50707096 82.43683668 -11.91199138 88.90986352 -27.7578125 89.95703125 C-42.53185761 90.15283185 -53.5185615 84.86019786 -64.234375 74.953125 C-66 73 -66 73 -66 71 C-66.89332031 70.68095703 -66.89332031 70.68095703 -67.8046875 70.35546875 C-70.80132782 68.50522998 -71.61227041 66.46864002 -73.125 63.3125 C-73.62257813 62.29800781 -74.12015625 61.28351563 -74.6328125 60.23828125 C-77.34006516 53.82595996 -78.36405303 48.19409339 -78.3125 41.3125 C-78.30686035 40.52230469 -78.3012207 39.73210937 -78.29541016 38.91796875 C-78.06657153 27.78870781 -75.34992062 19.16833458 -69 10 C-68.401875 9.113125 -67.80375 8.22625 -67.1875 7.3125 C-49.96539994 -10.89372007 -20.68735607 -15.66684453 0 0 Z M-54.015625 17.1796875 C-61.29200184 26.25987204 -63.84704864 34.65166319 -62.78515625 46.37109375 C-60.64118187 56.51923916 -54.29679016 64.11549244 -46 70 C-37.88501557 74.19740574 -27.71776105 74.2267993 -18.94140625 72.34375 C-10.01073033 69.47007897 -3.57201201 64.10480915 1.03515625 55.9453125 C4.85433144 48.24511313 5.27745446 38.90239905 3.46484375 30.52734375 C0.45438704 21.9894911 -5.71841659 14.42821561 -13.4375 9.6875 C-27.66514191 2.94809067 -43.12522851 5.40286338 -54.015625 17.1796875 Z " fill="#1475FD" transform="translate(338,62)"/>
<path d="M0 0 C1.14662109 -0.03867188 1.14662109 -0.03867188 2.31640625 -0.078125 C4.4375 0.25 4.4375 0.25 6.27734375 1.328125 C7.4375 3.25 7.4375 3.25 7.56640625 6.6875 C6.4375 10.25 6.4375 10.25 3.40234375 12.4375 C2.07271387 13.06937669 0.72895332 13.67207771 -0.625 14.25 C-1.68364258 14.73919922 -1.68364258 14.73919922 -2.76367188 15.23828125 C-5.01824184 16.27087828 -7.28792349 17.26234862 -9.5625 18.25 C-11.10335232 18.93640616 -12.64372298 19.62389466 -14.18359375 20.3125 C-17.96279286 21.99159099 -21.75729645 23.63076445 -25.5625 25.25 C-25.5625 25.91 -25.5625 26.57 -25.5625 27.25 C-24.7375 27.971875 -23.9125 28.69375 -23.0625 29.4375 C-20.5625 32.25 -20.5625 32.25 -20.0625 35.875 C-20.59636217 39.47856966 -20.84508813 40.084476 -23.5625 42.25 C-26.38191453 43.06248002 -29.09658454 43.72105016 -31.96484375 44.29296875 C-32.79778458 44.46629227 -33.6307254 44.63961578 -34.48890686 44.81819153 C-36.25552852 45.18253514 -38.02335273 45.54108861 -39.79223633 45.89428711 C-42.46235379 46.42994768 -45.12651675 46.98987475 -47.79101562 47.55273438 C-66.75131707 51.46635528 -66.75131707 51.46635528 -74.5625 50.25 C-76.5625 48.25 -76.5625 48.25 -76.875 44.8125 C-76.5625 41.25 -76.5625 41.25 -75.38500977 39.69604492 C-73.09074181 37.87569005 -70.75583662 36.76539415 -68.08984375 35.55078125 C-67.02572266 35.06416016 -65.96160156 34.57753906 -64.86523438 34.07617188 C-63.75470703 33.57666016 -62.64417969 33.07714844 -61.5 32.5625 C-60.38560547 32.05138672 -59.27121094 31.54027344 -58.12304688 31.01367188 C-49.83693884 27.25 -49.83693884 27.25 -47.5625 27.25 C-48.05621094 26.64671875 -48.54992187 26.0434375 -49.05859375 25.421875 C-49.69925781 24.62265625 -50.33992188 23.8234375 -51 23 C-51.63808594 22.21109375 -52.27617187 21.4221875 -52.93359375 20.609375 C-55.52719205 16.85270024 -55.52719205 16.85270024 -55.5625 14.25 C-53.49305775 10.43517651 -52.00095667 9.3947647 -47.859375 8.02734375 C-46.34788728 7.72585602 -44.83170344 7.44732859 -43.3125 7.1875 C-42.4970874 7.03176514 -41.6816748 6.87603027 -40.84155273 6.71557617 C-38.08605756 6.19951663 -35.32612402 5.72054177 -32.5625 5.25 C-31.51529785 5.07049805 -30.4680957 4.89099609 -29.38916016 4.70605469 C-23.23749343 3.65892346 -17.08142752 2.64412798 -10.91821289 1.66723633 C-1.69988396 0.03451541 -1.69988396 0.03451541 0 0 Z " fill="#1276FE" transform="translate(469.5625,149.75)"/>
<path d="M0 0 C0.66 0.66 1.32 1.32 2 2 C1.71334924 7.06822943 0.42130897 10.67764362 -2.0625 15.0625 C-2.68382812 16.17109375 -3.30515625 17.2796875 -3.9453125 18.421875 C-4.6296186 19.61492179 -5.31453887 20.80761646 -6 22 C-6.74799671 23.31736734 -7.4953824 24.63508178 -8.2421875 25.953125 C-10.148505 29.30963692 -12.07031034 32.65687531 -14 36 C-12.84371094 36.29003906 -12.84371094 36.29003906 -11.6640625 36.5859375 C-10.66117187 36.84632812 -9.65828125 37.10671875 -8.625 37.375 C-7.12839844 37.75785156 -7.12839844 37.75785156 -5.6015625 38.1484375 C-3 39 -3 39 -1 41 C-0.6927582 45.13967899 -1.25082887 47.04864628 -3.83642578 50.33203125 C-6.34145681 52.9705462 -8.92437896 55.49462637 -11.5625 58 C-12.44486328 58.86367187 -13.32722656 59.72734375 -14.23632812 60.6171875 C-18.78806658 65.04445122 -23.42508643 69.33604021 -28.26904297 73.44189453 C-30.16589919 75.14933267 -31.85635389 76.978476 -33.5625 78.875 C-36.08295122 81.42422349 -37.10613434 82.03417886 -40.6875 83.1875 C-44 83 -44 83 -46.5625 81.5625 C-48.38465561 78.31430957 -47.72498642 76.60242887 -46.75952148 73.11987305 C-45.56332723 69.78121837 -43.76017974 67.02669425 -41.75 64.125 C-40.94276638 62.9174974 -40.13678427 61.70915724 -39.33203125 60.5 C-38.93709473 59.9121875 -38.5421582 59.324375 -38.13525391 58.71875 C-35.61395389 54.90155599 -33.31692255 50.94331132 -31 47 C-32.2375 47.061875 -33.475 47.12375 -34.75 47.1875 C-37.46546097 47.16824141 -38.96292885 47.01575524 -41.5 45.9375 C-43 44 -43 44 -43.8125 40.875 C-42.55372421 34.87160776 -38.43325506 31.98922475 -34 28 C-30.25309872 24.33729875 -26.67150523 20.54210042 -23.125 16.6875 C-22.3371814 15.83418091 -22.3371814 15.83418091 -21.53344727 14.96362305 C-18.07526762 11.20593701 -14.69095712 7.39612462 -11.40234375 3.48828125 C-7.81925289 -0.31438621 -5.0032059 -0.36386952 0 0 Z " fill="#1376FD" transform="translate(469,65)"/>
<path d="M0 0 C3.3125 0.5 3.3125 0.5 5.3125 2.5 C5.66462836 7.34800053 5.0296311 11.26338514 3.5625 15.87109375 C3.2015625 17.02158203 2.840625 18.17207031 2.46875 19.35742188 C1.89640625 21.12956055 1.89640625 21.12956055 1.3125 22.9375 C0.74015625 24.75024414 0.74015625 24.75024414 0.15625 26.59960938 C-0.78279895 29.56935168 -1.7309367 32.53586219 -2.6875 35.5 C-1.53121094 35.46519531 -1.53121094 35.46519531 -0.3515625 35.4296875 C0.65132813 35.41164062 1.65421875 35.39359375 2.6875 35.375 C3.68523437 35.35179687 4.68296875 35.32859375 5.7109375 35.3046875 C8.3125 35.5 8.3125 35.5 10.3125 37.5 C11.20938079 43.08059161 10.45122036 45.81929966 7.1875 50.4375 C5.90098657 52.128932 4.60947642 53.81657754 3.3125 55.5 C2.38264219 56.88708072 1.46552122 58.28280033 0.5625 59.6875 C-2.28295765 63.97875776 -5.28231134 68.15074089 -8.3125 72.3125 C-8.78010742 72.95920654 -9.24771484 73.60591309 -9.72949219 74.2722168 C-12.16242124 77.59216927 -14.53499063 80.81870782 -17.6875 83.5 C-20.85985276 83.95319325 -22.75237736 84.02990283 -25.5625 82.4375 C-27.33332106 79.38775262 -27.33197957 76.86561555 -26.6875 73.5 C-25.59969819 70.5128617 -24.35577025 67.628317 -23.06640625 64.72265625 C-20.94240453 59.75862957 -19.31968566 54.64275257 -17.6875 49.5 C-18.44675781 49.41363281 -19.20601563 49.32726562 -19.98828125 49.23828125 C-28.03539651 48.10062163 -28.03539651 48.10062163 -31.0625 45.3125 C-32.04828281 40.87647738 -29.83655222 37.37813498 -27.55126953 33.64282227 C-26.25318351 31.69620168 -24.91762369 29.78233307 -23.5625 27.875 C-22.57810299 26.46876541 -21.59372832 25.06251518 -20.609375 23.65625 C-19.87364258 22.61210938 -19.87364258 22.61210938 -19.12304688 21.546875 C-17.78158548 19.63415181 -16.45709043 17.71123407 -15.140625 15.78125 C-14.74633301 15.20455566 -14.35204102 14.62786133 -13.94580078 14.03369141 C-12.88304708 12.47825223 -11.82042511 10.92272306 -10.7578125 9.3671875 C-4.42752969 0.60034301 -4.42752969 0.60034301 0 0 Z " fill="#1572FC" transform="translate(408.6875,64.5)"/>
<path d="M0 0 C3.06499261 6.25258493 3.06499261 6.25258493 2.75 9.875 C2 12 2 12 1 13 C0.54675337 15.54446374 0.16464921 18.09474056 -0.20703125 20.65234375 C-1 23 -1 23 -3.07421875 24.31640625 C-3.70972656 24.54199219 -4.34523438 24.76757812 -5 25 C-5 25.66 -5 26.32 -5 27 C-3.35 26.67 -1.7 26.34 0 26 C0 27.65 0 29.3 0 31 C-1.32 31 -2.64 31 -4 31 C-4.2475 31.804375 -4.495 32.60875 -4.75 33.4375 C-6 36 -6 36 -7.8125 36.875 C-10.36790466 37.02102312 -12.52409795 36.61897551 -15 36 C-15 36.66 -15 37.32 -15 38 C-13.88625 37.938125 -12.7725 37.87625 -11.625 37.8125 C-9.830625 37.9053125 -9.830625 37.9053125 -8 38 C-6 41 -6 41 -6.5625 44 C-6.706875 44.99 -6.85125 45.98 -7 47 C-5.68681738 48.89958081 -5.68681738 48.89958081 -4 50 C-3.67 49.34 -3.34 48.68 -3 48 C-2.01 48 -1.02 48 0 48 C-0.33 49.65 -0.66 51.3 -1 53 C-1.66 53 -2.32 53 -3 53 C-3.103125 53.78375 -3.20625 54.5675 -3.3125 55.375 C-4 58 -4 58 -7 60 C-7.66 59.34 -8.32 58.68 -9 58 C-9.66 59.32 -10.32 60.64 -11 62 C-10.34 62 -9.68 62 -9 62 C-10.23749657 65.42691357 -11.4510637 68.35302769 -14 71 C-15.32 71 -16.64 71 -18 71 C-19.62388724 65.72236645 -18.30022692 62.89503142 -15.9921875 58.19140625 C-14.77497008 55.5029851 -14.30010008 52.92597573 -14 50 C-13.34 50 -12.68 50 -12 50 C-11.505 47.03 -11.505 47.03 -11 44 C-12.485 44.495 -12.485 44.495 -14 45 C-13.67 43.35 -13.34 41.7 -13 40 C-16.63 39.34 -20.26 38.68 -24 38 C-24 37.67 -24 37.34 -24 37 C-22.35 37 -20.7 37 -19 37 C-19.33 36.34 -19.66 35.68 -20 35 C-20.99 35 -21.98 35 -23 35 C-22.60585208 29.48192911 -20.57977464 27.09117102 -17 23 C-15.94205668 21.03003657 -14.92163538 19.03729925 -14 17 C-13.34 17 -12.68 17 -12 17 C-11.71125 16.38125 -11.4225 15.7625 -11.125 15.125 C-10 13 -10 13 -8 11 C-6.80474595 8.39856471 -6.01291136 6.07101246 -5.5 3.25 C-5.335 2.5075 -5.17 1.765 -5 1 C-3 0 -3 0 0 0 Z " fill="#0F77FE" transform="translate(404,74)"/>
<path d="M0 0 C0.495 0.99 0.495 0.99 1 2 C0.0925 2.4125 -0.815 2.825 -1.75 3.25 C-5.98608341 5.53096799 -8.46334132 7.39002395 -10 12 C-9.34 12 -8.68 12 -8 12 C-6.85110867 15.93905597 -6.47417305 19.93565958 -6 24 C-7.98 23.01 -9.96 22.02 -12 21 C-12.495 23.475 -12.495 23.475 -13 26 C-13.66 26 -14.32 26 -15 26 C-15.66 27.32 -16.32 28.64 -17 30 C-25.79699834 30.04634424 -34.59395464 30.08187981 -43.39104843 30.10362434 C-47.4759121 30.11406072 -51.56069222 30.12821724 -55.64550781 30.15087891 C-59.58771842 30.17261251 -63.52984867 30.18456973 -67.47211456 30.18975449 C-68.97600825 30.19344931 -70.47989755 30.20066437 -71.98375702 30.21146011 C-74.09050493 30.22598206 -76.19692101 30.22797767 -78.30371094 30.22705078 C-80.10240631 30.23371262 -80.10240631 30.23371262 -81.93743896 30.24050903 C-84.87292348 30.00997957 -86.52969667 29.53985196 -89 28 C-81.22232127 25.89845019 -73.84377589 25.67369417 -65.8125 25.62109375 C-64.46011184 25.60488863 -63.10773508 25.58770555 -61.75537109 25.56959534 C-58.22464246 25.5242624 -54.69389805 25.48925858 -51.1630249 25.45739746 C-45.48440232 25.40516035 -39.80594505 25.34049292 -34.12753296 25.26918221 C-32.1460235 25.24633614 -30.1644387 25.23036233 -28.18286133 25.21446228 C-26.99072021 25.20097244 -25.7985791 25.1874826 -24.5703125 25.17358398 C-23.51602051 25.16407211 -22.46172852 25.15456024 -21.37548828 25.14476013 C-19.04520749 25.26613642 -19.04520749 25.26613642 -18 24 C-17.72753301 22.14900141 -17.48234809 20.29396126 -17.25 18.4375 C-16.33443078 12.74740686 -14.92393586 8.30952494 -11 4 C-8.5625 2.625 -8.5625 2.625 -6 2 C-4.3603125 1.443125 -4.3603125 1.443125 -2.6875 0.875 C-1.3571875 0.441875 -1.3571875 0.441875 0 0 Z " fill="#1E72FB" transform="translate(223,337)"/>
<path d="M0 0 C1.32 0.33 2.64 0.66 4 1 C3.67 3.31 3.34 5.62 3 8 C3.99 8.33 4.98 8.66 6 9 C6.05807043 12.10408807 6.09361914 15.2080364 6.125 18.3125 C6.15013672 19.63411133 6.15013672 19.63411133 6.17578125 20.98242188 C6.18222656 21.82998047 6.18867188 22.67753906 6.1953125 23.55078125 C6.20578613 24.33106689 6.21625977 25.11135254 6.22705078 25.9152832 C6 28 6 28 4 31 C3.61500109 32.65549531 3.27206865 34.3222433 3 36 C4.485 35.505 4.485 35.505 6 35 C6.33 35.66 6.66 36.32 7 37 C4.62598226 42.6524232 1.06759451 47.46753755 -3 52 C-3.12375 51.360625 -3.2475 50.72125 -3.375 50.0625 C-3.58125 49.381875 -3.7875 48.70125 -4 48 C-4.66 47.67 -5.32 47.34 -6 47 C-5.34 45.02 -4.68 43.04 -4 41 C-4.99 41 -5.98 41 -7 41 C-6.88490339 39.58249437 -6.75746342 38.16598831 -6.625 36.75 C-6.55539062 35.96109375 -6.48578125 35.1721875 -6.4140625 34.359375 C-6 32 -6 32 -5 30.1328125 C-3.5981417 27.14291159 -3.56572245 24.40966442 -3.375 21.125 C-3.30023438 19.93132812 -3.22546875 18.73765625 -3.1484375 17.5078125 C-3.01407756 14.33267491 -2.97084969 11.17738414 -3 8 C-2.34 8 -1.68 8 -1 8 C-1.020625 7.05125 -1.04125 6.1025 -1.0625 5.125 C-1 2 -1 2 0 0 Z " fill="#1077FE" transform="translate(348,84)"/>
<path d="M0 0 C0.66 0.33 1.32 0.66 2 1 C3.09472767 14.47123221 -1.74058892 25.54115543 -10 36 C-12.62890625 38.84375 -12.62890625 38.84375 -15 41 C-15.66 41 -16.32 41 -17 41 C-17.33 39.35 -17.66 37.7 -18 36 C-17.236875 35.566875 -16.47375 35.13375 -15.6875 34.6875 C-11.27294443 31.93909522 -11.27294443 31.93909522 -9.3125 27.3125 C-9.209375 26.549375 -9.10625 25.78625 -9 25 C-9.598125 24.855625 -10.19625 24.71125 -10.8125 24.5625 C-12.56150404 24.1127561 -14.28677023 23.57107659 -16 23 C-16 23.99 -16 24.98 -16 26 C-15.34 26 -14.68 26 -14 26 C-14 27.65 -14 29.3 -14 31 C-18 30 -18 30 -19.9375 29.375 C-22.51199874 28.90690932 -24.48181657 29.37045414 -27 30 C-26.13375 29.05125 -25.2675 28.1025 -24.375 27.125 C-18.00287738 19.60256546 -14.04272671 13.04077767 -14 3 C-13.34 3 -12.68 3 -12 3 C-12 3.99 -12 4.98 -12 6 C-11.34 6 -10.68 6 -10 6 C-10.33 8.64 -10.66 11.28 -11 14 C-9.68 13.34 -8.36 12.68 -7 12 C-6.875 14.375 -6.875 14.375 -7 17 C-7.66 17.66 -8.32 18.32 -9 19 C-9 20.32 -9 21.64 -9 23 C-8.34 23.33 -7.68 23.66 -7 24 C-7 22.35 -7 20.7 -7 19 C-6.01 18.67 -5.02 18.34 -4 18 C-3.67 18.66 -3.34 19.32 -3 20 C-1.35993952 13.33042073 -0.48641215 6.84817102 0 0 Z " fill="#176DFD" transform="translate(281,298)"/>
<path d="M0 0 C-0.1875 1.875 -0.1875 1.875 -1 4 C-3.5625 5.25 -3.5625 5.25 -6 6 C-6 6.66 -6 7.32 -6 8 C-7.66666667 9.66666667 -9.33333333 11.33333333 -11 13 C-14.09047809 16.55618688 -14.09047809 16.55618688 -15.0234375 21.01953125 C-14.76296658 23.02515736 -14.38431343 25.0143806 -14 27 C-14 28.32 -14 29.64 -14 31 C-15.98 31 -17.96 31 -20 31 C-20 38.26 -20 45.52 -20 53 C-24.48197363 48.51802637 -24.48197363 48.51802637 -24.50537109 43.56884766 C-24.48297363 42.88612793 -24.46057617 42.2034082 -24.4375 41.5 C-24.42283691 40.79020996 -24.40817383 40.08041992 -24.39306641 39.34912109 C-23.91198734 25.73488987 -19.15292292 13.99945613 -9.33984375 4.37109375 C-4.56308005 0 -4.56308005 0 0 0 Z " fill="#186EFB" transform="translate(284,61)"/>
<path d="M0 0 C0.33 0 0.66 0 1 0 C1.02505615 1.28688721 1.0501123 2.57377441 1.07592773 3.8996582 C1.17001572 8.66880454 1.27023313 13.43780571 1.37231445 18.20678711 C1.41565803 20.27185676 1.45733352 22.33696212 1.49731445 24.40209961 C1.55503083 27.36843635 1.61872151 30.33459345 1.68359375 33.30078125 C1.70030624 34.2258699 1.71701874 35.15095856 1.73423767 36.1040802 C1.75418289 36.96474594 1.77412811 37.82541168 1.79467773 38.7121582 C1.81022202 39.46938675 1.8257663 40.2266153 1.84178162 41.00679016 C1.93632323 43.20924815 1.93632323 43.20924815 3 46 C6.3 46.33 9.6 46.66 13 47 C13 47.33 13 47.66 13 48 C9.34470956 49.0544107 5.69455781 50.09270815 2 51 C-2.60816959 45.51803216 -3.71804968 42.08288118 -3.48828125 35.00390625 C-3.47766914 33.75358864 -3.47766914 33.75358864 -3.46684265 32.47801208 C-3.43904885 29.83856087 -3.37634389 27.20130031 -3.3125 24.5625 C-3.28739749 22.7637027 -3.26458775 20.96487186 -3.24414062 19.16601562 C-3.18927214 14.77651097 -3.10310875 10.38862573 -3 6 C-2.34 5.67 -1.68 5.34 -1 5 C-0.34444881 2.47266765 -0.34444881 2.47266765 0 0 Z " fill="#2172FC" transform="translate(130,316)"/>
<path d="M0 0 C0.66 0.66 1.32 1.32 2 2 C1.59772727 7.2975352 0.54075528 12.36600772 -0.5625 17.5625 C-2.95488597 29.78003892 -2.73581218 41.05874321 1 53 C0.34 53 -0.32 53 -1 53 C-1.33 53.66 -1.66 54.32 -2 55 C-6.94181739 49.39142947 -6.61781735 43.98742598 -6.5 36.75 C-6.49081543 35.59862549 -6.48163086 34.44725098 -6.47216797 33.26098633 C-6.23061546 21.7712453 -4.56142567 10.6227796 0 0 Z " fill="#1D70FD" transform="translate(192,202)"/>
<path d="M0 0 C1.11876526 -0.0033284 2.23753052 -0.0066568 3.39019775 -0.01008606 C5.74694407 -0.01513591 8.1036975 -0.01749499 10.46044922 -0.01733398 C14.07921918 -0.01953191 17.69768972 -0.03773945 21.31640625 -0.05664062 C23.60676979 -0.05957258 25.89713478 -0.0615587 28.1875 -0.0625 C29.27391785 -0.06968552 30.36033569 -0.07687103 31.47967529 -0.08427429 C32.48121643 -0.08119766 33.48275757 -0.07812103 34.51464844 -0.07495117 C35.39811951 -0.07637619 36.28159058 -0.07780121 37.1918335 -0.07926941 C39.328125 0.16796875 39.328125 0.16796875 41.328125 2.16796875 C38.64713447 3.50846402 36.59501294 3.28777395 33.59326172 3.28149414 C32.39216766 3.28141861 31.19107361 3.28134308 29.95358276 3.28126526 C28.65147858 3.27610397 27.34937439 3.27094269 26.0078125 3.265625 C24.66545667 3.26376013 23.32310016 3.26233655 21.98074341 3.26133728 C18.44616825 3.25751753 14.91163413 3.24769187 11.3770752 3.2366333 C7.77092036 3.22640753 4.1647589 3.22183716 0.55859375 3.21679688 C-6.51824596 3.20606913 -13.5950578 3.1889992 -20.671875 3.16796875 C-14.56026678 -0.90643673 -7.1038078 0.00733111 0 0 Z " fill="#1A67E8" transform="translate(154.671875,362.83203125)"/>
<path d="M0 0 C4 2 4 2 5.71063232 3.05038452 C8.83359854 4.34577149 11.50152864 4.2823906 14.87988281 4.31884766 C15.90488388 4.33391609 15.90488388 4.33391609 16.95059204 4.34928894 C19.20142808 4.38009398 21.45214531 4.39714829 23.703125 4.4140625 C25.26683574 4.43277634 26.8305364 4.45234992 28.39422607 4.4727478 C32.50408994 4.52405233 36.61398655 4.56368695 40.72399902 4.60089111 C44.92024827 4.64094133 49.11636156 4.69202902 53.3125 4.7421875 C61.54157375 4.83892689 69.77071484 4.92333794 78 5 C78 5.33 78 5.66 78 6 C73.73060422 6.80956823 69.68262868 7.13521307 65.33959961 7.16113281 C64.03482162 7.17074036 62.73004364 7.1803479 61.38572693 7.19024658 C59.974601 7.19509338 58.56347302 7.1993725 57.15234375 7.203125 C56.07773486 7.20736607 56.07773486 7.20736607 54.9814167 7.21169281 C51.19553387 7.22662815 47.40968864 7.23589523 43.6237793 7.24023438 C39.72096047 7.24573288 35.81848807 7.26980564 31.91577816 7.29820633 C28.90543103 7.31684683 25.8951675 7.32203889 22.88476753 7.32357025 C21.44588881 7.32659051 20.00701135 7.33459789 18.56818962 7.34775543 C16.5558656 7.36485517 14.54339718 7.36108519 12.53100586 7.35644531 C10.81608192 7.36191376 10.81608192 7.36191376 9.06651306 7.36749268 C5.63310418 6.956031 3.7470511 6.06989891 1 4 C0.1875 1.8125 0.1875 1.8125 0 0 Z " fill="#1585FE" transform="translate(121,370)"/>
<path d="M0 0 C1.75390625 1.29296875 1.75390625 1.29296875 3 3 C2.6875 6.6875 2.6875 6.6875 2 10 C1.01 10 0.02 10 -1 10 C-1.66 9.01 -2.32 8.02 -3 7 C-2.01 7 -1.02 7 0 7 C-0.66 6.01 -1.32 5.02 -2 4 C-5.60816932 3.65306064 -8.36605906 3.78868635 -11.8125 4.9375 C-14.6298073 5.87660243 -16.70581751 6.21402191 -19.625 6.4375 C-24.67800828 6.85030249 -29.36310799 8.01854415 -34.23828125 9.37890625 C-36.92798405 9.98380405 -39.25472495 10.11501152 -42 10 C-41.67 9.34 -41.34 8.68 -41 8 C-38.93359375 7.5859375 -38.93359375 7.5859375 -36.4375 7.375 C-35.61121094 7.30023438 -34.78492188 7.22546875 -33.93359375 7.1484375 C-32.97646484 7.07496094 -32.97646484 7.07496094 -32 7 C-32 6.34 -32 5.68 -32 5 C-9.55307263 -0.95530726 -9.55307263 -0.95530726 0 0 Z " fill="#196FF7" transform="translate(474,150)"/>
<path d="M0 0 C0.66 0.33 1.32 0.66 2 1 C1.360625 1.61875 0.72125 2.2375 0.0625 2.875 C-2.57440758 5.48943393 -4.9936893 8.26780431 -7.4375 11.0625 C-10.72291199 14.74897398 -13.70789828 17.57881441 -18 20 C-17.34 21.65 -16.68 23.3 -16 25 C-12.4780279 25.08004482 -9.38018531 25.04005702 -6 24 C-6.66 25.32 -7.32 26.64 -8 28 C-9.79133978 28.05391993 -11.58313899 28.09275571 -13.375 28.125 C-14.37273437 28.14820312 -15.37046875 28.17140625 -16.3984375 28.1953125 C-19 28 -19 28 -21 26 C-21.6875 22.9375 -21.6875 22.9375 -21 19 C-18.31051001 15.65244332 -15.19544833 12.85710674 -12 10 C-11.03347123 9.04993279 -10.07306897 8.09348892 -9.125 7.125 C-8.42375 6.42375 -7.7225 5.7225 -7 5 C-6.484375 4.443125 -5.96875 3.88625 -5.4375 3.3125 C-3.73274337 1.75598308 -2.15130923 0.83276486 0 0 Z " fill="#206EF8" transform="translate(447,83)"/>
<path d="M0 0 C1.859375 0.62109375 1.859375 0.62109375 4 2 C8.0494761 10.71137296 9.49178871 19.5400136 6.75 28.75 C5.41390064 32.40030016 3.67693327 35.13845064 1 38 C-0.65 37.67 -2.3 37.34 -4 37 C-3.67 36.34 -3.34 35.68 -3 35 C-2.34 35 -1.68 35 -1 35 C-0.71125 34.4225 -0.4225 33.845 -0.125 33.25 C0.55695588 31.88608825 1.2640491 30.53385179 2.015625 29.20703125 C4.93364195 22.66465197 4.55765739 15.56852388 2.0625 9 C1.68222656 8.13375 1.30195313 7.2675 0.91015625 6.375 C0 4 0 4 0 0 Z " fill="#1A6AF4" transform="translate(361,335)"/>
<path d="M0 0 C2.29296875 -0.25 2.29296875 -0.25 5 0 C6.80078125 1.75 6.80078125 1.75 8.3125 4 C8.82425781 4.7425 9.33601562 5.485 9.86328125 6.25 C10.23839844 6.8275 10.61351562 7.405 11 8 C10.34 9.32 9.68 10.64 9 12 C8.34 12 7.68 12 7 12 C7 13.32 7 14.64 7 16 C5.68 15.67 4.36 15.34 3 15 C2.67 13.02 2.34 11.04 2 9 C1.34 9 0.68 9 0 9 C-1.125 2.25 -1.125 2.25 0 0 Z " fill="#0F77FE" transform="translate(240,178)"/>
<path d="M0 0 C0.33 0.99 0.66 1.98 1 3 C1.99 3.33 2.98 3.66 4 4 C-0.95 4 -5.9 4 -11 4 C-11 4.66 -11 5.32 -11 6 C-13.31 6 -15.62 6 -18 6 C-18 6.66 -18 7.32 -18 8 C-21.01031744 8.93423645 -21.86650268 9.04449911 -25 8 C-24.75390625 6.10546875 -24.75390625 6.10546875 -24 4 C-16.93637514 -0.00323597 -7.90240382 -0.16463341 0 0 Z " fill="#1B70FB" transform="translate(256,133)"/>
<path d="M0 0 C3.96684337 3.54928091 4.59196057 6.79749723 5 12 C2.35247996 9.42215154 0.05567935 7.08351902 -2 4 C-4.56282742 3.27034634 -4.56282742 3.27034634 -7 3 C-7 5.97 -7 8.94 -7 12 C-7.66 11.67 -8.32 11.34 -9 11 C-9 10.34 -9 9.68 -9 9 C-9.99 9 -10.98 9 -12 9 C-12.25 3.375 -12.25 3.375 -10 0 C-6.16652698 -1.27782434 -3.91272241 -0.96101954 0 0 Z " fill="#2171EF" transform="translate(247,175)"/>
<path d="M0 0 C1.65 0.66 3.3 1.32 5 2 C5.36297476 7.44462133 5.36297476 7.44462133 3.9609375 9.58984375 C1.05721421 11.67797942 -2.11266614 12.12987849 -5.5625 12.75 C-6.59020508 12.95689453 -6.59020508 12.95689453 -7.63867188 13.16796875 C-12.72671242 14.13664379 -12.72671242 14.13664379 -15 13 C-15 12.01 -15 11.02 -15 10 C-7.575 8.515 -7.575 8.515 0 7 C0 4.69 0 2.38 0 0 Z " fill="#1B6EFE" transform="translate(444,181)"/>
<path d="M0 0 C0 0.66 0 1.32 0 2 C-1.093125 2.28875 -2.18625 2.5775 -3.3125 2.875 C-7.38487921 4.11742078 -10.30469926 5.71876432 -13 9 C-14.20049407 12.10007201 -14.20049407 12.10007201 -15 15 C-15.66 15 -16.32 15 -17 15 C-18.0138537 10.77560958 -18.34989024 8.69978048 -16.375 4.75 C-11.15416561 -1.29517666 -7.49394904 -1.35511497 0 0 Z " fill="#2273F8" transform="translate(135,169)"/>
<path d="M0 0 C0.33 0.66 0.66 1.32 1 2 C0.0925 2.4125 -0.815 2.825 -1.75 3.25 C-7.72455891 6.46707018 -9.58667923 9.90923805 -12 16 C-12.33 16.33 -12.66 16.66 -13 17 C-13.23075082 18.34747084 -13.41153063 19.70377565 -13.5625 21.0625 C-13.706875 22.361875 -13.85125 23.66125 -14 25 C-14.33 25 -14.66 25 -15 25 C-16.93040157 12.46194626 -16.93040157 12.46194626 -13.875 7.3125 C-11.59533997 4.31691368 -9.72100758 2.90756282 -6 2 C-4.3603125 1.443125 -4.3603125 1.443125 -2.6875 0.875 C-1.800625 0.58625 -0.91375 0.2975 0 0 Z " fill="#2371ED" transform="translate(223,337)"/>
<path d="M0 0 C5.45909985 -0.36393999 5.45909985 -0.36393999 7.67793274 1.12898254 C9.58253791 3.82441992 9.36022259 5.84282777 9.34057617 9.1237793 C9.34034958 10.38486008 9.34012299 11.64594086 9.33988953 12.94523621 C9.32456963 14.32156732 9.30892164 15.69789482 9.29296875 17.07421875 C9.2873726 18.48240202 9.28310259 19.89059114 9.28010559 21.29878235 C9.26865818 25.00281944 9.23919235 28.7065029 9.20599365 32.41040039 C9.17529026 36.19086931 9.16159971 39.97139543 9.14648438 43.75195312 C9.11432216 51.16812986 9.06312755 58.58401536 9 66 C8.67 66 8.34 66 8 66 C7.67 47.52 7.34 29.04 7 10 C6.67 10 6.34 10 6 10 C6 7.66666667 6 5.33333333 6 3 C4.02 2.34 2.04 1.68 0 1 C0 0.67 0 0.34 0 0 Z " fill="#1F74F4" transform="translate(155,179)"/>
<path d="M0 0 C3.41635741 5.12453612 1.92112017 11.107444 1 17 C-0.0308124 19.90788126 -1.41182504 22.36998226 -3 25 C-3.350625 25.969375 -3.70125 26.93875 -4.0625 27.9375 C-4.5265625 28.9584375 -4.5265625 28.9584375 -5 30 C-5.99 30.33 -6.98 30.66 -8 31 C-8.75 29.375 -8.75 29.375 -9 27 C-7.70951192 24.97209016 -6.36821051 22.97630407 -5 21 C-3.85919504 18.36664189 -2.93674035 15.71654701 -2 13 C-1.34 13 -0.68 13 0 13 C0 8.71 0 4.42 0 0 Z " fill="#1A67F3" transform="translate(344,95)"/>
<path d="M0 0 C0.86625 0.3403125 0.86625 0.3403125 1.75 0.6875 C1.75 2.6675 1.75 4.6475 1.75 6.6875 C2.41 7.0175 3.07 7.3475 3.75 7.6875 C3.42 8.6775 3.09 9.6675 2.75 10.6875 C1.76 10.6875 0.77 10.6875 -0.25 10.6875 C-0.58 9.3675 -0.91 8.0475 -1.25 6.6875 C-2.24 8.1725 -2.24 8.1725 -3.25 9.6875 C-3.91 9.6875 -4.57 9.6875 -5.25 9.6875 C-5.58 7.3775 -5.91 5.0675 -6.25 2.6875 C-2.80384615 -0.38942308 -2.80384615 -0.38942308 0 0 Z M-2.25 10.6875 C-0.93 11.0175 0.39 11.3475 1.75 11.6875 C1.09 13.0075 0.43 14.3275 -0.25 15.6875 C-0.91 15.6875 -1.57 15.6875 -2.25 15.6875 C-2.25 14.0375 -2.25 12.3875 -2.25 10.6875 Z " fill="#0E7AFF" transform="translate(353.25,321.3125)"/>
<path d="M0 0 C0.66 0 1.32 0 2 0 C3.33333333 2.66666667 4.66666667 5.33333333 6 8 C6.36738281 8.69609375 6.73476563 9.3921875 7.11328125 10.109375 C8.2839735 12.60547653 8.3411719 14.27062482 8 17 C6.5625 19.1875 6.5625 19.1875 5 21 C4.67 21.66 4.34 22.32 4 23 C3.34 23 2.68 23 2 23 C1.375 20.625 1.375 20.625 1 18 C1.66 17.34 2.32 16.68 3 16 C2.55695111 10.57265115 1.23680834 5.29546095 0 0 Z " fill="#0F79FE" transform="translate(312,322)"/>
<path d="M0 0 C4.55258967 -0.40169909 6.97192851 0.98596425 11 3 C17.60907535 5.18932045 24.0717926 6.43211415 31 7 C31 7.33 31 7.66 31 8 C10.27659574 8.95744681 10.27659574 8.95744681 2 3 C2 2.34 2 1.68 2 1 C1.34 0.67 0.68 0.34 0 0 Z " fill="#1D75FD" transform="translate(286,130)"/>
<path d="M0 0 C0.33 0.66 0.66 1.32 1 2 C-0.37807762 5.26386805 -1.89333336 7.86823533 -4.125 10.625 C-5.90915586 12.88493076 -6.58520536 14.20013621 -7 17 C-5.68 16.67 -4.36 16.34 -3 16 C-3 16.99 -3 17.98 -3 19 C-4.98 19 -6.96 19 -9 19 C-10.1875 17.4375 -10.1875 17.4375 -11 15 C-9.4583293 10.28933951 -7.49007331 6.5991381 -4 3 C-3.01 3 -2.02 3 -1 3 C-0.67 2.01 -0.34 1.02 0 0 Z " fill="#1B6BF3" transform="translate(388,92)"/>
<path d="M0 0 C0.33 1.65 0.66 3.3 1 5 C0.071875 4.938125 -0.85625 4.87625 -1.8125 4.8125 C-4.97943248 4.67622737 -4.97943248 4.67622737 -6.75 6.5 C-7.1625 6.995 -7.575 7.49 -8 8 C-8.66 8 -9.32 8 -10 8 C-10.66 9.32 -11.32 10.64 -12 12 C-12.66 12 -13.32 12 -14 12 C-14.66 13.32 -15.32 14.64 -16 16 C-16 9.89334471 -12.94152125 6.32605991 -9 2 C-5.5647952 -0.29013653 -4.014669 -0.17842973 0 0 Z " fill="#1E74F7" transform="translate(468,65)"/>
<path d="M0 0 C-1.875 3.875 -1.875 3.875 -3 5 C-7.73225005 5.33243079 -12.39288558 5.18893275 -17 4 C-17 3.34 -17 2.68 -17 2 C-17.99 1.67 -18.98 1.34 -20 1 C-13.28473838 -1.23842054 -6.91871998 -1.13215418 0 0 Z " fill="#128BFF" transform="translate(350,373)"/>
<path d="M0 0 C2.3828125 0.0234375 2.3828125 0.0234375 5.125 0.375 C6.03507812 0.48585937 6.94515625 0.59671875 7.8828125 0.7109375 C8.93082031 0.85402344 8.93082031 0.85402344 10 1 C10 1.33 10 1.66 10 2 C5.545 3.485 5.545 3.485 1 5 C1.98358549 8.93434196 2.308193 9.67149983 5.0625 12.25 C5.61035156 12.77078125 6.15820312 13.2915625 6.72265625 13.828125 C7.14417969 14.21484375 7.56570313 14.6015625 8 15 C7.67 15.66 7.34 16.32 7 17 C6.401875 16.34 5.80375 15.68 5.1875 15 C3.12498166 12.6626154 3.12498166 12.6626154 0 13 C-2.3125 10.3125 -2.3125 10.3125 -4 7 C-3.2602261 3.74499482 -2.35429332 2.35429332 0 0 Z " fill="#2072F7" transform="translate(418,159)"/>
<path d="M0 0 C4.51434397 1.29837327 7.84814311 3.03039274 11.625 5.8125 C12.54539062 6.47894531 13.46578125 7.14539062 14.4140625 7.83203125 C17.01695899 10.01421788 18.97819537 12.28053039 21 15 C18 15 18 15 16.5546875 13.62890625 C16.04164063 13.09136719 15.52859375 12.55382812 15 12 C13.138122 10.87054592 13.138122 10.87054592 11.125 9.9375 C10.42632812 9.60105469 9.72765625 9.26460937 9.0078125 8.91796875 C6.70102962 7.86331121 4.37501596 6.89063098 2 6 C2.33 5.34 2.66 4.68 3 4 C2.01 3.67 1.02 3.34 0 3 C0 2.01 0 1.02 0 0 Z " fill="#1869FD" transform="translate(326,56)"/>
<path d="M0 0 C0.99 0 1.98 0 3 0 C3.12117188 0.96421875 3.24234375 1.9284375 3.3671875 2.921875 C3.53476563 4.18515625 3.70234375 5.4484375 3.875 6.75 C4.03742188 8.00296875 4.19984375 9.2559375 4.3671875 10.546875 C4.9058355 13.48616408 5.48008841 15.47107147 7 18 C6.34 18 5.68 18 5 18 C5.33 19.32 5.66 20.64 6 22 C1.85887616 18.27298854 0.13391082 15.28451855 -0.1953125 9.66796875 C-0.17210938 8.51941406 -0.14890625 7.37085938 -0.125 6.1875 C-0.10695313 5.02605469 -0.08890625 3.86460937 -0.0703125 2.66796875 C-0.04710938 1.78753906 -0.02390625 0.90710938 0 0 Z " fill="#1666FD" transform="translate(116,352)"/>
<path d="M0 0 C0.66 0 1.32 0 2 0 C0.64746536 6.45054982 -1.03060233 12.71105679 -3 19 C-4.82189635 16.91310054 -5.93941885 15.61572478 -6.21484375 12.81640625 C-5.51513029 7.13000253 -4.11808934 4.11808934 0 0 Z " fill="#1369FD" transform="translate(409,81)"/>
<path d="M0 0 C0.78246094 -0.02578125 1.56492187 -0.0515625 2.37109375 -0.078125 C4.5625 0.25 4.5625 0.25 6.3671875 1.53515625 C7.5625 3.25 7.5625 3.25 7.25 6.9375 C7.023125 8.030625 6.79625 9.12375 6.5625 10.25 C5.5725 10.25 4.5825 10.25 3.5625 10.25 C2.9025 9.26 2.2425 8.27 1.5625 7.25 C2.5525 7.25 3.5425 7.25 4.5625 7.25 C3.9025 6.26 3.2425 5.27 2.5625 4.25 C0.35524927 3.88637182 0.35524927 3.88637182 -2.0625 4.0625 C-2.87976563 4.08957031 -3.69703125 4.11664063 -4.5390625 4.14453125 C-5.47878906 4.19673828 -5.47878906 4.19673828 -6.4375 4.25 C-6.4375 3.26 -6.4375 2.27 -6.4375 1.25 C-4.11063547 0.08656773 -2.59028587 0.05104012 0 0 Z " fill="#1969EA" transform="translate(469.4375,149.75)"/>
<path d="M0 0 C0.33 0.66 0.66 1.32 1 2 C1.99 2.33 2.98 2.66 4 3 C5.125 8.625 5.125 8.625 4 12 C4.16371094 12.77730469 4.32742188 13.55460937 4.49609375 14.35546875 C5.06688048 17.35099292 4.73309525 19.35399155 4.0625 22.3125 C3.86785156 23.19550781 3.67320312 24.07851562 3.47265625 24.98828125 C3.31667969 25.65214844 3.16070312 26.31601563 3 27 C2.67 27 2.34 27 2 27 C1.67 20.73 1.34 14.46 1 8 C0.34 7.67 -0.32 7.34 -1 7 C-0.67 4.69 -0.34 2.38 0 0 Z " fill="#1E75F7" transform="translate(352,85)"/>
<path d="M0 0 C0.7940625 -0.01417969 1.588125 -0.02835937 2.40625 -0.04296875 C4.5 0.1875 4.5 0.1875 6.5 2.1875 C6.625 5.8125 6.625 5.8125 6.5 9.1875 C5.51 9.1875 4.52 9.1875 3.5 9.1875 C3.5 7.5375 3.5 5.8875 3.5 4.1875 C-0.13 4.1875 -3.76 4.1875 -7.5 4.1875 C-7.17 3.1975 -6.84 2.2075 -6.5 1.1875 C-4.14653604 0.01076802 -2.6193967 0.02126134 0 0 Z " fill="#1B6CFA" transform="translate(412.5,99.8125)"/>
<path d="M0 0 C1.79323253 0.28187936 3.58457126 0.5758281 5.375 0.875 C6.37273437 1.03742188 7.37046875 1.19984375 8.3984375 1.3671875 C11 2 11 2 13 4 C13 5.32 13 6.64 13 8 C11.68 8 10.36 8 9 8 C9 7.34 9 6.68 9 6 C6.69 5.67 4.38 5.34 2 5 C2 4.34 2 3.68 2 3 C1.34 3 0.68 3 0 3 C0 2.01 0 1.02 0 0 Z " fill="#206EF5" transform="translate(455,102)"/>
<path d="M0 0 C0.66 0.33 1.32 0.66 2 1 C1.525625 1.7425 1.05125 2.485 0.5625 3.25 C-0.77869327 5.61050015 -1.512312 7.36648477 -2 10 C-1.01 10.33 -0.02 10.66 1 11 C1.66 10.34 2.32 9.68 3 9 C3 10.65 3 12.3 3 14 C-1 13 -1 13 -2.9375 12.375 C-5.51199874 11.90690932 -7.48181657 12.37045414 -10 13 C-9.61328125 12.56429688 -9.2265625 12.12859375 -8.828125 11.6796875 C-5.56015499 7.94255348 -2.65859411 4.1923984 0 0 Z " fill="#166AFB" transform="translate(264,315)"/>
<path d="M0 0 C4.12524266 2.44646293 6.63997779 4.70392004 7.9375 9.375 C7.958125 10.24125 7.97875 11.1075 8 12 C7.2575 11.21625 6.515 10.4325 5.75 9.625 C3.45566682 7.43495469 1.87841142 6.17268614 -1 5 C-1 4.34 -1 3.68 -1 3 C-3.64 2.67 -6.28 2.34 -9 2 C-5.42529543 -0.38313638 -4.21446465 -0.64837918 0 0 Z " fill="#1C6EF7" transform="translate(292,279)"/>
<path d="M0 0 C4.95 0 9.9 0 15 0 C14.67 1.32 14.34 2.64 14 4 C9.71 4 5.42 4 1 4 C0.67 2.68 0.34 1.36 0 0 Z " fill="#1664FD" transform="translate(246,146)"/>
<path d="M0 0 C2.475 0.99 2.475 0.99 5 2 C4.67 4.31 4.34 6.62 4 9 C4.99 9.33 5.98 9.66 7 10 C7 10.99 7 11.98 7 13 C1.25 11.125 1.25 11.125 -1 10 C-1 9.01 -1 8.02 -1 7 C-0.34 7 0.32 7 1 7 C0.67 4.69 0.34 2.38 0 0 Z " fill="#0E7BFE" transform="translate(300,207)"/>
<path d="M0 0 C0.66 0 1.32 0 2 0 C2 0.99 2 1.98 2 3 C2.66 3 3.32 3 4 3 C3.09068323 11.94161491 3.09068323 11.94161491 1 16 C0.34 16.33 -0.32 16.66 -1 17 C-2.125 12.25 -2.125 12.25 -1 10 C-0.77377919 8.29636178 -0.59111527 6.58671299 -0.4375 4.875 C-0.35371094 3.96492188 -0.26992188 3.05484375 -0.18359375 2.1171875 C-0.12300781 1.41851562 -0.06242187 0.71984375 0 0 Z " fill="#166BF2" transform="translate(267,301)"/>
<path d="M0 0 C0.33 0 0.66 0 1 0 C1.02578125 0.90621094 1.0515625 1.81242188 1.078125 2.74609375 C1.43090504 10.32284691 2.22548623 16.36387812 6 23 C3.13275314 22.42655063 2.1385485 22.1385485 0 20 C-1.75347666 13.03480103 -2.81461347 6.72379884 0 0 Z " fill="#1267FD" transform="translate(176,254)"/>
<path d="M0 0 C0.99 0 1.98 0 3 0 C3.33 1.98 3.66 3.96 4 6 C7.79588866 5.45773019 9.47211993 3.79872437 12 1 C10.125 7.875 10.125 7.875 9 9 C3.75949367 9.4556962 3.75949367 9.4556962 1.125 7.875 C-0.4682099 5.21965017 -0.20214032 3.03210482 0 0 Z " fill="#1E79F5" transform="translate(382,139)"/>
<path d="M0 0 C0.66 0 1.32 0 2 0 C0.71746597 13.07419019 0.71746597 13.07419019 -2.625 16.3125 C-3.40875 16.869375 -4.1925 17.42625 -5 18 C-5.93423645 14.98968256 -6.04449911 14.13349732 -5 11 C-4.34 10.67 -3.68 10.34 -3 10 C-2.349461 7.91388442 -2.349461 7.91388442 -1.9375 5.5 C-1.09393346 1.09393346 -1.09393346 1.09393346 0 0 Z " fill="#1269FE" transform="translate(220,356)"/>
<path d="M0 0 C0 0.66 0 1.32 0 2 C-0.59167969 2.12117187 -1.18335938 2.24234375 -1.79296875 2.3671875 C-6.8358742 3.41183621 -6.8358742 3.41183621 -11.625 5.25 C-15.13632306 6.35883886 -17.6145095 5.194879 -21 4 C-21 3.67 -21 3.34 -21 3 C-18.43850372 2.49432271 -15.87600535 1.99529868 -13.3125 1.5 C-12.59126953 1.35691406 -11.87003906 1.21382812 -11.12695312 1.06640625 C-7.36158641 0.34428113 -3.85526187 -0.1824976 0 0 Z " fill="#1567FC" transform="translate(442,155)"/>
<path d="M0 0 C1 1 1 1 1.0625 3.5625 C1.041875 4.366875 1.02125 5.17125 1 6 C0.34 5.67 -0.32 5.34 -1 5 C-1 4.34 -1 3.68 -1 3 C-2.94074861 3.27617533 -2.94074861 3.27617533 -5 4 C-5.99 5.485 -5.99 5.485 -7 7 C-7.66 7 -8.32 7 -9 7 C-9.6875 5.1875 -9.6875 5.1875 -10 3 C-7.70658572 -1.01347499 -4.17997247 -0.30962759 0 0 Z " fill="#2276EA" transform="translate(412,65)"/>
<path d="M0 0 C2.31 0.33 4.62 0.66 7 1 C5.02 1.99 5.02 1.99 3 3 C3 3.33 3 3.66 3 4 C5.64 3.67 8.28 3.34 11 3 C8.3139714 4.79068573 6.3373411 5.66055791 3.3125 6.625 C2.50425781 6.88539063 1.69601562 7.14578125 0.86328125 7.4140625 C-0.05904297 7.70410156 -0.05904297 7.70410156 -1 8 C-1.99 6.68 -2.98 5.36 -4 4 C-3.34 4 -2.68 4 -2 4 C-1.34 2.68 -0.68 1.36 0 0 Z " fill="#196CFE" transform="translate(263,246)"/>
<path d="M0 0 C0 0.99 0 1.98 0 3 C-4.22222222 6 -4.22222222 6 -7 6 C-7.33 6.99 -7.66 7.98 -8 9 C-9.98 9 -11.96 9 -14 9 C-12.7803332 5.3409996 -11.21791267 4.69537749 -7.921875 2.91796875 C-5.35196996 1.69047345 -2.73040836 0.79914391 0 0 Z " fill="#1E70F5" transform="translate(259,326)"/>
<path d="M0 0 C1.875 0.5625 1.875 0.5625 4 2 C5.86240027 6.90105335 6.45488193 11.8213783 7 17 C2.29544902 13.43103029 1.21953397 8.53409734 0 3 C0 2.01 0 1.02 0 0 Z " fill="#1A6EF0" transform="translate(343,292)"/>
<path d="M0 0 C2.91024202 2.50058918 4.16791164 5.19655377 5.6875 8.6875 C6.12449219 9.68136719 6.56148438 10.67523438 7.01171875 11.69921875 C7.33785156 12.45847656 7.66398437 13.21773438 8 14 C5 14 5 14 2 12 C1.26953125 9.1796875 1.26953125 9.1796875 0.8125 5.875 C0.65394531 4.77929688 0.49539063 3.68359375 0.33203125 2.5546875 C0.22246094 1.71164062 0.11289062 0.86859375 0 0 Z " fill="#1668FB" transform="translate(299,286)"/>
<path d="M0 0 C4.75923964 0.70507254 7.67618291 3.58792843 10.875 7 C12 9 12 9 11.6875 11.25 C11.460625 11.8275 11.23375 12.405 11 13 C10.01 13 9.02 13 8 13 C7.731875 11.88625 7.46375 10.7725 7.1875 9.625 C6.34190981 5.78159049 6.34190981 5.78159049 3 4 C3 3.34 3 2.68 3 2 C2.01 1.67 1.02 1.34 0 1 C0 0.67 0 0.34 0 0 Z " fill="#1F72F6" transform="translate(164,171)"/>
<path d="M0 0 C0.8971875 0.309375 0.8971875 0.309375 1.8125 0.625 C0.11158111 1.92641481 -1.59860541 3.21572165 -3.3125 4.5 C-4.26382813 5.21929687 -5.21515625 5.93859375 -6.1953125 6.6796875 C-9.15998274 8.60711019 -11.79872655 9.66970778 -15.1875 10.625 C-13.98209348 7.00878043 -12.9619972 6.55514305 -9.8125 4.5625 C-9.02101562 4.05589844 -8.22953125 3.54929688 -7.4140625 3.02734375 C-6.67929688 2.56457031 -5.94453125 2.10179687 -5.1875 1.625 C-2.1875 -0.375 -2.1875 -0.375 0 0 Z " fill="#1C79FB" transform="translate(236.1875,150.375)"/>
<path d="M0 0 C0.99 0 1.98 0 3 0 C1.06375702 6.20477864 -1.25609141 12.10825719 -4 18 C-5.35015859 13.94952424 -4.62084998 11.2079832 -4 7 C-3.01 7 -2.02 7 -1 7 C-0.67 4.69 -0.34 2.38 0 0 Z " fill="#2173F8" transform="translate(185,189)"/>
<path d="M0 0 C-0.33 3.63 -0.66 7.26 -1 11 C-2.32 11 -3.64 11 -5 11 C-5.36637589 4.64948454 -5.36637589 4.64948454 -3.625 1.5625 C-2 0 -2 0 0 0 Z " fill="#0D7AFF" transform="translate(310,314)"/>
<path d="M0 0 C6.625 0.75 6.625 0.75 10 3 C10.6875 5.125 10.6875 5.125 11 7 C9.3489597 6.60446947 7.7041485 6.18286103 6.0625 5.75 C5.14597656 5.51796875 4.22945313 5.2859375 3.28515625 5.046875 C1 4 1 4 0.18359375 1.890625 C0.12300781 1.26671875 0.06242187 0.6428125 0 0 Z " fill="#216EF7" transform="translate(263,135)"/>
<path d="M0 0 C0.86625 0.4640625 0.86625 0.4640625 1.75 0.9375 C3.84294184 1.92583364 5.74535275 2.5168613 8 3 C8 3.99 8 4.98 8 6 C5.69 6.33 3.38 6.66 1 7 C-1 4 -1 4 -0.625 1.8125 C-0.41875 1.214375 -0.2125 0.61625 0 0 Z " fill="#0A7CFD" transform="translate(280,132)"/>
<path d="M0 0 C0.33 0.66 0.66 1.32 1 2 C2.423125 1.9690625 2.423125 1.9690625 3.875 1.9375 C7 2 7 2 9 3 C9 3.99 9 4.98 9 6 C6.03 6 3.06 6 0 6 C0 5.01 0 4.02 0 3 C-0.66 2.67 -1.32 2.34 -2 2 C-1.34 2 -0.68 2 0 2 C0 1.34 0 0.68 0 0 Z " fill="#2171FD" transform="translate(269,298)"/>
<path d="M0 0 C0.99 0 1.98 0 3 0 C6 5.625 6 5.625 6 9 C4.1875 8.8125 4.1875 8.8125 2 8 C0.1875 5.625 0.1875 5.625 -1 3 C-0.67 2.01 -0.34 1.02 0 0 Z " fill="#0B79FE" transform="translate(251,190)"/>
<path d="M0 0 C2.475 0.99 2.475 0.99 5 2 C5 3.98 5 5.96 5 8 C2.03 8.66 -0.94 9.32 -4 10 C-4.33 9.34 -4.66 8.68 -5 8 C-3.35 7.67 -1.7 7.34 0 7 C0 4.69 0 2.38 0 0 Z " fill="#2276FA" transform="translate(444,181)"/>
<path d="M0 0 C0.66 0 1.32 0 2 0 C3.98 4.95 5.96 9.9 8 15 C7.01 15 6.02 15 5 15 C4.16013916 13.06532058 3.32831973 11.12714871 2.5 9.1875 C2.0359375 8.10855469 1.571875 7.02960938 1.09375 5.91796875 C0 3 0 3 0 0 Z " fill="#1565FC" transform="translate(348,301)"/>
<path d="M0 0 C0.33 0.66 0.66 1.32 1 2 C1.99 2.33 2.98 2.66 4 3 C4 4.98 4 6.96 4 9 C2.68 8.34 1.36 7.68 0 7 C-0.66 7.66 -1.32 8.32 -2 9 C-2.66 7.02 -3.32 5.04 -4 3 C-2.68 3.33 -1.36 3.66 0 4 C0 2.68 0 1.36 0 0 Z " fill="#0B6EFE" transform="translate(278,160)"/>
<path d="M0 0 C1.00206597 2.70557813 1.05573121 3.83280636 0.125 6.625 C-1.93628088 10.97659298 -1.93628088 10.97659298 -5.0625 12.125 C-6.031875 12.41375 -7.00125 12.7025 -8 13 C-6.85605098 11.01974361 -5.70978896 9.04082322 -4.5625 7.0625 C-3.92441406 5.96035156 -3.28632813 4.85820312 -2.62890625 3.72265625 C-1 1 -1 1 0 0 Z " fill="#1561F6" transform="translate(431,124)"/>
<path d="M0 0 C1.79244141 0.01740234 1.79244141 0.01740234 3.62109375 0.03515625 C5.41740234 0.04869141 5.41740234 0.04869141 7.25 0.0625 C8.17683594 0.07410156 9.10367188 0.08570313 10.05859375 0.09765625 C9.72859375 1.08765625 9.39859375 2.07765625 9.05859375 3.09765625 C7.64236159 3.15212672 6.22551184 3.19066133 4.80859375 3.22265625 C4.0196875 3.24585938 3.23078125 3.2690625 2.41796875 3.29296875 C-0.14872566 3.08049405 -1.73301295 2.3841973 -3.94140625 1.09765625 C-2.94140625 0.09765625 -2.94140625 0.09765625 0 0 Z " fill="#1B81FE" transform="translate(229.94140625,345.90234375)"/>
<path d="M0 0 C7.92 0 15.84 0 24 0 C24 0.33 24 0.66 24 1 C22.93072266 1.09087891 22.93072266 1.09087891 21.83984375 1.18359375 C20.40318359 1.30927734 20.40318359 1.30927734 18.9375 1.4375 C17.42929687 1.56898438 17.42929687 1.56898438 15.890625 1.703125 C12.83433081 1.98001715 12.83433081 1.98001715 9.1875 2.6875 C5.58371473 3.04081228 3.31716135 2.37540836 0 1 C0 0.67 0 0.34 0 0 Z " fill="#0C33FF" transform="translate(249,277)"/>
<path d="M0 0 C2.1875 -0.375 2.1875 -0.375 5 0 C6.99022836 1.83961648 8.38989899 3.79186148 10 6 C7.03 5.67 4.06 5.34 1 5 C0.67 3.35 0.34 1.7 0 0 Z " fill="#196BFC" transform="translate(439,177)"/>
<path d="M0 0 C1.64479119 0.19643207 3.29068405 0.383836 4.9375 0.5625 C5.70964844 0.64628906 6.48179687 0.73007813 7.27734375 0.81640625 C8.13005859 0.90728516 8.13005859 0.90728516 9 1 C9 1.33 9 1.66 9 2 C2.73 2 -3.54 2 -10 2 C-10.33 1.34 -10.66 0.68 -11 0 C-7.14701275 -1.38707541 -3.97926819 -0.65233905 0 0 Z " fill="#2174F1" transform="translate(308,136)"/>
<path d="M0 0 C0.99 0 1.98 0 3 0 C3 3.96 3 7.92 3 12 C2.01 11.67 1.02 11.34 0 11 C0 7.37 0 3.74 0 0 Z " fill="#266EFA" transform="translate(116,352)"/>
<path d="M0 0 C3 3.75 3 3.75 3 6 C3.94875 6.28875 4.8975 6.5775 5.875 6.875 C9 8 9 8 11 10 C8 11 8 11 5.95703125 10.22265625 C5.24933594 9.83980469 4.54164063 9.45695313 3.8125 9.0625 C3.09707031 8.68222656 2.38164062 8.30195313 1.64453125 7.91015625 C1.10183594 7.60980469 0.55914062 7.30945313 0 7 C0 4.69 0 2.38 0 0 Z " fill="#1268FE" transform="translate(301,199)"/>
<path d="M0 0 C5.61 0 11.22 0 17 0 C17 0.33 17 0.66 17 1 C13.7 1.33 10.4 1.66 7 2 C7 2.33 7 2.66 7 3 C4.69 3.33 2.38 3.66 0 4 C0 2.68 0 1.36 0 0 Z " fill="#2A74FC" transform="translate(297,66)"/>
<path d="M0 0 C0.33 0 0.66 0 1 0 C1.33 5.61 1.66 11.22 2 17 C2.33 17 2.66 17 3 17 C3 18.98 3 20.96 3 23 C2.01 22.67 1.02 22.34 0 22 C0 14.74 0 7.48 0 0 Z " fill="#0462FE" transform="translate(161,245)"/>
<path d="M0 0 C0.66 0 1.32 0 2 0 C2 0.66 2 1.32 2 2 C1.34 2 0.68 2 0 2 C0 1.34 0 0.68 0 0 Z M-1 2 C0.04005702 5.38018531 0.08004482 8.4780279 0 12 C-0.99 12 -1.98 12 -3 12 C-3.33 9.03 -3.66 6.06 -4 3 C-3.01 2.67 -2.02 2.34 -1 2 Z " fill="#087EFF" transform="translate(273,224)"/>
<path d="M0 0 C1.875 0.125 1.875 0.125 4 1 C5.0625 3.6875 5.0625 3.6875 6 7 C6.556875 8.0725 7.11375 9.145 7.6875 10.25 C8.3371875 11.61125 8.3371875 11.61125 9 13 C8.67 13.66 8.34 14.32 8 15 C6.66121428 12.8782637 5.32884524 10.75294812 4 8.625 C3.6184375 8.02171875 3.236875 7.4184375 2.84375 6.796875 C0 2.2265625 0 2.2265625 0 0 Z " fill="#2077F2" transform="translate(254,190)"/>
<path d="M0 0 C0.33 0.99 0.66 1.98 1 3 C1.99 3.33 2.98 3.66 4 4 C1.03 4 -1.94 4 -5 4 C-4.67 3.34 -4.34 2.68 -4 2 C-5.98 2.33 -7.96 2.66 -10 3 C-10 2.34 -10 1.68 -10 1 C-6.52674819 -0.1577506 -3.63932552 -0.06866652 0 0 Z " fill="#165BF9" transform="translate(256,133)"/>
<path d="M0 0 C1.98 0 3.96 0 6 0 C6 1.98 6 3.96 6 6 C5.34 6 4.68 6 4 6 C3.67 6.66 3.34 7.32 3 8 C0 3.375 0 3.375 0 0 Z " fill="#1C75F9" transform="translate(405,75)"/>
<path d="M0 0 C0.99 0 1.98 0 3 0 C5.875 6.625 5.875 6.625 7 10 C2.37837838 8.54054054 2.37837838 8.54054054 0.6875 6.125 C0 4 0 4 0 0 Z " fill="#1B68F2" transform="translate(317,326)"/>
<path d="M0 0 C4 4.625 4 4.625 4 8 C2.824375 7.9690625 2.824375 7.9690625 1.625 7.9375 C-0.98114961 7.81315937 -0.98114961 7.81315937 -3 9 C-3 7.35 -3 5.7 -3 4 C-2.34 4 -1.68 4 -1 4 C-0.67 2.68 -0.34 1.36 0 0 Z " fill="#1568FA" transform="translate(252,183)"/>
<path d="M0 0 C0.66 0 1.32 0 2 0 C2 1.32 2 2.64 2 4 C3.32 4.33 4.64 4.66 6 5 C5.67 5.99 5.34 6.98 5 8 C3.68 7.67 2.36 7.34 1 7 C1 6.34 1 5.68 1 5 C0.01 4.67 -0.98 4.34 -2 4 C-1.34 2.68 -0.68 1.36 0 0 Z " fill="#0779FF" transform="translate(205,163)"/>
<path d="M0 0 C0.99 0 1.98 0 3 0 C3 0.66 3 1.32 3 2 C4.32 2.33 5.64 2.66 7 3 C5 5 5 5 2.8359375 5.1953125 C1.61777344 5.16050781 1.61777344 5.16050781 0.375 5.125 C-0.44226563 5.10695313 -1.25953125 5.08890625 -2.1015625 5.0703125 C-2.72804687 5.04710937 -3.35453125 5.02390625 -4 5 C-3.01 4.67 -2.02 4.34 -1 4 C-0.26676204 1.98491642 -0.26676204 1.98491642 0 0 Z " fill="#1471F2" transform="translate(198,282)"/>
<path d="M0 0 C0.33 0 0.66 0 1 0 C1.66 4.29 2.32 8.58 3 13 C1.68 12.67 0.36 12.34 -1 12 C-1.14285714 3.42857143 -1.14285714 3.42857143 0 0 Z " fill="#2172F5" transform="translate(232,230)"/>
<path d="M0 0 C0.99 0.33 1.98 0.66 3 1 C3 2.32 3 3.64 3 5 C3.66 5 4.32 5 5 5 C5.99 7.97 6.98 10.94 8 14 C7.01 13.01 6.02 12.02 5 11 C5 10.34 5 9.68 5 9 C4.01 9 3.02 9 2 9 C1.34 6.03 0.68 3.06 0 0 Z " fill="#2273F9" transform="translate(244,194)"/>
<path d="M0 0 C2.98941468 1.49470734 3.53778532 4.07557063 5 7 C5.66 7.33 6.32 7.66 7 8 C6.67 9.65 6.34 11.3 6 13 C1.76143083 8.95409306 0.65850654 5.81680776 0 0 Z " fill="#1D74F3" transform="translate(333,268)"/>
<path d="M0 0 C1.9375 0.375 1.9375 0.375 4 1 C4.33 1.66 4.66 2.32 5 3 C3.43883181 3.33951619 1.87598662 3.67132544 0.3125 4 C-0.99267578 4.2784375 -0.99267578 4.2784375 -2.32421875 4.5625 C-4.93712964 4.98972047 -7.35813038 5.07616201 -10 5 C-9.67 4.34 -9.34 3.68 -9 3 C-6.93359375 2.5859375 -6.93359375 2.5859375 -4.4375 2.375 C-3.61121094 2.30023438 -2.78492188 2.22546875 -1.93359375 2.1484375 C-0.97646484 2.07496094 -0.97646484 2.07496094 0 2 C0 1.34 0 0.68 0 0 Z " fill="#2176EE" transform="translate(442,155)"/>
<path d="M0 0 C0 3.10551666 -0.5393715 4.35261084 -2 7 C-2.66 7 -3.32 7 -4 7 C-4 7.66 -4 8.32 -4 9 C-4.99 9.33 -5.98 9.66 -7 10 C-5.76075855 5.04303419 -4.21422242 2.88341534 0 0 Z " fill="#165BF8" transform="translate(124,169)"/>
<path d="M0 0 C2.97 0 5.94 0 9 0 C9 0.99 9 1.98 9 3 C7.88625 2.9071875 7.88625 2.9071875 6.75 2.8125 C3.54616994 3.03094296 2.35968744 3.90250005 0 6 C0 4.02 0 2.04 0 0 Z " fill="#087DFE" transform="translate(271,304)"/>
<path d="M0 0 C1.9375 1.3125 1.9375 1.3125 4 4 C4.6575225 7.65582511 4.87210648 11.29108788 5 15 C3 14 3 14 2.1484375 11.85546875 C1.89320313 10.97503906 1.63796875 10.09460938 1.375 9.1875 C1.11460937 8.31480469 0.85421875 7.44210938 0.5859375 6.54296875 C0 4 0 4 0 0 Z " fill="#2374EF" transform="translate(295,186)"/>
<path d="M0 0 C0.33 0 0.66 0 1 0 C0.54177532 3.46941546 0.10868317 6.67395049 -1 10 C-2.65 10.33 -4.3 10.66 -6 11 C-5.67 9.35 -5.34 7.7 -5 6 C-4.01 6 -3.02 6 -2 6 C-1.34 4.02 -0.68 2.04 0 0 Z " fill="#1C72ED" transform="translate(356,354)"/>
<path d="M0 0 C0.66 0 1.32 0 2 0 C1.6875 1.9375 1.6875 1.9375 1 4 C0.01 4.33 -0.98 4.66 -2 5 C-2 6.65 -2 8.3 -2 10 C-2.99 10.33 -3.98 10.66 -5 11 C-4.46968862 6.4923533 -2.74778884 3.58045212 0 0 Z " fill="#1661F9" transform="translate(212,341)"/>
<path d="M0 0 C0.33 0.66 0.66 1.32 1 2 C0.071875 2.433125 -0.85625 2.86625 -1.8125 3.3125 C-4.47184073 4.72038627 -6.08105905 5.76123556 -8 8 C-8.66 7.67 -9.32 7.34 -10 7 C-9.3125 4.5625 -9.3125 4.5625 -8 2 C-5.5625 1.25 -5.5625 1.25 -3 1 C-2.01 0.67 -1.02 0.34 0 0 Z " fill="#1777ED" transform="translate(223,337)"/>
<path d="M0 0 C0.66 0.33 1.32 0.66 2 1 C2.625 3.5625 2.625 3.5625 3 6 C1.35 7.32 -0.3 8.64 -2 10 C-2.66 9.67 -3.32 9.34 -4 9 C-2.68 6.03 -1.36 3.06 0 0 Z " fill="#1563FD" transform="translate(330,236)"/>
<path d="M0 0 C3.21880117 3.7935871 5.6163187 7.65829477 8 12 C6.25 11.9375 6.25 11.9375 4 11 C1.13940656 7.32761653 0 4.70446134 0 0 Z " fill="#1463FE" transform="translate(258,192)"/>
<path d="M0 0 C1.9375 1.3125 1.9375 1.3125 4 4 C4.6575225 7.65582511 4.87210648 11.29108788 5 15 C4.34 15 3.68 15 3 15 C2.87625 13.865625 2.7525 12.73125 2.625 11.5625 C2.41875 10.386875 2.2125 9.21125 2 8 C1.34 7.67 0.68 7.34 0 7 C0 4.69 0 2.38 0 0 Z " fill="#2175ED" transform="translate(290,169)"/>
<path d="M0 0 C-1.485 1.485 -1.485 1.485 -3 3 C-3 2.34 -3 1.68 -3 1 C-3.495 1.33 -3.99 1.66 -4.5 2 C-8.09090894 3.43636358 -11.14456127 3.12851462 -15 3 C-15 2.67 -15 2.34 -15 2 C-13.25364835 1.46706165 -11.50272348 0.94909337 -9.75 0.4375 C-8.77546875 0.14746094 -7.8009375 -0.14257812 -6.796875 -0.44140625 C-4.03756068 -0.99249836 -2.6087176 -0.93789609 0 0 Z " fill="#2778FA" transform="translate(327,146)"/>
<path d="M0 0 C1.65 0.33 3.3 0.66 5 1 C4.67 2.32 4.34 3.64 4 5 C2.02 5 0.04 5 -2 5 C-1.34 3.35 -0.68 1.7 0 0 Z " fill="#1078FE" transform="translate(427,139)"/>
<path d="M0 0 C0.99 0.33 1.98 0.66 3 1 C2.91291331 2.45945288 2.80473093 3.91765868 2.6875 5.375 C2.62949219 6.18710938 2.57148438 6.99921875 2.51171875 7.8359375 C2 10 2 10 -1 12 C-0.67 8.04 -0.34 4.08 0 0 Z " fill="#1B75F6" transform="translate(274,84)"/>
<path d="M0 0 C0.99 0.33 1.98 0.66 3 1 C1.68 2.65 0.36 4.3 -1 6 C-2.65 5.67 -4.3 5.34 -6 5 C-5.67 4.34 -5.34 3.68 -5 3 C-4.34 3 -3.68 3 -3 3 C-2.67 2.34 -2.34 1.68 -2 1 C-1.34 0.67 -0.68 0.34 0 0 Z " fill="#1A65FC" transform="translate(363,367)"/>
<path d="M0 0 C3.60654039 2.40436026 3.85452932 3.94679607 5 8 C5.66 8 6.32 8 7 8 C7 8.66 7 9.32 7 10 C6.01 10.33 5.02 10.66 4 11 C2.03698408 7.49461443 1.04097612 3.86648272 0 0 Z " fill="#2074F9" transform="translate(322,362)"/>
<path d="M0 0 C2.475 0.495 2.475 0.495 5 1 C5 3.31 5 5.62 5 8 C4.01 8.495 4.01 8.495 3 9 C2.01 6.03 1.02 3.06 0 0 Z " fill="#1566FF" transform="translate(321,273)"/>
<path d="M0 0 C1.48285242 0.95262034 2.96118201 1.91228405 4.4375 2.875 C5.67306641 3.67550781 5.67306641 3.67550781 6.93359375 4.4921875 C9 6 9 6 10 8 C5.61999924 7.49942848 3.15830185 6.06806466 0 3 C0 2.01 0 1.02 0 0 Z " fill="#1563FE" transform="translate(198,264)"/>
<path d="M0 0 C3.99455527 0.61454696 6.74466336 2.70646737 10 5 C9.67 5.66 9.34 6.32 9 7 C6.0625 6.1875 6.0625 6.1875 3 5 C2.67 4.01 2.34 3.02 2 2 C1.34 1.34 0.68 0.68 0 0 Z " fill="#216FF4" transform="translate(263,148)"/>
<path d="M0 0 C5.66106254 2.33826496 5.66106254 2.33826496 7.3125 5.5625 C7.539375 6.366875 7.76625 7.17125 8 8 C8.33 8.66 8.66 9.32 9 10 C4.71095765 8.4114658 2.67654474 5.56872632 0 2 C0 1.34 0 0.68 0 0 Z " fill="#2475F4" transform="translate(192,260)"/>
<path d="M0 0 C0.99 0 1.98 0 3 0 C3.33 3.3 3.66 6.6 4 10 C2 8.375 2 8.375 0 6 C-0.25 2.75 -0.25 2.75 0 0 Z " fill="#166EEF" transform="translate(260,104)"/>
<path d="M0 0 C1.65 0 3.3 0 5 0 C5.33 1.65 5.66 3.3 6 5 C3.69 4.67 1.38 4.34 -1 4 C-0.67 2.68 -0.34 1.36 0 0 Z " fill="#2E76E5" transform="translate(463,65)"/>
<path d="M0 0 C3.82097239 0.53069061 6.06171403 1.49701566 9 4 C7 5 7 5 5.0546875 4.44140625 C4.33539063 4.15136719 3.61609375 3.86132812 2.875 3.5625 C2.15054688 3.27503906 1.42609375 2.98757812 0.6796875 2.69140625 C-0.15175781 2.34916016 -0.15175781 2.34916016 -1 2 C-0.67 1.34 -0.34 0.68 0 0 Z " fill="#1564FE" transform="translate(240,250)"/>
<path d="M0 0 C3.16115776 1.36983503 3.9927092 1.9890638 6 5 C3.50907189 6.24546405 2.58919267 5.7767578 0 5 C-0.5625 3.0625 -0.5625 3.0625 -1 1 C-0.67 0.67 -0.34 0.34 0 0 Z " fill="#2076F9" transform="translate(334,222)"/>
<path d="M0 0 C0.99 0 1.98 0 3 0 C3.33 1.98 3.66 3.96 4 6 C3.01 6.495 3.01 6.495 2 7 C0.4375 5.75 0.4375 5.75 -1 4 C-0.6875 1.8125 -0.6875 1.8125 0 0 Z " fill="#077DFF" transform="translate(279,150)"/>
<path d="M0 0 C0.99 0.33 1.98 0.66 3 1 C3 2.32 3 3.64 3 5 C2.01 5 1.02 5 0 5 C-0.66 6.32 -1.32 7.64 -2 9 C-2.33 8.34 -2.66 7.68 -3 7 C-2.06421005 4.64018187 -1.06652192 2.30368736 0 0 Z " fill="#266EF7" transform="translate(438,114)"/>
<path d="M0 0 C0.66 0.33 1.32 0.66 2 1 C1.34 2.65 0.68 4.3 0 6 C-0.66 5.67 -1.32 5.34 -2 5 C-2 4.34 -2 3.68 -2 3 C-4.64 3 -7.28 3 -10 3 C-6.54153783 0.69435855 -5.0333286 0.91231894 -1 1 C-0.67 0.67 -0.34 0.34 0 0 Z " fill="#135BFF" transform="translate(440,109)"/>
<path d="M0 0 C0.66 0.33 1.32 0.66 2 1 C-3.14285714 6.57142857 -3.14285714 6.57142857 -7 7 C-5.55609075 3.19333016 -3.65047197 1.73397418 0 0 Z " fill="#2076F8" transform="translate(447,83)"/>
<path d="M0 0 C0.99 0.33 1.98 0.66 3 1 C3.33 2.65 3.66 4.3 4 6 C1 6 1 6 -0.6875 4.625 C-2 3 -2 3 -2 1 C-1.34 0.67 -0.68 0.34 0 0 Z " fill="#1366FE" transform="translate(331,73)"/>
<path d="M0 0 C0.66 0 1.32 0 2 0 C1.52797514 4.24822374 -0.96655518 6.19989709 -4 9 C-4.66 8.67 -5.32 8.34 -6 8 C-2.25 2.25 -2.25 2.25 0 0 Z " fill="#1760FD" transform="translate(237,216)"/>
<path d="M0 0 C0.66 0 1.32 0 2 0 C3.65 2.97 5.3 5.94 7 9 C6.01 9 5.02 9 4 9 C0 2.25 0 2.25 0 0 Z " fill="#1660FD" transform="translate(266,206)"/>
<path d="M0 0 C0.66 1.32 1.32 2.64 2 4 C-0.76264289 4.59732819 -3.16032769 5 -6 5 C-6 4.34 -6 3.68 -6 3 C-4.02 2.01 -2.04 1.02 0 0 Z " fill="#1563FE" transform="translate(415,179)"/>
<path d="M0 0 C2.97 0.495 2.97 0.495 6 1 C6 2.98 6 4.96 6 7 C5.01 7 4.02 7 3 7 C3 5.35 3 3.7 3 2 C2.01 1.67 1.02 1.34 0 1 C0 0.67 0 0.34 0 0 Z " fill="#2778EF" transform="translate(413,102)"/>
<path d="M0 0 C2.875 -0.125 2.875 -0.125 6 0 C6.66 0.66 7.32 1.32 8 2 C4.98509443 3.00496852 2.95818308 3.10335303 -0.1875 3.0625 C-1.53908203 3.04896484 -1.53908203 3.04896484 -2.91796875 3.03515625 C-3.60503906 3.02355469 -4.29210937 3.01195312 -5 3 C-5 2.67 -5 2.34 -5 2 C-3.35 1.67 -1.7 1.34 0 1 C0 0.67 0 0.34 0 0 Z " fill="#1A70EA" transform="translate(235,334)"/>
<path d="M0 0 C0.66 0 1.32 0 2 0 C1.67 1.32 1.34 2.64 1 4 C0.34 4 -0.32 4 -1 4 C-1 4.66 -1 5.32 -1 6 C-2.65 5.67 -4.3 5.34 -6 5 C-5.195625 4.360625 -4.39125 3.72125 -3.5625 3.0625 C-1.7249496 1.59396498 -1.7249496 1.59396498 0 0 Z " fill="#206FF6" transform="translate(331,242)"/>
<path d="M0 0 C0 0.66 0 1.32 0 2 C0.66 2.33 1.32 2.66 2 3 C-1.63 2.67 -5.26 2.34 -9 2 C-5.5647952 -0.29013653 -4.014669 -0.17842973 0 0 Z " fill="#187BF9" transform="translate(429,192)"/>
<path d="M0 0 C5.41538462 -0.36923077 5.41538462 -0.36923077 8.375 1.5 C8.91125 1.995 9.4475 2.49 10 3 C7.69 3.33 5.38 3.66 3 4 C2.01 2.68 1.02 1.36 0 0 Z " fill="#2576FB" transform="translate(293,146)"/>
<path d="M0 0 C0.66 0 1.32 0 2 0 C1.40312566 3.34249629 0.26396123 5.46436342 -2 8 C-2.66 8 -3.32 8 -4 8 C-3.40312566 4.65750371 -2.26396123 2.53563658 0 0 Z " fill="#1666FE" transform="translate(400,132)"/>
<path d="M0 0 C1.98 0.495 1.98 0.495 4 1 C3.67 2.32 3.34 3.64 3 5 C1.68 4.67 0.36 4.34 -1 4 C-0.67 2.68 -0.34 1.36 0 0 Z " fill="#1E73FF" transform="translate(438,100)"/>
<path d="M0 0 C0.99 0 1.98 0 3 0 C3.99 2.97 4.98 5.94 6 9 C3 8 3 8 2.05078125 6.15234375 C1.80714844 5.42144531 1.56351562 4.69054687 1.3125 3.9375 C1.06113281 3.20402344 0.80976563 2.47054687 0.55078125 1.71484375 C0.36902344 1.14894531 0.18726563 0.58304687 0 0 Z " fill="#1563FF" transform="translate(350,79)"/>
<path d="M0 0 C3.7952131 1.49097658 5.61042731 3.75700849 8 7 C5 7 5 7 2.3125 4.625 C0 2 0 2 0 0 Z " fill="#104DFE" transform="translate(339,64)"/>
<path d="M0 0 C0.66 0.33 1.32 0.66 2 1 C1.67 2.65 1.34 4.3 1 6 C-0.32 6 -1.64 6 -3 6 C-3 4.68 -3 3.36 -3 2 C-2.01 1.34 -1.02 0.68 0 0 Z " fill="#247CF6" transform="translate(396,191)"/>
<path d="M0 0 C1.5 1.3125 1.5 1.3125 3 3 C3 3.99 3 4.98 3 6 C0.03 5.505 0.03 5.505 -3 5 C-2.67 4.01 -2.34 3.02 -2 2 C-1.34 2 -0.68 2 0 2 C0 1.34 0 0.68 0 0 Z " fill="#2279FA" transform="translate(244,144)"/>
<path d="M0 0 C0.66 0 1.32 0 2 0 C3.80619523 4.46236469 4.11658501 7.31034294 3 12 C2.67 12 2.34 12 2 12 C1.34 8.04 0.68 4.08 0 0 Z " fill="#2065FD" transform="translate(340,89)"/>
<path d="M0 0 C1.9375 0.625 1.9375 0.625 4 2 C4.75 5.125 4.75 5.125 5 8 C2.5 5.6875 2.5 5.6875 0 3 C0 2.01 0 1.02 0 0 Z " fill="#1C73E5" transform="translate(295,283)"/>
<path d="M0 0 C0.99 0 1.98 0 3 0 C4.125 3.75 4.125 3.75 3 6 C1.68 5.34 0.36 4.68 -1 4 C-0.67 2.68 -0.34 1.36 0 0 Z " fill="#1F77FB" transform="translate(169,280)"/>
<path d="M0 0 C3.77545388 1.09068668 6.47043472 1.9083091 9 5 C6.36 4.67 3.72 4.34 1 4 C0.67 2.68 0.34 1.36 0 0 Z " fill="#1E7CFC" transform="translate(299,217)"/>
<path d="M0 0 C2.31 0.33 4.62 0.66 7 1 C7.33 2.32 7.66 3.64 8 5 C4.20411134 4.45773019 2.52788007 2.79872437 0 0 Z " fill="#1B75F2" transform="translate(313,212)"/>
<path d="M0 0 C1.65 0 3.3 0 5 0 C5.33 2.31 5.66 4.62 6 7 C5.34 7 4.68 7 4 7 C2.02 3.535 2.02 3.535 0 0 Z " fill="#1562FE" transform="translate(240,193)"/>
<path d="M0 0 C0.33 0 0.66 0 1 0 C0.67 2.31 0.34 4.62 0 7 C-0.99 7 -1.98 7 -3 7 C-3.66 6.01 -4.32 5.02 -5 4 C-3.68 4 -2.36 4 -1 4 C-0.67 2.68 -0.34 1.36 0 0 Z " fill="#0F61F4" transform="translate(476,153)"/>
<path d="M0 0 C-1.07401108 2.91517292 -1.77810176 4.77810176 -4 7 C-4.66 5.68 -5.32 4.36 -6 3 C-2.25 0 -2.25 0 0 0 Z " fill="#1966FD" transform="translate(411,120)"/>
<path d="M0 0 C1 2 1 2 0.44140625 3.9453125 C0.15136719 4.66460937 -0.13867188 5.38390625 -0.4375 6.125 C-0.72496094 6.84945312 -1.01242187 7.57390625 -1.30859375 8.3203125 C-1.53675781 8.87460938 -1.76492188 9.42890625 -2 10 C-2.99 9.34 -3.98 8.68 -5 8 C-3.35 5.36 -1.7 2.72 0 0 Z " fill="#145CF9" transform="translate(437,114)"/>
<path d="M0 0 C0.99 0.33 1.98 0.66 3 1 C3 2.32 3 3.64 3 5 C1.68 5 0.36 5 -1 5 C-1.33 3.68 -1.66 2.36 -2 1 C-1.34 0.67 -0.68 0.34 0 0 Z " fill="#2177ED" transform="translate(465,105)"/>
<path d="M0 0 C0 4.38968456 -2.12805101 5.76905739 -5 9 C-5 5.74188938 -4.4477922 3.89558441 -3 1 C-2.01 0.67 -1.02 0.34 0 0 Z " fill="#2071F4" transform="translate(275,68)"/>
<path d="M0 0 C0.66 0.99 1.32 1.98 2 3 C1.125 6.6875 1.125 6.6875 0 10 C-0.33 10 -0.66 10 -1 10 C-1.02689216 8.52093108 -1.04634621 7.04172517 -1.0625 5.5625 C-1.07410156 4.73878906 -1.08570313 3.91507812 -1.09765625 3.06640625 C-1 1 -1 1 0 0 Z " fill="#1F6FFE" transform="translate(210,353)"/>
<path d="M0 0 C1.32 0.33 2.64 0.66 4 1 C4.33 3.64 4.66 6.28 5 9 C2.67527795 6.14693203 1.2491742 3.45925163 0 0 Z " fill="#145BFE" transform="translate(314,351)"/>
<path d="M0 0 C1.875 0.25 1.875 0.25 4 1 C5.25 3.0625 5.25 3.0625 6 5 C5.34 5 4.68 5 4 5 C3.67 5.66 3.34 6.32 3 7 C2.01 4.69 1.02 2.38 0 0 Z " fill="#1667FE" transform="translate(328,290)"/>
<path d="M0 0 C0.99 0.33 1.98 0.66 3 1 C3 2.98 3 4.96 3 7 C2.34 7 1.68 7 1 7 C0.67 4.69 0.34 2.38 0 0 Z " fill="#077FFE" transform="translate(290,291)"/>
<path d="M0 0 C0.66 0 1.32 0 2 0 C2.66 2.64 3.32 5.28 4 8 C2.68 7.67 1.36 7.34 0 7 C0 4.69 0 2.38 0 0 Z " fill="#1068FD" transform="translate(244,231)"/>
<path d="M0 0 C2.31 0 4.62 0 7 0 C4.60490662 2.89932357 2.68754757 3.50168276 -1 4 C-0.67 2.68 -0.34 1.36 0 0 Z " fill="#2079FB" transform="translate(407,183)"/>
<path d="M0 0 C2.625 -0.1875 2.625 -0.1875 5 0 C5 0.99 5 1.98 5 3 C2.69 3 0.38 3 -2 3 C-1.34 2.01 -0.68 1.02 0 0 Z " fill="#1F79FB" transform="translate(159,168)"/>
<path d="M0 0 C0.99 0.33 1.98 0.66 3 1 C4.1875 3.5625 4.1875 3.5625 5 6 C4.34 6 3.68 6 3 6 C2.67 6.99 2.34 7.98 2 9 C1.34 6.03 0.68 3.06 0 0 Z " fill="#1061FC" transform="translate(260,110)"/>
<path d="M0 0 C0.33 1.32 0.66 2.64 1 4 C2.32 3.67 3.64 3.34 5 3 C5 3.99 5 4.98 5 6 C3.02 6 1.04 6 -1 6 C-0.67 4.02 -0.34 2.04 0 0 Z " fill="#2273F0" transform="translate(380,105)"/>
<path d="M0 0 C0.33 0.66 0.66 1.32 1 2 C1.99 2 2.98 2 4 2 C4 4.31 4 6.62 4 9 C1.18167487 7.59083743 0.97406539 5.92219617 0 3 C0 2.01 0 1.02 0 0 Z " fill="#1A77F2" transform="translate(325,344)"/>
<path d="M0 0 C0.99 0 1.98 0 3 0 C3.66 1.98 4.32 3.96 5 6 C4.01 6 3.02 6 2 6 C1.34 4.02 0.68 2.04 0 0 Z " fill="#0F63FD" transform="translate(358,327)"/>
<path d="M0 0 C-0.33 0.99 -0.66 1.98 -1 3 C-1.66 3 -2.32 3 -3 3 C-3 3.99 -3 4.98 -3 6 C-4.32 5.67 -5.64 5.34 -7 5 C-2.25 0 -2.25 0 0 0 Z " fill="#1048FE" transform="translate(261,322)"/>
<path d="M0 0 C0 0.99 0 1.98 0 3 C-1.98 3 -3.96 3 -6 3 C-6.33 2.34 -6.66 1.68 -7 1 C-4 0 -4 0 0 0 Z " fill="#1D7FFF" transform="translate(197,295)"/>
<path d="M0 0 C2.475 0.495 2.475 0.495 5 1 C4.67 2.32 4.34 3.64 4 5 C2 3.625 2 3.625 0 2 C0 1.34 0 0.68 0 0 Z " fill="#1169FE" transform="translate(186,272)"/>
<path d="M0 0 C0.33 0.66 0.66 1.32 1 2 C-2.75 5 -2.75 5 -5 5 C-5.33 4.01 -5.66 3.02 -6 2 C-4.02 1.34 -2.04 0.68 0 0 Z " fill="#1F72E5" transform="translate(244,213)"/>
<path d="M0 0 C0.66 0.33 1.32 0.66 2 1 C1.34 3.31 0.68 5.62 0 8 C-0.66 8 -1.32 8 -2 8 C-1.125 2.25 -1.125 2.25 0 0 Z " fill="#1761FE" transform="translate(184,188)"/>
<path d="M0 0 C0.99 0.33 1.98 0.66 3 1 C3.33 2.98 3.66 4.96 4 7 C3.34 7 2.68 7 2 7 C1.34 4.69 0.68 2.38 0 0 Z " fill="#1763FE" transform="translate(280,181)"/>
<path d="M0 0 C2.29633824 3.44450737 2.54016485 5.93812283 3 10 C2.01 10 1.02 10 0 10 C0 6.7 0 3.4 0 0 Z " fill="#1E78ED" transform="translate(280,171)"/>
<path d="M0 0 C1.125 3.75 1.125 3.75 0 6 C-2.5625 6.625 -2.5625 6.625 -5 7 C-4.67 6.01 -4.34 5.02 -4 4 C-3.34 4 -2.68 4 -2 4 C-1.34 2.68 -0.68 1.36 0 0 Z " fill="#2373F9" transform="translate(212,168)"/>
<path d="M0 0 C0.66 0 1.32 0 2 0 C1.67 1.65 1.34 3.3 1 5 C-0.32 5.33 -1.64 5.66 -3 6 C-2.01 4.02 -1.02 2.04 0 0 Z " fill="#1566FF" transform="translate(214,166)"/>
<path d="M0 0 C2.475 0.495 2.475 0.495 5 1 C4.67 2.32 4.34 3.64 4 5 C2.68 4.34 1.36 3.68 0 3 C0 2.01 0 1.02 0 0 Z " fill="#2574FD" transform="translate(263,118)"/>
<path d="M0 0 C0.33 0.99 0.66 1.98 1 3 C-0.4375 5.1875 -0.4375 5.1875 -2 7 C-2.33 5.35 -2.66 3.7 -3 2 C-2.01 1.34 -1.02 0.68 0 0 Z " fill="#1E73F3" transform="translate(393,117)"/>
<path d="M0 0 C0.66 0 1.32 0 2 0 C2.33 1.98 2.66 3.96 3 6 C2.01 6.33 1.02 6.66 0 7 C0 4.69 0 2.38 0 0 Z " fill="#087AFF" transform="translate(264,108)"/>
<path d="M0 0 C2.31 0.33 4.62 0.66 7 1 C5.625 3 5.625 3 4 5 C3.34 5 2.68 5 2 5 C2 4.34 2 3.68 2 3 C1.34 3 0.68 3 0 3 C0 2.01 0 1.02 0 0 Z " fill="#1A66FE" transform="translate(455,102)"/>
<path d="M0 0 C2 3 2 3 1.625 5.6875 C1.41875 6.450625 1.2125 7.21375 1 8 C0.34 7.67 -0.32 7.34 -1 7 C-1.04254356 5.00045254 -1.04080783 2.99958364 -1 1 C-0.67 0.67 -0.34 0.34 0 0 Z " fill="#2466FE" transform="translate(406,87)"/>
<path d="M0 0 C0.33 0 0.66 0 1 0 C1 1.98 1 3.96 1 6 C-0.32 5.67 -1.64 5.34 -3 5 C-1.125 1.125 -1.125 1.125 0 0 Z " fill="#057CFE" transform="translate(410,68)"/>
</svg>
