<?xml version="1.0" encoding="UTF-8"?>
<svg version="1.1" xmlns="http://www.w3.org/2000/svg" width="1500" height="1500">
<path d="M0 0 C1.54445801 0.43022461 1.54445801 0.43022461 3.12011719 0.86914062 C38.0973951 10.76057638 72.13790006 24.5278381 104 42 C105.331521 42.72461426 105.331521 42.72461426 106.68994141 43.46386719 C136.9746985 60.0039631 165.37596935 79.57274417 191.55322266 102.05541992 C193.73024767 103.92116254 195.91909642 105.77056527 198.1237793 107.60351562 C206.93004713 114.96943319 215.14276307 122.83234256 223.23364258 130.97290039 C225.32085192 133.07089508 227.4186359 135.15789115 229.51757812 137.24414062 C236.08299178 143.80340122 242.42326653 150.36227196 248.14941406 157.67797852 C250.1443469 160.18111918 252.26319478 162.52686041 254.4375 164.875 C259.67212235 170.63580623 264.34388913 176.77372363 269 183 C269.42506836 183.56283691 269.85013672 184.12567383 270.28808594 184.70556641 C281.7116954 199.84679144 292.35829127 215.6647204 302 232 C302.41894531 232.70398926 302.83789062 233.40797852 303.26953125 234.13330078 C350.05097004 313.05227024 374.30363503 403.53412917 374.1875 495.1875 C374.18656342 496.15042969 374.18562683 497.11335937 374.18466187 498.10546875 C374.01197163 580.53400794 353.85679991 659.46537098 317 733 C316.5477002 733.90717773 316.09540039 734.81435547 315.62939453 735.74902344 C298.88053834 769.14209635 277.26164303 800.24013734 252.94458008 828.55322266 C251.07883746 830.73024767 249.22943473 832.91909642 247.39648438 835.1237793 C240.03056681 843.93004713 232.16765744 852.14276307 224.02709961 860.23364258 C221.92910492 862.32085192 219.84210885 864.4186359 217.75585938 866.51757812 C211.19659878 873.08299178 204.63772804 879.42326653 197.32202148 885.14941406 C194.81888137 887.14434646 192.47322685 889.26328996 190.125 891.4375 C184.95967075 896.12590527 179.50781598 900.38166536 173.92675781 904.55761719 C172.57720785 905.56789863 171.2304293 906.58188787 169.88574219 907.59863281 C144.17461109 927.02507014 116.77655384 943.52838869 88 958 C87.02756348 958.4935498 86.05512695 958.98709961 85.05322266 959.49560547 C50.74192789 976.82323222 14.33747962 989.04474912 -23 998 C-23.98806641 998.23702637 -24.97613281 998.47405273 -25.99414062 998.71826172 C-50.68703381 1004.55014698 -75.74098722 1007.81259205 -101 1010 C-102.11044678 1010.09716309 -103.22089355 1010.19432617 -104.36499023 1010.29443359 C-116.12809672 1011.20387218 -127.89478542 1011.24245664 -139.6875 1011.25 C-141.33398529 1011.25151062 -141.33398529 1011.25151062 -143.01373291 1011.25305176 C-225.50254645 1011.20219091 -304.38338277 990.71453651 -378 954 C-379.36729248 953.319375 -379.36729248 953.319375 -380.76220703 952.625 C-407.12593928 939.39922016 -431.65841609 922.96763355 -455 905 C-455.62277832 904.52288574 -456.24555664 904.04577148 -456.88720703 903.55419922 C-463.644931 898.36614799 -470.19232818 893.07070629 -476.45117188 887.28100586 C-478.82124726 885.15997001 -481.2562877 883.20739123 -483.76171875 881.25 C-491.11835488 875.25661569 -497.74995681 868.54977146 -504.43457031 861.82617188 C-506.62084876 859.6291716 -508.81761938 857.44307322 -511.015625 855.2578125 C-517.76175707 848.51769388 -524.31588469 841.79757835 -530.19189453 834.2734375 C-532.10791936 831.86430664 -534.14690763 829.62163436 -536.25 827.375 C-555.93210355 805.71101797 -572.3527096 780.26800945 -587 755 C-587.37946777 754.34547852 -587.75893555 753.69095703 -588.14990234 753.01660156 C-633.01889409 675.06955478 -656.18449626 586.61234817 -656.25 496.8125 C-656.25100708 495.84177551 -656.25201416 494.87105103 -656.25305176 493.87091064 C-656.23305167 465.0207893 -653.98510339 436.43176482 -649 408 C-648.71769531 406.37795654 -648.71769531 406.37795654 -648.4296875 404.72314453 C-632.76199313 316.13538928 -593.62089668 231.76267806 -534.94335938 163.44580078 C-533.08330041 161.27539176 -531.2400847 159.09289596 -529.4140625 156.89379883 C-521.91802735 147.92320167 -513.88784151 139.57820818 -505.59985352 131.33911133 C-503.42943439 129.17947446 -501.27000183 127.00926097 -499.11132812 124.83789062 C-491.70779 117.42731506 -484.24082165 110.47651449 -476 104 C-474.84713454 103.01750875 -473.70143476 102.02648192 -472.56640625 101.0234375 C-445.36666778 77.00849261 -414.3748676 57.31386442 -382.42138672 40.29882812 C-380.32192975 39.17268262 -378.23785475 38.02498113 -376.16015625 36.859375 C-325.36172469 8.74595731 -266.23955621 -7.24557549 -209 -15 C-207.77087891 -15.16935059 -206.54175781 -15.33870117 -205.27539062 -15.51318359 C-195.53447622 -16.81879952 -185.8122904 -17.60583402 -176 -18.125 C-174.84081055 -18.18753967 -174.84081055 -18.18753967 -173.65820312 -18.25134277 C-114.80842442 -21.36497647 -56.8282085 -15.90988021 0 0 Z M-199 4 C-200.93487086 4.21897075 -202.86976493 4.43773661 -204.8046875 4.65625 C-250.29500929 10.08166346 -295.0841277 22.58489091 -337 41 C-338.0012793 41.43892578 -339.00255859 41.87785156 -340.03417969 42.33007812 C-363.2159669 52.57766804 -385.66290185 64.30171987 -407 78 C-407.63373535 78.40637695 -408.2674707 78.81275391 -408.92041016 79.23144531 C-424.71996972 89.43079745 -439.79882733 100.55941532 -454.26464844 112.56884766 C-455.80160365 113.83638163 -457.35658166 115.08199207 -458.9140625 116.32421875 C-469.57858137 124.83381271 -479.40059833 134.3188516 -489 144 C-491.87472171 146.88387687 -494.76408909 149.75110907 -497.671875 152.6015625 C-504.51073783 159.33273328 -511.13092625 166.01521903 -517.06640625 173.56640625 C-518.94132603 175.92615377 -520.90561495 178.14998529 -522.9375 180.375 C-527.96637051 185.98793224 -532.4969158 191.96495492 -537 198 C-537.48065918 198.64018066 -537.96131836 199.28036133 -538.45654297 199.93994141 C-591.98845113 271.52955378 -624.53202097 356.9480523 -636.1875 495.1875 C-636.18656342 496.05572388 -636.18562683 496.92394775 -636.18466187 497.81848145 C-635.94786795 600.05279545 -603.64614371 699.11778475 -528 805 C-526.82244141 806.47146484 -526.82244141 806.47146484 -525.62109375 807.97265625 C-521.27133861 813.35122304 -516.77381347 818.55667694 -512.11328125 823.66796875 C-510.22623463 825.75034736 -508.38941767 827.86503064 -506.5625 830 C-502.28964759 834.91029426 -497.63343498 839.43360829 -493 844 C-490.11344387 846.87202649 -487.24893648 849.76415932 -484.3984375 852.671875 C-477.66726672 859.51073783 -470.98478097 866.13092625 -463.43359375 872.06640625 C-461.07384623 873.94132603 -458.85001471 875.90561495 -456.625 877.9375 C-451.01206776 882.96637051 -445.03504508 887.4969158 -439 892 C-438.35981934 892.48065918 -437.71963867 892.96131836 -437.06005859 893.45654297 C-382.95013073 933.91782769 -320.70749336 962.53636703 -255 978 C-254.01386719 978.23412598 -253.02773438 978.46825195 -252.01171875 978.70947266 C-215.97457156 987.17000102 -178.88757816 991.24217894 -141.875 991.1875 C-141.10508728 991.18689575 -140.33517456 991.1862915 -139.54193115 991.18566895 C-46.86222809 990.9909587 52.55648014 965.20572285 129.12011719 911.31152344 C131.28561594 909.80073651 133.4732449 908.32538525 135.6640625 906.8515625 C145.03367155 900.53381661 154.15233893 894.03181878 163 887 C164.24910156 886.02353516 164.24910156 886.02353516 165.5234375 885.02734375 C180.0772276 873.55858035 194.02408229 861.2270645 207 848 C209.79916008 845.18638643 212.61701636 842.39344633 215.453125 839.6171875 C222.03008548 833.15140876 228.32966756 826.70339961 234.04296875 819.453125 C235.86584879 817.1681576 237.76969261 815.02340801 239.75 812.875 C245.9565063 805.95566723 251.44695027 798.44476542 257 791 C257.82322754 789.89809326 257.82322754 789.89809326 258.66308594 788.77392578 C314.7007575 713.41809201 347.40796285 621.49342025 349.09008789 423.26782227 C335.44040946 331.45315069 295.94483932 243.25566787 211 148 C208.18638643 145.20083992 205.39344633 142.38298364 202.6171875 139.546875 C196.15140876 132.96991452 189.70339961 126.67033244 182.453125 120.95703125 C180.1681576 119.13415121 178.02340801 117.23030739 175.875 115.25 C168.95566723 109.0434937 161.44476542 103.55304973 154 98 C153.26539551 97.45118164 152.53079102 96.90236328 151.77392578 96.33691406 C78.02919788 41.49732654 -9.68641713 10.95469531 -100.70581055 2.31445312 C-102.7085843 2.12327454 -104.71044651 1.92166593 -106.71020508 1.70117188 C-117.66078282 0.5936646 -128.69306521 0.75783485 -139.6875 0.75 C-140.7954895 0.74866058 -141.903479 0.74732117 -143.04504395 0.74594116 C-161.87741697 0.75086399 -180.31354727 1.70450127 -199 4 Z " fill="#0079FA" transform="translate(891,254)"/>
<path d="M0 0 C3.87016035 3.39033623 7.39290977 6.48544725 8.6328125 11.62109375 C8.82447956 15.92082485 8.39285292 18.35834023 6.125 22.0625 C2.58020126 25.29452238 -0.37811085 25.69037736 -5.0859375 25.68359375 C-9.51757799 24.6439998 -12.26000399 21.83279752 -15.53222656 18.85620117 C-25.67512791 9.71685501 -38.97787271 8.616626 -52.125 8.6875 C-53.22593994 8.69313965 -54.32687988 8.6987793 -55.46118164 8.70458984 C-74.52684788 8.98679579 -98.73827125 13.48540168 -113.1796875 27.046875 C-120.59969451 35.23659228 -123.85182735 43.94632029 -124 55 C-123.39526432 64.78775902 -121.14246421 73.60073712 -118.0234375 82.83203125 C-117 86 -117 86 -117 88 C-116.12601563 87.51080078 -116.12601563 87.51080078 -115.234375 87.01171875 C-103.06415843 80.52476369 -91.07367532 77.92297736 -77.7109375 81.890625 C-70.23935063 84.94816199 -63.28242452 91.13340671 -59.84765625 98.45703125 C-52.61459117 116.03775528 -55.69835728 134.53797932 -62.5859375 151.8203125 C-64.50205838 156.12893792 -66.72395786 160.24829235 -69.05859375 164.34375 C-70.25990062 166.91341825 -70.25990062 166.91341825 -69.35424805 169.22900391 C-67.64716599 172.72195169 -65.511374 175.82752488 -63.2734375 178.9921875 C-62.27381363 180.42633949 -61.2748222 181.86093245 -60.27636719 183.29589844 C-59.74426636 184.05817749 -59.21216553 184.82045654 -58.66394043 185.60583496 C-53.88178425 192.48665288 -49.19425718 199.43313887 -44.49414062 206.37011719 C-43.25416531 208.19768791 -42.01167502 210.02355494 -40.76660156 211.84765625 C-32.14865731 224.47701051 -24.05518615 237.31099862 -16.41209412 250.55407715 C-14.57866835 253.72979889 -12.72744281 256.89502726 -10.87615967 260.06036377 C1.09269979 280.84961199 11.82853004 306.65218973 6.1875 331.03125 C2.46528801 342.92164942 -4.90347359 350.20273335 -15.32421875 356.625 C-31.02754797 364.69444801 -50.079709 360.46779444 -66.06445312 355.33740234 C-77.65393821 351.48408652 -88.79130974 346.53345463 -99.96682739 341.63851929 C-131.48295597 326.80927824 -131.48295597 326.80927824 -165.375 326.9375 C-175.87074003 331.98843008 -182.18333581 341.29184533 -186 352 C-205.80853728 416.04274884 -175.68712937 503.60676916 -145.4375 561.0625 C-143.54669838 564.61381089 -141.70218559 568.06852932 -139.27734375 571.28515625 C-137.19535194 574.08024617 -137.11811306 576.57472131 -137 580 C-138.71896397 585.15689191 -141.18340338 587.54448015 -146 590 C-149.71620804 590.61936801 -151.52762051 590.2211138 -154.9375 588.625 C-162.64109617 582.8934546 -167.03638435 572.61411973 -171.0625 564.1875 C-171.61123779 563.04095947 -172.15997559 561.89441895 -172.7253418 560.71313477 C-192.8236059 518.01732388 -206.12080793 471.62400018 -213 425 C-213.19698486 423.71391846 -213.19698486 423.71391846 -213.39794922 422.40185547 C-218.07156974 390.94504636 -218.23042874 351.93833065 -199 325 C-190.03783596 313.60407398 -178.83287983 304.08884083 -164 302 C-134.81679208 300.04389166 -110.3056721 310.8132375 -84.09194946 322.40634155 C-57.68917107 334.74814293 -57.68917107 334.74814293 -29.3125 336.3125 C-24.37504239 334.35614887 -21.09900457 331.83690765 -18.359375 327.2578125 C-13.24032026 314.98973304 -18.61432181 301.30847437 -23.31640625 289.76953125 C-24.78813216 286.46129268 -26.36773674 283.23216889 -28 280 C-28.3412793 279.31631348 -28.68255859 278.63262695 -29.03417969 277.92822266 C-33.60861952 268.80941162 -38.51742667 259.93904697 -43.90234375 251.2734375 C-44.45990356 250.37491058 -45.01746338 249.47638367 -45.59191895 248.55062866 C-52.14136186 238.07208676 -59.059235 227.84656261 -66 217.625 C-67.29592816 215.70857351 -68.59150218 213.79190749 -69.88671875 211.875 C-71.13250062 210.03364312 -72.37858287 208.19248943 -73.625 206.3515625 C-74.19275146 205.51299713 -74.76050293 204.67443176 -75.34545898 203.81045532 C-77.81182335 200.17878824 -80.2992195 196.57854185 -82.8984375 193.04052734 C-85 190 -85 190 -85 188 C-85.74443359 188.65355469 -85.74443359 188.65355469 -86.50390625 189.3203125 C-87.9326715 190.57285433 -89.36383396 191.82266488 -90.796875 193.0703125 C-92.10941113 194.21994521 -93.41447073 195.37834714 -94.703125 196.5546875 C-105.62091042 206.35949479 -120.06940163 214.29298002 -135 215 C-136.02867187 214.75507812 -137.05734375 214.51015625 -138.1171875 214.2578125 C-141.90778542 213.3760667 -144.20053462 213.04789867 -148 214 C-152.82711193 218.19667322 -156.02940013 224.06655989 -159.375 229.44384766 C-161.90661092 233.42611423 -164.70440043 237.2008411 -167.5 241 C-168.5834708 242.49765754 -169.66549879 243.99635991 -170.74609375 245.49609375 C-172.92329023 248.51092519 -175.10322917 251.52374694 -177.28515625 254.53515625 C-182.56580422 261.82747964 -187.8195134 269.1361012 -193 276.5 C-198.71791991 284.62784334 -204.52824095 292.68666044 -210.35888672 300.73388672 C-213.07648163 304.48644785 -215.78801939 308.24338045 -218.5 312 C-221.75869057 316.51391895 -225.0186666 321.02687665 -228.28515625 325.53515625 C-233.56580422 332.82747964 -238.8195134 340.1361012 -244 347.5 C-249.71791991 355.62784334 -255.52824095 363.68666044 -261.35888672 371.73388672 C-264.07648163 375.48644785 -266.78801939 379.24338045 -269.5 383 C-272.75869057 387.51391895 -276.0186666 392.02687665 -279.28515625 396.53515625 C-284.56580422 403.82747964 -289.8195134 411.1361012 -295 418.5 C-300.71791991 426.62784334 -306.52824095 434.68666044 -312.35888672 442.73388672 C-315.07648169 446.48644794 -317.78797486 450.2434125 -320.5 454 C-323.78388543 458.54779486 -327.06845048 463.09509379 -330.35546875 467.640625 C-335.65621811 474.97250262 -340.94678705 482.31094636 -346.1965332 489.67944336 C-349.5674928 494.40635742 -352.97022626 499.10990663 -356.375 503.8125 C-360.62242981 509.68131403 -364.83239752 515.57424407 -369 521.5 C-374.7147738 529.62362015 -380.52234567 537.67788582 -386.35009766 545.72070312 C-388.01084677 548.01498452 -389.6681125 550.31174037 -391.32421875 552.609375 C-398.17065538 562.10666316 -405.06017103 571.57073338 -412 581 C-416.00251102 578.76829688 -419.80348663 576.5552033 -423.4375 573.75 C-424.45650391 572.96882813 -424.45650391 572.96882813 -425.49609375 572.171875 C-425.99238281 571.78515625 -426.48867188 571.3984375 -427 571 C-426.57202941 565.78473045 -423.81133081 562.70669029 -420.6875 558.75 C-419.58384138 557.31671578 -418.48234229 555.88176655 -417.3828125 554.4453125 C-416.81852539 553.70958008 -416.25423828 552.97384766 -415.67285156 552.21582031 C-413.05192464 548.74420141 -410.55431311 545.18989635 -408.0625 541.625 C-403.93752588 535.73999192 -399.77550063 529.88486939 -395.5625 524.0625 C-395.02318848 523.31701904 -394.48387695 522.57153809 -393.92822266 521.8034668 C-391.73812663 518.77797668 -389.54627414 515.75376105 -387.35449219 512.72949219 C-381.52537139 504.68371227 -375.71672884 496.62615028 -370 488.5 C-364.28629949 480.37815439 -358.48052528 472.32506432 -352.65429688 464.28369141 C-349.87081798 460.44120888 -347.09125401 456.5959003 -344.3125 452.75 C-343.76859619 451.99726807 -343.22469238 451.24453613 -342.66430664 450.46899414 C-339.02698958 445.43156592 -335.40877094 440.38092946 -331.8034668 435.32055664 C-328.4325072 430.59364258 -325.02977374 425.89009337 -321.625 421.1875 C-317.37757019 415.31868597 -313.16760248 409.42575593 -309 403.5 C-303.282198 395.37207524 -297.47175762 387.31333759 -291.64111328 379.26611328 C-288.92351837 375.51355215 -286.21198061 371.75661955 -283.5 368 C-280.24130943 363.48608105 -276.9813334 358.97312335 -273.71484375 354.46484375 C-268.43419578 347.17252036 -263.1804866 339.8638988 -258 332.5 C-252.28629949 324.37815439 -246.48052528 316.32506432 -240.65429688 308.28369141 C-237.87081798 304.44120888 -235.09125401 300.5959003 -232.3125 296.75 C-231.76859619 295.99726807 -231.22469238 295.24453613 -230.66430664 294.46899414 C-227.02698958 289.43156592 -223.40877094 284.38092946 -219.8034668 279.32055664 C-216.4325072 274.59364258 -213.02977374 269.89009337 -209.625 265.1875 C-205.37757019 259.31868597 -201.16760248 253.42575593 -197 247.5 C-192.89167315 241.65996365 -188.74515886 235.84953505 -184.5625 230.0625 C-184.03253418 229.32628418 -183.50256836 228.59006836 -182.95654297 227.83154297 C-180.09249439 223.86028141 -177.19572356 219.91797406 -174.25390625 216.00390625 C-173.64667725 215.18720459 -173.03944824 214.37050293 -172.41381836 213.52905273 C-171.24405124 211.95696364 -170.06423325 210.39229083 -168.87329102 208.83618164 C-168.35049561 208.12969482 -167.8277002 207.42320801 -167.2890625 206.6953125 C-166.82193848 206.07672363 -166.35481445 205.45813477 -165.87353516 204.82080078 C-164.80079439 203.01761853 -164.80079439 203.01761853 -165.29833984 200.92138672 C-166.14938541 198.59093139 -167.04966369 196.29198756 -168 194 C-175.0729817 176.94163236 -170.37228124 157.43857303 -163.71875 140.9453125 C-157.58264554 126.47456846 -148.21517234 113.91917073 -137 103 C-138.52536658 97.77242732 -140.12755416 92.58917084 -141.89868164 87.43847656 C-148.85738809 67.11772291 -151.24049139 45.7630338 -141.875 25.75 C-136.8281245 16.27249906 -129.98856001 8.83776585 -121 3 C-120.15179687 2.43667969 -119.30359375 1.87335938 -118.4296875 1.29296875 C-86.62022793 -18.59877777 -30.12442355 -25.41908065 0 0 Z M-108 106 C-106.48758789 111.19125238 -104.1975834 115.62932144 -101.5625 120.3125 C-101.12873047 121.08779053 -100.69496094 121.86308105 -100.24804688 122.66186523 C-96.99585398 128.40133618 -93.56673639 134.01351671 -90 139.5625 C-89.53150635 140.2944458 -89.0630127 141.0263916 -88.58032227 141.78051758 C-86.35213278 145.47014516 -86.35213278 145.47014516 -83 148 C-75.59576804 129.81968424 -75.59576804 129.81968424 -76.72265625 110.53125 C-78.65543007 106.33705256 -80.97237668 103.39739483 -85 101 C-92.49921766 98.32170798 -101.39398173 102.25063828 -108 106 Z M-127 122 C-141.49986997 137.54690653 -151.38062687 157.61137157 -151.30078125 179.08984375 C-150.86318601 183.3237198 -150.04774442 185.97248231 -146.9765625 188.984375 C-146.20054687 189.56703125 -145.42453125 190.1496875 -144.625 190.75 C-143.85414063 191.34296875 -143.08328125 191.9359375 -142.2890625 192.546875 C-139.18902282 194.51481828 -137.27939936 195.16834202 -133.625 194.6875 C-121.29071492 191.457092 -112.02466801 184.82668626 -103 176 C-102.42894531 175.44441406 -101.85789062 174.88882813 -101.26953125 174.31640625 C-100.16568058 173.22492365 -99.07954418 172.11552899 -98 171 C-99.26254678 167.66154201 -100.69140065 164.64552882 -102.5390625 161.59375 C-103.03325684 160.77382568 -103.52745117 159.95390137 -104.03662109 159.10913086 C-104.56078613 158.24811768 -105.08495117 157.38710449 -105.625 156.5 C-106.16334473 155.60869385 -106.70168945 154.7173877 -107.25634766 153.79907227 C-110.2650483 148.8257719 -113.30880858 143.87549431 -116.375 138.9375 C-119.80103372 133.40424052 -122.95699352 127.7517433 -126 122 C-126.33 122 -126.66 122 -127 122 Z " fill="#0079FA" transform="translate(956,458)"/>
</svg>
