<?xml version="1.0" encoding="UTF-8"?>
<svg version="1.1" xmlns="http://www.w3.org/2000/svg" width="392" height="637">
<path d="M0 0 C1.44140625 1.4453125 1.44140625 1.4453125 1.44140625 3.4453125 C2.92640625 3.9403125 2.92640625 3.9403125 4.44140625 4.4453125 C6.04633018 6.54383182 7.47603253 8.59295559 8.87890625 10.8203125 C9.27924072 11.449375 9.6795752 12.0784375 10.09204102 12.7265625 C13.38695177 18.05559352 15.6324235 23.44661321 17.44140625 29.4453125 C17.97314453 30.7446875 17.97314453 30.7446875 18.515625 32.0703125 C23.22648487 49.24408013 18.73526977 67.61486889 10.18359375 82.64453125 C8.14791264 85.91713968 6.16621148 88.72050727 3.44140625 91.4453125 C2.78140625 91.4453125 2.12140625 91.4453125 1.44140625 91.4453125 C1.44140625 92.1053125 1.44140625 92.7653125 1.44140625 93.4453125 C-0.23828125 94.91796875 -0.23828125 94.91796875 -2.43359375 96.5078125 C-3.15289062 97.03503906 -3.8721875 97.56226563 -4.61328125 98.10546875 C-6.55859375 99.4453125 -6.55859375 99.4453125 -8.55859375 100.4453125 C-2.4594654 103.22782445 3.80055694 105.25055191 10.19140625 107.2578125 C12.4245248 107.96209492 14.65759724 108.66652355 16.890625 109.37109375 C17.9945459 109.71865723 19.0984668 110.0662207 20.23583984 110.42431641 C23.17338809 111.35994678 26.09980024 112.32270133 29.0234375 113.30078125 C29.8700293 113.58010498 30.71662109 113.85942871 31.58886719 114.1472168 C33.14592098 114.66177491 34.70022803 115.18475822 36.25097656 115.71801758 C42.90580118 117.89081934 48.32934227 118.69044492 54.80078125 115.58203125 C56.27365499 114.78258374 57.73723596 113.96579637 59.19140625 113.1328125 C59.93261719 112.72869141 60.67382812 112.32457031 61.4375 111.90820312 C64.95730942 109.96504084 68.3123785 107.98970612 71.44140625 105.4453125 C70.69117188 104.98382813 69.9409375 104.52234375 69.16796875 104.046875 C52.55819617 93.46180582 42.24609875 80.88448394 37.62890625 61.5703125 C34.01774266 42.79226185 37.74901754 25.76429521 48.13671875 9.84765625 C54.63992335 1.03052072 62.8226158 -5.42466593 72.44140625 -10.5546875 C73.53582031 -11.1425 73.53582031 -11.1425 74.65234375 -11.7421875 C89.17525066 -18.87256779 107.27151452 -18.0359812 122.44140625 -13.5546875 C138.87414842 -7.28666026 152.53193567 4.30232446 160.1875 20.23046875 C163.77569529 29.43010962 164.9377816 37.35069632 164.87890625 47.2578125 C164.89888672 48.43923828 164.91886719 49.62066406 164.93945312 50.83789062 C164.9325403 63.45380002 161.6244973 74.09473793 154.44140625 84.4453125 C153.91675781 85.21617187 153.39210938 85.98703125 152.8515625 86.78125 C149.04938802 92.02377764 144.73096032 95.91035191 139.578125 99.81640625 C137.38315742 101.41446465 137.38315742 101.41446465 135.44140625 103.4453125 C136.52808594 104.26322266 136.52808594 104.26322266 137.63671875 105.09765625 C148.73283615 113.75262782 153.30287391 122.20530665 157.44140625 135.4453125 C157.64507812 136.08597656 157.84875 136.72664062 158.05859375 137.38671875 C162.99468932 163.93082455 148.74367607 194.48290913 140.11694336 219.08666992 C138.87969896 223.40651747 139.95189959 226.78812851 141.19140625 230.984375 C146.5310027 250.85383488 144.17000155 270.95848258 134.53515625 289.10546875 C126.04242187 302.65264767 112.27133074 313.20776687 99.44140625 322.4453125 C100.73206756 326.72853657 102.37623971 330.31070198 104.69140625 334.1328125 C109.85970845 342.70318518 114.51486264 351.5360709 119.08349609 360.43798828 C123.45242262 368.94897026 127.8673142 377.38074351 132.81640625 385.5703125 C141.84171975 400.52639145 149.714572 415.63246536 146.21875 433.5 C143.59887633 443.42655653 137.54567138 452.41044995 128.91796875 458.11328125 C118.9332749 463.35140525 108.434205 465.25335094 97.37890625 462.3203125 C82.34568511 457.17423363 74.64998643 446.71153415 67.37890625 433.1328125 C66.22244833 431.01112199 65.06489801 428.89002655 63.90625 426.76953125 C63.3405127 425.72845215 62.77477539 424.68737305 62.19189453 423.61474609 C59.86628543 419.4039989 57.44102001 415.25560674 54.99731445 411.11254883 C52.37332352 406.61433748 49.92112747 402.02409599 47.44140625 397.4453125 C41.742659 386.9548686 35.99035169 376.51240143 29.86254883 366.26513672 C27.55052998 362.38813739 25.41443532 358.47722585 23.37890625 354.4453125 C19.12920168 346.5358057 12.84173284 341.31238219 5.44140625 336.4453125 C5.08949219 337.40083008 4.73757812 338.35634766 4.375 339.34082031 C-2.30132848 357.45485654 -9.02362694 375.52782907 -16.35644531 393.38867188 C-19.50570658 401.07271012 -22.41225349 408.78460721 -25.12109375 416.6328125 C-34.01397477 442.38582052 -34.01397477 442.38582052 -41.55859375 452.4453125 C-42.21859375 452.4453125 -42.87859375 452.4453125 -43.55859375 452.4453125 C-43.76613281 453.02925781 -43.97367187 453.61320312 -44.1875 454.21484375 C-46.07943786 457.29261161 -48.36076344 458.38082793 -51.49609375 460.1328125 C-52.55699219 460.73480469 -53.61789063 461.33679688 -54.7109375 461.95703125 C-62.62513454 466.09325769 -74.18117386 466.12619386 -82.75390625 463.86669922 C-92.26810065 460.34318262 -99.54216303 454.51360464 -104.37109375 445.6328125 C-110.41490823 432.34838859 -109.32852989 419.16081449 -104.30859375 405.7578125 C-102.75773179 401.72696271 -101.10235227 397.74278401 -99.43310547 393.75976562 C-95.89856166 385.32476716 -92.52474933 376.8331897 -89.18359375 368.3203125 C-88.60348669 366.84446181 -88.02332677 365.36863189 -87.44311523 363.89282227 C-85.81284444 359.74447367 -84.18528589 355.59506546 -82.55859375 351.4453125 C-82.16784668 350.44902832 -81.77709961 349.45274414 -81.37451172 348.42626953 C-78.18349536 340.2824493 -75.01910634 332.12912401 -71.98242188 323.92626953 C-70.41478667 319.69469957 -68.79579914 315.48640823 -67.1484375 311.28515625 C-66.73126465 310.20766113 -66.3140918 309.13016602 -65.88427734 308.02001953 C-65.05476202 305.87777297 -64.21553311 303.73925744 -63.36572266 301.60498047 C-62.98722168 300.62029785 -62.6087207 299.63561523 -62.21875 298.62109375 C-61.87465088 297.74364502 -61.53055176 296.86619629 -61.17602539 295.9621582 C-60.46209331 293.05194634 -60.66747873 291.28927718 -61.55859375 288.4453125 C-63.33557339 286.65651115 -63.33557339 286.65651115 -65.62109375 285.1953125 C-84.45861278 271.27581663 -90.64812736 250.20189779 -94.04003906 228.05126953 C-94.5597816 224.51774937 -95.06237854 220.98221411 -95.55859375 217.4453125 C-95.65462891 216.76180725 -95.75066406 216.078302 -95.84960938 215.37408447 C-96.80935575 208.53647202 -97.76171349 201.69786956 -98.69213867 194.85620117 C-99.6500084 187.83230295 -100.63590735 180.81918674 -101.765625 173.8203125 C-101.95253906 172.66007568 -102.13945313 171.49983887 -102.33203125 170.30444336 C-102.6757908 168.20218555 -103.02779663 166.10124802 -103.390625 164.00219727 C-106.0027184 148.03441592 -105.04459606 130.20330199 -95.55859375 116.4453125 C-91.42990521 111.3316069 -87.04275021 106.10141681 -81.55859375 102.4453125 C-81.55859375 101.7853125 -81.55859375 101.1253125 -81.55859375 100.4453125 C-83.31136376 98.94449303 -83.31136376 98.94449303 -85.55859375 97.3828125 C-98.09158793 87.8404229 -105.24177037 75.64212019 -107.95703125 60.17578125 C-110.39635976 41.88081739 -107.21307274 25.17853752 -97.55859375 9.4453125 C-96.89859375 9.4453125 -96.23859375 9.4453125 -95.55859375 9.4453125 C-95.21828125 8.6409375 -95.21828125 8.6409375 -94.87109375 7.8203125 C-88.6440587 -3.44765569 -75.54960568 -10.87703178 -63.55859375 -14.5546875 C-39.74497273 -20.04569235 -18.93868518 -14.9974855 0 0 Z M-74.87890625 15.51171875 C-76.7771941 17.27007775 -76.7771941 17.27007775 -76.55859375 19.4453125 C-77.21859375 19.4453125 -77.87859375 19.4453125 -78.55859375 19.4453125 C-80.05771772 21.41677681 -80.05771772 21.41677681 -81.49609375 23.9453125 C-82.00011719 24.780625 -82.50414062 25.6159375 -83.0234375 26.4765625 C-86.66850824 33.52555426 -88.09146279 39.36002517 -87.99609375 47.3203125 C-87.98852051 48.20436768 -87.98094727 49.08842285 -87.97314453 49.99926758 C-87.80849352 56.51019332 -86.97212889 61.79459894 -83.55859375 67.4453125 C-82.85283203 68.64027344 -82.85283203 68.64027344 -82.1328125 69.859375 C-74.80080622 81.49206714 -65.35545692 87.92825237 -52.01171875 91.0390625 C-41.69562199 92.74746069 -31.61776402 90.62198122 -22.55859375 85.4453125 C-21.60984375 84.9296875 -20.66109375 84.4140625 -19.68359375 83.8828125 C-18.98234375 83.4084375 -18.28109375 82.9340625 -17.55859375 82.4453125 C-17.55859375 81.7853125 -17.55859375 81.1253125 -17.55859375 80.4453125 C-16.96046875 80.17976563 -16.36234375 79.91421875 -15.74609375 79.640625 C-7.93672722 75.373364 -4.23443455 66.09770948 -1.80859375 58.0078125 C1.04087351 46.41997899 -1.18841559 35.00826646 -7.16796875 24.66015625 C-8.84402347 22.41900968 -10.58890002 20.43148902 -12.55859375 18.4453125 C-13.45191406 17.51332031 -13.45191406 17.51332031 -14.36328125 16.5625 C-24.09949502 7.2302785 -35.07258121 4.08492687 -48.25390625 4.234375 C-57.8671297 4.84798501 -67.68066218 9.10116132 -74.87890625 15.51171875 Z M66.44140625 20.4453125 C64.06542707 23.63162564 62.17377375 26.8719472 60.44140625 30.4453125 C60.10238281 31.11691406 59.76335937 31.78851563 59.4140625 32.48046875 C55.47996581 41.88966775 56.14092635 53.98901259 59.50390625 63.4453125 C64.88204946 75.52730368 74.11778231 84.52081217 86.44140625 89.4453125 C95.66576976 92.57221538 107.26851392 93.07530766 116.44140625 89.4453125 C128.73157587 83.23186457 138.5094447 74.56185301 143.1875 61.3359375 C145.82478961 51.3688016 145.86959197 39.15044045 141.11328125 29.84765625 C133.88583065 17.45513362 123.70864779 8.44991024 109.62890625 4.6953125 C92.03406387 3.31532486 78.71142385 7.11570789 66.44140625 20.4453125 Z M-75.43359375 125.5078125 C-83.69318181 135.57955037 -84.50543116 145.77319963 -83.38043213 158.45343018 C-82.84984396 163.32535649 -82.1159322 168.16487585 -81.37109375 173.0078125 C-81.14405311 174.53644466 -80.91766533 176.06517392 -80.69189453 177.59399414 C-79.02433859 188.78758425 -77.20702865 199.95711651 -75.29418945 211.11132812 C-74.21809162 217.38863628 -73.23489861 223.65990931 -72.39990234 229.97363281 C-70.66512834 242.85414364 -67.47980201 253.6339186 -58.55859375 263.4453125 C-58.03652344 264.04730469 -57.51445313 264.64929688 -56.9765625 265.26953125 C-51.93837934 270.72449842 -45.77373937 274.46456892 -39.55859375 278.4453125 C-32.1459791 283.3370759 -24.8136975 288.32348451 -17.55859375 293.4453125 C-16.24374991 294.36365408 -14.92862235 295.28158953 -13.61328125 296.19921875 C-4.74821152 302.39843465 3.95858163 308.73020624 12.44140625 315.4453125 C13.37339844 316.18265625 14.30539063 316.92 15.265625 317.6796875 C35.6058424 334.04471263 35.6058424 334.04471263 41.44140625 344.4453125 C41.79380371 345.06792969 42.14620117 345.69054687 42.50927734 346.33203125 C45.09375388 350.90692469 47.63014418 355.50721716 50.15673828 360.11425781 C52.47942416 364.32881592 54.85143762 368.51556634 57.22192383 372.70336914 C59.26903246 376.32994281 61.27946825 379.97458908 63.26953125 383.6328125 C66.6169009 389.78215229 70.02258164 395.89796982 73.44140625 402.0078125 C74.32699219 403.59625977 74.32699219 403.59625977 75.23046875 405.21679688 C78.44837093 410.96861982 81.74921352 416.65340468 85.1640625 422.2902832 C86.70544281 424.89077326 88.08168361 427.55860119 89.44140625 430.2578125 C92.42410886 435.77152908 95.27870919 438.65026822 100.75390625 441.7578125 C107.18414915 443.40275836 112.811072 443.05146238 118.6484375 439.7890625 C122.5769496 436.84481814 124.906885 433.04887625 126.44140625 428.4453125 C127.69249319 416.97701551 120.63071502 406.53297214 115.25390625 396.8203125 C114.68728271 395.78559814 114.12065918 394.75088379 113.53686523 393.68481445 C111.84546887 390.60100713 110.14524882 387.52225768 108.44140625 384.4453125 C107.70954102 383.12200928 107.70954102 383.12200928 106.96289062 381.77197266 C104.90174122 378.04834737 102.83431833 374.32836227 100.7578125 370.61328125 C96.88337679 363.6592744 93.07036253 356.67657577 89.3984375 349.61328125 C83.32336866 338.00070092 77.20803781 327.22503707 68.44140625 317.4453125 C67.71824219 316.63578125 66.99507812 315.82625 66.25 314.9921875 C60.47979101 308.91380897 53.87113372 303.88677848 47.22460938 298.81835938 C45.5137016 297.50097913 43.8264855 296.15875175 42.14453125 294.8046875 C35.1936144 289.24839145 28.03816485 284.67283023 20.22509766 280.42626953 C17.78931521 279.0866892 15.38795481 277.69033773 12.9831543 276.29614258 C7.53827519 273.14079841 2.0566976 270.17616631 -3.66796875 267.55078125 C-5.55859375 266.4453125 -5.55859375 266.4453125 -7.55859375 263.4453125 C-8.11916382 255.73747402 -8.11916382 255.73747402 -5.55859375 252.4453125 C-1.38000245 249.93815772 1.78621796 250.48217009 6.44140625 251.4453125 C8.77767381 252.10162246 11.11145993 252.76690331 13.44140625 253.4453125 C14.11217114 250.67541286 14.77816942 247.90451508 15.44140625 245.1328125 C15.6321875 244.34712891 15.82296875 243.56144531 16.01953125 242.75195312 C16.29023438 241.6159668 16.29023438 241.6159668 16.56640625 240.45703125 C16.73398438 239.76053467 16.9015625 239.06403809 17.07421875 238.34643555 C17.53622509 236.27709512 17.53622509 236.27709512 17.44140625 233.4453125 C9.60504621 234.05004768 2.32729445 235.89444392 -5.24609375 237.9453125 C-7.62436441 238.58310398 -10.00325157 239.21860194 -12.3828125 239.8515625 C-13.9464856 240.27405273 -13.9464856 240.27405273 -15.54174805 240.70507812 C-25.69774846 243.19702546 -34.50219617 243.51923988 -43.73046875 238.19140625 C-50.41236061 233.58190566 -54.63630348 227.56786523 -56.28125 219.578125 C-57.34935946 211.36421279 -56.85889363 203.70512709 -52.87109375 196.3203125 C-46.90510794 188.90314095 -39.42657225 184.92760805 -31.12109375 180.5703125 C-29.45143555 179.68085938 -29.45143555 179.68085938 -27.74804688 178.7734375 C-25.02229573 177.32282316 -22.29254037 175.88040316 -19.55859375 174.4453125 C-23.67450503 171.15461408 -27.98631738 169.91080069 -32.98242188 168.515625 C-37.68565746 167.08153912 -40.51340294 165.31524249 -43.55859375 161.4453125 C-44.68373463 157.30116007 -44.20939556 153.60543746 -42.12109375 149.8828125 C-37.48083071 147.27973811 -32.57961821 147.93379305 -27.5847168 149.19799805 C-24.2373052 150.25655044 -20.92919622 151.39471548 -17.62109375 152.5703125 C-15.20835584 153.40240903 -12.7955954 154.23444019 -10.3828125 155.06640625 C-9.21411621 155.47487793 -8.04541992 155.88334961 -6.84130859 156.30419922 C-2.55397093 157.79453212 1.75417638 159.21659564 6.06640625 160.6328125 C12.61789142 162.8018599 19.12909878 165.07514975 25.61181641 167.44213867 C37.38321515 171.67884638 47.45889405 173.50500924 59.1953125 168.1328125 C67.21667808 163.96286072 74.91078467 159.25295518 82.31640625 154.0703125 C87.80850908 150.37449894 92.70722635 148.01131569 99.37890625 149.0703125 C102.44140625 150.4453125 102.44140625 150.4453125 104.44140625 153.4453125 C104.8125 155.53125 104.8125 155.53125 104.87890625 157.8203125 C104.91886719 158.57054687 104.95882812 159.32078125 105 160.09375 C103.69676397 165.58010028 98.53038684 168.12313557 94.046875 170.93359375 C91.91333414 172.21798735 89.77369953 173.49229864 87.62890625 174.7578125 C86.51338379 175.41990723 85.39786133 176.08200195 84.24853516 176.76416016 C78.01587505 180.43175437 71.75949135 184.03379568 65.31640625 187.3203125 C64.70949951 187.63524658 64.10259277 187.95018066 63.47729492 188.2746582 C49.91103379 194.93821588 34.67433547 190.96622147 21.19140625 186.3828125 C20.03789673 185.97844971 20.03789673 185.97844971 18.86108398 185.56591797 C11.75123077 182.68786298 11.75123077 182.68786298 4.4921875 183.23046875 C3.91855469 183.65199219 3.34492188 184.07351563 2.75390625 184.5078125 C-0.2418516 186.56493703 -3.22905419 188.41521855 -6.43359375 190.1328125 C-7.35269531 190.63039063 -8.27179688 191.12796875 -9.21875 191.640625 C-11.05037014 192.63034255 -12.88210232 193.61985325 -14.71435547 194.60839844 C-17.10364607 195.90149667 -19.48758286 197.20409623 -21.87109375 198.5078125 C-22.63599121 198.91926514 -23.40088867 199.33071777 -24.18896484 199.75463867 C-32.0156926 203.86969154 -32.0156926 203.86969154 -37.55859375 210.4453125 C-38.05954398 213.31837478 -38.05954398 213.31837478 -37.55859375 216.4453125 C-35.38595875 219.01816974 -33.57865537 220.93528169 -30.55859375 222.4453125 C-23.40349547 222.97778493 -17.18288333 221.31880757 -10.30859375 219.4453125 C-9.1189502 219.12699463 -7.92930664 218.80867676 -6.70361328 218.48071289 C-4.20944478 217.8092312 -1.71677758 217.13215 0.77441406 216.44970703 C3.10529946 215.81127411 5.43781899 215.1787553 7.77246094 214.55419922 C27.1335346 209.37228205 46.03826382 202.97646003 64.96875 196.421875 C65.75087357 196.15134811 66.53299713 195.88082123 67.33882141 195.60209656 C70.36456685 194.54846291 73.35675322 193.47986344 76.32397461 192.26879883 C80.06804938 190.8126978 83.64258776 191.34219405 87.44140625 192.4453125 C89.91451451 194.7729438 90.36096181 196.28815011 90.59375 199.63671875 C90.42519671 204.08505984 90.42519671 204.08505984 89.44140625 206.4453125 C85.05472257 209.77204485 80.6373355 211.72591391 75.48046875 213.57421875 C74.73107025 213.84999252 73.98167175 214.1257663 73.20956421 214.40989685 C70.83114848 215.28328397 68.44895003 216.14575869 66.06640625 217.0078125 C64.47499303 217.58976412 62.88384453 218.17244017 61.29296875 218.75585938 C58.35269636 219.833381 55.41081767 220.90627331 52.46728516 221.97485352 C51.8056134 222.22059113 51.14394165 222.46632874 50.46221924 222.71951294 C49.07116748 223.2191261 47.66777081 223.68522483 46.25604248 224.12301636 C42.81183176 225.2442035 40.88243155 225.90793159 38.54174805 228.76000977 C37.36486346 231.63210952 36.53169848 234.38425014 35.8359375 237.41015625 C35.57490234 238.54001953 35.31386719 239.66988281 35.04492188 240.83398438 C34.65336914 242.5906543 34.65336914 242.5906543 34.25390625 244.3828125 C33.98126953 245.55005859 33.70863281 246.71730469 33.42773438 247.91992188 C31.64458436 255.59888648 31.64458436 255.59888648 31.44140625 263.4453125 C34.01611467 266.18613114 36.96687511 267.726233 40.25390625 269.4453125 C47.19408448 273.17784533 53.28375824 278.21876454 59.51977539 282.99926758 C61.40748276 284.41978476 63.32443985 285.78704607 65.2578125 287.14453125 C68.31479657 289.35381176 70.78278049 291.78668674 73.44140625 294.4453125 C74.10140625 294.4453125 74.76140625 294.4453125 75.44140625 294.4453125 C75.68632812 295.01765625 75.93125 295.59 76.18359375 296.1796875 C77.65250724 298.82555652 79.39488869 300.59384389 81.56640625 302.6953125 C82.29085937 303.40171875 83.0153125 304.108125 83.76171875 304.8359375 C84.31601562 305.36703125 84.8703125 305.898125 85.44140625 306.4453125 C90.73032248 303.58048288 95.97060143 300.50968052 100.44140625 296.4453125 C100.44140625 295.7853125 100.44140625 295.1253125 100.44140625 294.4453125 C101.02148438 294.1875 101.6015625 293.9296875 102.19921875 293.6640625 C112.2231079 288.21553739 118.50912696 276.50888368 121.75 265.97265625 C123.95155515 254.74099356 122.74733187 243.70604656 120.13671875 232.66796875 C116.30467924 214.90711146 125.08973217 197.03367614 131.01245117 180.54858398 C133.70161174 172.96040424 135.65296401 165.2913817 137.44140625 157.4453125 C137.63476562 156.71441406 137.828125 155.98351562 138.02734375 155.23046875 C139.91649792 147.08571917 137.59737985 138.2541992 133.56640625 131.1328125 C132.86515625 130.2459375 132.16390625 129.3590625 131.44140625 128.4453125 C130.67828125 127.4346875 129.91515625 126.4240625 129.12890625 125.3828125 C122.69829917 118.35400941 115.09312567 114.51877623 105.44140625 114.0703125 C98.20287563 114.40664827 91.87171109 116.70555502 86.19140625 121.13671875 C83.64344597 123.04200155 80.8936499 124.48016824 78.09765625 125.98828125 C75.44386688 127.44396277 72.83342685 128.96525636 70.22290039 130.49682617 C59.04953833 137.00143003 49.91058708 140.90309711 36.73339844 137.80957031 C27.085313 135.19057417 17.65921493 131.92393801 8.27905273 128.48095703 C-6.8343001 122.96509686 -22.03692641 117.69574463 -37.55859375 113.4453125 C-38.25984375 113.24421875 -38.96109375 113.043125 -39.68359375 112.8359375 C-53.42553365 109.97303335 -66.26758292 115.32335603 -75.43359375 125.5078125 Z M-41.55859375 301.4453125 C-45.47336287 310.80369549 -49.26711478 320.18612894 -52.79296875 329.69921875 C-55.01417412 335.68994029 -57.28943568 341.66012936 -59.55859375 347.6328125 C-60.50798084 350.13274877 -61.45726399 352.632724 -62.40625 355.1328125 C-62.65409744 355.7857579 -62.90194489 356.43870331 -63.15730286 357.11143494 C-65.19073231 362.47079077 -67.21714198 367.832784 -69.2421875 373.1953125 C-69.87173311 374.86173944 -70.50129038 376.52816197 -71.13085938 378.19458008 C-72.05500433 380.64077013 -72.97884331 383.08707314 -73.90161133 385.53378296 C-82.26182429 407.70004514 -82.26182429 407.70004514 -85.80859375 415.2578125 C-88.34475769 421.6638999 -89.25034349 429.14856758 -86.67578125 435.6875 C-83.98493607 439.83959885 -80.27488502 442.90659971 -75.55859375 444.4453125 C-70.56927191 445.21350967 -66.80664052 445.05756186 -62.24609375 442.8203125 C-55.31983291 436.69943083 -52.56887758 430.35351551 -49.24609375 421.8203125 C-48.76825439 420.61914795 -48.29041504 419.4179834 -47.7980957 418.18041992 C-46.83094038 415.74723007 -45.86824358 413.31226298 -44.91015625 410.87548828 C-43.71379552 407.83920428 -42.50160068 404.81027327 -41.27734375 401.78515625 C-37.54715027 392.55468445 -33.97654469 383.2750881 -30.49417114 373.94857788 C-28.67893374 369.09166173 -26.85632255 364.23750787 -25.03515625 359.3828125 C-24.23434699 357.24740634 -23.43356602 355.11198957 -22.6328125 352.9765625 C-18.94140625 343.1328125 -15.25 333.2890625 -11.55859375 323.4453125 C-15.01808203 319.88854677 -18.65053107 317.05587654 -22.68359375 314.1953125 C-23.31652344 313.73640625 -23.94945312 313.2775 -24.6015625 312.8046875 C-27.7661911 310.29448363 -27.7661911 310.29448363 -31.55859375 309.4453125 C-31.55859375 308.7853125 -31.55859375 308.1253125 -31.55859375 307.4453125 C-33.80742686 305.85135334 -33.80742686 305.85135334 -36.55859375 304.3203125 C-37.48671875 303.78148437 -38.41484375 303.24265625 -39.37109375 302.6875 C-40.09296875 302.27757812 -40.81484375 301.86765625 -41.55859375 301.4453125 Z " fill="#1384FE" transform="translate(180.55859375,96.5546875)"/>
<path d="M0 0 C0 1.98 0 3.96 0 6 C-0.66 6 -1.32 6 -2 6 C-2 7.98 -2 9.96 -2 12 C-2.66 12 -3.32 12 -4 12 C-3.95875 12.9075 -3.9175 13.815 -3.875 14.75 C-4 18 -4 18 -4.9375 19.84375 C-6.22659148 22.45984741 -6.64632321 24.87793927 -7.125 27.75 C-7.29257812 28.73484375 -7.46015625 29.7196875 -7.6328125 30.734375 C-7.81457031 31.85585938 -7.81457031 31.85585938 -8 33 C-8.66 33 -9.32 33 -10 33 C-10.103125 34.11375 -10.20625 35.2275 -10.3125 36.375 C-10.6528125 38.169375 -10.6528125 38.169375 -11 40 C-11.99 40.66 -12.98 41.32 -14 42 C-14.52514185 34.12287227 -12.69118809 28.34811358 -10 21 C-9.41163063 19.27470637 -8.82730355 17.54803117 -8.24609375 15.8203125 C-7.62266864 13.98428234 -6.99896967 12.14834516 -6.375 10.3125 C-6.07392334 9.41426514 -5.77284668 8.51603027 -5.46264648 7.59057617 C-5.17333252 6.75244385 -4.88401855 5.91431152 -4.5859375 5.05078125 C-4.3286084 4.29450439 -4.0712793 3.53822754 -3.80615234 2.7590332 C-2.9364894 0.86141917 -2.22512032 0 0 0 Z " fill="#217EFD" transform="translate(316,269)"/>
<path d="M0 0 C0.57815364 6.58553126 -1.44071449 11.43268991 -4 17.4375 C-4.57234375 18.82098633 -4.57234375 18.82098633 -5.15625 20.23242188 C-6.0933114 22.49308249 -7.04136662 24.74842259 -8 27 C-8.99 27 -9.98 27 -11 27 C-10.68872484 25.41642541 -10.37592711 23.83315007 -10.0625 22.25 C-9.88847656 21.36828125 -9.71445313 20.4865625 -9.53515625 19.578125 C-9.35855469 18.72734375 -9.18195313 17.8765625 -9 17 C-8.87496094 16.29359375 -8.74992187 15.5871875 -8.62109375 14.859375 C-8 13 -8 13 -6.50390625 11.5390625 C-4.57062276 9.56058537 -4.39055404 8.07572992 -3.9375 5.375 C-3.52734375 2.9609375 -3.52734375 2.9609375 -3 1 C-1 0 -1 0 0 0 Z " fill="#1E81FE" transform="translate(113,461)"/>
<path d="M0 0 C0.99 0.495 0.99 0.495 2 1 C2.33 1.99 2.66 2.98 3 4 C3.60714844 4.41636719 4.21429688 4.83273437 4.83984375 5.26171875 C7.75341096 7.60627102 9.01662482 10.49494764 10.5625 13.8125 C10.99852539 14.71838867 10.99852539 14.71838867 11.44335938 15.64257812 C12.30130201 17.42564011 13.15073072 19.21279064 14 21 C14.99546229 23.00226243 15.9938885 25.00306744 17 27 C15.35 27 13.7 27 12 27 C11.64615234 25.76443359 11.64615234 25.76443359 11.28515625 24.50390625 C9.48631145 19.59945707 6.84786497 15.31459401 4.18945312 10.83398438 C2.10010341 7.23319019 0.46872233 4.21850097 0 0 Z " fill="#1C8DFE" transform="translate(306,474)"/>
<path d="M0 0 C1.25954459 3.66250553 0.80049008 6.59121951 0.1875 10.375 C0.01605469 11.47585938 -0.15539062 12.57671875 -0.33203125 13.7109375 C-0.98504887 16.926381 -1.8951181 19.9137898 -3 23 C-4.98 23.33 -6.96 23.66 -9 24 C-7.87942681 20.74845669 -6.75277056 17.49905328 -5.625 14.25 C-5.30789062 13.32960938 -4.99078125 12.40921875 -4.6640625 11.4609375 C-4.3546875 10.57148438 -4.0453125 9.68203125 -3.7265625 8.765625 C-3.44377441 7.94868164 -3.16098633 7.13173828 -2.86962891 6.29003906 C-2.04060935 4.10693871 -1.08327115 2.06693116 0 0 Z " fill="#157CFE" transform="translate(162,437)"/>
<path d="M0 0 C3.12270126 2.51830747 3.94523098 3.7261549 4.75 7.75 C4.8325 8.8225 4.915 9.895 5 11 C4.34 9.68 3.68 8.36 3 7 C2.34 9.31 1.68 11.62 1 14 C0.01 14 -0.98 14 -2 14 C-2.16802051 12.54182203 -2.33437143 11.0834516 -2.5 9.625 C-2.5928125 8.81289063 -2.685625 8.00078125 -2.78125 7.1640625 C-3 5 -3 5 -3 3 C-2.01 3 -1.02 3 0 3 C0 2.01 0 1.02 0 0 Z " fill="#0986FF" transform="translate(267,288)"/>
<path d="M0 0 C0.33 0 0.66 0 1 0 C1.26916396 6.0561892 0.80303184 12.18594547 -1 18 C-1.99 18.66 -2.98 19.32 -4 20 C-4.66 19.01 -5.32 18.02 -6 17 C-5.38655243 15.31301918 -4.70286303 13.65172812 -4 12 C-3.23720268 8.68437433 -2.61084411 5.34664591 -2 2 C-1.34 2 -0.68 2 0 2 C0 1.34 0 0.68 0 0 Z " fill="#2285FD" transform="translate(198,335)"/>
<path d="M0 0 C0 1.32 0 2.64 0 4 C0.66 4 1.32 4 2 4 C2 4.99 2 5.98 2 7 C1.01 7 0.02 7 -1 7 C-0.01 8.98 0.98 10.96 2 13 C-3.875 11.125 -3.875 11.125 -5 10 C-5.4695122 3.66158537 -5.4695122 3.66158537 -3.625 1.0625 C-2 0 -2 0 0 0 Z " fill="#207DFD" transform="translate(177,350)"/>
<path d="M0 0 C-0.99 0.495 -0.99 0.495 -2 1 C-2 1.66 -2 2.32 -2 3 C-8.12974677 4.75135622 -14.32553517 6.46978593 -20.5 4 C-20.995 3.67 -21.49 3.34 -22 3 C-19.34001305 1.67000653 -17.02630809 1.7011797 -14.0625 1.5 C-9.2191412 1.17043974 -4.84206778 -0.1308667 0 0 Z " fill="#1F8BFE" transform="translate(166,335)"/>
<path d="M0 0 C0.99 0 1.98 0 3 0 C3.20086443 3.71599191 3.1519437 4.77208445 1 8 C0.61500109 9.65549531 0.27206865 11.3222433 0 13 C-0.66 13 -1.32 13 -2 13 C-2.33 13.99 -2.66 14.98 -3 16 C-3.33 16 -3.66 16 -4 16 C-3.6083965 10.04492601 -2.62875405 5.37180176 0 0 Z " fill="#1E7DFD" transform="translate(151,466)"/>
<path d="M0 0 C4.5073626 0.53027795 7.4539073 2.19611275 11 5 C11 5.99 11 6.98 11 8 C7.75 8.375 7.75 8.375 4 8 C0 3.28205128 0 3.28205128 0 0 Z " fill="#1A7CFE" transform="translate(161,86)"/>
<path d="M0 0 C0.66 0 1.32 0 2 0 C3.37095624 3.69037278 2.60010967 5.70883835 1.0625 9.25 C0.68222656 10.14203125 0.30195312 11.0340625 -0.08984375 11.953125 C-0.54037109 12.96632813 -0.54037109 12.96632813 -1 14 C-1.99 14 -2.98 14 -4 14 C-4.33 14.66 -4.66 15.32 -5 16 C-4.39363767 10.23955788 -2.24341721 5.27985631 0 0 Z " fill="#1F76FE" transform="translate(100,490)"/>
<path d="M0 0 C4 1 4 1 5.51953125 3.14453125 C6.15955078 4.46517578 6.15955078 4.46517578 6.8125 5.8125 C7.25207031 6.68519531 7.69164062 7.55789063 8.14453125 8.45703125 C9.06404749 11.19038776 9.0076835 12.34787595 8 15 C6.5 13.6875 6.5 13.6875 5 12 C5 11.01 5 10.02 5 9 C4.34 9 3.68 9 3 9 C2.01 6.03 1.02 3.06 0 0 Z " fill="#1D8AFC" transform="translate(225,450)"/>
<path d="M0 0 C3.36900686 0.60160837 3.90787656 0.88996367 6.25 3.6875 C8.10260771 7.19422173 8.37076301 9.10698835 8 13 C7.34 13 6.68 13 6 13 C6 12.01 6 11.02 6 10 C5.01 9.67 4.02 9.34 3 9 C2.05078125 6.93359375 2.05078125 6.93359375 1.3125 4.4375 C1.06113281 3.61121094 0.80976563 2.78492187 0.55078125 1.93359375 C0.36902344 1.29550781 0.18726563 0.65742187 0 0 Z " fill="#2282FB" transform="translate(185,106)"/>
<path d="M0 0 C0.99 0.33 1.98 0.66 3 1 C0.24829249 3.9555377 -2.41970299 6.11563315 -6 8 C-6.66 8 -7.32 8 -8 8 C-8 8.66 -8 9.32 -8 10 C-12.625 12.125 -12.625 12.125 -16 11 C-15.18015625 10.54109375 -14.3603125 10.0821875 -13.515625 9.609375 C-12.43796875 8.99578125 -11.3603125 8.3821875 -10.25 7.75 C-9.18265625 7.14671875 -8.1153125 6.5434375 -7.015625 5.921875 C-4.25612421 4.16322942 -2.19437901 2.40742552 0 0 Z " fill="#2284FD" transform="translate(253,256)"/>
<path d="M0 0 C4.95 0 9.9 0 15 0 C14.67 0.99 14.34 1.98 14 3 C9.71 3 5.42 3 1 3 C0.67 2.01 0.34 1.02 0 0 Z " fill="#1E7FFE" transform="translate(103,558)"/>
<path d="M0 0 C2.64 0.33 5.28 0.66 8 1 C8 1.99 8 2.98 8 4 C7.01 4.66 6.02 5.32 5 6 C4.21011855 7.95385067 4.21011855 7.95385067 3.8125 10.125 C3.544375 11.40375 3.27625 12.6825 3 14 C2.67 14 2.34 14 2 14 C2 10.04 2 6.08 2 2 C1.34 2 0.68 2 0 2 C0 1.34 0 0.68 0 0 Z " fill="#1793FF" transform="translate(215,319)"/>
<path d="M0 0 C0.66 0 1.32 0 2 0 C0.25192871 5.46737191 -1.65794081 10.75824848 -4 16 C-4.99 16 -5.98 16 -7 16 C-6.34 13.69 -5.68 11.38 -5 9 C-4.34 9 -3.68 9 -3 9 C-2.690625 7.88625 -2.38125 6.7725 -2.0625 5.625 C-1 2 -1 2 0 0 Z " fill="#1775FE" transform="translate(109,472)"/>
<path d="M0 0 C3.7102381 3.45435961 6.83840258 6.57603873 7.1875 11.8125 C7.125625 12.534375 7.06375 13.25625 7 14 C6.01 14 5.02 14 4 14 C3.32739649 12.23141309 2.66211605 10.46003984 2 8.6875 C1.62875 7.70136719 1.2575 6.71523437 0.875 5.69921875 C0 3 0 3 0 0 Z " fill="#2189FD" transform="translate(319,119)"/>
<path d="M0 0 C3.95820859 0.56545837 6.6659053 1.80902348 10 4 C9.67 5.65 9.34 7.3 9 9 C8.01 9 7.02 9 6 9 C6 7.68 6 6.36 6 5 C5.195625 4.731875 4.39125 4.46375 3.5625 4.1875 C2.716875 3.795625 1.87125 3.40375 1 3 C0.67 2.01 0.34 1.02 0 0 Z " fill="#1C7CFE" transform="translate(314,91)"/>
<path d="M0 0 C1.051875 0.5259375 1.051875 0.5259375 2.125 1.0625 C5.50268586 2.1639193 7.58080593 1.79516141 11 1 C11 1.66 11 2.32 11 3 C10.34 3 9.68 3 9 3 C8.34 4.65 7.68 6.3 7 8 C3.535 6.02 3.535 6.02 0 4 C0 2.68 0 1.36 0 0 Z " fill="#1091FD" transform="translate(85,549)"/>
<path d="M0 0 C0.08107583 1.93681161 0.13922475 3.8745934 0.1875 5.8125 C0.23970703 7.43091797 0.23970703 7.43091797 0.29296875 9.08203125 C0 12 0 12 -3 15 C-3 10.38 -3 5.76 -3 1 C-1 0 -1 0 0 0 Z " fill="#1E8BFD" transform="translate(339,237)"/>
<path d="M0 0 C2.12745903 0.95286193 4.25189929 1.91246627 6.375 2.875 C7.55835938 3.40867187 8.74171875 3.94234375 9.9609375 4.4921875 C13 6 13 6 15 8 C14.01 8.495 14.01 8.495 13 9 C11.26379633 8.27931168 9.52932088 7.55252881 7.8203125 6.76953125 C5.58953565 5.82647752 3.38919922 5.36199988 1 5 C0.67 3.35 0.34 1.7 0 0 Z " fill="#1495FE" transform="translate(302,83)"/>
<path d="M0 0 C-6.63634038 4.42422692 -11.13214954 5.41982601 -19 5 C-18.67 4.34 -18.34 3.68 -18 3 C-15.67145135 2.63473747 -13.33701038 2.30649316 -11 2 C-9.96875 1.649375 -8.9375 1.29875 -7.875 0.9375 C-5.04897244 0.01596927 -2.94528126 -0.17325184 0 0 Z " fill="#2181FE" transform="translate(190,329)"/>
<path d="M0 0 C2.04219706 1.69179328 2.91793306 2.63727666 3.51171875 5.26171875 C3.56972656 6.06222656 3.62773438 6.86273438 3.6875 7.6875 C3.75324219 8.49574219 3.81898437 9.30398437 3.88671875 10.13671875 C3.92410156 10.75160156 3.96148437 11.36648437 4 12 C3.34 12 2.68 12 2 12 C1.67 12.66 1.34 13.32 1 14 C0 13 0 13 -0.09765625 10.05859375 C-0.08605469 8.86363281 -0.07445313 7.66867188 -0.0625 6.4375 C-0.05347656 5.23996094 -0.04445313 4.04242188 -0.03515625 2.80859375 C-0.02355469 1.88175781 -0.01195313 0.95492187 0 0 Z " fill="#129AFF" transform="translate(76,239)"/>
<path d="M0 0 C3.41199418 3.56708482 4.68721784 8.14740819 5 13 C4.01 14.485 4.01 14.485 3 16 C2.67 13.69 2.34 11.38 2 9 C1.34 9 0.68 9 0 9 C-0.84454356 5.62182575 -1.10844919 3.32534757 0 0 Z " fill="#1A8DFD" transform="translate(193,115)"/>
<path d="M0 0 C0.93395229 3.73580915 1.0444658 5.00545992 0.25 8.5625 C0.09015625 9.32691406 -0.0696875 10.09132813 -0.234375 10.87890625 C-1.08787329 13.24344488 -2.11184497 14.37639417 -4 16 C-4.66 15.67 -5.32 15.34 -6 15 C-4.02 10.05 -2.04 5.1 0 0 Z " fill="#1A69FE" transform="translate(162,437)"/>
<path d="M0 0 C0 0.99 0 1.98 0 3 C-0.66 2.67 -1.32 2.34 -2 2 C-7.28910111 1.59746664 -12.21290155 1.44688083 -17 4 C-16 1 -16 1 -14.1796875 -0.01953125 C-8.60948399 -1.9360589 -5.48968395 -2.21923394 0 0 Z " fill="#168AFF" transform="translate(283,246)"/>
<path d="M0 0 C0 0.99 0 1.98 0 3 C-1.32 3.33 -2.64 3.66 -4 4 C-4 4.99 -4 5.98 -4 7 C-6.64 7.99 -9.28 8.98 -12 10 C-12.33 9.01 -12.66 8.02 -13 7 C-8.71 4.69 -4.42 2.38 0 0 Z " fill="#1695FE" transform="translate(244,207)"/>
<path d="M0 0 C0.66 0.33 1.32 0.66 2 1 C2.25 8.625 2.25 8.625 0 12 C-2.32590854 8.36576791 -2.16265833 5.22911669 -2 1 C-1.34 0.67 -0.68 0.34 0 0 Z " fill="#1D7BFD" transform="translate(95,241)"/>
<path d="M0 0 C1.98 0.66 3.96 1.32 6 2 C6 4.31 6 6.62 6 9 C4.35 9.33 2.7 9.66 1 10 C1 8.68 1 7.36 1 6 C1.66 6 2.32 6 3 6 C2.01 4.02 1.02 2.04 0 0 Z " fill="#1D81FC" transform="translate(279,247)"/>
<path d="M0 0 C0.33 0.66 0.66 1.32 1 2 C0.01 2.66 -0.98 3.32 -2 4 C-2.33 4.99 -2.66 5.98 -3 7 C-5.0625 8.6875 -5.0625 8.6875 -7 10 C-8.32 9.34 -9.64 8.68 -11 8 C-7.37 5.36 -3.74 2.72 0 0 Z " fill="#149BFC" transform="translate(249,88)"/>
<path d="M0 0 C1.26493447 3.79480342 0.89988258 6.12358274 0 10 C-1.9375 11.9375 -1.9375 11.9375 -4 13 C-4.66 13 -5.32 13 -6 13 C-6 11.68 -6 10.36 -6 9 C-5.01 9 -4.02 9 -3 9 C-2.87625 8.2575 -2.7525 7.515 -2.625 6.75 C-2.04513299 4.19858515 -1.26291261 2.2732427 0 0 Z " fill="#1F7CFD" transform="translate(170,466)"/>
<path d="M0 0 C4.875 1.75 4.875 1.75 6 4 C5.34 4 4.68 4 4 4 C3.731875 4.639375 3.46375 5.27875 3.1875 5.9375 C2 8 2 8 -1 9 C-0.67 6.03 -0.34 3.06 0 0 Z " fill="#2185FB" transform="translate(252,198)"/>
<path d="M0 0 C0.33 0 0.66 0 1 0 C1.33 8.25 1.66 16.5 2 25 C1.01 24.34 0.02 23.68 -1 23 C-1.2487793 20.66162109 -1.2487793 20.66162109 -1.07421875 17.7734375 C-1.01943359 16.7421875 -0.96464844 15.7109375 -0.90820312 14.6484375 C-0.83537109 13.56820312 -0.76253906 12.48796875 -0.6875 11.375 C-0.62626953 10.28703125 -0.56503906 9.1990625 -0.50195312 8.078125 C-0.34835798 5.38430251 -0.18046592 2.69213428 0 0 Z " fill="#2183FA" transform="translate(74,134)"/>
<path d="M0 0 C0 3 0 3 -2 6 C-1.01 6 -0.02 6 1 6 C0.67 7.32 0.34 8.64 0 10 C-1.32 10.33 -2.64 10.66 -4 11 C-3.67 9.68 -3.34 8.36 -3 7 C-3.99 6.67 -4.98 6.34 -6 6 C-4.02 4.02 -2.04 2.04 0 0 Z " fill="#0B95FE" transform="translate(237,97)"/>
<path d="M0 0 C0.66 0.33 1.32 0.66 2 1 C1.67 4.63 1.34 8.26 1 12 C0.34 11.34 -0.32 10.68 -1 10 C-1.99 10.495 -1.99 10.495 -3 11 C-3.36923077 3.49230769 -3.36923077 3.49230769 -1.5 1 C-1.005 0.67 -0.51 0.34 0 0 Z " fill="#1096FF" transform="translate(92,516)"/>
<path d="M0 0 C6.52307692 0.61538462 6.52307692 0.61538462 8.9375 2.5625 C9.288125 3.036875 9.63875 3.51125 10 4 C9.01 4.66 8.02 5.32 7 6 C4.36 4.68 1.72 3.36 -1 2 C-0.67 1.34 -0.34 0.68 0 0 Z " fill="#1F8DFE" transform="translate(296,211)"/>
<path d="M0 0 C4.82360189 -0.19294408 8.49646738 0.24252386 13 2 C12.67 2.99 12.34 3.98 12 5 C10.18504338 4.55149342 8.37306866 4.09090429 6.5625 3.625 C5.55316406 3.36976563 4.54382813 3.11453125 3.50390625 2.8515625 C1 2 1 2 0 0 Z " fill="#1F89FE" transform="translate(203,210)"/>
<path d="M0 0 C2.3125 1.4375 2.3125 1.4375 4 3 C4 3.66 4 4.32 4 5 C2.68 4.67 1.36 4.34 0 4 C0 3.34 0 2.68 0 2 C-0.99 2 -1.98 2 -3 2 C-3.33 2.99 -3.66 3.98 -4 5 C-5.32 3.35 -6.64 1.7 -8 0 C-4.62858491 -1.12380503 -3.35507997 -0.98197462 0 0 Z " fill="#0B91FF" transform="translate(104,194)"/>
<path d="M0 0 C1.32 0.33 2.64 0.66 4 1 C4 1.66 4 2.32 4 3 C4.99 3.33 5.98 3.66 7 4 C6.67 5.65 6.34 7.3 6 9 C4.125 8.4375 4.125 8.4375 2 7 C0.75 3.375 0.75 3.375 0 0 Z " fill="#1D8CFD" transform="translate(220,164)"/>
<path d="M0 0 C2.37198441 4.74396882 3.28751609 7.53719428 3 13 C2.01 14.485 2.01 14.485 1 16 C0.63913128 13.52163716 0.28601843 11.04260213 -0.0625 8.5625 C-0.16626953 7.85544922 -0.27003906 7.14839844 -0.37695312 6.41992188 C-0.62689163 4.61864093 -0.81801314 2.80940959 -1 1 C-0.67 0.67 -0.34 0.34 0 0 Z " fill="#1797FE" transform="translate(78,257)"/>
<path d="M0 0 C0.33 0.99 0.66 1.98 1 3 C1.99 3 2.98 3 4 3 C4 4.98 4 6.96 4 9 C3.01 9.33 2.02 9.66 1 10 C0.63720544 8.71073008 0.28503302 7.41846728 -0.0625 6.125 C-0.35833984 5.04605469 -0.35833984 5.04605469 -0.66015625 3.9453125 C-1 2 -1 2 0 0 Z " fill="#1E77FE" transform="translate(316,227)"/>
<path d="M0 0 C2 0 2 0 4.5 2.25 C6.56954228 4.5264965 7.85749293 6.19566446 9 9 C6 9 6 9 4.39453125 7.79296875 C3.87246094 7.26316406 3.35039063 6.73335938 2.8125 6.1875 C2.01779297 5.40439453 2.01779297 5.40439453 1.20703125 4.60546875 C0 3 0 3 0 0 Z " fill="#12A0FE" transform="translate(106,371)"/>
<path d="M0 0 C1.9375 0.6875 1.9375 0.6875 4 2 C5 4.375 5 4.375 5 7 C3.0625 9.3125 3.0625 9.3125 1 11 C1.020625 10.113125 1.04125 9.22625 1.0625 8.3125 C1.00713781 5.37830369 0.6694266 2.84506304 0 0 Z " fill="#207AFE" transform="translate(109,342)"/>
<path d="M0 0 C0.99 0.33 1.98 0.66 3 1 C3.33 4.3 3.66 7.6 4 11 C3.34 11 2.68 11 2 11 C0.57741188 7.17679443 -0.24042276 4.08718695 0 0 Z " fill="#2180FD" transform="translate(301,328)"/>
<path d="M0 0 C2.82345231 2.82345231 2.67277783 5.07333391 3 9 C2.5625 12.4375 2.5625 12.4375 2 15 C1.67 15 1.34 15 1 15 C1 12.36 1 9.72 1 7 C0.01 7 -0.98 7 -2 7 C-2 6.01 -2 5.02 -2 4 C-1.34 4 -0.68 4 0 4 C0 2.68 0 1.36 0 0 Z " fill="#2480FB" transform="translate(85,292)"/>
<path d="M0 0 C0.33 0 0.66 0 1 0 C1.63019694 8.19256018 1.63019694 8.19256018 -1 11.5625 C-1.99 12.2740625 -1.99 12.2740625 -3 13 C-3.93423645 9.98968256 -4.04449911 9.13349732 -3 6 C-2.34 5.34 -1.68 4.68 -1 4 C-0.3574765 1.93125966 -0.3574765 1.93125966 0 0 Z " fill="#1193FF" transform="translate(285,250)"/>
<path d="M0 0 C0.33 0.66 0.66 1.32 1 2 C1.825 2.309375 2.65 2.61875 3.5 2.9375 C4.325 3.288125 5.15 3.63875 6 4 C6.33 4.99 6.66 5.98 7 7 C2.59885603 6.49701212 0.28804981 4.91227269 -3 2 C-2.01 1.34 -1.02 0.68 0 0 Z " fill="#1D8AFE" transform="translate(161,105)"/>
<path d="M0 0 C1.65 0 3.3 0 5 0 C5.33 0.99 5.66 1.98 6 3 C2.77208445 5.1519437 1.71599191 5.20086443 -2 5 C-1.34 3.35 -0.68 1.7 0 0 Z " fill="#1E76FE" transform="translate(306,550)"/>
<path d="M0 0 C4.2742558 1.5830577 6.26531794 4.50568404 9 8 C8.67 8.66 8.34 9.32 8 10 C6.65787938 8.90653119 5.32652025 7.7998425 4 6.6875 C3.2575 6.07261719 2.515 5.45773437 1.75 4.82421875 C0 3 0 3 0 0 Z " fill="#119EFE" transform="translate(258,543)"/>
<path d="M0 0 C2.7019433 0.36512747 4.58390852 0.69869237 6.8125 2.3125 C8 4 8 4 8 8 C7.34 8 6.68 8 6 8 C4.4921875 6.25 4.4921875 6.25 2.875 4 C2.33617187 3.2575 1.79734375 2.515 1.2421875 1.75 C0.62730469 0.88375 0.62730469 0.88375 0 0 Z " fill="#1F87FE" transform="translate(254,394)"/>
<path d="M0 0 C1.32 0.33 2.64 0.66 4 1 C3.01 2.32 2.02 3.64 1 5 C-0.32 4.67 -1.64 4.34 -3 4 C-2.01 2.68 -1.02 1.36 0 0 Z M-6 4 C-5.01 4.33 -4.02 4.66 -3 5 C-4.65 5.66 -6.3 6.32 -8 7 C-7.34 6.01 -6.68 5.02 -6 4 Z " fill="#2182FD" transform="translate(183,277)"/>
<path d="M0 0 C0.66 0 1.32 0 2 0 C2 2.31 2 4.62 2 7 C1.34 7 0.68 7 0 7 C0 8.65 0 10.3 0 12 C-0.99 11.67 -1.98 11.34 -3 11 C-2.01 7.37 -1.02 3.74 0 0 Z " fill="#1991FC" transform="translate(318,251)"/>
<path d="M0 0 C0.66 0.33 1.32 0.66 2 1 C1.67 2.32 1.34 3.64 1 5 C0.34 5 -0.32 5 -1 5 C-1.66 6.32 -2.32 7.64 -3 9 C-3.99 9 -4.98 9 -6 9 C-3.25 4.125 -3.25 4.125 -1 3 C-0.67 2.01 -0.34 1.02 0 0 Z " fill="#119AFE" transform="translate(138,544)"/>
<path d="M0 0 C2.0625 1.5625 2.0625 1.5625 4 4 C3.75 7.75 3.75 7.75 3 11 C2.34 11 1.68 11 1 11 C0.67 7.37 0.34 3.74 0 0 Z " fill="#1D8AFE" transform="translate(323,507)"/>
<path d="M0 0 C0.66 0 1.32 0 2 0 C2.66 3.63 3.32 7.26 4 11 C3.67 10.34 3.34 9.68 3 9 C2.34 9 1.68 9 1 9 C-1.125 2.25 -1.125 2.25 0 0 Z " fill="#1F7BFE" transform="translate(90,335)"/>
<path d="M0 0 C0.99 0 1.98 0 3 0 C3 0.99 3 1.98 3 3 C3.66 3 4.32 3 5 3 C5 4.65 5 6.3 5 8 C3.68 7.67 2.36 7.34 1 7 C0.67 4.69 0.34 2.38 0 0 Z " fill="#1D7AFD" transform="translate(75,163)"/>
<path d="M0 0 C1.33332095 2.6666419 0.67102033 4.16680303 0 7 C-2.31 6.67 -4.62 6.34 -7 6 C-7 5.34 -7 4.68 -7 4 C-4.69 2.68 -2.38 1.36 0 0 Z " fill="#1898FD" transform="translate(107,86)"/>
<path d="M0 0 C0.66 0 1.32 0 2 0 C2.185625 0.9590625 2.185625 0.9590625 2.375 1.9375 C2.684375 2.9584375 2.684375 2.9584375 3 4 C3.66 4.33 4.32 4.66 5 5 C4.67 6.32 4.34 7.64 4 9 C1.4375 6.75 1.4375 6.75 -1 4 C-0.8125 1.6875 -0.8125 1.6875 0 0 Z " fill="#1E79FE" transform="translate(281,463)"/>
<path d="M0 0 C0.33 0 0.66 0 1 0 C1 2.97 1 5.94 1 9 C0.34 9 -0.32 9 -1 9 C-1 10.98 -1 12.96 -1 15 C-1.33 15 -1.66 15 -2 15 C-2 11.37 -2 7.74 -2 4 C-1.34 4 -0.68 4 0 4 C0 2.68 0 1.36 0 0 Z " fill="#2187FF" transform="translate(219,134)"/>
<path d="M0 0 C0.66 0.33 1.32 0.66 2 1 C1.67 2.98 1.34 4.96 1 7 C0.01 7.33 -0.98 7.66 -2 8 C-2.6875 6.25 -2.6875 6.25 -3 4 C-1.5625 1.75 -1.5625 1.75 0 0 Z " fill="#1F81FE" transform="translate(180,439)"/>
<path d="M0 0 C5.57142857 5.14285714 5.57142857 5.14285714 6 9 C4.125 8.875 4.125 8.875 2 8 C0.83328724 5.25822503 0 2.99432393 0 0 Z " fill="#1F7FFE" transform="translate(81,174)"/>
<path d="M0 0 C1.53656962 2.4404341 2.02089707 3.70744102 1.8125 6.625 C1 9 1 9 -2 11 C-2 8.03 -2 5.06 -2 2 C-1.34 2 -0.68 2 0 2 C0 1.34 0 0.68 0 0 Z " fill="#1979FC" transform="translate(326,516)"/>
<path d="M0 0 C0.99 0.495 0.99 0.495 2 1 C2.33 1.99 2.66 2.98 3 4 C3.99 4.66 4.98 5.32 6 6 C6.1875 9.125 6.1875 9.125 6 12 C2.44992282 8.0949151 1.18180084 5.02265357 0 0 Z " fill="#2384FB" transform="translate(306,474)"/>
<path d="M0 0 C0.66 0 1.32 0 2 0 C2.33 3.3 2.66 6.6 3 10 C2.01 9.67 1.02 9.34 0 9 C-1.37001429 5.8033 -0.8252404 3.30096158 0 0 Z " fill="#0E98FF" transform="translate(105,313)"/>
<path d="M0 0 C0 0.66 0 1.32 0 2 C-2.64 2.66 -5.28 3.32 -8 4 C-7.67 2.68 -7.34 1.36 -7 0 C-4.3333581 -1.33332095 -2.83319697 -0.67102033 0 0 Z " fill="#237FFE" transform="translate(203,308)"/>
<path d="M0 0 C0.33 0 0.66 0 1 0 C1 2.97 1 5.94 1 9 C-0.32 9 -1.64 9 -3 9 C-2.44271087 5.65626525 -1.64826111 2.96687001 0 0 Z " fill="#1599FF" transform="translate(127,292)"/>
<path d="M0 0 C0.33 2.64 0.66 5.28 1 8 C-0.65 8 -2.3 8 -4 8 C-4.33 7.34 -4.66 6.68 -5 6 C-4.34 6 -3.68 6 -3 6 C-3 4.35 -3 2.7 -3 1 C-1 0 -1 0 0 0 Z " fill="#1D8DFD" transform="translate(142,253)"/>
<path d="M0 0 C1.98362069 2.91708924 1.9876191 4.12380904 1.625 7.75 C1.41875 8.8225 1.2125 9.895 1 11 C0.34 11 -0.32 11 -1 11 C-1.125 3.375 -1.125 3.375 0 0 Z " fill="#2079FD" transform="translate(237,149)"/>
<path d="M0 0 C0.33 0.99 0.66 1.98 1 3 C2.32 3 3.64 3 5 3 C4.34 4.32 3.68 5.64 3 7 C2.01 7 1.02 7 0 7 C-1.125 2.25 -1.125 2.25 0 0 Z " fill="#1C79FE" transform="translate(76,535)"/>
<path d="M0 0 C2.32472205 2.85306797 3.7508258 5.54074837 5 9 C4.01 9.33 3.02 9.66 2 10 C-0.09350689 6.5980513 -0.17942163 3.94727588 0 0 Z " fill="#198DFD" transform="translate(253,496)"/>
<path d="M0 0 C3.14737182 0.69941596 6.02588876 1.76078698 9 3 C9 3.33 9 3.66 9 4 C2.375 4.25 2.375 4.25 -1 2 C-0.67 1.34 -0.34 0.68 0 0 Z " fill="#217EFE" transform="translate(207,305)"/>
<path d="M0 0 C3.12270126 2.51830747 3.94523098 3.7261549 4.75 7.75 C4.8325 8.8225 4.915 9.895 5 11 C4.731875 10.38125 4.46375 9.7625 4.1875 9.125 C3.04443152 6.7004767 3.04443152 6.7004767 0 5 C-0.1875 2.375 -0.1875 2.375 0 0 Z " fill="#0E95FE" transform="translate(267,288)"/>
<path d="M0 0 C0.99 0.33 1.98 0.66 3 1 C4.125 5.75 4.125 5.75 3 8 C2.01 7.67 1.02 7.34 0 7 C0 4.69 0 2.38 0 0 Z " fill="#227CFF" transform="translate(136,251)"/>
<path d="M0 0 C2.78637633 4.1795645 1.79562512 6.14668677 1 11 C0.67 11 0.34 11 0 11 C-0.66 7.7 -1.32 4.4 -2 1 C-1.34 0.67 -0.68 0.34 0 0 Z " fill="#1A91FE" transform="translate(319,236)"/>
<path d="M0 0 C0.66 0.66 1.32 1.32 2 2 C-1.3 1.67 -4.6 1.34 -8 1 C-8 0.34 -8 -0.32 -8 -1 C-4.59407832 -2.2164006 -3.04320125 -1.92736079 0 0 Z " fill="#2483FE" transform="translate(175,200)"/>
<path d="M0 0 C0.17700355 4.60209225 0.10814567 6.78370866 -2 11 C-2.33 7.7 -2.66 4.4 -3 1 C-1 0 -1 0 0 0 Z " fill="#1876FC" transform="translate(200,133)"/>
<path d="M0 0 C0.66 0 1.32 0 2 0 C2.93423645 3.01031744 3.04449911 3.86650268 2 7 C1.01 7 0.02 7 -1 7 C-0.67 4.69 -0.34 2.38 0 0 Z " fill="#1F7AFE" transform="translate(135,398)"/>
<path d="M0 0 C0.86625 0.4640625 0.86625 0.4640625 1.75 0.9375 C3.84294184 1.92583364 5.74535275 2.5168613 8 3 C8 3.99 8 4.98 8 6 C6.88625 5.505 6.88625 5.505 5.75 5 C2.86116688 3.77217129 2.86116688 3.77217129 -1 4 C-0.67 2.68 -0.34 1.36 0 0 Z " fill="#1294FE" transform="translate(138,396)"/>
<path d="M0 0 C0.33 0.99 0.66 1.98 1 3 C-1.84936103 6.00765886 -4.23511958 8.27845212 -8 10 C-7.59007812 9.52949219 -7.18015625 9.05898438 -6.7578125 8.57421875 C-6.21898437 7.95160156 -5.68015625 7.32898438 -5.125 6.6875 C-4.59132813 6.07261719 -4.05765625 5.45773437 -3.5078125 4.82421875 C-1.8359553 2.86501788 -1.8359553 2.86501788 0 0 Z " fill="#0E99FE" transform="translate(294,378)"/>
<path d="M0 0 C2.97 0.99 5.94 1.98 9 3 C8.01 3.99 7.02 4.98 6 6 C2.21503862 4.48601545 1.9927802 3.9855604 0 0 Z " fill="#1C7AFC" transform="translate(138,333)"/>
<path d="M0 0 C2.97 0 5.94 0 9 0 C9 0.66 9 1.32 9 2 C6.92446352 2.5534764 5.15634036 3 3 3 C2.01 3.33 1.02 3.66 0 4 C0 2.68 0 1.36 0 0 Z " fill="#1E7FFE" transform="translate(195,326)"/>
<path d="M0 0 C0.66 0 1.32 0 2 0 C2 3.3 2 6.6 2 10 C1.01 9.01 0.02 8.02 -1 7 C-0.6875 3.3125 -0.6875 3.3125 0 0 Z " fill="#2284FC" transform="translate(78,251)"/>
<path d="M0 0 C1.125 3.75 1.125 3.75 0 6 C-1.97522846 7.04808041 -3.97481509 8.0520411 -6 9 C-4.47291037 5.56404834 -2.40072955 2.88087546 0 0 Z " fill="#0F95FF" transform="translate(91,206)"/>
<path d="M0 0 C1.32 0 2.64 0 4 0 C4 1.32 4 2.64 4 4 C2.35 4.33 0.7 4.66 -1 5 C-1.66 4.01 -2.32 3.02 -3 2 C-2.34 2 -1.68 2 -1 2 C-0.67 1.34 -0.34 0.68 0 0 Z " fill="#1F80FE" transform="translate(316,110)"/>
<path d="M0 0 C0.66 0 1.32 0 2 0 C3 3 3 3 2 6 C1.01 6 0.02 6 -1 6 C-1.33 6.66 -1.66 7.32 -2 8 C-1.125 2.25 -1.125 2.25 0 0 Z " fill="#2683FB" transform="translate(97,498)"/>
<path d="M0 0 C0.66 0.33 1.32 0.66 2 1 C1.55090939 2.48199902 1.09043436 3.96055236 0.625 5.4375 C0.36976563 6.26121094 0.11453125 7.08492188 -0.1484375 7.93359375 C-1 10 -1 10 -3 11 C-2.69217504 9.35328588 -2.37860766 7.70764424 -2.0625 6.0625 C-1.88847656 5.14597656 -1.71445313 4.22945313 -1.53515625 3.28515625 C-1 1 -1 1 0 0 Z " fill="#1391FE" transform="translate(172,462)"/>
<path d="M0 0 C0 1.98 0 3.96 0 6 C-0.99 6.33 -1.98 6.66 -3 7 C-3.6875 5.1875 -3.6875 5.1875 -4 3 C-1.64285714 0 -1.64285714 0 0 0 Z " fill="#237DFB" transform="translate(159,452)"/>
<path d="M0 0 C0.99 0.33 1.98 0.66 3 1 C2.34 2.98 1.68 4.96 1 7 C0.01 6.67 -0.98 6.34 -2 6 C-1.34 4.02 -0.68 2.04 0 0 Z " fill="#0F73FE" transform="translate(108,422)"/>
<path d="M0 0 C0.66 0.66 1.32 1.32 2 2 C-3.17578125 5.22265625 -3.17578125 5.22265625 -5 6 C-5.99 5.67 -6.98 5.34 -8 5 C-6.37633534 1.75267068 -3.24612161 1.29844864 0 0 Z " fill="#1693FF" transform="translate(180,281)"/>
<path d="M0 0 C2.25 0.25 2.25 0.25 4 1 C1.59563974 4.60654039 0.05320393 4.85452932 -4 6 C-4 4 -4 4 -2.25 1.8125 C-1.5075 1.214375 -0.765 0.61625 0 0 Z " fill="#1B8FFF" transform="translate(242,282)"/>
<path d="M0 0 C1.32 0.33 2.64 0.66 4 1 C4 1.66 4 2.32 4 3 C4.99 3.33 5.98 3.66 7 4 C4.21176345 5.0326802 3.1322726 5.04509293 0.25 4.0625 C-0.4925 3.711875 -1.235 3.36125 -2 3 C-1.34 2.67 -0.68 2.34 0 2 C0 1.34 0 0.68 0 0 Z " fill="#1797FF" transform="translate(195,278)"/>
<path d="M0 0 C2.64 0.99 5.28 1.98 8 3 C7.67 3.99 7.34 4.98 7 6 C6.01 5.67 5.02 5.34 4 5 C4 4.34 4 3.68 4 3 C2.68 2.67 1.36 2.34 0 2 C0 1.34 0 0.68 0 0 Z " fill="#1494FF" transform="translate(114,182)"/>
<path d="M0 0 C0.66 0.66 1.32 1.32 2 2 C1.01 4.64 0.02 7.28 -1 10 C-1.66 10 -2.32 10 -3 10 C-2.49287967 6.28111761 -1.88391785 3.26545761 0 0 Z " fill="#119CFF" transform="translate(96,122)"/>
<path d="M0 0 C1 2 1 2 0.0625 5.125 C-0.288125 6.07375 -0.63875 7.0225 -1 8 C-1.66 7.67 -2.32 7.34 -3 7 C-3.1875 4.625 -3.1875 4.625 -3 2 C-2.01 1.34 -1.02 0.68 0 0 Z " fill="#217CFE" transform="translate(223,121)"/>
<path d="M0 0 C0.66 1.32 1.32 2.64 2 4 C1.01 5.485 1.01 5.485 0 7 C-0.99 6.67 -1.98 6.34 -3 6 C-2.01 4.02 -1.02 2.04 0 0 Z " fill="#1777FC" transform="translate(130,521)"/>
<path d="M0 0 C0.99 0 1.98 0 3 0 C3.66 1.65 4.32 3.3 5 5 C4.34 5.66 3.68 6.32 3 7 C0 2.25 0 2.25 0 0 Z " fill="#1E83FA" transform="translate(295,454)"/>
<path d="M0 0 C1.65 0 3.3 0 5 0 C4.67 1.32 4.34 2.64 4 4 C2.68 4 1.36 4 0 4 C0 2.68 0 1.36 0 0 Z " fill="#1877FE" transform="translate(226,391)"/>
<path d="M0 0 C0.99 0.99 1.98 1.98 3 3 C2.67 3.99 2.34 4.98 2 6 C1.34 6 0.68 6 0 6 C0 5.34 0 4.68 0 4 C-0.99 3.67 -1.98 3.34 -3 3 C-2.01 2.01 -1.02 1.02 0 0 Z " fill="#0F92FF" transform="translate(166,175)"/>
<path d="M0 0 C0.99 0.33 1.98 0.66 3 1 C3.6875 3.0625 3.6875 3.0625 4 5 C3.01 5 2.02 5 1 5 C0.34 3.68 -0.32 2.36 -1 1 C-0.67 0.67 -0.34 0.34 0 0 Z " fill="#1671FE" transform="translate(80,544)"/>
<path d="M0 0 C1.32 0 2.64 0 4 0 C4.66 1.98 5.32 3.96 6 6 C5.34 6 4.68 6 4 6 C2.04783565 4.04783565 1.15173355 2.46800047 0 0 Z " fill="#1976FF" transform="translate(246,489)"/>
<path d="M0 0 C1.32 0 2.64 0 4 0 C3.67 1.65 3.34 3.3 3 5 C2.01 5 1.02 5 0 5 C0 3.35 0 1.7 0 0 Z " fill="#1A77FC" transform="translate(234,467)"/>
<path d="M0 0 C2.45484649 2.13464912 3.68134222 3.70720291 4 7 C3.34 7.66 2.68 8.32 2 9 C-0.29013653 5.5647952 -0.17842973 4.014669 0 0 Z " fill="#1892FE" transform="translate(286,434)"/>
<path d="M0 0 C0.99 0 1.98 0 3 0 C3.33 1.98 3.66 3.96 4 6 C3.01 6.495 3.01 6.495 2 7 C2 6.01 2 5.02 2 4 C1.34 4 0.68 4 0 4 C0 2.68 0 1.36 0 0 Z " fill="#0B8DFF" transform="translate(306,387)"/>
<path d="M0 0 C2.31 0.66 4.62 1.32 7 2 C7 2.66 7 3.32 7 4 C5.02 4 3.04 4 1 4 C0.67 2.68 0.34 1.36 0 0 Z " fill="#1193FE" transform="translate(182,346)"/>
<path d="M0 0 C-0.6875 1.9375 -0.6875 1.9375 -2 4 C-4.625 4.75 -4.625 4.75 -7 5 C-6 2 -6 2 -4.0625 0.8125 C-2 0 -2 0 0 0 Z " fill="#0688FF" transform="translate(156,281)"/>
<path d="M0 0 C0 0.99 0 1.98 0 3 C-3.3 2.34 -6.6 1.68 -10 1 C-5.64467851 -1.17766075 -4.53374042 -1.03039555 0 0 Z " fill="#2095FF" transform="translate(283,246)"/>
<path d="M0 0 C0.66 1.32 1.32 2.64 2 4 C-2.75 7 -2.75 7 -5 7 C-4.67 6.01 -4.34 5.02 -4 4 C-3.34 4 -2.68 4 -2 4 C-2 3.34 -2 2.68 -2 2 C-1.34 2 -0.68 2 0 2 C0 1.34 0 0.68 0 0 Z " fill="#1399FF" transform="translate(253,222)"/>
<path d="M0 0 C0.99 0 1.98 0 3 0 C3 0.99 3 1.98 3 3 C-0.63 3 -4.26 3 -8 3 C-8 2.67 -8 2.34 -8 2 C-6.865625 1.855625 -5.73125 1.71125 -4.5625 1.5625 C-1.19222799 1.38828522 -1.19222799 1.38828522 0 0 Z " fill="#2083FC" transform="translate(143,187)"/>
<path d="M0 0 C0.33 0.99 0.66 1.98 1 3 C-0.65 4.65 -2.3 6.3 -4 8 C-3.6875 5.125 -3.6875 5.125 -3 2 C-2.01 1.34 -1.02 0.68 0 0 Z " fill="#1094FE" transform="translate(190,176)"/>
<path d="M0 0 C0.99 0.33 1.98 0.66 3 1 C2.67 1.99 2.34 2.98 2 4 C-0.5625 5.1875 -0.5625 5.1875 -3 6 C-2 4 -1 2 0 0 Z M-5 6 C-3 7 -3 7 -3 7 Z " fill="#1499FF" transform="translate(88,100)"/>
<path d="M0 0 C0.66 0.33 1.32 0.66 2 1 C2 1.99 2 2.98 2 4 C0.02 4 -1.96 4 -4 4 C-3.67 3.01 -3.34 2.02 -3 1 C-2.01 0.67 -1.02 0.34 0 0 Z " fill="#2783FD" transform="translate(170,90)"/>
<path d="M0 0 C0.99 0 1.98 0 3 0 C3 1.98 3 3.96 3 6 C1.68 5.34 0.36 4.68 -1 4 C-0.67 2.68 -0.34 1.36 0 0 Z " fill="#217EFE" transform="translate(213,461)"/>
<path d="M0 0 C0.66 0 1.32 0 2 0 C1.01 3.3 0.02 6.6 -1 10 C-1.33 10 -1.66 10 -2 10 C-1.85950482 8.52031676 -1.71245174 7.04125484 -1.5625 5.5625 C-1.48128906 4.73878906 -1.40007812 3.91507812 -1.31640625 3.06640625 C-1 1 -1 1 0 0 Z " fill="#1198FF" transform="translate(176,453)"/>
<path d="M0 0 C0.66 0 1.32 0 2 0 C2.66 1.98 3.32 3.96 4 6 C3.01 6 2.02 6 1 6 C-0.0625 4.125 -0.0625 4.125 -1 2 C-0.67 1.34 -0.34 0.68 0 0 Z " fill="#1494FE" transform="translate(293,448)"/>
<path d="M0 0 C1.32 0.33 2.64 0.66 4 1 C4.33 2.32 4.66 3.64 5 5 C4.01 5 3.02 5 2 5 C1.34 3.35 0.68 1.7 0 0 Z " fill="#1C78FC" transform="translate(216,435)"/>
<path d="M0 0 C-1.25 1.5625 -1.25 1.5625 -3 3 C-5.1875 2.6875 -5.1875 2.6875 -7 2 C-7 1.34 -7 0.68 -7 0 C-3.86650268 -1.04449911 -3.01031744 -0.93423645 0 0 Z " fill="#1A6FFF" transform="translate(165,318)"/>
<path d="M0 0 C0 0.66 0 1.32 0 2 C-1.98 2.33 -3.96 2.66 -6 3 C-6 2.01 -6 1.02 -6 0 C-3.50907189 -1.24546405 -2.58919267 -0.7767578 0 0 Z " fill="#2378FD" transform="translate(244,295)"/>
<path d="M0 0 C0.99 0.33 1.98 0.66 3 1 C3 2.98 3 4.96 3 7 C2.34 7 1.68 7 1 7 C1 5.68 1 4.36 1 3 C0.34 3 -0.32 3 -1 3 C-0.67 2.01 -0.34 1.02 0 0 Z " fill="#1E7FFF" transform="translate(262,290)"/>
<path d="M0 0 C0.33 0 0.66 0 1 0 C0.25 6.75 0.25 6.75 -2 9 C-2.33 7.35 -2.66 5.7 -3 4 C-2.01 4 -1.02 4 0 4 C0 2.68 0 1.36 0 0 Z " fill="#2483FD" transform="translate(318,259)"/>
<path d="M0 0 C0 0.66 0 1.32 0 2 C0.66 2.33 1.32 2.66 2 3 C-0.64 3 -3.28 3 -6 3 C-6 2.34 -6 1.68 -6 1 C-3 0 -3 0 0 0 Z " fill="#1F82FC" transform="translate(179,254)"/>
<path d="M0 0 C1.98 0.66 3.96 1.32 6 2 C6 3.65 6 5.3 6 7 C1.125 2.25 1.125 2.25 0 0 Z " fill="#2585F6" transform="translate(279,247)"/>
<path d="M0 0 C0.99 0 1.98 0 3 0 C2.34 1.65 1.68 3.3 1 5 C0.01 4.67 -0.98 4.34 -2 4 C-1.34 2.68 -0.68 1.36 0 0 Z " fill="#2376FD" transform="translate(84,216)"/>
<path d="M0 0 C1.485 0.99 1.485 0.99 3 2 C3 2.66 3 3.32 3 4 C3.99 4.33 4.98 4.66 6 5 C5.34 5.66 4.68 6.32 4 7 C4 6.34 4 5.68 4 5 C2.68 5 1.36 5 0 5 C0 3.35 0 1.7 0 0 Z " fill="#1197FF" transform="translate(102,172)"/>
</svg>
