<?xml version="1.0" encoding="UTF-8"?>
<svg version="1.1" xmlns="http://www.w3.org/2000/svg" width="1500" height="1500">
<path d="M0 0 C183.81 0 367.62 0 557 0 C557 33.66 557 67.32 557 102 C537.86 102 518.72 102 499 102 C499.00368717 106.51131781 499.00737434 111.02263561 499.01117325 115.67066002 C499.0752593 194.64327674 499.13420676 273.615896 499.16937256 352.58853149 C499.16992479 353.82551105 499.17047702 355.0624906 499.17104598 356.33695438 C499.18301862 383.22220234 499.1940992 410.10745059 499.20426132 436.99269929 C499.20925051 450.17791287 499.21443674 463.36312638 499.21972656 476.54833984 C499.2202496 477.86040168 499.22077263 479.17246351 499.22131152 480.5242848 C499.23834584 523.02415423 499.26838282 565.52400234 499.30518888 608.02385886 C499.3429545 651.71123069 499.36754995 695.39859072 499.37565996 739.0859786 C499.37681252 745.26166099 499.37811506 751.43734333 499.37950897 757.61302567 C499.37991351 759.4361548 499.37991351 759.4361548 499.38032622 761.29611483 C499.3850464 780.83237022 499.40358057 800.36858906 499.42732814 819.90482957 C499.45092701 839.56268735 499.45985944 859.22050903 499.45400551 878.87838046 C499.45097163 890.54622384 499.45899846 902.2139347 499.48319017 913.88175405 C499.49827259 921.69238841 499.49859686 929.50293674 499.48732725 937.31357721 C499.48133171 941.7534075 499.4813655 946.19298855 499.49953273 950.63279133 C499.74854397 1015.29855922 479.64969943 1072.19495725 433.6875 1118.625 C426.22045205 1126.06790642 418.55504101 1132.84782765 410 1139 C408.948125 1139.7734375 407.89625 1140.546875 406.8125 1141.34375 C382.63733471 1158.64558398 355.03871781 1170.45430013 326.0625 1176.875 C325.20108398 1177.06610352 324.33966797 1177.25720703 323.45214844 1177.45410156 C308.82707673 1180.47562931 294.26883708 1181.38282313 279.375 1181.3125 C278.54683777 1181.31034485 277.71867554 1181.3081897 276.86541748 1181.30596924 C233.95217866 1181.12755511 190.23159178 1169.22471297 155 1144 C153.99453125 1143.28457031 152.9890625 1142.56914063 151.953125 1141.83203125 C132.49919586 1127.59437586 113.90112861 1110.80938256 100 1091 C99.56848633 1090.3910791 99.13697266 1089.7821582 98.69238281 1089.15478516 C68.71657274 1046.30880754 58.47643053 1000.03052151 58.63320142 948.68590767 C58.64361771 944.16480215 58.63637027 939.64371672 58.63146895 935.12260658 C58.62528078 927.21715319 58.63012216 919.3117679 58.64238358 911.40632248 C58.66056458 899.65141381 58.66138397 887.89654765 58.65875761 876.14162749 C58.65482487 856.36349091 58.66480599 836.5853845 58.68280983 816.8072567 C58.7005814 797.23397357 58.7121118 777.66070302 58.71536827 758.08741188 C58.71557449 756.86887025 58.71578071 755.65032861 58.71599318 754.39486148 C58.71700822 748.20611009 58.71791236 742.0173587 58.7187738 735.8286073 C58.72506939 692.03213265 58.74526568 648.2356744 58.77368164 604.43920898 C58.80124964 561.90047289 58.82249328 519.36174129 58.83520508 476.82299805 C58.83559966 475.51099089 58.83599424 474.19898374 58.83640077 472.8472188 C58.84035645 459.67109891 58.84418387 446.49497899 58.84791735 433.31885904 C58.8555253 406.47932152 58.86398906 379.63978429 58.87297058 352.80024719 C58.87338245 351.56630003 58.87379432 350.33235287 58.87421867 349.06101336 C58.90180495 266.70733531 58.9495698 184.3536668 59 102 C39.53 102 20.06 102 0 102 C0 68.34 0 34.68 0 0 Z M140 103 C140 209.92 140 316.84 140 427 C231.74 427 323.48 427 418 427 C418 320.08 418 213.16 418 103 C326.26 103 234.52 103 140 103 Z M292 541 C282.94664049 550.65691681 278.58060897 561.8056611 278 575 C278.62941906 588.67412917 284.08531605 600.56499386 294.0625 609.9375 C304.34461281 618.4569649 315.93535848 622.26297163 329.2890625 621.9140625 C342.00846564 620.52142712 353.29510244 614.28273873 362 605 C362.48855469 604.48179687 362.97710938 603.96359375 363.48046875 603.4296875 C371.90858984 593.10848076 373.20343005 579.87497902 372.23925781 567.11181641 C370.90247893 555.31269671 363.43015085 544.19750191 354.46484375 536.71875 C350.2609342 533.78733922 345.76522027 531.83737333 341 530 C339.989375 529.5875 338.97875 529.175 337.9375 528.75 C321.52752225 524.56021845 304.24920784 529.29362796 292 541 Z M207 672 C206.07316406 672.45632813 205.14632812 672.91265625 204.19140625 673.3828125 C188.96363714 681.27563177 180.14470465 693.22305564 174 709 C169.83762825 723.03304406 170.14739857 738.41949176 176 752 C185.29597855 769.03589112 197.26926653 780.56892218 216 786.8125 C231.09596403 790.84449039 247.06557645 789.03794489 261 782 C266.8923194 778.30608403 272.3365857 774.18157144 277 769 C277.81017578 768.17822266 277.81017578 768.17822266 278.63671875 767.33984375 C288.82141879 756.58073546 294 741.73748989 294 727 C292.75624311 709.99551124 286.57059001 693.66129194 273.8203125 682.0078125 C255.13752386 666.19011605 229.49323571 660.8082437 207 672 Z M298 831 C297.175 831.5775 296.35 832.155 295.5 832.75 C288.49634842 839.05328642 281.71146424 849.32207414 280.82299805 858.91015625 C280.40958021 873.43084023 281.90944632 885.02644216 291 897 C291.66 897 292.32 897 293 897 C293.33 897.99 293.66 898.98 294 900 C303.01834856 908.43361773 314.72546896 912.84263422 327 913 C339.49516501 911.97232977 349.59821276 907.29569462 359 899 C359 898.34 359 897.68 359 897 C359.66 897 360.32 897 361 897 C363.33207886 893.86835125 365.13746171 890.42574008 367 887 C367.4228125 886.26652344 367.845625 885.53304687 368.28125 884.77734375 C372.70705609 875.81508642 372.33934472 864.21685141 370.26953125 854.609375 C368.33034726 848.94220874 365.45534075 843.87549698 362 839 C361.401875 838.13375 360.80375 837.2675 360.1875 836.375 C351.63702621 827.09162846 340.22668241 822.07869306 327.7421875 821.03515625 C316.58591706 820.89212714 306.93631478 824.50086198 298 831 Z " fill="#0078FA" transform="translate(695,167)"/>
<path d="M0 0 C5.55051722 3.92131682 9.51368097 9.47134722 13.6171875 14.80078125 C14.23585693 15.60064453 14.85452637 16.40050781 15.49194336 17.22460938 C20.35244983 23.54144029 25.01810745 29.97405744 29.60205078 36.49267578 C31.62358921 39.34097064 33.6858044 42.15934705 35.74267578 44.98217773 C41.47917975 52.86634246 47.00843481 60.84735122 52.36230469 68.99462891 C54.25854529 71.86025606 56.17586028 74.71131708 58.09375 77.5625 C67.33874378 91.31693743 76.37668241 105.16399852 84.9296875 119.36328125 C85.73116211 120.69020996 85.73116211 120.69020996 86.54882812 122.04394531 C94.17710889 134.70797726 101.46921371 147.53126589 108.43701172 160.5703125 C109.44014722 162.44729486 110.44704568 164.32227053 111.45751953 166.1953125 C135.19146325 210.2435838 156.84831513 261.55231536 143.9296875 312.36328125 C143.62369629 313.59812256 143.62369629 313.59812256 143.31152344 314.85791016 C135.32370141 346.40806309 120.49711116 372.92926852 97.9296875 396.36328125 C97.34058594 397.00394531 96.75148438 397.64460938 96.14453125 398.3046875 C77.29595368 418.26472911 50.8414483 430.57146692 24.9296875 438.05078125 C23.89932373 438.35471802 23.89932373 438.35471802 22.84814453 438.66479492 C10.6446955 442.05589941 -1.72959704 442.74357462 -14.3203125 442.67578125 C-15.04464478 442.6736261 -15.76897705 442.67147095 -16.51525879 442.66925049 C-27.6192251 442.61634533 -38.26892034 442.08209952 -49.0703125 439.36328125 C-49.87758789 439.16992188 -50.68486328 438.9765625 -51.51660156 438.77734375 C-70.54334508 434.13352838 -88.07444398 426.69862512 -104.0703125 415.36328125 C-105.09382813 414.64398437 -106.11734375 413.9246875 -107.171875 413.18359375 C-114.64948042 407.75411798 -121.38881558 401.72024832 -128.0703125 395.36328125 C-128.76640625 394.73164062 -129.4625 394.1 -130.1796875 393.44921875 C-156.61512446 368.65234193 -174.70553667 327.03362683 -176.21264648 290.95605469 C-176.62784923 274.12396781 -176.90426846 257.64178109 -172.0703125 241.36328125 C-171.75304199 240.28111328 -171.43577148 239.19894531 -171.10888672 238.08398438 C-159.85678807 200.56675506 -141.76986753 165.6093328 -121.70947266 132.10205078 C-120.13685739 129.47446691 -118.57667967 126.83989633 -117.01953125 124.203125 C-106.17441657 105.90154716 -94.70914342 88.03125605 -82.58447266 70.55224609 C-81.13724113 68.46003747 -79.70111393 66.36075109 -78.26953125 64.2578125 C-68.50717592 49.9306684 -58.28988599 35.93397026 -47.96533203 22.00805664 C-45.48828863 18.66492147 -43.02038152 15.32266754 -40.65625 11.8984375 C-31.17931029 -1.73152405 -15.93029117 -7.77321436 0 0 Z M-117.8203125 279.67578125 C-121.96153768 284.62224466 -122.38788059 288.82290386 -121.9453125 295.11328125 C-121.89455566 295.85698975 -121.84379883 296.60069824 -121.79150391 297.36694336 C-119.86878098 320.85727937 -110.33865758 341.36344583 -94.0703125 358.36328125 C-93.51859375 358.97816406 -92.966875 359.59304688 -92.3984375 360.2265625 C-77.53697918 376.22838025 -54.83271852 385.29571903 -33.32421875 386.51953125 C-26.43482349 386.73911357 -23.02785349 385.99220658 -17.8203125 381.36328125 C-15.45880846 378.6644195 -15.0989188 376.66078674 -14.7578125 373.11328125 C-15.15922982 368.29627344 -16.2715617 366.29666075 -19.0703125 362.36328125 C-23.25075934 359.11438886 -27.33552799 358.83519501 -32.4453125 358.48828125 C-49.42384889 356.905799 -65.43844346 350.45240435 -77.203125 337.703125 C-88.11406419 324.03021167 -93.23933495 310.36732826 -94.90771484 293.00195312 C-95.62615114 286.26766579 -96.95455835 282.278019 -102.0078125 277.55078125 C-107.92448237 274.14421375 -112.70987534 275.37836818 -117.8203125 279.67578125 Z " fill="#0078FA" transform="translate(442.0703125,537.63671875)"/>
<path d="M0 0 C12.07399362 9.49769562 21.37098034 22.40035857 23.453125 37.9296875 C25.13101831 56.65617534 22.20586475 71.60280454 10.3515625 86.5859375 C1.27960328 97.22865998 -10.44904175 104.93869536 -24.546875 106.9296875 C-36.37867568 107.69363689 -47.48597303 107.63446552 -58.546875 102.9296875 C-59.40023437 102.60226562 -60.25359375 102.27484375 -61.1328125 101.9375 C-75.07503863 95.91199533 -84.99078147 83.25189397 -90.98828125 69.6640625 C-96.26079973 54.15881652 -95.22363835 35.9561436 -88.26171875 21.20703125 C-80.1773451 6.63714336 -67.40999619 -3.57492811 -51.734375 -8.8828125 C-34.09613982 -13.20492962 -14.93843694 -10.42112517 0 0 Z " fill="#0078FA" transform="translate(355.546875,361.0703125)"/>
<path d="M0 0 C7.4191718 5.26562026 13.62383207 12.93309737 16.140625 21.7890625 C18.00536736 33.46035174 17.51615654 44.89910133 10.96484375 55.01953125 C4.78826563 63.3736613 -2.95360088 69.62734286 -13.421875 71.52734375 C-27.09409875 72.25953287 -37.39086156 71.36883656 -48.421875 62.52734375 C-54.20441235 57.17751327 -59.86361346 48.60199931 -60.59887695 40.60131836 C-61.0130033 25.92540664 -59.85626387 15.66733679 -49.421875 4.52734375 C-36.14444186 -8.10309582 -15.42130788 -9.37715012 0 0 Z " fill="#0078FA" transform="translate(512.421875,272.47265625)"/>
</svg>
