<svg width="71" height="70" viewBox="0 0 71 70" fill="none" xmlns="http://www.w3.org/2000/svg">
<path d="M31.3062 64.9721C31.3062 63.4207 31.1186 62.2672 30.1455 57.7979C28.4373 49.9588 28.5979 47.3377 31.0064 43.8439C32.2657 42.0185 32.3006 42.0761 29.8398 41.9383C25.1989 41.6782 21.7652 40.2926 20.2892 38.0868C18.2424 35.0276 19.0549 31.1988 22.2101 29.0348L23.4173 28.2059C20.7399 24.768 19.9235 22.0439 20.1789 19.5675C20.3046 18.3425 20.3046 18.3425 18.7918 18.1278C16.7084 17.8311 16.7974 17.8067 16.7974 18.6548C16.7974 19.0632 16.5362 20.0876 16.217 20.9322C15.507 22.8082 15.509 22.7 16.2112 24.3474C17.0953 26.4224 17.1456 27.3351 16.4975 29.5409C15.952 31.3977 15.952 31.3977 16.7587 32.6402C19.0259 36.134 18.8112 40.2368 16.2073 43.1912C15.0486 44.5053 15.0486 44.5053 15.8185 45.9119C17.4009 48.8018 17.2965 51.245 15.5921 51.245C14.5978 51.245 14.3134 50.9012 14.0136 49.3393C13.6015 47.198 12.7059 45.9084 11.6709 45.9625C8.48281 46.1283 7.61615 46.0672 6.25425 45.5733C1.151 43.7287 -1.33292 38.1409 0.766031 33.2371C1.37153 31.8235 1.37153 31.8235 0.775704 30.4082C-0.236047 28.0104 -0.253458 26.5184 0.696389 23.9705C1.20323 22.6093 1.20323 22.6093 0.562907 20.5256C-0.150929 18.2116 -0.152863 17.1785 0.5513 15.0424C0.899513 13.9919 0.897578 13.9797 0.423622 12.3288C-2.0661 3.6852 8.19457 -3.26911 16.1299 1.68529C17.281 2.40253 17.281 2.40253 19.1226 2.2891C21.6375 2.13378 23.7268 2.63463 25.6303 3.84924C26.9497 4.69039 26.9497 4.69038 28.4335 4.3815C30.3525 3.98187 31.6525 4.11275 33.8907 4.93121C35.6066 5.55771 35.6066 5.55771 36.8892 5.01847C38.8856 4.18081 39.9651 4.03422 42.1937 4.30122C44.0856 4.52809 44.0856 4.52809 45.4417 3.71486C47.4749 2.49153 49.243 2.09365 51.5973 2.32575C53.4158 2.50549 53.4158 2.50549 54.7893 1.64864C62.7769 -3.33543 73.1091 3.76373 70.573 12.4911C70.1339 14.0024 70.1338 14.0024 70.5478 15.4002C71.1533 17.4333 71.105 18.9934 70.3834 20.8258C70.0642 21.6338 69.803 22.3981 69.803 22.522C69.803 22.6477 70.0642 23.4243 70.3834 24.2497C71.2365 26.4555 71.2075 28.075 70.2789 30.2808C69.5903 31.9143 69.5903 31.9143 70.1803 33.5826C71.2481 36.5999 70.7355 39.9785 68.8416 42.399C68.1452 43.289 68.0136 43.6171 67.7583 45.1039C66.5047 52.3531 59.0665 56.6182 51.2839 54.5485C49.2701 54.0127 49.2701 54.0127 47.591 54.4804C46.1497 54.8818 45.7029 54.9324 44.4377 54.8399C42.9655 54.7317 42.9655 54.7317 42.8727 56.5222C42.7934 58.0248 42.6309 58.7333 41.8667 60.9304C41.149 62.9914 40.9207 63.946 40.7969 65.4189C40.588 67.8742 40.0405 68.8009 38.4039 69.4728C37.5702 69.8148 37.0072 69.9178 35.9587 69.9178C34.7767 69.9178 34.4459 69.8427 33.4825 69.3506C31.8189 68.5025 31.3062 67.4711 31.3062 64.9721ZM37.9648 64.8569C38.0441 63.8168 38.3672 62.4905 39.0443 60.4243C40.1334 57.1068 40.2514 55.8835 39.6962 53.7073C39.1197 51.4369 39.851 50.9186 42.4432 51.758C44.5847 52.4526 45.3044 52.4386 47.3936 51.6551C49.0941 51.0164 49.0941 51.0164 51.2665 51.6987C58.0799 53.8347 64.0556 50.6342 65.0306 44.3291C65.2879 42.6538 65.3595 42.4845 66.3809 41.0709C67.2243 39.9034 67.5242 39.2979 67.7602 38.2857C68.1935 36.4324 68.1664 36.2003 67.2553 33.9089C66.4351 31.8445 66.4351 31.8445 67.2708 30.0313C68.3831 27.6126 68.3754 26.1746 67.2379 24.2148C66.3383 22.6634 66.3403 22.5447 67.2882 20.6181C68.2767 18.6112 68.3173 17.5676 67.4952 15.3443C67.1837 14.5015 66.9612 13.7336 67.0019 13.6376C67.9749 11.3515 68.0987 10.8227 68.0059 9.30623C67.6538 3.49323 60.2407 0.542233 55.6888 4.40244C54.3714 5.52106 54.3269 5.52804 52.0984 5.097C49.6996 4.63454 48.1674 5.00102 46.4244 6.45645C44.9658 7.67454 44.7433 7.73213 43.2731 7.27665C40.973 6.5629 38.9359 6.80198 36.866 8.03055C35.5254 8.82458 35.5196 8.82458 33.7882 7.88745C31.6409 6.72694 30.3215 6.55068 28.329 7.15624C26.2146 7.79845 26.083 7.7775 24.6515 6.59257C22.715 4.9888 21.2506 4.62407 18.5829 5.0778C16.5923 5.4181 16.5923 5.4181 15.2149 4.41815C8.98191 -0.103462 0.980763 5.16506 3.45694 12.1612C4.04697 13.8278 4.04697 13.8278 3.4434 15.477C2.66186 17.6078 2.73537 18.5484 3.86319 20.8816C4.66408 22.5412 4.66408 22.5412 3.82063 24.1537C2.6193 26.4451 2.62123 27.6003 3.8303 30.0749C4.68536 31.8235 4.68536 31.8235 3.82643 33.5023C2.19951 36.6732 2.70441 39.6766 5.23669 41.8929C11.1679 47.0846 19.0259 39.2106 13.7756 33.3383C12.4408 31.8462 12.3905 31.6141 13.0947 30.1918C14.3192 27.7173 14.2805 26.3473 12.9225 24.0926C11.9804 22.529 11.9765 22.7105 13.0096 20.9532C14.4314 18.5379 14.4121 17.1052 12.9438 15.573C12.021 14.6114 11.8876 13.7877 12.5608 13.2048C13.2069 12.6446 13.7331 12.7773 15.1704 13.8593C17.3332 15.4892 19.7784 15.9237 22.3571 15.1332C24.075 14.6079 24.3129 14.6498 25.7774 15.744C28.271 17.6113 30.9541 17.8085 33.7921 16.3338C35.4248 15.4857 35.5002 15.4857 37.1949 16.3216C40.4004 17.9062 43.0178 17.5868 45.846 15.2693C46.5541 14.6899 46.5541 14.6899 48.7807 15.189C51.8991 15.8871 53.2204 15.6515 55.5573 13.9762C57.2229 12.7808 57.7607 12.6342 58.3894 13.2013C58.9524 13.7092 58.8808 14.5294 58.2037 15.3775C56.8418 17.0825 56.6483 19.7996 57.7239 22.1015C58.7492 24.2898 58.7492 24.3317 57.8342 26.0768C56.7315 28.1815 56.7141 29.3332 57.7549 31.7241C58.4861 33.4064 58.4861 33.4064 57.4589 35.2213C56.4317 37.0362 56.4317 37.0362 56.4781 38.8337C56.5342 41.1111 56.3756 41.2978 54.3888 41.2978C52.553 41.2995 51.4213 41.7445 49.8485 43.0831C48.2061 44.4809 47.8308 44.5018 46.4573 43.2645C40.6364 38.0239 31.8866 42.4932 31.8866 50.704C31.8866 51.8104 32.169 53.5101 32.9602 57.1784C33.6857 60.536 34.0822 62.8605 34.1809 64.3334C34.3086 66.2408 34.3802 66.5637 34.7516 66.9074C35.036 67.171 35.4132 67.3036 35.9007 67.3106C37.2452 67.3298 37.8294 66.6352 37.9648 64.8569ZM46.3529 40.3327C46.7011 40.3938 47.2021 40.5963 47.4652 40.783C47.9043 41.0971 47.974 41.1006 48.3299 40.8475C48.6395 40.6259 48.7168 40.3624 48.7168 39.5317C48.7168 36.0869 46.2813 34.9386 40.7853 35.7954C33.2291 36.9716 25.1158 36.3434 25.1158 34.5808C25.1158 33.3802 25.7986 33.1777 28.7062 33.518C37.7404 34.5738 47.0106 32.9038 49.1231 29.8393C50.0768 28.4554 49.8331 26.0507 48.6066 24.7366C47.1189 23.1416 45.6139 23.1084 40.0638 24.5481C33.7244 26.1903 31.1805 26.1658 28.8552 24.4399C27.4352 23.3859 27.0503 22.6302 27.0503 20.8956C27.0503 19.4995 27.0503 19.4995 26.1604 19.1452C25.671 18.9498 24.843 18.5065 24.3187 18.161C23.3689 17.531 23.3689 17.531 23.1561 18.5501C22.3939 22.2097 24.0711 25.768 27.294 27.3368C30.6446 28.9668 33.9991 28.9929 40.7853 27.445C45.5616 26.3543 45.9157 26.3508 46.1439 27.3822C46.3664 28.3856 45.993 28.6945 43.7645 29.3542C38.6013 30.8794 34.6433 31.2459 29.7702 30.6491C26.5976 30.2599 26.4312 30.2564 25.3034 30.5391C22.9491 31.129 21.4557 33.3016 21.9857 35.3696C22.922 39.0291 28.1007 40.0814 39.141 38.8599C44.4745 38.27 44.8517 38.3119 45.4282 39.5823C45.6564 40.0849 45.8538 40.2455 46.3529 40.3327ZM49.0592 34.4307C50.1561 35.2527 51.1679 36.7954 51.4155 38.0257C51.5277 38.5771 51.6399 39.0274 51.667 39.0239C51.6941 39.0204 52.1119 38.9384 52.5975 38.8424C53.4777 38.6661 53.4777 38.6661 53.7176 37.1671C53.8994 36.031 54.1315 35.3888 54.6751 34.5005C55.3909 33.3331 55.3909 33.3331 54.8106 32.1237C53.9226 30.2739 53.9478 27.4695 54.8667 25.6231C55.5031 24.3457 55.5031 24.3457 55.0292 23.4417C54.354 22.1486 54.0561 20.5727 54.2012 19.037C54.267 18.3233 54.3018 17.7387 54.2766 17.7387C54.2515 17.7387 53.6653 17.8573 52.9728 18.0004C51.3652 18.3355 50.2973 18.318 48.6627 17.9341C47.353 17.6252 47.353 17.6252 45.9544 18.4768C43.1396 20.194 39.9129 20.4104 36.8467 19.0894C35.5215 18.5187 35.5215 18.5187 34.177 19.1208C33.2485 19.5361 32.3547 19.7804 31.283 19.9078C29.7335 20.0946 29.7335 20.0946 29.8611 20.7054C30.4202 23.3946 33.0608 23.7262 39.6246 21.9304C44.3835 20.6286 45.8131 20.5186 47.9585 21.2935C53.2629 23.2079 54.1528 30.3646 49.4326 33.1306C48.2487 33.8234 48.2487 33.8234 49.0592 34.4307Z" fill="#4993C1"/>
</svg>
