<svg width="23" height="23" viewBox="0 0 23 23" fill="none" xmlns="http://www.w3.org/2000/svg">
<path d="M11.0208 9.58366L9.10417 8.62533L6.70833 11.5003M14.8542 18.6715C14.3143 19.4194 13.6043 20.0281 12.7828 20.4475C11.9614 20.8669 11.0519 21.085 10.1296 21.0837C6.91629 21.0837 4.3125 18.4914 4.3125 15.2934C4.3125 14.4549 4.46967 13.6575 4.79167 12.9378M12.1229 7.66699L11.4003 9.43608C10.6662 11.2368 10.2992 12.1367 10.717 12.7768C11.1349 13.417 12.0894 13.417 13.9984 13.417C14.6635 13.417 15.3055 13.2445 15.6755 13.8923L18.6875 19.167M13.4167 5.75033C12.9083 5.75033 12.4208 5.54839 12.0614 5.18895C11.7019 4.8295 11.5 4.34199 11.5 3.83366C11.5 3.32533 11.7019 2.83782 12.0614 2.47837C12.4208 2.11893 12.9083 1.91699 13.4167 1.91699C13.925 1.91699 14.4125 2.11893 14.772 2.47837C15.1314 2.83782 15.3333 3.32533 15.3333 3.83366C15.3333 4.34199 15.1314 4.8295 14.772 5.18895C14.4125 5.54839 13.925 5.75033 13.4167 5.75033Z" stroke="url(#paint0_linear_106_411)" stroke-width="2" stroke-linecap="round" stroke-linejoin="round"/>
<defs>
<linearGradient id="paint0_linear_106_411" x1="11.5" y1="1.91699" x2="11.5" y2="21.0837" gradientUnits="userSpaceOnUse">
<stop stop-color="#8DB1FF"/>
<stop offset="1" stop-color="#D0E2FF"/>
</linearGradient>
</defs>
</svg>
