<svg width="49" height="51" viewBox="0 0 49 51" fill="none" xmlns="http://www.w3.org/2000/svg">
<g clip-path="url(#clip0_106_380)">
<path d="M24.7282 49.2417L24.7184 44.8208C24.7126 42.389 24.7458 39.6084 24.7917 38.6412C24.909 36.1703 24.7927 36.3432 27.1179 35.1728C29.3552 34.0463 29.7969 33.6731 30.4205 32.3854C31.825 29.4846 30.4127 26.3758 27.3681 25.6684C26.206 25.3987 22.2065 25.3753 21.1617 25.6332C18.4709 26.2966 17.0703 28.7997 17.8327 31.5813C18.3087 33.3155 19.1541 34.1508 21.5292 35.2353C23.6765 36.2162 23.611 35.9602 23.8485 49.2417C22.9963 49.0717 22.9953 49.0561 22.9816 42.5981C22.9679 36.2739 23.2044 37.033 20.8675 35.8362C19.0095 34.8845 18.4054 34.4214 17.6274 33.3516C17.1397 32.6804 17.084 32.6374 16.1692 32.2359C14.3991 31.4572 13.4217 30.3532 12.9956 28.6512C12.8773 28.1813 12.546 27.2795 12.2576 26.6474C11.8432 25.7358 11.724 25.3606 11.6839 24.8399C11.6565 24.4774 11.4904 23.5463 11.3144 22.7696C10.9958 21.3568 10.9958 21.3568 11.1835 20.0555C11.2978 19.2651 11.3359 18.7199 11.2812 18.6691C11.2314 18.6222 10.3556 17.994 9.33425 17.2729C7.22699 15.7849 5.44618 14.3194 5.21356 13.8827C4.99071 13.4636 5.30445 12.8647 6.63664 11.1608C14.3913 1.24409 29.1157 -0.202866 38.8789 7.99328C41.1005 9.8584 43.6046 12.9575 43.4648 13.6687C43.3749 14.127 42.074 15.275 39.5797 17.0971C37.0854 18.9192 37.1772 18.7893 37.4001 20.205C37.5653 21.2504 37.5653 21.2504 37.2535 22.6182C37.0815 23.3705 36.8782 24.4256 36.801 24.963C36.6905 25.7251 36.5713 26.1227 36.2565 26.7705C36.0347 27.2267 35.7268 28.0904 35.5714 28.6893C35.0915 30.5456 34.2822 31.4523 32.3538 32.2955C31.3735 32.7244 31.3539 32.74 30.7304 33.5539C29.9455 34.5787 29.4861 34.9187 27.5294 35.9221C25.3772 37.0252 25.6078 36.1595 25.6098 43.1276C25.6118 49.4967 25.6391 49.2417 24.9334 49.2417H24.7282ZM13.7814 28.2858C13.9954 29.6224 14.5604 30.3913 15.9639 31.2549C16.3226 31.4748 16.6706 31.6555 16.738 31.6555C16.8309 31.6555 16.8572 31.3145 16.8484 30.2457C16.8367 28.8359 16.8367 28.8359 16.1955 28.2184C15.5544 27.6009 15.5544 27.6009 15.4019 26.4862C15.2885 25.6645 15.1712 25.2131 14.9523 24.7637C14.7138 24.2752 14.6376 23.9537 14.5662 23.1418C14.5076 22.4785 14.3903 21.902 14.2271 21.4682C13.5282 19.6187 14.3864 17.9471 15.572 18.8459C16.8133 19.7878 16.9325 19.8474 17.775 19.9412C18.2901 19.9988 18.7983 20.1307 19.1883 20.3075C19.6702 20.5254 20.0025 20.5967 20.7834 20.6475C21.3259 20.6827 21.9465 20.7745 22.1645 20.8517C22.7998 21.0755 25.7818 21.0403 26.5119 20.7999C26.8745 20.6808 27.3525 20.6153 27.8539 20.6153C28.4882 20.6153 28.7678 20.5616 29.362 20.3261C29.7627 20.1668 30.4283 19.9939 30.8408 19.9431C31.4341 19.8698 31.6921 19.7819 32.0772 19.524C32.345 19.3452 32.7448 19.0775 32.9647 18.9299C34.2705 18.0545 34.9654 19.3403 34.3272 21.4526C34.1669 21.986 34.0046 22.7745 33.9665 23.2044C33.9167 23.7877 33.8111 24.1824 33.5521 24.7598C33.2608 25.4095 33.1944 25.6918 33.1338 26.5252C33.0487 27.6996 32.9969 27.8129 32.2805 28.3972C31.7293 28.8456 31.7293 28.8456 31.7175 30.2506C31.7097 31.1377 31.742 31.6555 31.8035 31.6555C32.0635 31.6555 33.168 31.042 33.5609 30.6795C34.2607 30.0347 34.594 29.4309 34.809 28.4167C34.9253 27.8657 35.1873 27.1154 35.4883 26.4666C35.933 25.5111 35.9868 25.3196 36.064 24.4061C36.1168 23.7945 36.236 23.1702 36.3689 22.8136C36.9681 21.2113 36.6045 19.2602 35.5069 18.1991C34.0164 16.7571 32.5815 16.6564 30.4547 17.8455C29.6689 18.2851 29.6015 18.3037 28.5576 18.3799C27.6946 18.4414 27.375 18.5079 26.984 18.7062C26.4347 18.9847 25.7936 19.0286 25.041 18.8391C24.6823 18.7492 24.3587 18.7512 23.5553 18.8508C22.5369 18.9778 22.5232 18.9768 21.7677 18.715C21.3171 18.5587 20.5274 18.3955 19.8324 18.3144C18.7465 18.1874 18.596 18.1435 17.8444 17.7341C15.9639 16.7092 14.6171 16.846 12.9311 18.2333C11.9879 19.0101 11.6712 20.7736 12.1521 22.5752C12.2899 23.0891 12.4492 23.9684 12.5059 24.5292C12.6026 25.4789 12.6466 25.6205 13.1422 26.5829C13.5214 27.3186 13.7051 27.81 13.7814 28.2858ZM16.1809 26.0387C16.2747 27.0489 16.3891 27.4036 16.7145 27.6879C16.8748 27.8276 17.0439 27.9429 17.0889 27.9429C17.1348 27.9429 17.3498 27.6439 17.5678 27.2785C18.812 25.1936 20.5635 24.5507 24.7282 24.6523C28.3514 24.7402 29.8722 25.3772 31.0031 27.2795C31.4439 28.022 31.525 28.0562 31.9365 27.6732C32.2043 27.4221 32.2307 27.3362 32.2932 26.4764C32.3489 25.7202 32.432 25.3782 32.7438 24.6181C33.0448 23.8844 33.1465 23.4818 33.2198 22.7129C33.2794 22.1013 33.4074 21.4926 33.5658 21.0774C34.0858 19.7116 33.8473 19.2426 32.9784 19.9206C32.3049 20.4463 31.8847 20.6182 31.0021 20.7286C30.6082 20.7775 29.9582 20.9485 29.5575 21.1077C28.9838 21.3354 28.6759 21.3969 28.1158 21.3969C27.7073 21.3969 27.0739 21.4839 26.6282 21.6011C25.5169 21.8922 23.0823 21.8922 21.9055 21.6001C21.4559 21.4887 20.7864 21.3969 20.4179 21.3969C19.9067 21.3969 19.5783 21.3295 19.0271 21.1106C18.6302 20.9524 17.9549 20.7755 17.5277 20.7169C16.738 20.6094 16.4155 20.458 15.356 19.6969C14.5926 19.1478 14.4812 19.6099 14.9904 21.2015C15.1927 21.8326 15.3442 22.5449 15.3853 23.0549C15.4361 23.6909 15.528 24.0514 15.7841 24.6191C16.0098 25.1183 16.1369 25.5756 16.1809 26.0387ZM23.6433 18.0145C24.4115 17.9715 24.9159 17.9871 25.1534 18.0614C25.3498 18.1229 25.6812 18.1728 25.8893 18.1728C26.0975 18.1728 26.5051 18.0653 26.7934 17.9334C27.1805 17.7566 27.6076 17.6696 28.4218 17.6002C29.4764 17.5104 29.5565 17.4879 30.2231 17.0854C30.6434 16.8313 31.2318 16.5832 32.4985 16.2529L31.094 15.7947C26.856 14.4152 22.618 14.3595 18.2119 15.6267C16.0626 16.2451 15.9346 16.3164 16.7136 16.465C17.0635 16.5314 17.7633 16.7893 18.2706 17.0375C19.0476 17.4185 19.2812 17.4889 19.765 17.4889C20.1012 17.4889 20.7834 17.611 21.4139 17.7849C22.4294 18.0633 22.5545 18.076 23.6433 18.0145Z" fill="#053870"/>
<path d="M29.9637 38.7935C30.3331 36.9987 31.076 36.0119 33.2966 34.3628C37.992 30.8778 40.8186 25.8374 40.4658 21.5805C40.4091 20.8976 40.4247 20.796 40.6388 20.455C40.9701 19.9274 45.4339 16.3701 45.6772 16.4395C45.948 16.5176 46.7436 18.3105 47.2372 19.9557C50.8995 32.1694 43.8476 45.2056 31.6565 48.76C30.7358 49.0277 29.9373 49.2475 29.8806 49.2475C29.8239 49.2475 29.7487 48.9994 29.7135 48.6965C29.5669 47.441 29.7604 39.7803 29.9637 38.7935Z" fill="#4993C1"/>
<path d="M23.8484 49.2415C23.6109 35.96 23.6764 36.216 21.5291 35.2351C19.154 34.1506 18.3085 33.3153 17.8326 31.5811C17.0702 28.7995 18.4708 26.2964 21.1616 25.633C22.2064 25.3751 26.2059 25.3985 27.368 25.6682C30.4126 26.3755 31.8249 29.4844 30.4204 32.3851C29.7968 33.6728 29.355 34.0461 27.1178 35.1726C24.7926 36.343 24.9089 36.1701 24.7916 38.6409C24.7457 39.6082 24.7124 42.3888 24.7183 44.8205L24.7281 49.2415H23.8484Z" fill="#4993C1"/>
<path d="M13.7814 28.2858C13.7052 27.81 13.5214 27.3186 13.1422 26.5829C12.6466 25.6206 12.6027 25.4789 12.5059 24.5292C12.4492 23.9684 12.2899 23.0891 12.1521 22.5752C11.6712 20.7736 11.9879 19.0101 12.9311 18.2334C14.6171 16.846 15.9639 16.7092 17.8444 17.7341C18.596 18.1435 18.7465 18.1875 19.8324 18.3145C20.5274 18.3956 21.3171 18.5587 21.7677 18.715C22.5232 18.9769 22.5369 18.9779 23.5553 18.8508C24.3587 18.7512 24.6823 18.7492 25.041 18.8391C25.7935 19.0287 26.4347 18.9847 26.984 18.7062C27.375 18.5079 27.6946 18.4415 28.5576 18.3799C29.6015 18.3037 29.6689 18.2852 30.4547 17.8455C32.5815 16.6565 34.0164 16.7571 35.5069 18.1992C36.6045 19.2602 36.9681 21.2113 36.3689 22.8136C36.236 23.1702 36.1168 23.7945 36.064 24.4061C35.9868 25.3196 35.933 25.5111 35.4883 26.4667C35.1873 27.1154 34.9253 27.8657 34.809 28.4168C34.594 29.4309 34.2607 30.0347 33.5609 30.6795C33.168 31.042 32.0635 31.6556 31.8035 31.6556C31.742 31.6556 31.7097 31.1377 31.7175 30.2506C31.7293 28.8457 31.7293 28.8457 32.2805 28.3972C32.9969 27.813 33.0487 27.6996 33.1338 26.5253C33.1944 25.6919 33.2608 25.4095 33.5521 24.7598C33.8111 24.1824 33.9167 23.7877 33.9665 23.2044C34.0046 22.7745 34.1669 21.9861 34.3272 21.4526C34.9654 19.3403 34.2705 18.0546 32.9647 18.93C32.7448 19.0775 32.345 19.3452 32.0772 19.524C31.6921 19.7819 31.4341 19.8699 30.8408 19.9431C30.4283 19.9939 29.7627 20.1669 29.362 20.3261C28.7678 20.5616 28.4882 20.6153 27.8539 20.6153C27.3525 20.6153 26.8745 20.6808 26.5119 20.8C25.7818 21.0403 22.7998 21.0755 22.1645 20.8518C21.9465 20.7746 21.3259 20.6827 20.7834 20.6476C20.0025 20.5968 19.6702 20.5254 19.1883 20.3076C18.7983 20.1307 18.2901 19.9988 17.775 19.9412C16.9325 19.8474 16.8133 19.7878 15.572 18.846C14.3864 17.9471 13.5282 19.6188 14.2271 21.4683C14.3903 21.9021 14.5076 22.4785 14.5662 23.1419C14.6376 23.9538 14.7138 24.2752 14.9523 24.7637C15.1712 25.2131 15.2885 25.6645 15.4019 26.4862C15.5544 27.601 15.5544 27.601 16.1955 28.2184C16.8367 28.8359 16.8367 28.8359 16.8484 30.2457C16.8572 31.3146 16.8309 31.6556 16.738 31.6556C16.6706 31.6556 16.3226 31.4748 15.9639 31.255C14.5604 30.3913 13.9954 29.6224 13.7814 28.2858Z" fill="#4993C1"/>
<path d="M16.1809 26.0387C16.1369 25.5756 16.0098 25.1183 15.7841 24.6191C15.528 24.0514 15.4361 23.6909 15.3853 23.0549C15.3442 22.5449 15.1927 21.8326 14.9904 21.2015C14.4812 19.6099 14.5926 19.1478 15.356 19.6969C16.4155 20.458 16.738 20.6094 17.5277 20.7169C17.9549 20.7755 18.6302 20.9523 19.0271 21.1106C19.5783 21.3295 19.9067 21.3969 20.4179 21.3969C20.7864 21.3969 21.4559 21.4887 21.9055 21.6001C23.0823 21.8922 25.5169 21.8922 26.6282 21.6011C27.0739 21.4838 27.7073 21.3969 28.1158 21.3969C28.6759 21.3969 28.9838 21.3353 29.5575 21.1077C29.9582 20.9484 30.6082 20.7775 31.0021 20.7286C31.8847 20.6182 32.3049 20.4463 32.9784 19.9206C33.8473 19.2426 34.0858 19.7115 33.5658 21.0774C33.4074 21.4926 33.2794 22.1013 33.2198 22.7129C33.1465 23.4818 33.0448 23.8844 32.7438 24.6181C32.432 25.3782 32.3489 25.7202 32.2932 26.4764C32.2307 27.3361 32.2043 27.4221 31.9365 27.6732C31.525 28.0562 31.4439 28.022 31.0031 27.2795C29.8722 25.3772 28.3514 24.7402 24.7282 24.6523C20.5635 24.5507 18.812 25.1936 17.5678 27.2785C17.3499 27.6439 17.1348 27.9429 17.0889 27.9429C17.0439 27.9429 16.8748 27.8276 16.7145 27.6879C16.3891 27.4036 16.2747 27.0489 16.1809 26.0387Z" fill="#4993C1"/>
<path d="M23.6429 18.0139C22.5541 18.0755 22.429 18.0628 21.4135 17.7843C20.7831 17.6104 20.1009 17.4883 19.7647 17.4883C19.2808 17.4883 19.0472 17.4179 18.2702 17.0369C17.7629 16.7887 17.0631 16.5308 16.7132 16.4644C15.9342 16.3159 16.0623 16.2445 18.2116 15.6261C22.6177 14.3589 26.8556 14.4146 31.0936 15.7941L32.4981 16.2524C31.2314 16.5826 30.643 16.8307 30.2228 17.0848C29.5562 17.4873 29.476 17.5098 28.4214 17.5997C27.6073 17.669 27.1801 17.756 26.7931 17.9328C26.5048 18.0647 26.0972 18.1722 25.889 18.1722C25.6808 18.1722 25.3495 18.1224 25.153 18.0608C24.9155 17.9866 24.4112 17.9709 23.6429 18.0139Z" fill="#4993C1"/>
<g filter="url(#filter0_d_106_380)">
<path d="M34.0125 33.6424C35.255 29.5823 38.6844 25.8653 42.8491 24.064C43.6251 23.7283 43.6425 23.7394 43.9303 24.7605C45.8586 31.5962 41.85 38.4323 35.0078 39.9766C34.5927 40.0703 34.1522 40.1471 34.029 40.1471C33.805 40.1476 33.805 40.1476 33.712 39.7906C33.2804 38.1309 33.4021 35.6364 34.0125 33.6424Z" fill="#4FA3D3" fill-opacity="0.988235" shape-rendering="crispEdges"/>
</g>
<path d="M2.77419 18.6924C3.41243 16.9982 3.64602 16.5957 3.99104 16.5957C4.26569 16.5957 8.71185 20.2077 8.8741 20.5624C8.94545 20.7177 9.04417 21.4612 9.09401 22.2135C9.42535 27.2256 11.429 30.6969 16.0892 34.3324C19.5795 37.0563 19.6772 37.3123 19.7173 43.9374C19.7378 47.266 19.7134 48.9514 19.644 49.1019C19.5404 49.3256 19.5404 49.3256 18.0987 48.8449C4.95964 44.4601 -1.87234 31.0183 2.77419 18.6924Z" fill="#4993C1"/>
<g filter="url(#filter1_d_106_380)">
<path d="M5.68193 25.5742C6.04581 24.8248 6.26423 24.514 6.43332 24.5042C6.62312 24.4938 8.28272 25.5418 9.34331 26.3418C13.6164 29.5647 15.8135 34.214 15.0987 38.5196C14.9417 39.4643 14.5692 40.5735 14.3242 40.8244C14.2713 40.8792 14.1804 40.9262 14.1227 40.9295C14.065 40.9324 13.6514 40.8019 13.2041 40.6389C6.17719 38.0774 2.84836 31.4111 5.68193 25.5742Z" fill="#4FA3D3" fill-opacity="0.988235" shape-rendering="crispEdges"/>
</g>
</g>
<defs>
<filter id="filter0_d_106_380" x="29.4556" y="19.8672" width="18.9585" height="24.2803" filterUnits="userSpaceOnUse" color-interpolation-filters="sRGB">
<feFlood flood-opacity="0" result="BackgroundImageFix"/>
<feColorMatrix in="SourceAlpha" type="matrix" values="0 0 0 0 0 0 0 0 0 0 0 0 0 0 0 0 0 0 127 0" result="hardAlpha"/>
<feOffset/>
<feGaussianBlur stdDeviation="2"/>
<feComposite in2="hardAlpha" operator="out"/>
<feColorMatrix type="matrix" values="0 0 0 0 0 0 0 0 0 0 0 0 0 0 0 0 0 0 0.25 0"/>
<feBlend mode="normal" in2="BackgroundImageFix" result="effect1_dropShadow_106_380"/>
<feBlend mode="normal" in="SourceGraphic" in2="effect1_dropShadow_106_380" result="shape"/>
</filter>
<filter id="filter1_d_106_380" x="0.672363" y="20.5039" width="18.5596" height="24.4258" filterUnits="userSpaceOnUse" color-interpolation-filters="sRGB">
<feFlood flood-opacity="0" result="BackgroundImageFix"/>
<feColorMatrix in="SourceAlpha" type="matrix" values="0 0 0 0 0 0 0 0 0 0 0 0 0 0 0 0 0 0 127 0" result="hardAlpha"/>
<feOffset/>
<feGaussianBlur stdDeviation="2"/>
<feComposite in2="hardAlpha" operator="out"/>
<feColorMatrix type="matrix" values="0 0 0 0 0 0 0 0 0 0 0 0 0 0 0 0 0 0 0.25 0"/>
<feBlend mode="normal" in2="BackgroundImageFix" result="effect1_dropShadow_106_380"/>
<feBlend mode="normal" in="SourceGraphic" in2="effect1_dropShadow_106_380" result="shape"/>
</filter>
<clipPath id="clip0_106_380">
<rect width="48.5764" height="51" fill="white"/>
</clipPath>
</defs>
</svg>
