<svg width="38" height="38" viewBox="0 0 38 38" fill="none" xmlns="http://www.w3.org/2000/svg">
<path d="M19 12.667C19 12.667 19 12.667 17.7967 11.0837C16.4033 9.24699 14.345 7.91699 11.875 7.91699C7.9325 7.91699 4.75 11.0995 4.75 15.042C4.75 16.5145 5.19333 17.8762 5.95333 19.0003C7.23583 20.9162 19 33.2503 19 33.2503M19 12.667C19 12.667 19 12.667 20.2033 11.0837C21.5967 9.24699 23.655 7.91699 26.125 7.91699C30.0675 7.91699 33.25 11.0995 33.25 15.042C33.25 16.5145 32.8067 17.8762 32.0467 19.0003C30.7642 20.9162 19 33.2503 19 33.2503" stroke="white" stroke-width="2.5" stroke-linecap="round" stroke-linejoin="round"/>
</svg>
