<svg width="76" height="76" viewBox="0 0 76 76" fill="none" xmlns="http://www.w3.org/2000/svg">
<path d="M28.4997 3.16699V9.50033H47.4997V3.16699H53.833V9.50033H66.4997C67.3395 9.50033 68.145 9.83395 68.7388 10.4278C69.3327 11.0217 69.6663 11.8271 69.6663 12.667V63.3337C69.6663 64.1735 69.3327 64.979 68.7388 65.5728C68.145 66.1667 67.3395 66.5003 66.4997 66.5003H9.49967C8.65982 66.5003 7.85437 66.1667 7.2605 65.5728C6.66664 64.979 6.33301 64.1735 6.33301 63.3337V12.667C6.33301 11.8271 6.66664 11.0217 7.2605 10.4278C7.85437 9.83395 8.65982 9.50033 9.49967 9.50033H22.1663V3.16699H28.4997ZM63.333 34.8337H12.6663V60.167H63.333V34.8337ZM22.1663 15.8337H12.6663V28.5003H63.333V15.8337H53.833V22.167H47.4997V15.8337H28.4997V22.167H22.1663V15.8337Z" fill="white"/>
</svg>
