<svg width="33" height="77" viewBox="0 0 33 77" fill="none" xmlns="http://www.w3.org/2000/svg">
<path d="M3.00894 59.3238C4.07301 55.8344 4.0566 55.5441 2.72172 54.328C0.894476 52.6627 0 50.5147 0 47.7922C0 44.587 1.48259 33.2693 2.23482 30.724C2.84482 28.6615 2.84755 28.579 2.37159 27.6715C0.719411 24.5121 0.809679 22.9813 2.87491 19.0977C4.10857 16.7816 4.49426 15.6603 5.32583 11.9967C6.91236 4.99036 9.31951 1.90733 14.4265 0.330676C21.276 -1.78375 28.6506 6.65562 26.2599 13.8697C25.9425 14.8261 25.7237 16.2072 25.7374 17.1544C25.762 18.7402 25.6991 18.8838 23.7542 21.6613C21.3225 25.1385 20.4252 25.7771 18.3545 25.5052C15.8134 25.1691 16.0076 26.0704 19.1615 29.294C23.4068 33.6237 23.9156 34.5006 24.0278 37.6692C24.1235 40.3062 24.1235 40.3062 26.1969 41.7545C34.518 47.56 35.3797 60.0846 27.819 65.3462C25.5979 66.8923 25.5678 67.0084 26.0137 72.0378C26.3611 75.9794 26.3556 76.1658 25.855 76.5753C25.431 76.9205 23.3767 77 14.856 77C5.1152 77 4.3657 76.9633 4.22893 76.4653C2.27312 69.407 1.82998 63.1798 3.00894 59.3238ZM25.9179 59.7271C24.2083 58.7004 24.2083 58.7004 25.2614 58.2207C27.5838 57.1574 24.9961 55.7671 21.3361 56.1124C18.9098 56.3385 16.9732 55.1744 11.4887 50.1877C8.49616 47.4683 8.51531 47.6761 10.6489 39.8937C13.0424 31.1671 12.7962 28.4415 9.5274 27.4546C5.56928 26.2599 3.66544 30.5926 2.58495 43.2547C1.87649 51.5841 2.36339 52.3022 12.4461 57.7563C15.1541 59.2229 18.0482 60.9921 18.8743 61.6887C19.7031 62.3854 21.0243 63.2287 21.8148 63.5618C22.8105 63.9804 23.5956 64.1118 24.3779 63.9896C28.2129 63.3846 28.8913 61.5085 25.9179 59.7271ZM14.1885 25.9146C13.3898 22.5749 14.4949 21.0227 16.6942 22.4038C19.2299 23.9957 19.963 23.6321 22.5753 19.4888C23.4096 18.1689 23.4725 17.9061 23.3357 16.3997C23.2044 14.9942 23.2865 14.5542 23.8992 13.3839C24.6296 11.9936 24.8484 10.0442 24.367 9.19476C24.181 8.86477 23.839 9.15504 22.8926 10.4536C21.4428 12.4428 18.4886 14.0561 16.2975 14.0561C15.3812 14.0561 14.9873 14.1967 14.8149 14.5908C12.7853 19.1955 12.1561 20.2527 10.2277 22.2999C7.93266 24.7321 7.91352 24.8941 9.84471 25.1782C10.7583 25.3157 11.6774 25.7404 12.5856 26.4432C13.3351 27.0238 14.0326 27.5004 14.1338 27.5004C14.5004 27.5004 14.5086 27.2499 14.1885 25.9146Z" fill="#4993C1" fill-opacity="0.988235"/>
</svg>
