<svg width="52" height="109" viewBox="0 0 52 109" fill="none" xmlns="http://www.w3.org/2000/svg">
<path d="M4.74136 83.9778C6.41808 79.0382 6.39222 78.6273 4.28878 76.9058C1.40948 74.5485 0 71.5078 0 67.6539C0 63.1166 2.3362 47.0955 3.52154 43.4924C4.48274 40.5728 4.48705 40.456 3.73706 39.1714C1.13362 34.699 1.27586 32.532 4.53016 27.0345C6.47412 23.7558 7.08187 22.1684 8.39221 16.9823C10.8922 7.06427 14.6853 2.69999 22.7327 0.4681C33.5257 -2.52505 45.1464 9.42159 41.3792 19.6338C40.8792 20.9876 40.5343 22.9427 40.5559 24.2835C40.5947 26.5284 40.4956 26.7317 37.4309 30.6634C33.599 35.5857 32.1852 36.4897 28.9223 36.1047C24.918 35.6289 25.2241 36.9049 30.1939 41.4682C36.8835 47.5972 37.6852 48.8386 37.8619 53.324C38.0128 57.0568 38.0128 57.0568 41.28 59.107C54.3921 67.3252 55.7498 85.0548 43.8361 92.5031C40.3361 94.6917 40.2887 94.8561 40.9912 101.976C41.5387 107.555 41.53 107.819 40.7412 108.399C40.0731 108.888 36.8361 109 23.4094 109C8.06032 109 6.87929 108.948 6.66377 108.243C3.58188 98.2515 2.88361 89.4364 4.74136 83.9778ZM40.8404 84.5488C38.1464 83.0954 38.1464 83.0954 39.8059 82.4163C43.4654 80.9111 39.3878 78.9431 33.6206 79.4318C29.7973 79.7519 26.7456 78.104 18.1034 71.045C13.3879 67.1954 13.4181 67.4895 16.7801 56.4728C20.5517 44.1196 20.1637 40.2614 15.0129 38.8643C8.77583 37.1731 5.77584 43.3065 4.07326 61.2307C2.95689 73.0217 3.72412 74.0381 19.612 81.7589C23.8792 83.8351 28.4396 86.3394 29.7413 87.3256C31.0473 88.3118 33.1292 89.5056 34.3749 89.9771C35.9438 90.5696 37.1809 90.7556 38.4137 90.5826C44.4567 89.7262 45.5257 87.0704 40.8404 84.5488ZM22.3577 36.6843C21.0991 31.9567 22.8404 29.7594 26.3059 31.7145C30.3016 33.968 31.4568 33.4533 35.5732 27.5881C36.8878 25.7195 36.9869 25.3476 36.7714 23.2152C36.5645 21.2255 36.6938 20.6026 37.6594 18.946C38.8102 16.978 39.155 14.2184 38.3964 13.016C38.1033 12.5488 37.5645 12.9597 36.0732 14.798C33.7887 17.6138 29.1335 19.8976 25.6809 19.8976C24.237 19.8976 23.6163 20.0966 23.3447 20.6545C20.1465 27.1729 19.1551 28.6694 16.1163 31.5674C12.5 35.0104 12.4698 35.2397 15.5129 35.6419C16.9525 35.8366 18.4008 36.4378 19.8318 37.4326C21.0129 38.2544 22.112 38.9292 22.2715 38.9292C22.8491 38.9292 22.862 38.5745 22.3577 36.6843Z" fill="#053870" fill-opacity="0.988235"/>
</svg>
