<svg width="12" height="22" viewBox="0 0 12 22" fill="none" xmlns="http://www.w3.org/2000/svg">
<path d="M0 14.6455C0 12.9356 0.582623 11.064 2.69506 6.00749C5.99716 -1.90669 5.85761 -1.8941 9.03411 5.41162C11.86 11.9138 12.3606 13.9468 11.7937 16.6073C11.4012 18.4558 10.1592 20.2182 8.66604 21.0491C8.07296 21.3806 7.17635 21.7016 6.67223 21.7666C6.1681 21.8296 5.45291 21.7981 5.08136 21.6932C2.16477 20.8812 0 17.8788 0 14.6455ZM3.99461 9.88066C2.16825 14.2637 2.22582 16.194 4.2301 17.8431C4.91564 18.4075 5.22265 18.525 6.00762 18.525C6.70712 18.525 7.16065 18.3844 7.73978 17.9837C10.004 16.4206 9.94467 14.3707 7.47464 8.7078C5.83318 4.94374 6.08612 4.85771 3.99461 9.88066Z" fill="#4993C1"/>
</svg>
